<svg width="576" height="66" viewBox="0 0 576 66" fill="none" xmlns="http://www.w3.org/2000/svg">
    <path
        d="M27.2265 32.9961L33 38.7696L38.7735 32.9961L33 27.2226L27.2265 32.9961ZM217.773 32.9961L212 27.2226L206.227 32.9961L212 38.7696L217.773 32.9961ZM33 33.9961H212V31.9961H33V33.9961Z"
        fill="#FF9B90" />
    <path
        d="M206.226 32.9961L212 38.7696L217.774 32.9961L212 27.2226L206.226 32.9961ZM396.773 32.9961L391 27.2226L385.227 32.9961L391 38.7696L396.773 32.9961ZM212 33.9961H391V31.9961H212V33.9961Z"
        fill="#FF9B90" />
    <path
        d="M385.226 32.9961L391 38.7696L396.774 32.9961L391 27.2226L385.226 32.9961ZM575.773 32.9961L570 27.2226L564.227 32.9961L570 38.7696L575.773 32.9961ZM391 33.9961H570V31.9961H391V33.9961Z"
        fill="#FF9B90" />
    <path
        d="M2.01253 32.5688C2.21477 32.5137 2.43078 32.454 2.65939 32.3897C4.22488 31.9491 6.38336 31.2906 8.75571 30.419C13.4797 28.6833 19.1304 26.0748 22.5985 22.6079C26.0685 19.1392 28.6795 13.4861 30.4169 8.75983C31.2893 6.38633 31.9484 4.22672 32.3895 2.66039C32.4537 2.43219 32.5133 2.21653 32.5684 2.01458C32.6234 2.21653 32.683 2.43219 32.7473 2.66039C33.1883 4.22672 33.8474 6.38633 34.7199 8.75983C36.4572 13.4861 39.0682 19.1392 42.5382 22.6079C46.0064 26.0748 51.657 28.6833 56.381 30.419C58.7534 31.2906 60.9118 31.9491 62.4773 32.3897C62.7059 32.454 62.922 32.5137 63.1242 32.5688C62.9218 32.6241 62.7057 32.684 62.4769 32.7486C60.9114 33.1907 58.7529 33.8511 56.3805 34.7249C51.6565 36.4648 46.0059 39.0782 42.538 42.5474C39.072 46.0148 36.461 51.6629 34.7227 56.3846C33.8498 58.7558 33.19 60.9132 32.7484 62.4779C32.6837 62.7071 32.6237 62.9236 32.5684 63.1262C32.513 62.9236 32.453 62.7071 32.3883 62.4779C31.9467 60.9132 31.2869 58.7558 30.414 56.3846C28.6757 51.6629 26.0647 46.0148 22.5987 42.5474C19.1308 39.0782 13.4802 36.4648 8.7562 34.7249C6.38386 33.8511 4.22536 33.1907 2.65984 32.7486C2.43107 32.684 2.2149 32.6241 2.01253 32.5688Z"
        fill="#FF9B90" stroke="#FF9B90" />
</svg>