<svg width="66" height="66" viewBox="0 0 66 66" fill="none" xmlns="http://www.w3.org/2000/svg">
    <path
        d="M2.01253 32.5698C2.21477 32.5147 2.43078 32.455 2.65939 32.3907C4.22488 31.95 6.38336 31.2916 8.75571 30.42C13.4797 28.6843 19.1304 26.0757 22.5985 22.6089C26.0685 19.1402 28.6795 13.4871 30.4169 8.7608C31.2893 6.3873 31.9484 4.2277 32.3895 2.66137C32.4537 2.43316 32.5133 2.21751 32.5684 2.01556C32.6234 2.21751 32.683 2.43316 32.7473 2.66137C33.1883 4.2277 33.8474 6.3873 34.7199 8.7608C36.4572 13.4871 39.0682 19.1402 42.5382 22.6089C46.0064 26.0757 51.657 28.6843 56.381 30.42C58.7534 31.2916 60.9118 31.95 62.4773 32.3907C62.7059 32.455 62.922 32.5147 63.1242 32.5698C62.9218 32.6251 62.7057 32.685 62.4769 32.7496C60.9114 33.1917 58.7529 33.8521 56.3805 34.7258C51.6565 36.4658 46.0059 39.0792 42.538 42.5484C39.072 46.0158 36.461 51.6639 34.7227 56.3856C33.8498 58.7568 33.19 60.9142 32.7484 62.4789C32.6837 62.708 32.6237 62.9245 32.5684 63.1272C32.513 62.9245 32.453 62.708 32.3883 62.4789C31.9467 60.9142 31.2869 58.7568 30.414 56.3856C28.6757 51.6639 26.0647 46.0158 22.5987 42.5484C19.1308 39.0792 13.4802 36.4658 8.7562 34.7258C6.38386 33.8521 4.22536 33.1917 2.65984 32.7496C2.43107 32.685 2.2149 32.6251 2.01253 32.5698Z"
        fill="#FF9B90" stroke="#FF9B90" />
</svg>