<svg width="549" height="66" viewBox="0 0 549 66" fill="none" xmlns="http://www.w3.org/2000/svg">
    <path
        d="M0.226497 32.9961L6 38.7696L11.7735 32.9961L6 27.2226L0.226497 32.9961ZM190.773 32.9961L185 27.2226L179.227 32.9961L185 38.7696L190.773 32.9961ZM6 33.9961H185V31.9961H6V33.9961Z"
        fill="#FF9B90" />
    <path
        d="M179.226 32.9961L185 38.7696L190.774 32.9961L185 27.2226L179.226 32.9961ZM369.773 32.9961L364 27.2226L358.227 32.9961L364 38.7696L369.773 32.9961ZM185 33.9961H364V31.9961H185V33.9961Z"
        fill="#FF9B90" />
    <path
        d="M358.226 32.9961L364 38.7696L369.774 32.9961L364 27.2226L358.226 32.9961ZM548.773 32.9961L543 27.2226L537.227 32.9961L543 38.7696L548.773 32.9961ZM364 33.9961H543V31.9961H364V33.9961Z"
        fill="#FF9B90" />
    <path
        d="M154.013 32.5688C154.215 32.5137 154.431 32.454 154.659 32.3897C156.225 31.9491 158.383 31.2906 160.756 30.419C165.48 28.6833 171.13 26.0748 174.599 22.6079C178.069 19.1392 180.68 13.4861 182.417 8.75983C183.289 6.38633 183.948 4.22672 184.389 2.66039C184.454 2.43219 184.513 2.21653 184.568 2.01458C184.623 2.21653 184.683 2.43219 184.747 2.66039C185.188 4.22672 185.847 6.38633 186.72 8.75983C188.457 13.4861 191.068 19.1392 194.538 22.6079C198.006 26.0748 203.657 28.6833 208.381 30.419C210.753 31.2906 212.912 31.9491 214.477 32.3897C214.706 32.454 214.922 32.5137 215.124 32.5688C214.922 32.6241 214.706 32.684 214.477 32.7486C212.911 33.1907 210.753 33.8511 208.381 34.7249C203.656 36.4648 198.006 39.0782 194.538 42.5474C191.072 46.0148 188.461 51.6629 186.723 56.3846C185.85 58.7558 185.19 60.9132 184.748 62.4779C184.684 62.7071 184.624 62.9236 184.568 63.1262C184.513 62.9236 184.453 62.7071 184.388 62.4779C183.947 60.9132 183.287 58.7558 182.414 56.3846C180.676 51.6629 178.065 46.0148 174.599 42.5474C171.131 39.0782 165.48 36.4648 160.756 34.7249C158.384 33.8511 156.225 33.1907 154.66 32.7486C154.431 32.684 154.215 32.6241 154.013 32.5688Z"
        fill="#FF9B90" stroke="#FF9B90" />
</svg>