<svg width="549" height="66" viewBox="0 0 549 66" fill="none" xmlns="http://www.w3.org/2000/svg">
    <path
        d="M0.226497 32.9961L6 38.7696L11.7735 32.9961L6 27.2226L0.226497 32.9961ZM190.773 32.9961L185 27.2226L179.227 32.9961L185 38.7696L190.773 32.9961ZM6 33.9961H185V31.9961H6V33.9961Z"
        fill="#FF9B90" />
    <path
        d="M179.226 32.9961L185 38.7696L190.774 32.9961L185 27.2226L179.226 32.9961ZM369.773 32.9961L364 27.2226L358.227 32.9961L364 38.7696L369.773 32.9961ZM185 33.9961H364V31.9961H185V33.9961Z"
        fill="#FF9B90" />
    <path
        d="M358.226 32.9961L364 38.7696L369.774 32.9961L364 27.2226L358.226 32.9961ZM548.773 32.9961L543 27.2226L537.227 32.9961L543 38.7696L548.773 32.9961ZM364 33.9961H543V31.9961H364V33.9961Z"
        fill="#FF9B90" />
    <path
        d="M333.013 32.5688C333.215 32.5137 333.431 32.454 333.659 32.3897C335.225 31.9491 337.383 31.2906 339.756 30.419C344.48 28.6833 350.13 26.0748 353.599 22.6079C357.069 19.1392 359.68 13.4861 361.417 8.75983C362.289 6.38633 362.948 4.22672 363.389 2.66039C363.454 2.43219 363.513 2.21653 363.568 2.01458C363.623 2.21653 363.683 2.43219 363.747 2.66039C364.188 4.22672 364.847 6.38633 365.72 8.75983C367.457 13.4861 370.068 19.1392 373.538 22.6079C377.006 26.0748 382.657 28.6833 387.381 30.419C389.753 31.2906 391.912 31.9491 393.477 32.3897C393.706 32.454 393.922 32.5137 394.124 32.5688C393.922 32.6241 393.706 32.684 393.477 32.7486C391.911 33.1907 389.753 33.8511 387.381 34.7249C382.656 36.4648 377.006 39.0782 373.538 42.5474C370.072 46.0148 367.461 51.6629 365.723 56.3846C364.85 58.7558 364.19 60.9132 363.748 62.4779C363.684 62.7071 363.624 62.9236 363.568 63.1262C363.513 62.9236 363.453 62.7071 363.388 62.4779C362.947 60.9132 362.287 58.7558 361.414 56.3846C359.676 51.6629 357.065 46.0148 353.599 42.5474C350.131 39.0782 344.48 36.4648 339.756 34.7249C337.384 33.8511 335.225 33.1907 333.66 32.7486C333.431 32.684 333.215 32.6241 333.013 32.5688Z"
        fill="#FF9B90" stroke="#FF9B90" />
</svg>