<svg width="576" height="66" viewBox="0 0 576 66" fill="none" xmlns="http://www.w3.org/2000/svg">
    <path
        d="M0.226497 33.043L6 38.8165L11.7735 33.043L6 27.2695L0.226497 33.043ZM190.773 33.043L185 27.2695L179.227 33.043L185 38.8165L190.773 33.043ZM6 34.043H185V32.043H6V34.043Z"
        fill="#FF9B90" />
    <path
        d="M179.226 33.043L185 38.8165L190.774 33.043L185 27.2695L179.226 33.043ZM369.773 33.043L364 27.2695L358.227 33.043L364 38.8165L369.773 33.043ZM185 34.043H364V32.043H185V34.043Z"
        fill="#FF9B90" />
    <path
        d="M358.226 33.043L364 38.8165L369.774 33.043L364 27.2695L358.226 33.043ZM548.773 33.043L543 27.2695L537.227 33.043L543 38.8165L548.773 33.043ZM364 34.043H543V32.043H364V34.043Z"
        fill="#FF9B90" />
    <path
        d="M512.013 32.5678C512.215 32.5128 512.431 32.453 512.659 32.3887C514.225 31.9481 516.383 31.2897 518.756 30.418C523.48 28.6823 529.13 26.0738 532.599 22.6069C536.069 19.1383 538.68 13.4852 540.417 8.75885C541.289 6.38535 541.948 4.22574 542.389 2.65941C542.454 2.43121 542.513 2.21555 542.568 2.01361C542.623 2.21555 542.683 2.43121 542.747 2.65941C543.188 4.22574 543.847 6.38535 544.72 8.75885C546.457 13.4852 549.068 19.1383 552.538 22.6069C556.006 26.0738 561.657 28.6823 566.381 30.418C568.753 31.2897 570.912 31.9481 572.477 32.3887C572.706 32.453 572.922 32.5128 573.124 32.5678C572.922 32.6231 572.706 32.6831 572.477 32.7477C570.911 33.1897 568.753 33.8501 566.381 34.7239C561.656 36.4638 556.006 39.0772 552.538 42.5465C549.072 46.0139 546.461 51.6619 544.723 56.3837C543.85 58.7548 543.19 60.9122 542.748 62.4769C542.684 62.7061 542.624 62.9226 542.568 63.1253C542.513 62.9226 542.453 62.7061 542.388 62.4769C541.947 60.9122 541.287 58.7548 540.414 56.3837C538.676 51.6619 536.065 46.0139 532.599 42.5465C529.131 39.0772 523.48 36.4638 518.756 34.7239C516.384 33.8501 514.225 33.1897 512.66 32.7477C512.431 32.6831 512.215 32.6231 512.013 32.5678Z"
        fill="#FF9B90" stroke="#FF9B90" />
</svg>