<svg width="643" height="66" viewBox="0 0 643 66" fill="none" xmlns="http://www.w3.org/2000/svg">
<path d="M453.226 33L459 38.7735L464.774 33L459 27.2265L453.226 33ZM615.773 33L610 27.2265L604.227 33L610 38.7735L615.773 33ZM459 34L610 34L610 32L459 32L459 34Z" fill="#FFFFC5"/>
<path d="M151.226 33L157 38.7735L162.774 33L157 27.2265L151.226 33ZM313.773 33L308 27.2265L302.227 33L308 38.7735L313.773 33ZM157 34L308 34L308 32L157 32L157 34Z" fill="#FFFFC5"/>
<path d="M0.226497 33L6 38.7735L11.7735 33L6 27.2265L0.226497 33ZM162.773 33L157 27.2265L151.227 33L157 38.7735L162.773 33ZM6 34H157V32H6V34Z" fill="#FFFFC5"/>
<path d="M302.226 33L308 38.7735L313.774 33L308 27.2265L302.226 33ZM464.773 33L459 27.2265L453.227 33L459 38.7735L464.773 33ZM308 34H459V32H308V34Z" fill="#FFFFC5"/>
<path d="M609.568 65.1357C609.568 65.1357 606.013 49.6717 599.245 42.9009C592.473 36.1266 577.001 32.5679 577.001 32.5679C577.001 32.5679 592.473 29.0238 599.245 22.2543C606.021 15.4813 609.568 0.000112737 609.568 0.000112737C609.568 0.000112737 613.116 15.4813 619.892 22.2543C626.664 29.0238 642.136 32.5679 642.136 32.5679C642.136 32.5679 626.663 36.1266 619.892 42.9009C613.123 49.6717 609.568 65.1357 609.568 65.1357Z" fill="#FFFFC5"/>
</svg>
