<svg width="912" height="550" viewBox="0 0 912 550" fill="none" xmlns="http://www.w3.org/2000/svg">
<rect x="2.5" y="2.5" width="907" height="545" rx="37.5" fill="#CCD7FF"/>
<rect x="2.5" y="2.5" width="907" height="545" rx="37.5" stroke="black" stroke-width="5"/>
<rect x="47" y="81" width="169" height="169" fill="#4A5168"/>
<rect x="216" y="81" width="169" height="169" fill="#909ABD"/>
<path d="M458 81H627V250H458V81Z" fill="#E4EAFF"/>
<rect x="627" y="81" width="169" height="169" fill="#9F7DFF"/>
<rect x="47" y="338" width="136" height="37" rx="14" fill="#9F7DFF"/>
<path d="M95.5781 361.172C94.6562 361.172 93.8984 361.07 93.3047 360.867C92.7161 360.664 92.2578 360.385 91.9297 360.031C91.6016 359.677 91.3724 359.268 91.2422 358.805C91.1172 358.336 91.0547 357.836 91.0547 357.305V349.703H92.6328V357.469C92.6328 358.161 92.7682 358.682 93.0391 359.031C93.3151 359.38 93.6771 359.615 94.125 359.734C94.5729 359.849 95.0573 359.906 95.5781 359.906C96.1094 359.906 96.5833 359.849 97 359.734C97.4219 359.615 97.7552 359.38 98 359.031C98.2448 358.682 98.3672 358.161 98.3672 357.469V349.703H99.9453V357.305C99.9453 357.826 99.8802 358.32 99.75 358.789C99.625 359.253 99.4036 359.664 99.0859 360.023C98.7682 360.383 98.3255 360.664 97.7578 360.867C97.1901 361.07 96.4635 361.172 95.5781 361.172ZM102.461 364.188V352.719H103.617L103.789 353.344C104.008 353.146 104.323 352.966 104.734 352.805C105.151 352.643 105.596 352.562 106.07 352.562C107.128 352.562 107.914 352.82 108.43 353.336C108.951 353.852 109.211 354.508 109.211 355.305V358.312C109.211 359.146 108.924 359.831 108.352 360.367C107.784 360.904 106.961 361.172 105.883 361.172C105.419 361.172 105.026 361.122 104.703 361.023C104.385 360.93 104.128 360.833 103.93 360.734V364.188H102.461ZM105.789 360.047C106.367 360.047 106.836 359.911 107.195 359.641C107.56 359.365 107.742 358.974 107.742 358.469V355.188C107.742 354.693 107.56 354.32 107.195 354.07C106.836 353.815 106.385 353.688 105.844 353.688C105.5 353.688 105.19 353.747 104.914 353.867C104.643 353.982 104.422 354.109 104.25 354.25C104.083 354.391 103.977 354.495 103.93 354.562V359.602C104.117 359.706 104.367 359.807 104.68 359.906C104.992 360 105.362 360.047 105.789 360.047ZM111.352 358.203V349.242H112.82V358.219C112.82 358.667 112.862 359.008 112.945 359.242C113.029 359.471 113.18 359.628 113.398 359.711C113.617 359.789 113.932 359.828 114.344 359.828H114.602L114.43 361.062H114.008C113.404 361.062 112.904 360.992 112.508 360.852C112.117 360.711 111.826 360.435 111.633 360.023C111.445 359.612 111.352 359.005 111.352 358.203ZM119.391 361.172C118.562 361.172 117.896 361.06 117.391 360.836C116.891 360.607 116.526 360.294 116.297 359.898C116.073 359.503 115.961 359.049 115.961 358.539V355.203C115.961 354.693 116.073 354.24 116.297 353.844C116.526 353.443 116.891 353.13 117.391 352.906C117.896 352.677 118.562 352.562 119.391 352.562C120.214 352.562 120.875 352.677 121.375 352.906C121.88 353.13 122.247 353.443 122.477 353.844C122.706 354.24 122.82 354.693 122.82 355.203V358.539C122.82 359.049 122.706 359.503 122.477 359.898C122.247 360.294 121.88 360.607 121.375 360.836C120.875 361.06 120.214 361.172 119.391 361.172ZM119.391 360.047C119.964 360.047 120.432 359.945 120.797 359.742C121.167 359.534 121.352 359.174 121.352 358.664V355.078C121.352 354.568 121.167 354.208 120.797 354C120.432 353.792 119.964 353.688 119.391 353.688C118.807 353.688 118.333 353.792 117.969 354C117.609 354.208 117.43 354.568 117.43 355.078V358.664C117.43 359.174 117.609 359.534 117.969 359.742C118.333 359.945 118.807 360.047 119.391 360.047ZM127.109 361.172C126.5 361.172 126.003 361.068 125.617 360.859C125.237 360.646 124.956 360.367 124.773 360.023C124.596 359.674 124.508 359.302 124.508 358.906C124.508 358.49 124.589 358.141 124.75 357.859C124.917 357.573 125.227 357.315 125.68 357.086C126.138 356.852 126.807 356.607 127.688 356.352C128.146 356.216 128.513 356.096 128.789 355.992C129.065 355.888 129.266 355.755 129.391 355.594C129.516 355.432 129.578 355.201 129.578 354.898C129.578 354.674 129.542 354.471 129.469 354.289C129.401 354.107 129.258 353.961 129.039 353.852C128.826 353.742 128.497 353.688 128.055 353.688C127.503 353.688 127.099 353.745 126.844 353.859C126.589 353.974 126.424 354.125 126.352 354.312C126.284 354.495 126.25 354.698 126.25 354.922V355.289H124.836V354.914C124.836 354.096 125.109 353.5 125.656 353.125C126.203 352.75 127.018 352.562 128.102 352.562C129.195 352.562 129.958 352.818 130.391 353.328C130.828 353.839 131.047 354.521 131.047 355.375V358.906C131.047 359.344 131.102 359.625 131.211 359.75C131.326 359.875 131.56 359.938 131.914 359.938L131.742 361.062H131.445C130.893 361.062 130.495 360.956 130.25 360.742C130.005 360.523 129.82 360.219 129.695 359.828C129.576 360.016 129.409 360.214 129.195 360.422C128.987 360.63 128.714 360.807 128.375 360.953C128.042 361.099 127.62 361.172 127.109 361.172ZM127.289 360.078C127.586 360.078 127.896 360.016 128.219 359.891C128.542 359.76 128.828 359.591 129.078 359.383C129.333 359.169 129.5 358.935 129.578 358.68V356.5C129.464 356.615 129.263 356.766 128.977 356.953C128.695 357.135 128.292 357.302 127.766 357.453C127.125 357.635 126.654 357.823 126.352 358.016C126.055 358.208 125.906 358.49 125.906 358.859C125.906 359.276 126.013 359.583 126.227 359.781C126.445 359.979 126.799 360.078 127.289 360.078ZM133.289 358.383V355.258C133.289 354.424 133.565 353.768 134.117 353.289C134.669 352.805 135.547 352.562 136.75 352.562C137.01 352.562 137.318 352.591 137.672 352.648C138.026 352.706 138.331 352.781 138.586 352.875V349.242H140.055V361H139.055L138.812 360.453C138.573 360.641 138.245 360.807 137.828 360.953C137.417 361.099 136.997 361.172 136.57 361.172C135.779 361.172 135.141 361.049 134.656 360.805C134.177 360.56 133.828 360.229 133.609 359.812C133.396 359.391 133.289 358.914 133.289 358.383ZM138.586 359.523V354.031C138.367 353.927 138.094 353.844 137.766 353.781C137.443 353.719 137.109 353.688 136.766 353.688C136.188 353.688 135.708 353.794 135.328 354.008C134.948 354.221 134.758 354.583 134.758 355.094V358.492C134.758 359.008 134.94 359.391 135.305 359.641C135.674 359.891 136.128 360.016 136.664 360.016C137.081 360.016 137.464 359.958 137.812 359.844C138.161 359.729 138.419 359.622 138.586 359.523Z" fill="#CCD7FF"/>
<path d="M34.9375 292V275.055H41.0781C42.6484 275.055 43.8359 275.238 44.6406 275.605C45.4453 275.965 45.9883 276.492 46.2695 277.188C46.5586 277.883 46.7031 278.723 46.7031 279.707C46.7031 280.512 46.5156 281.215 46.1406 281.816C45.7656 282.418 45.1016 282.832 44.1484 283.059L44.1836 282.871C44.9336 282.973 45.5547 283.223 46.0469 283.621C46.5391 284.012 46.9062 284.512 47.1484 285.121C47.3984 285.73 47.5234 286.418 47.5234 287.184C47.5234 288.863 47.0508 290.086 46.1055 290.852C45.1602 291.617 43.6562 292 41.5938 292H34.9375ZM37.3047 290.254H41.418C42.293 290.254 43.0078 290.168 43.5625 289.996C44.125 289.824 44.5391 289.5 44.8047 289.023C45.0703 288.547 45.2031 287.848 45.2031 286.926C45.2031 286.41 45.1133 285.918 44.9336 285.449C44.7617 284.973 44.4453 284.586 43.9844 284.289C43.5234 283.992 42.8594 283.844 41.9922 283.844H37.3047V290.254ZM37.3047 282.238H41.6523C42.3633 282.238 42.9141 282.137 43.3047 281.934C43.6953 281.723 43.9648 281.43 44.1133 281.055C44.2695 280.68 44.3477 280.238 44.3477 279.73C44.3477 278.91 44.2422 278.293 44.0312 277.879C43.8281 277.465 43.4609 277.188 42.9297 277.047C42.4062 276.898 41.668 276.824 40.7148 276.824H37.3047V282.238ZM54.8633 292.258C53.8477 292.258 53.0234 292.09 52.3906 291.754C51.7656 291.418 51.3086 290.973 51.0195 290.418C50.7305 289.863 50.5859 289.258 50.5859 288.602V279.578H52.7891V288.613C52.7891 289.02 52.8906 289.371 53.0938 289.668C53.2969 289.957 53.5859 290.18 53.9609 290.336C54.3438 290.492 54.7891 290.57 55.2969 290.57C56.0156 290.57 56.6094 290.461 57.0781 290.242C57.5547 290.023 57.9062 289.746 58.1328 289.41C58.3672 289.066 58.4844 288.723 58.4844 288.379V279.578H60.6875V292H58.7188L58.4844 290.441C58.1719 290.996 57.7148 291.438 57.1133 291.766C56.5195 292.094 55.7695 292.258 54.8633 292.258ZM65.3789 288.449V281.242H63.3047V279.578H65.4609L65.7305 275.734H67.582V279.578H70.6992V281.242H67.582V288.309C67.582 289.129 67.8242 289.656 68.3086 289.891C68.793 290.125 69.5586 290.242 70.6055 290.242H70.8516L70.6172 292.094H70.2891C69.1562 292.094 68.2266 291.98 67.5 291.754C66.7812 291.527 66.2461 291.148 65.8945 290.617C65.5508 290.078 65.3789 289.355 65.3789 288.449ZM74.6289 288.449V281.242H72.5547V279.578H74.7109L74.9805 275.734H76.832V279.578H79.9492V281.242H76.832V288.309C76.832 289.129 77.0742 289.656 77.5586 289.891C78.043 290.125 78.8086 290.242 79.8555 290.242H80.1016L79.8672 292.094H79.5391C78.4062 292.094 77.4766 291.98 76.75 291.754C76.0312 291.527 75.4961 291.148 75.1445 290.617C74.8008 290.078 74.6289 289.355 74.6289 288.449ZM87.7461 292.258C86.5039 292.258 85.5039 292.09 84.7461 291.754C83.9961 291.41 83.4492 290.941 83.1055 290.348C82.7695 289.754 82.6016 289.074 82.6016 288.309V283.305C82.6016 282.539 82.7695 281.859 83.1055 281.266C83.4492 280.664 83.9961 280.195 84.7461 279.859C85.5039 279.516 86.5039 279.344 87.7461 279.344C88.9805 279.344 89.9727 279.516 90.7227 279.859C91.4805 280.195 92.0312 280.664 92.375 281.266C92.7188 281.859 92.8906 282.539 92.8906 283.305V288.309C92.8906 289.074 92.7188 289.754 92.375 290.348C92.0312 290.941 91.4805 291.41 90.7227 291.754C89.9727 292.09 88.9805 292.258 87.7461 292.258ZM87.7461 290.57C88.6055 290.57 89.3086 290.418 89.8555 290.113C90.4102 289.801 90.6875 289.262 90.6875 288.496V283.117C90.6875 282.352 90.4102 281.812 89.8555 281.5C89.3086 281.188 88.6055 281.031 87.7461 281.031C86.8711 281.031 86.1602 281.188 85.6133 281.5C85.0742 281.812 84.8047 282.352 84.8047 283.117V288.496C84.8047 289.262 85.0742 289.801 85.6133 290.113C86.1602 290.418 86.8711 290.57 87.7461 290.57ZM96.3047 279.578H98.5078V280.785C98.875 280.363 99.3555 280.02 99.9492 279.754C100.543 279.48 101.289 279.344 102.188 279.344C103.211 279.344 104.031 279.512 104.648 279.848C105.273 280.176 105.727 280.617 106.008 281.172C106.289 281.719 106.43 282.32 106.43 282.977V292H104.227V282.848C104.227 282.434 104.117 282.094 103.898 281.828C103.68 281.562 103.375 281.363 102.984 281.23C102.594 281.098 102.141 281.031 101.625 281.031C100.906 281.031 100.316 281.125 99.8555 281.312C99.3945 281.5 99.0547 281.754 98.8359 282.074C98.6172 282.395 98.5078 282.754 98.5078 283.152V292H96.3047V279.578ZM109.656 291.25L110.195 289.633C110.469 289.781 110.941 289.977 111.613 290.219C112.285 290.453 113.043 290.57 113.887 290.57C114.863 290.57 115.523 290.391 115.867 290.031C116.211 289.672 116.383 289.23 116.383 288.707C116.383 288.223 116.316 287.84 116.184 287.559C116.059 287.277 115.703 287.027 115.117 286.809L112.164 285.73C111.266 285.402 110.637 285.016 110.277 284.57C109.918 284.125 109.738 283.516 109.738 282.742C109.738 281.695 110.027 280.867 110.605 280.258C111.184 279.648 112.238 279.344 113.77 279.344C114.645 279.344 115.445 279.414 116.172 279.555C116.906 279.688 117.5 279.844 117.953 280.023L117.449 281.711C117.215 281.609 116.906 281.508 116.523 281.406C116.141 281.305 115.742 281.219 115.328 281.148C114.914 281.07 114.531 281.031 114.18 281.031C113.172 281.031 112.52 281.16 112.223 281.418C111.934 281.668 111.789 282.074 111.789 282.637C111.789 283.02 111.859 283.305 112 283.492C112.148 283.672 112.434 283.844 112.855 284.008L115.773 285.145C116.469 285.41 116.992 285.695 117.344 286C117.703 286.297 117.945 286.656 118.07 287.078C118.195 287.5 118.258 288.035 118.258 288.684C118.258 289.332 118.121 289.93 117.848 290.477C117.582 291.016 117.148 291.449 116.547 291.777C115.953 292.098 115.164 292.258 114.18 292.258C113.023 292.258 112.051 292.129 111.262 291.871C110.473 291.613 109.938 291.406 109.656 291.25Z" fill="black"/>
<path d="M32.3828 293.465H119.617V294.051H32.3828V293.465Z" fill="black"/>
<path d="M41.3125 57.2578C39.8984 57.2578 38.7461 57.1133 37.8555 56.8242C36.9648 56.5352 36.2773 56.1289 35.793 55.6055C35.3164 55.0742 34.9844 54.4453 34.7969 53.7188C34.6172 52.9922 34.5273 52.1875 34.5273 51.3047V45.9844C34.5273 45.0859 34.6133 44.2617 34.7852 43.5117C34.9648 42.7539 35.293 42.0977 35.7695 41.543C36.2539 40.9883 36.9375 40.5586 37.8203 40.2539C38.7109 39.9492 39.8672 39.7969 41.2891 39.7969C42.5703 39.7969 43.625 39.9141 44.4531 40.1484C45.2812 40.375 45.9258 40.7148 46.3867 41.168C46.8477 41.6211 47.168 42.1836 47.3477 42.8555C47.5352 43.5195 47.6289 44.2891 47.6289 45.1641V45.3164L45.3906 45.5156V45.1992C45.3906 44.1758 45.2578 43.4141 44.9922 42.9141C44.7344 42.4141 44.3047 42.0859 43.7031 41.9297C43.1016 41.7734 42.2969 41.6953 41.2891 41.6953C40.2969 41.6953 39.4766 41.8086 38.8281 42.0352C38.1797 42.2539 37.6953 42.6445 37.375 43.207C37.0547 43.7617 36.8945 44.543 36.8945 45.5508V51.668C36.8945 52.668 37.0586 53.4336 37.3867 53.9648C37.7148 54.4961 38.207 54.8633 38.8633 55.0664C39.5273 55.2617 40.3594 55.3594 41.3594 55.3594C42.3438 55.3594 43.1289 55.293 43.7148 55.1602C44.3086 55.0273 44.7344 54.7266 44.9922 54.2578C45.2578 53.7812 45.3906 53.0391 45.3906 52.0312V51.75H47.6289V51.8672C47.6289 52.7188 47.5469 53.4805 47.3828 54.1523C47.2266 54.8164 46.9297 55.3789 46.4922 55.8398C46.0547 56.3008 45.418 56.6523 44.582 56.8945C43.7539 57.1367 42.6641 57.2578 41.3125 57.2578ZM55.8359 57.2578C54.5938 57.2578 53.5938 57.0898 52.8359 56.7539C52.0859 56.4102 51.5391 55.9414 51.1953 55.3477C50.8594 54.7539 50.6914 54.0742 50.6914 53.3086V48.3047C50.6914 47.5391 50.8594 46.8594 51.1953 46.2656C51.5391 45.6641 52.0859 45.1953 52.8359 44.8594C53.5938 44.5156 54.5938 44.3438 55.8359 44.3438C57.0703 44.3438 58.0625 44.5156 58.8125 44.8594C59.5703 45.1953 60.1211 45.6641 60.4648 46.2656C60.8086 46.8594 60.9805 47.5391 60.9805 48.3047V53.3086C60.9805 54.0742 60.8086 54.7539 60.4648 55.3477C60.1211 55.9414 59.5703 56.4102 58.8125 56.7539C58.0625 57.0898 57.0703 57.2578 55.8359 57.2578ZM55.8359 55.5703C56.6953 55.5703 57.3984 55.418 57.9453 55.1133C58.5 54.8008 58.7773 54.2617 58.7773 53.4961V48.1172C58.7773 47.3516 58.5 46.8125 57.9453 46.5C57.3984 46.1875 56.6953 46.0312 55.8359 46.0312C54.9609 46.0312 54.25 46.1875 53.7031 46.5C53.1641 46.8125 52.8945 47.3516 52.8945 48.1172V53.4961C52.8945 54.2617 53.1641 54.8008 53.7031 55.1133C54.25 55.418 54.9609 55.5703 55.8359 55.5703ZM64.4414 52.8047V39.3633H66.6445V52.8281C66.6445 53.5 66.707 54.0117 66.832 54.3633C66.957 54.707 67.1836 54.9414 67.5117 55.0664C67.8398 55.1836 68.3125 55.2422 68.9297 55.2422H69.3164L69.0586 57.0938H68.4258C67.5195 57.0938 66.7695 56.9883 66.1758 56.7773C65.5898 56.5664 65.1523 56.1523 64.8633 55.5352C64.582 54.918 64.4414 54.0078 64.4414 52.8047ZM76.75 57.2578C75.5078 57.2578 74.5078 57.0898 73.75 56.7539C73 56.4102 72.4531 55.9414 72.1094 55.3477C71.7734 54.7539 71.6055 54.0742 71.6055 53.3086V48.3047C71.6055 47.5391 71.7734 46.8594 72.1094 46.2656C72.4531 45.6641 73 45.1953 73.75 44.8594C74.5078 44.5156 75.5078 44.3438 76.75 44.3438C77.9844 44.3438 78.9766 44.5156 79.7266 44.8594C80.4844 45.1953 81.0352 45.6641 81.3789 46.2656C81.7227 46.8594 81.8945 47.5391 81.8945 48.3047V53.3086C81.8945 54.0742 81.7227 54.7539 81.3789 55.3477C81.0352 55.9414 80.4844 56.4102 79.7266 56.7539C78.9766 57.0898 77.9844 57.2578 76.75 57.2578ZM76.75 55.5703C77.6094 55.5703 78.3125 55.418 78.8594 55.1133C79.4141 54.8008 79.6914 54.2617 79.6914 53.4961V48.1172C79.6914 47.3516 79.4141 46.8125 78.8594 46.5C78.3125 46.1875 77.6094 46.0312 76.75 46.0312C75.875 46.0312 75.1641 46.1875 74.6172 46.5C74.0781 46.8125 73.8086 47.3516 73.8086 48.1172V53.4961C73.8086 54.2617 74.0781 54.8008 74.6172 55.1133C75.1641 55.418 75.875 55.5703 76.75 55.5703ZM85.3086 44.5781H87.5117V46.3359C87.6914 45.8672 88.0156 45.4922 88.4844 45.2109C88.9609 44.9219 89.5 44.7148 90.1016 44.5898C90.7031 44.4648 91.2773 44.4023 91.8242 44.4023L91.7539 46.2891C91.2227 46.2891 90.7031 46.3438 90.1953 46.4531C89.6953 46.5625 89.2422 46.7148 88.8359 46.9102C88.4297 47.0977 88.1055 47.3125 87.8633 47.5547C87.6289 47.7969 87.5117 48.0469 87.5117 48.3047V57H85.3086V44.5781ZM93.6445 56.25L94.1836 54.6328C94.457 54.7812 94.9297 54.9766 95.6016 55.2188C96.2734 55.4531 97.0312 55.5703 97.875 55.5703C98.8516 55.5703 99.5117 55.3906 99.8555 55.0312C100.199 54.6719 100.371 54.2305 100.371 53.707C100.371 53.2227 100.305 52.8398 100.172 52.5586C100.047 52.2773 99.6914 52.0273 99.1055 51.8086L96.1523 50.7305C95.2539 50.4023 94.625 50.0156 94.2656 49.5703C93.9062 49.125 93.7266 48.5156 93.7266 47.7422C93.7266 46.6953 94.0156 45.8672 94.5938 45.2578C95.1719 44.6484 96.2266 44.3438 97.7578 44.3438C98.6328 44.3438 99.4336 44.4141 100.16 44.5547C100.895 44.6875 101.488 44.8438 101.941 45.0234L101.438 46.7109C101.203 46.6094 100.895 46.5078 100.512 46.4062C100.129 46.3047 99.7305 46.2188 99.3164 46.1484C98.9023 46.0703 98.5195 46.0312 98.168 46.0312C97.1602 46.0312 96.5078 46.1602 96.2109 46.418C95.9219 46.668 95.7773 47.0742 95.7773 47.6367C95.7773 48.0195 95.8477 48.3047 95.9883 48.4922C96.1367 48.6719 96.4219 48.8438 96.8438 49.0078L99.7617 50.1445C100.457 50.4102 100.98 50.6953 101.332 51C101.691 51.2969 101.934 51.6562 102.059 52.0781C102.184 52.5 102.246 53.0352 102.246 53.6836C102.246 54.332 102.109 54.9297 101.836 55.4766C101.57 56.0156 101.137 56.4492 100.535 56.7773C99.9414 57.0977 99.1523 57.2578 98.168 57.2578C97.0117 57.2578 96.0391 57.1289 95.25 56.8711C94.4609 56.6133 93.9258 56.4062 93.6445 56.25Z" fill="black"/>
<path d="M32.3945 58.4648H103.605V59.0508H32.3945V58.4648Z" fill="black"/>
<rect x="216" y="338" width="136" height="37" rx="14" fill="#8A7CB2"/>
<path d="M264.578 361.172C263.656 361.172 262.898 361.07 262.305 360.867C261.716 360.664 261.258 360.385 260.93 360.031C260.602 359.677 260.372 359.268 260.242 358.805C260.117 358.336 260.055 357.836 260.055 357.305V349.703H261.633V357.469C261.633 358.161 261.768 358.682 262.039 359.031C262.315 359.38 262.677 359.615 263.125 359.734C263.573 359.849 264.057 359.906 264.578 359.906C265.109 359.906 265.583 359.849 266 359.734C266.422 359.615 266.755 359.38 267 359.031C267.245 358.682 267.367 358.161 267.367 357.469V349.703H268.945V357.305C268.945 357.826 268.88 358.32 268.75 358.789C268.625 359.253 268.404 359.664 268.086 360.023C267.768 360.383 267.326 360.664 266.758 360.867C266.19 361.07 265.464 361.172 264.578 361.172ZM271.461 364.188V352.719H272.617L272.789 353.344C273.008 353.146 273.323 352.966 273.734 352.805C274.151 352.643 274.596 352.562 275.07 352.562C276.128 352.562 276.914 352.82 277.43 353.336C277.951 353.852 278.211 354.508 278.211 355.305V358.312C278.211 359.146 277.924 359.831 277.352 360.367C276.784 360.904 275.961 361.172 274.883 361.172C274.419 361.172 274.026 361.122 273.703 361.023C273.385 360.93 273.128 360.833 272.93 360.734V364.188H271.461ZM274.789 360.047C275.367 360.047 275.836 359.911 276.195 359.641C276.56 359.365 276.742 358.974 276.742 358.469V355.188C276.742 354.693 276.56 354.32 276.195 354.07C275.836 353.815 275.385 353.688 274.844 353.688C274.5 353.688 274.19 353.747 273.914 353.867C273.643 353.982 273.422 354.109 273.25 354.25C273.083 354.391 272.977 354.495 272.93 354.562V359.602C273.117 359.706 273.367 359.807 273.68 359.906C273.992 360 274.362 360.047 274.789 360.047ZM280.352 358.203V349.242H281.82V358.219C281.82 358.667 281.862 359.008 281.945 359.242C282.029 359.471 282.18 359.628 282.398 359.711C282.617 359.789 282.932 359.828 283.344 359.828H283.602L283.43 361.062H283.008C282.404 361.062 281.904 360.992 281.508 360.852C281.117 360.711 280.826 360.435 280.633 360.023C280.445 359.612 280.352 359.005 280.352 358.203ZM288.391 361.172C287.562 361.172 286.896 361.06 286.391 360.836C285.891 360.607 285.526 360.294 285.297 359.898C285.073 359.503 284.961 359.049 284.961 358.539V355.203C284.961 354.693 285.073 354.24 285.297 353.844C285.526 353.443 285.891 353.13 286.391 352.906C286.896 352.677 287.562 352.562 288.391 352.562C289.214 352.562 289.875 352.677 290.375 352.906C290.88 353.13 291.247 353.443 291.477 353.844C291.706 354.24 291.82 354.693 291.82 355.203V358.539C291.82 359.049 291.706 359.503 291.477 359.898C291.247 360.294 290.88 360.607 290.375 360.836C289.875 361.06 289.214 361.172 288.391 361.172ZM288.391 360.047C288.964 360.047 289.432 359.945 289.797 359.742C290.167 359.534 290.352 359.174 290.352 358.664V355.078C290.352 354.568 290.167 354.208 289.797 354C289.432 353.792 288.964 353.688 288.391 353.688C287.807 353.688 287.333 353.792 286.969 354C286.609 354.208 286.43 354.568 286.43 355.078V358.664C286.43 359.174 286.609 359.534 286.969 359.742C287.333 359.945 287.807 360.047 288.391 360.047ZM296.109 361.172C295.5 361.172 295.003 361.068 294.617 360.859C294.237 360.646 293.956 360.367 293.773 360.023C293.596 359.674 293.508 359.302 293.508 358.906C293.508 358.49 293.589 358.141 293.75 357.859C293.917 357.573 294.227 357.315 294.68 357.086C295.138 356.852 295.807 356.607 296.688 356.352C297.146 356.216 297.513 356.096 297.789 355.992C298.065 355.888 298.266 355.755 298.391 355.594C298.516 355.432 298.578 355.201 298.578 354.898C298.578 354.674 298.542 354.471 298.469 354.289C298.401 354.107 298.258 353.961 298.039 353.852C297.826 353.742 297.497 353.688 297.055 353.688C296.503 353.688 296.099 353.745 295.844 353.859C295.589 353.974 295.424 354.125 295.352 354.312C295.284 354.495 295.25 354.698 295.25 354.922V355.289H293.836V354.914C293.836 354.096 294.109 353.5 294.656 353.125C295.203 352.75 296.018 352.562 297.102 352.562C298.195 352.562 298.958 352.818 299.391 353.328C299.828 353.839 300.047 354.521 300.047 355.375V358.906C300.047 359.344 300.102 359.625 300.211 359.75C300.326 359.875 300.56 359.938 300.914 359.938L300.742 361.062H300.445C299.893 361.062 299.495 360.956 299.25 360.742C299.005 360.523 298.82 360.219 298.695 359.828C298.576 360.016 298.409 360.214 298.195 360.422C297.987 360.63 297.714 360.807 297.375 360.953C297.042 361.099 296.62 361.172 296.109 361.172ZM296.289 360.078C296.586 360.078 296.896 360.016 297.219 359.891C297.542 359.76 297.828 359.591 298.078 359.383C298.333 359.169 298.5 358.935 298.578 358.68V356.5C298.464 356.615 298.263 356.766 297.977 356.953C297.695 357.135 297.292 357.302 296.766 357.453C296.125 357.635 295.654 357.823 295.352 358.016C295.055 358.208 294.906 358.49 294.906 358.859C294.906 359.276 295.013 359.583 295.227 359.781C295.445 359.979 295.799 360.078 296.289 360.078ZM302.289 358.383V355.258C302.289 354.424 302.565 353.768 303.117 353.289C303.669 352.805 304.547 352.562 305.75 352.562C306.01 352.562 306.318 352.591 306.672 352.648C307.026 352.706 307.331 352.781 307.586 352.875V349.242H309.055V361H308.055L307.812 360.453C307.573 360.641 307.245 360.807 306.828 360.953C306.417 361.099 305.997 361.172 305.57 361.172C304.779 361.172 304.141 361.049 303.656 360.805C303.177 360.56 302.828 360.229 302.609 359.812C302.396 359.391 302.289 358.914 302.289 358.383ZM307.586 359.523V354.031C307.367 353.927 307.094 353.844 306.766 353.781C306.443 353.719 306.109 353.688 305.766 353.688C305.188 353.688 304.708 353.794 304.328 354.008C303.948 354.221 303.758 354.583 303.758 355.094V358.492C303.758 359.008 303.94 359.391 304.305 359.641C304.674 359.891 305.128 360.016 305.664 360.016C306.081 360.016 306.464 359.958 306.812 359.844C307.161 359.729 307.419 359.622 307.586 359.523Z" fill="#BCBCBC"/>
<path d="M222.859 329L227.07 317.703H228.453L232.672 329H231.07L230.312 326.797H225.258L224.492 329H222.859ZM225.664 325.641H229.914L227.805 319.508L225.664 325.641ZM234.328 326.203V317.242H235.797V326.219C235.797 326.667 235.839 327.008 235.922 327.242C236.005 327.471 236.156 327.628 236.375 327.711C236.594 327.789 236.909 327.828 237.32 327.828H237.578L237.406 329.062H236.984C236.38 329.062 235.88 328.992 235.484 328.852C235.094 328.711 234.802 328.435 234.609 328.023C234.422 327.612 234.328 327.005 234.328 326.203ZM239.789 326.633V321.828H238.406V320.719H239.844L240.023 318.156H241.258V320.719H243.336V321.828H241.258V326.539C241.258 327.086 241.419 327.438 241.742 327.594C242.065 327.75 242.576 327.828 243.273 327.828H243.438L243.281 329.062H243.062C241.932 329.062 241.104 328.885 240.578 328.531C240.052 328.177 239.789 327.544 239.789 326.633ZM244.938 326.078V323.195C244.938 322.414 245.206 321.781 245.742 321.297C246.279 320.807 247.141 320.562 248.328 320.562C249.464 320.562 250.299 320.786 250.836 321.234C251.372 321.677 251.641 322.292 251.641 323.078V325.047H246.406V326.211C246.406 326.883 246.539 327.357 246.805 327.633C247.076 327.909 247.602 328.047 248.383 328.047C248.846 328.047 249.211 328.031 249.477 328C249.747 327.964 249.945 327.859 250.07 327.688C250.201 327.51 250.286 327.214 250.328 326.797H251.625C251.557 327.448 251.414 327.945 251.195 328.289C250.982 328.628 250.651 328.859 250.203 328.984C249.755 329.109 249.148 329.172 248.383 329.172C247.148 329.172 246.266 328.914 245.734 328.398C245.203 327.883 244.938 327.109 244.938 326.078ZM250.219 324.055V322.922C250.219 322.422 250.044 322.091 249.695 321.93C249.352 321.768 248.896 321.688 248.328 321.688C247.745 321.688 247.279 321.789 246.93 321.992C246.581 322.195 246.406 322.552 246.406 323.062V324.055H250.219ZM253.625 320.719H255.094V321.891C255.214 321.578 255.43 321.328 255.742 321.141C256.06 320.948 256.419 320.81 256.82 320.727C257.221 320.643 257.604 320.602 257.969 320.602L257.922 321.859C257.453 321.859 257.003 321.924 256.57 322.055C256.138 322.18 255.784 322.344 255.508 322.547C255.232 322.75 255.094 322.969 255.094 323.203V329H253.625V320.719ZM259.359 320.719H260.828V321.523C261.073 321.242 261.393 321.013 261.789 320.836C262.185 320.654 262.682 320.562 263.281 320.562C263.964 320.562 264.51 320.674 264.922 320.898C265.339 321.117 265.641 321.411 265.828 321.781C266.016 322.146 266.109 322.547 266.109 322.984V329H264.641V322.898C264.641 322.487 264.479 322.182 264.156 321.984C263.833 321.786 263.417 321.688 262.906 321.688C262.188 321.688 261.661 321.823 261.328 322.094C260.995 322.365 260.828 322.701 260.828 323.102V329H259.359V320.719ZM270.617 329.172C270.008 329.172 269.51 329.068 269.125 328.859C268.745 328.646 268.464 328.367 268.281 328.023C268.104 327.674 268.016 327.302 268.016 326.906C268.016 326.49 268.096 326.141 268.258 325.859C268.424 325.573 268.734 325.315 269.188 325.086C269.646 324.852 270.315 324.607 271.195 324.352C271.654 324.216 272.021 324.096 272.297 323.992C272.573 323.888 272.773 323.755 272.898 323.594C273.023 323.432 273.086 323.201 273.086 322.898C273.086 322.674 273.049 322.471 272.977 322.289C272.909 322.107 272.766 321.961 272.547 321.852C272.333 321.742 272.005 321.688 271.562 321.688C271.01 321.688 270.607 321.745 270.352 321.859C270.096 321.974 269.932 322.125 269.859 322.312C269.792 322.495 269.758 322.698 269.758 322.922V323.289H268.344V322.914C268.344 322.096 268.617 321.5 269.164 321.125C269.711 320.75 270.526 320.562 271.609 320.562C272.703 320.562 273.466 320.818 273.898 321.328C274.336 321.839 274.555 322.521 274.555 323.375V326.906C274.555 327.344 274.609 327.625 274.719 327.75C274.833 327.875 275.068 327.938 275.422 327.938L275.25 329.062H274.953C274.401 329.062 274.003 328.956 273.758 328.742C273.513 328.523 273.328 328.219 273.203 327.828C273.083 328.016 272.917 328.214 272.703 328.422C272.495 328.63 272.221 328.807 271.883 328.953C271.549 329.099 271.128 329.172 270.617 329.172ZM270.797 328.078C271.094 328.078 271.404 328.016 271.727 327.891C272.049 327.76 272.336 327.591 272.586 327.383C272.841 327.169 273.008 326.935 273.086 326.68V324.5C272.971 324.615 272.771 324.766 272.484 324.953C272.203 325.135 271.799 325.302 271.273 325.453C270.633 325.635 270.161 325.823 269.859 326.016C269.562 326.208 269.414 326.49 269.414 326.859C269.414 327.276 269.521 327.583 269.734 327.781C269.953 327.979 270.307 328.078 270.797 328.078ZM277.648 326.633V321.828H276.266V320.719H277.703L277.883 318.156H279.117V320.719H281.195V321.828H279.117V326.539C279.117 327.086 279.279 327.438 279.602 327.594C279.924 327.75 280.435 327.828 281.133 327.828H281.297L281.141 329.062H280.922C279.792 329.062 278.964 328.885 278.438 328.531C277.911 328.177 277.648 327.544 277.648 326.633ZM283.25 320.719H284.719V329H283.25V320.719ZM283.227 317.242H284.742V318.867H283.227V317.242ZM286.297 320.719H287.773L290.266 327.438L292.484 320.719H293.922L290.992 329H289.508L286.297 320.719ZM295.078 326.078V323.195C295.078 322.414 295.346 321.781 295.883 321.297C296.419 320.807 297.281 320.562 298.469 320.562C299.604 320.562 300.44 320.786 300.977 321.234C301.513 321.677 301.781 322.292 301.781 323.078V325.047H296.547V326.211C296.547 326.883 296.68 327.357 296.945 327.633C297.216 327.909 297.742 328.047 298.523 328.047C298.987 328.047 299.352 328.031 299.617 328C299.888 327.964 300.086 327.859 300.211 327.688C300.341 327.51 300.427 327.214 300.469 326.797H301.766C301.698 327.448 301.555 327.945 301.336 328.289C301.122 328.628 300.792 328.859 300.344 328.984C299.896 329.109 299.289 329.172 298.523 329.172C297.289 329.172 296.406 328.914 295.875 328.398C295.344 327.883 295.078 327.109 295.078 326.078ZM300.359 324.055V322.922C300.359 322.422 300.185 322.091 299.836 321.93C299.492 321.768 299.036 321.688 298.469 321.688C297.885 321.688 297.419 321.789 297.07 321.992C296.721 322.195 296.547 322.552 296.547 323.062V324.055H300.359Z" fill="black"/>
<path d="M48.7266 327V315.703H53.7656C54.401 315.703 54.9531 315.807 55.4219 316.016C55.8958 316.219 56.263 316.565 56.5234 317.055C56.7891 317.539 56.9219 318.203 56.9219 319.047C56.9219 319.958 56.7734 320.635 56.4766 321.078C56.1849 321.516 55.8021 321.833 55.3281 322.031L57.7266 327H56.1094L53.8672 322.312H50.3047V327H48.7266ZM50.3047 321.125H53.6328C54.0911 321.125 54.4427 321.039 54.6875 320.867C54.9323 320.695 55.1016 320.464 55.1953 320.172C55.2943 319.875 55.3438 319.547 55.3438 319.188C55.3438 318.823 55.3125 318.466 55.25 318.117C55.1927 317.768 55.0573 317.479 54.8438 317.25C54.6302 317.016 54.2865 316.898 53.8125 316.898H50.3047V321.125ZM59.1172 324.078V321.195C59.1172 320.414 59.3854 319.781 59.9219 319.297C60.4583 318.807 61.3203 318.562 62.5078 318.562C63.6432 318.562 64.4792 318.786 65.0156 319.234C65.5521 319.677 65.8203 320.292 65.8203 321.078V323.047H60.5859V324.211C60.5859 324.883 60.7188 325.357 60.9844 325.633C61.2552 325.909 61.7812 326.047 62.5625 326.047C63.026 326.047 63.3906 326.031 63.6562 326C63.9271 325.964 64.125 325.859 64.25 325.688C64.3802 325.51 64.4661 325.214 64.5078 324.797H65.8047C65.737 325.448 65.5938 325.945 65.375 326.289C65.1615 326.628 64.8307 326.859 64.3828 326.984C63.9349 327.109 63.3281 327.172 62.5625 327.172C61.3281 327.172 60.4453 326.914 59.9141 326.398C59.3828 325.883 59.1172 325.109 59.1172 324.078ZM64.3984 322.055V320.922C64.3984 320.422 64.224 320.091 63.875 319.93C63.5312 319.768 63.0755 319.688 62.5078 319.688C61.9245 319.688 61.4583 319.789 61.1094 319.992C60.7604 320.195 60.5859 320.552 60.5859 321.062V322.055H64.3984ZM70.8281 330.188C70.2708 330.188 69.7917 330.164 69.3906 330.117C68.9896 330.07 68.6354 329.99 68.3281 329.875L68.6562 328.773C68.8802 328.857 69.1901 328.927 69.5859 328.984C69.9818 329.042 70.3724 329.07 70.7578 329.07C71.4714 329.07 71.9844 328.919 72.2969 328.617C72.6146 328.315 72.7734 327.857 72.7734 327.242V326.094C72.6172 326.24 72.4062 326.357 72.1406 326.445C71.8802 326.529 71.6146 326.591 71.3438 326.633C71.0729 326.669 70.8411 326.688 70.6484 326.688C69.5911 326.688 68.8021 326.461 68.2812 326.008C67.7656 325.555 67.5078 324.898 67.5078 324.039V321.312C67.5078 320.479 67.7604 319.812 68.2656 319.312C68.776 318.812 69.5703 318.562 70.6484 318.562C70.9297 318.562 71.2188 318.604 71.5156 318.688C71.8177 318.771 72.0833 318.875 72.3125 319C72.5417 319.125 72.6953 319.253 72.7734 319.383V318.719H74.2422V326.805C74.2422 327.451 74.1354 328.029 73.9219 328.539C73.7135 329.049 73.3594 329.451 72.8594 329.742C72.3646 330.039 71.6875 330.188 70.8281 330.188ZM70.875 325.562C71.4219 325.562 71.8464 325.482 72.1484 325.32C72.4505 325.159 72.6589 325.031 72.7734 324.938V320.828C72.7734 320.469 72.6172 320.19 72.3047 319.992C71.9974 319.789 71.5182 319.688 70.8672 319.688C70.2891 319.688 69.8281 319.805 69.4844 320.039C69.1458 320.273 68.9766 320.646 68.9766 321.156V324.266C68.9766 324.76 69.1589 325.102 69.5234 325.289C69.888 325.471 70.3385 325.562 70.875 325.562ZM79.3125 327.172C78.6354 327.172 78.0859 327.06 77.6641 326.836C77.2474 326.612 76.9427 326.315 76.75 325.945C76.5573 325.576 76.4609 325.172 76.4609 324.734V318.719H77.9297V324.742C77.9297 325.154 78.0807 325.474 78.3828 325.703C78.6849 325.932 79.0911 326.047 79.6016 326.047C80.3203 326.047 80.8542 325.891 81.2031 325.578C81.5521 325.266 81.7266 324.935 81.7266 324.586V318.719H83.1953V327H81.8828L81.7266 325.961C81.5182 326.331 81.2135 326.625 80.8125 326.844C80.4167 327.062 79.9167 327.172 79.3125 327.172ZM85.6328 324.203V315.242H87.1016V324.219C87.1016 324.667 87.1432 325.008 87.2266 325.242C87.3099 325.471 87.4609 325.628 87.6797 325.711C87.8984 325.789 88.2135 325.828 88.625 325.828H88.8828L88.7109 327.062H88.2891C87.6849 327.062 87.1849 326.992 86.7891 326.852C86.3984 326.711 86.1068 326.435 85.9141 326.023C85.7266 325.612 85.6328 325.005 85.6328 324.203ZM92.7188 327.172C92.1094 327.172 91.612 327.068 91.2266 326.859C90.8464 326.646 90.5651 326.367 90.3828 326.023C90.2057 325.674 90.1172 325.302 90.1172 324.906C90.1172 324.49 90.1979 324.141 90.3594 323.859C90.526 323.573 90.8359 323.315 91.2891 323.086C91.7474 322.852 92.4167 322.607 93.2969 322.352C93.7552 322.216 94.1224 322.096 94.3984 321.992C94.6745 321.888 94.875 321.755 95 321.594C95.125 321.432 95.1875 321.201 95.1875 320.898C95.1875 320.674 95.151 320.471 95.0781 320.289C95.0104 320.107 94.8672 319.961 94.6484 319.852C94.4349 319.742 94.1068 319.688 93.6641 319.688C93.112 319.688 92.7083 319.745 92.4531 319.859C92.1979 319.974 92.0339 320.125 91.9609 320.312C91.8932 320.495 91.8594 320.698 91.8594 320.922V321.289H90.4453V320.914C90.4453 320.096 90.7188 319.5 91.2656 319.125C91.8125 318.75 92.6276 318.562 93.7109 318.562C94.8047 318.562 95.5677 318.818 96 319.328C96.4375 319.839 96.6562 320.521 96.6562 321.375V324.906C96.6562 325.344 96.7109 325.625 96.8203 325.75C96.9349 325.875 97.1693 325.938 97.5234 325.938L97.3516 327.062H97.0547C96.5026 327.062 96.1042 326.956 95.8594 326.742C95.6146 326.523 95.4297 326.219 95.3047 325.828C95.1849 326.016 95.0182 326.214 94.8047 326.422C94.5964 326.63 94.3229 326.807 93.9844 326.953C93.651 327.099 93.2292 327.172 92.7188 327.172ZM92.8984 326.078C93.1953 326.078 93.5052 326.016 93.8281 325.891C94.151 325.76 94.4375 325.591 94.6875 325.383C94.9427 325.169 95.1094 324.935 95.1875 324.68V322.5C95.0729 322.615 94.8724 322.766 94.5859 322.953C94.3047 323.135 93.901 323.302 93.375 323.453C92.7344 323.635 92.263 323.823 91.9609 324.016C91.6641 324.208 91.5156 324.49 91.5156 324.859C91.5156 325.276 91.6224 325.583 91.8359 325.781C92.0547 325.979 92.4089 326.078 92.8984 326.078ZM99.1953 318.719H100.664V319.891C100.784 319.578 101 319.328 101.312 319.141C101.63 318.948 101.99 318.81 102.391 318.727C102.792 318.643 103.174 318.602 103.539 318.602L103.492 319.859C103.023 319.859 102.573 319.924 102.141 320.055C101.708 320.18 101.354 320.344 101.078 320.547C100.802 320.75 100.664 320.969 100.664 321.203V327H99.1953V318.719Z" fill="black"/>
<path d="M47 404C47 396.268 53.268 390 61 390H169C176.732 390 183 396.268 183 404V413C183 420.732 176.732 427 169 427H61C53.268 427 47 420.732 47 413V404Z" fill="#CCD7FF"/>
<path d="M84.125 414.172C83.1823 414.172 82.4141 414.076 81.8203 413.883C81.2266 413.69 80.7682 413.419 80.4453 413.07C80.1276 412.716 79.9062 412.297 79.7812 411.812C79.6615 411.328 79.6016 410.792 79.6016 410.203V406.656C79.6016 406.057 79.6589 405.508 79.7734 405.008C79.8932 404.503 80.112 404.065 80.4297 403.695C80.7526 403.326 81.2083 403.039 81.7969 402.836C82.3906 402.633 83.1615 402.531 84.1094 402.531C85.25 402.531 86.125 402.669 86.7344 402.945C87.3438 403.216 87.763 403.617 87.9922 404.148C88.2214 404.68 88.3359 405.333 88.3359 406.109V406.211L86.8438 406.344V406.133C86.8438 405.451 86.7552 404.943 86.5781 404.609C86.4062 404.276 86.1198 404.057 85.7188 403.953C85.3177 403.849 84.7812 403.797 84.1094 403.797C83.4479 403.797 82.901 403.872 82.4688 404.023C82.0365 404.169 81.7135 404.43 81.5 404.805C81.2865 405.174 81.1797 405.695 81.1797 406.367V410.445C81.1797 411.112 81.2891 411.622 81.5078 411.977C81.7266 412.331 82.0547 412.576 82.4922 412.711C82.9349 412.841 83.4896 412.906 84.1562 412.906C84.8125 412.906 85.3359 412.862 85.7266 412.773C86.1224 412.685 86.4062 412.484 86.5781 412.172C86.7552 411.854 86.8438 411.359 86.8438 410.688V410.5H88.3359V410.578C88.3359 411.146 88.2812 411.654 88.1719 412.102C88.0677 412.544 87.8698 412.919 87.5781 413.227C87.2865 413.534 86.862 413.768 86.3047 413.93C85.7526 414.091 85.026 414.172 84.125 414.172ZM90.5391 411.203V402.242H92.0078V411.219C92.0078 411.667 92.0495 412.008 92.1328 412.242C92.2161 412.471 92.3672 412.628 92.5859 412.711C92.8047 412.789 93.1198 412.828 93.5312 412.828H93.7891L93.6172 414.062H93.1953C92.5911 414.062 92.0911 413.992 91.6953 413.852C91.3047 413.711 91.013 413.435 90.8203 413.023C90.6328 412.612 90.5391 412.005 90.5391 411.203ZM95.1484 411.078V408.195C95.1484 407.414 95.4167 406.781 95.9531 406.297C96.4896 405.807 97.3516 405.562 98.5391 405.562C99.6745 405.562 100.51 405.786 101.047 406.234C101.583 406.677 101.852 407.292 101.852 408.078V410.047H96.6172V411.211C96.6172 411.883 96.75 412.357 97.0156 412.633C97.2865 412.909 97.8125 413.047 98.5938 413.047C99.0573 413.047 99.4219 413.031 99.6875 413C99.9583 412.964 100.156 412.859 100.281 412.688C100.411 412.51 100.497 412.214 100.539 411.797H101.836C101.768 412.448 101.625 412.945 101.406 413.289C101.193 413.628 100.862 413.859 100.414 413.984C99.9661 414.109 99.3594 414.172 98.5938 414.172C97.3594 414.172 96.4766 413.914 95.9453 413.398C95.4141 412.883 95.1484 412.109 95.1484 411.078ZM100.43 409.055V407.922C100.43 407.422 100.255 407.091 99.9062 406.93C99.5625 406.768 99.1068 406.688 98.5391 406.688C97.9557 406.688 97.4896 406.789 97.1406 406.992C96.7917 407.195 96.6172 407.552 96.6172 408.062V409.055H100.43ZM106.016 414.172C105.406 414.172 104.909 414.068 104.523 413.859C104.143 413.646 103.862 413.367 103.68 413.023C103.503 412.674 103.414 412.302 103.414 411.906C103.414 411.49 103.495 411.141 103.656 410.859C103.823 410.573 104.133 410.315 104.586 410.086C105.044 409.852 105.714 409.607 106.594 409.352C107.052 409.216 107.419 409.096 107.695 408.992C107.971 408.888 108.172 408.755 108.297 408.594C108.422 408.432 108.484 408.201 108.484 407.898C108.484 407.674 108.448 407.471 108.375 407.289C108.307 407.107 108.164 406.961 107.945 406.852C107.732 406.742 107.404 406.688 106.961 406.688C106.409 406.688 106.005 406.745 105.75 406.859C105.495 406.974 105.331 407.125 105.258 407.312C105.19 407.495 105.156 407.698 105.156 407.922V408.289H103.742V407.914C103.742 407.096 104.016 406.5 104.562 406.125C105.109 405.75 105.924 405.562 107.008 405.562C108.102 405.562 108.865 405.818 109.297 406.328C109.734 406.839 109.953 407.521 109.953 408.375V411.906C109.953 412.344 110.008 412.625 110.117 412.75C110.232 412.875 110.466 412.938 110.82 412.938L110.648 414.062H110.352C109.799 414.062 109.401 413.956 109.156 413.742C108.911 413.523 108.727 413.219 108.602 412.828C108.482 413.016 108.315 413.214 108.102 413.422C107.893 413.63 107.62 413.807 107.281 413.953C106.948 414.099 106.526 414.172 106.016 414.172ZM106.195 413.078C106.492 413.078 106.802 413.016 107.125 412.891C107.448 412.76 107.734 412.591 107.984 412.383C108.24 412.169 108.406 411.935 108.484 411.68V409.5C108.37 409.615 108.169 409.766 107.883 409.953C107.602 410.135 107.198 410.302 106.672 410.453C106.031 410.635 105.56 410.823 105.258 411.016C104.961 411.208 104.812 411.49 104.812 411.859C104.812 412.276 104.919 412.583 105.133 412.781C105.352 412.979 105.706 413.078 106.195 413.078ZM112.492 405.719H113.961V406.891C114.081 406.578 114.297 406.328 114.609 406.141C114.927 405.948 115.286 405.81 115.688 405.727C116.089 405.643 116.471 405.602 116.836 405.602L116.789 406.859C116.32 406.859 115.87 406.924 115.438 407.055C115.005 407.18 114.651 407.344 114.375 407.547C114.099 407.75 113.961 407.969 113.961 408.203V414H112.492V405.719ZM121.977 402.703H128.391V403.875H123.547V407.641H128.109V408.812H123.547V414H121.977V402.703ZM130.445 405.719H131.914V414H130.445V405.719ZM130.422 402.242H131.938V403.867H130.422V402.242ZM134.477 411.203V402.242H135.945V411.219C135.945 411.667 135.987 412.008 136.07 412.242C136.154 412.471 136.305 412.628 136.523 412.711C136.742 412.789 137.057 412.828 137.469 412.828H137.727L137.555 414.062H137.133C136.529 414.062 136.029 413.992 135.633 413.852C135.242 413.711 134.951 413.435 134.758 413.023C134.57 412.612 134.477 412.005 134.477 411.203ZM139.086 411.078V408.195C139.086 407.414 139.354 406.781 139.891 406.297C140.427 405.807 141.289 405.562 142.477 405.562C143.612 405.562 144.448 405.786 144.984 406.234C145.521 406.677 145.789 407.292 145.789 408.078V410.047H140.555V411.211C140.555 411.883 140.688 412.357 140.953 412.633C141.224 412.909 141.75 413.047 142.531 413.047C142.995 413.047 143.359 413.031 143.625 413C143.896 412.964 144.094 412.859 144.219 412.688C144.349 412.51 144.435 412.214 144.477 411.797H145.773C145.706 412.448 145.562 412.945 145.344 413.289C145.13 413.628 144.799 413.859 144.352 413.984C143.904 414.109 143.297 414.172 142.531 414.172C141.297 414.172 140.414 413.914 139.883 413.398C139.352 412.883 139.086 412.109 139.086 411.078ZM144.367 409.055V407.922C144.367 407.422 144.193 407.091 143.844 406.93C143.5 406.768 143.044 406.688 142.477 406.688C141.893 406.688 141.427 406.789 141.078 406.992C140.729 407.195 140.555 407.552 140.555 408.062V409.055H144.367Z" fill="black"/>
<path d="M216 404C216 396.268 222.268 390 230 390H338C345.732 390 352 396.268 352 404V413C352 420.732 345.732 427 338 427H230C222.268 427 216 420.732 216 413V404Z" fill="#AAB3D3"/>
<path d="M253.125 414.172C252.182 414.172 251.414 414.076 250.82 413.883C250.227 413.69 249.768 413.419 249.445 413.07C249.128 412.716 248.906 412.297 248.781 411.812C248.661 411.328 248.602 410.792 248.602 410.203V406.656C248.602 406.057 248.659 405.508 248.773 405.008C248.893 404.503 249.112 404.065 249.43 403.695C249.753 403.326 250.208 403.039 250.797 402.836C251.391 402.633 252.161 402.531 253.109 402.531C254.25 402.531 255.125 402.669 255.734 402.945C256.344 403.216 256.763 403.617 256.992 404.148C257.221 404.68 257.336 405.333 257.336 406.109V406.211L255.844 406.344V406.133C255.844 405.451 255.755 404.943 255.578 404.609C255.406 404.276 255.12 404.057 254.719 403.953C254.318 403.849 253.781 403.797 253.109 403.797C252.448 403.797 251.901 403.872 251.469 404.023C251.036 404.169 250.714 404.43 250.5 404.805C250.286 405.174 250.18 405.695 250.18 406.367V410.445C250.18 411.112 250.289 411.622 250.508 411.977C250.727 412.331 251.055 412.576 251.492 412.711C251.935 412.841 252.49 412.906 253.156 412.906C253.812 412.906 254.336 412.862 254.727 412.773C255.122 412.685 255.406 412.484 255.578 412.172C255.755 411.854 255.844 411.359 255.844 410.688V410.5H257.336V410.578C257.336 411.146 257.281 411.654 257.172 412.102C257.068 412.544 256.87 412.919 256.578 413.227C256.286 413.534 255.862 413.768 255.305 413.93C254.753 414.091 254.026 414.172 253.125 414.172ZM259.539 411.203V402.242H261.008V411.219C261.008 411.667 261.049 412.008 261.133 412.242C261.216 412.471 261.367 412.628 261.586 412.711C261.805 412.789 262.12 412.828 262.531 412.828H262.789L262.617 414.062H262.195C261.591 414.062 261.091 413.992 260.695 413.852C260.305 413.711 260.013 413.435 259.82 413.023C259.633 412.612 259.539 412.005 259.539 411.203ZM264.148 411.078V408.195C264.148 407.414 264.417 406.781 264.953 406.297C265.49 405.807 266.352 405.562 267.539 405.562C268.674 405.562 269.51 405.786 270.047 406.234C270.583 406.677 270.852 407.292 270.852 408.078V410.047H265.617V411.211C265.617 411.883 265.75 412.357 266.016 412.633C266.286 412.909 266.812 413.047 267.594 413.047C268.057 413.047 268.422 413.031 268.688 413C268.958 412.964 269.156 412.859 269.281 412.688C269.411 412.51 269.497 412.214 269.539 411.797H270.836C270.768 412.448 270.625 412.945 270.406 413.289C270.193 413.628 269.862 413.859 269.414 413.984C268.966 414.109 268.359 414.172 267.594 414.172C266.359 414.172 265.477 413.914 264.945 413.398C264.414 412.883 264.148 412.109 264.148 411.078ZM269.43 409.055V407.922C269.43 407.422 269.255 407.091 268.906 406.93C268.562 406.768 268.107 406.688 267.539 406.688C266.956 406.688 266.49 406.789 266.141 406.992C265.792 407.195 265.617 407.552 265.617 408.062V409.055H269.43ZM275.016 414.172C274.406 414.172 273.909 414.068 273.523 413.859C273.143 413.646 272.862 413.367 272.68 413.023C272.503 412.674 272.414 412.302 272.414 411.906C272.414 411.49 272.495 411.141 272.656 410.859C272.823 410.573 273.133 410.315 273.586 410.086C274.044 409.852 274.714 409.607 275.594 409.352C276.052 409.216 276.419 409.096 276.695 408.992C276.971 408.888 277.172 408.755 277.297 408.594C277.422 408.432 277.484 408.201 277.484 407.898C277.484 407.674 277.448 407.471 277.375 407.289C277.307 407.107 277.164 406.961 276.945 406.852C276.732 406.742 276.404 406.688 275.961 406.688C275.409 406.688 275.005 406.745 274.75 406.859C274.495 406.974 274.331 407.125 274.258 407.312C274.19 407.495 274.156 407.698 274.156 407.922V408.289H272.742V407.914C272.742 407.096 273.016 406.5 273.562 406.125C274.109 405.75 274.924 405.562 276.008 405.562C277.102 405.562 277.865 405.818 278.297 406.328C278.734 406.839 278.953 407.521 278.953 408.375V411.906C278.953 412.344 279.008 412.625 279.117 412.75C279.232 412.875 279.466 412.938 279.82 412.938L279.648 414.062H279.352C278.799 414.062 278.401 413.956 278.156 413.742C277.911 413.523 277.727 413.219 277.602 412.828C277.482 413.016 277.315 413.214 277.102 413.422C276.893 413.63 276.62 413.807 276.281 413.953C275.948 414.099 275.526 414.172 275.016 414.172ZM275.195 413.078C275.492 413.078 275.802 413.016 276.125 412.891C276.448 412.76 276.734 412.591 276.984 412.383C277.24 412.169 277.406 411.935 277.484 411.68V409.5C277.37 409.615 277.169 409.766 276.883 409.953C276.602 410.135 276.198 410.302 275.672 410.453C275.031 410.635 274.56 410.823 274.258 411.016C273.961 411.208 273.812 411.49 273.812 411.859C273.812 412.276 273.919 412.583 274.133 412.781C274.352 412.979 274.706 413.078 275.195 413.078ZM281.492 405.719H282.961V406.891C283.081 406.578 283.297 406.328 283.609 406.141C283.927 405.948 284.286 405.81 284.688 405.727C285.089 405.643 285.471 405.602 285.836 405.602L285.789 406.859C285.32 406.859 284.87 406.924 284.438 407.055C284.005 407.18 283.651 407.344 283.375 407.547C283.099 407.75 282.961 407.969 282.961 408.203V414H281.492V405.719ZM290.977 402.703H297.391V403.875H292.547V407.641H297.109V408.812H292.547V414H290.977V402.703ZM299.445 405.719H300.914V414H299.445V405.719ZM299.422 402.242H300.938V403.867H299.422V402.242ZM303.477 411.203V402.242H304.945V411.219C304.945 411.667 304.987 412.008 305.07 412.242C305.154 412.471 305.305 412.628 305.523 412.711C305.742 412.789 306.057 412.828 306.469 412.828H306.727L306.555 414.062H306.133C305.529 414.062 305.029 413.992 304.633 413.852C304.242 413.711 303.951 413.435 303.758 413.023C303.57 412.612 303.477 412.005 303.477 411.203ZM308.086 411.078V408.195C308.086 407.414 308.354 406.781 308.891 406.297C309.427 405.807 310.289 405.562 311.477 405.562C312.612 405.562 313.448 405.786 313.984 406.234C314.521 406.677 314.789 407.292 314.789 408.078V410.047H309.555V411.211C309.555 411.883 309.688 412.357 309.953 412.633C310.224 412.909 310.75 413.047 311.531 413.047C311.995 413.047 312.359 413.031 312.625 413C312.896 412.964 313.094 412.859 313.219 412.688C313.349 412.51 313.435 412.214 313.477 411.797H314.773C314.706 412.448 314.562 412.945 314.344 413.289C314.13 413.628 313.799 413.859 313.352 413.984C312.904 414.109 312.297 414.172 311.531 414.172C310.297 414.172 309.414 413.914 308.883 413.398C308.352 412.883 308.086 412.109 308.086 411.078ZM313.367 409.055V407.922C313.367 407.422 313.193 407.091 312.844 406.93C312.5 406.768 312.044 406.688 311.477 406.688C310.893 406.688 310.427 406.789 310.078 406.992C309.729 407.195 309.555 407.552 309.555 408.062V409.055H313.367Z" fill="#7D7D7D"/>
<path d="M34.5703 465.055H44.1914V466.812H36.9258V472.461H43.7695V474.219H36.9258V482H34.5703V465.055ZM51.9883 482.258C50.7461 482.258 49.7461 482.09 48.9883 481.754C48.2383 481.41 47.6914 480.941 47.3477 480.348C47.0117 479.754 46.8438 479.074 46.8438 478.309V473.305C46.8438 472.539 47.0117 471.859 47.3477 471.266C47.6914 470.664 48.2383 470.195 48.9883 469.859C49.7461 469.516 50.7461 469.344 51.9883 469.344C53.2227 469.344 54.2148 469.516 54.9648 469.859C55.7227 470.195 56.2734 470.664 56.6172 471.266C56.9609 471.859 57.1328 472.539 57.1328 473.305V478.309C57.1328 479.074 56.9609 479.754 56.6172 480.348C56.2734 480.941 55.7227 481.41 54.9648 481.754C54.2148 482.09 53.2227 482.258 51.9883 482.258ZM51.9883 480.57C52.8477 480.57 53.5508 480.418 54.0977 480.113C54.6523 479.801 54.9297 479.262 54.9297 478.496V473.117C54.9297 472.352 54.6523 471.812 54.0977 471.5C53.5508 471.188 52.8477 471.031 51.9883 471.031C51.1133 471.031 50.4023 471.188 49.8555 471.5C49.3164 471.812 49.0469 472.352 49.0469 473.117V478.496C49.0469 479.262 49.3164 479.801 49.8555 480.113C50.4023 480.418 51.1133 480.57 51.9883 480.57ZM60.5469 469.578H62.75V470.785C63.1172 470.363 63.5977 470.02 64.1914 469.754C64.7852 469.48 65.5312 469.344 66.4297 469.344C67.4531 469.344 68.2734 469.512 68.8906 469.848C69.5156 470.176 69.9688 470.617 70.25 471.172C70.5312 471.719 70.6719 472.32 70.6719 472.977V482H68.4688V472.848C68.4688 472.434 68.3594 472.094 68.1406 471.828C67.9219 471.562 67.6172 471.363 67.2266 471.23C66.8359 471.098 66.3828 471.031 65.8672 471.031C65.1484 471.031 64.5586 471.125 64.0977 471.312C63.6367 471.5 63.2969 471.754 63.0781 472.074C62.8594 472.395 62.75 472.754 62.75 473.152V482H60.5469V469.578ZM75.2461 478.449V471.242H73.1719V469.578H75.3281L75.5977 465.734H77.4492V469.578H80.5664V471.242H77.4492V478.309C77.4492 479.129 77.6914 479.656 78.1758 479.891C78.6602 480.125 79.4258 480.242 80.4727 480.242H80.7188L80.4844 482.094H80.1562C79.0234 482.094 78.0938 481.98 77.3672 481.754C76.6484 481.527 76.1133 481.148 75.7617 480.617C75.418 480.078 75.2461 479.355 75.2461 478.449Z" fill="black"/>
<path d="M32.0156 483.465H81.9844V484.051H32.0156V483.465Z" fill="black"/>
<rect x="385" y="81" width="73" height="169" fill="#AAB3D3"/>
<rect x="385" y="81" width="73" height="169" fill="#AAB3D3"/>
<rect x="796" y="81" width="73" height="169" fill="#AAB3D3"/>
<rect x="796" y="81" width="73" height="169" fill="#8A7CB2"/>
<path d="M33.7656 508V496.703H35.2109L39.2734 503.312H38.8359L42.8594 496.703H44.25V508H42.7656V498.891L42.9453 498.945L39.6016 504.422H38.4375L35.0938 498.977L35.2656 498.922V508H33.7656ZM50.0391 508.172C49.2109 508.172 48.5443 508.06 48.0391 507.836C47.5391 507.607 47.1745 507.294 46.9453 506.898C46.7214 506.503 46.6094 506.049 46.6094 505.539V502.203C46.6094 501.693 46.7214 501.24 46.9453 500.844C47.1745 500.443 47.5391 500.13 48.0391 499.906C48.5443 499.677 49.2109 499.562 50.0391 499.562C50.862 499.562 51.5234 499.677 52.0234 499.906C52.5286 500.13 52.8958 500.443 53.125 500.844C53.3542 501.24 53.4688 501.693 53.4688 502.203V505.539C53.4688 506.049 53.3542 506.503 53.125 506.898C52.8958 507.294 52.5286 507.607 52.0234 507.836C51.5234 508.06 50.862 508.172 50.0391 508.172ZM50.0391 507.047C50.612 507.047 51.0807 506.945 51.4453 506.742C51.8151 506.534 52 506.174 52 505.664V502.078C52 501.568 51.8151 501.208 51.4453 501C51.0807 500.792 50.612 500.688 50.0391 500.688C49.4557 500.688 48.9818 500.792 48.6172 501C48.2578 501.208 48.0781 501.568 48.0781 502.078V505.664C48.0781 506.174 48.2578 506.534 48.6172 506.742C48.9818 506.945 49.4557 507.047 50.0391 507.047ZM55.5781 499.719H57.0469V500.523C57.2917 500.242 57.612 500.013 58.0078 499.836C58.4036 499.654 58.901 499.562 59.5 499.562C60.1823 499.562 60.7292 499.674 61.1406 499.898C61.5573 500.117 61.8594 500.411 62.0469 500.781C62.2344 501.146 62.3281 501.547 62.3281 501.984V508H60.8594V501.898C60.8594 501.622 60.7865 501.396 60.6406 501.219C60.4948 501.042 60.2917 500.909 60.0312 500.82C59.7708 500.732 59.4688 500.688 59.125 500.688C58.6458 500.688 58.2526 500.75 57.9453 500.875C57.638 501 57.4115 501.169 57.2656 501.383C57.1198 501.596 57.0469 501.836 57.0469 502.102V508H55.5781V499.719ZM64.3594 505.383V502.258C64.3594 501.424 64.6354 500.768 65.1875 500.289C65.7396 499.805 66.6172 499.562 67.8203 499.562C68.0807 499.562 68.388 499.591 68.7422 499.648C69.0964 499.706 69.401 499.781 69.6562 499.875V496.242H71.125V508H70.125L69.8828 507.453C69.6432 507.641 69.3151 507.807 68.8984 507.953C68.487 508.099 68.0677 508.172 67.6406 508.172C66.849 508.172 66.2109 508.049 65.7266 507.805C65.2474 507.56 64.8984 507.229 64.6797 506.812C64.4661 506.391 64.3594 505.914 64.3594 505.383ZM69.6562 506.523V501.031C69.4375 500.927 69.1641 500.844 68.8359 500.781C68.513 500.719 68.1797 500.688 67.8359 500.688C67.2578 500.688 66.7786 500.794 66.3984 501.008C66.0182 501.221 65.8281 501.583 65.8281 502.094V505.492C65.8281 506.008 66.0104 506.391 66.375 506.641C66.7448 506.891 67.1979 507.016 67.7344 507.016C68.151 507.016 68.5339 506.958 68.8828 506.844C69.2318 506.729 69.4896 506.622 69.6562 506.523ZM75.7109 508.172C75.1016 508.172 74.6042 508.068 74.2188 507.859C73.8385 507.646 73.5573 507.367 73.375 507.023C73.1979 506.674 73.1094 506.302 73.1094 505.906C73.1094 505.49 73.1901 505.141 73.3516 504.859C73.5182 504.573 73.8281 504.315 74.2812 504.086C74.7396 503.852 75.4089 503.607 76.2891 503.352C76.7474 503.216 77.1146 503.096 77.3906 502.992C77.6667 502.888 77.8672 502.755 77.9922 502.594C78.1172 502.432 78.1797 502.201 78.1797 501.898C78.1797 501.674 78.1432 501.471 78.0703 501.289C78.0026 501.107 77.8594 500.961 77.6406 500.852C77.4271 500.742 77.099 500.688 76.6562 500.688C76.1042 500.688 75.7005 500.745 75.4453 500.859C75.1901 500.974 75.026 501.125 74.9531 501.312C74.8854 501.495 74.8516 501.698 74.8516 501.922V502.289H73.4375V501.914C73.4375 501.096 73.7109 500.5 74.2578 500.125C74.8047 499.75 75.6198 499.562 76.7031 499.562C77.4323 499.562 78.0104 499.68 78.4375 499.914C78.8698 500.143 79.1797 500.469 79.3672 500.891C79.5547 501.312 79.6484 501.807 79.6484 502.375V505.906C79.6484 506.344 79.7031 506.625 79.8125 506.75C79.9271 506.875 80.1615 506.938 80.5156 506.938L80.3438 508.062H80.0469C79.4948 508.062 79.0964 507.956 78.8516 507.742C78.6068 507.523 78.4219 507.219 78.2969 506.828C78.1771 507.016 78.0104 507.214 77.7969 507.422C77.5885 507.63 77.3151 507.807 76.9766 507.953C76.6432 508.099 76.2214 508.172 75.7109 508.172ZM75.8906 507.078C76.1875 507.078 76.4974 507.016 76.8203 506.891C77.1432 506.76 77.4297 506.591 77.6797 506.383C77.9349 506.169 78.1016 505.935 78.1797 505.68V503.5C78.0651 503.615 77.8646 503.766 77.5781 503.953C77.2969 504.135 76.8932 504.302 76.3672 504.453C75.7266 504.635 75.2552 504.823 74.9531 505.016C74.6562 505.208 74.5078 505.49 74.5078 505.859C74.5078 506.276 74.6146 506.583 74.8281 506.781C75.0469 506.979 75.401 507.078 75.8906 507.078ZM85.5781 504.102V502.984H89.9531V504.102H85.5781ZM95.9062 506.789H99.0391V497.672L99.3906 497.984L96.1172 498.336L95.9766 497.094L99.3281 496.703H100.609V506.789H103.375V508H95.9062V506.789ZM108.664 508.172C107.742 508.172 107.01 508.01 106.469 507.688C105.927 507.359 105.539 506.924 105.305 506.383C105.07 505.841 104.953 505.245 104.953 504.594C104.953 504.083 105.016 503.596 105.141 503.133C105.266 502.669 105.448 502.193 105.688 501.703C105.927 501.214 106.219 500.672 106.562 500.078L108.508 496.703H110.07L106.898 502.078L106.734 501.805C107.083 501.549 107.409 501.375 107.711 501.281C108.018 501.188 108.404 501.141 108.867 501.141C109.648 501.141 110.299 501.284 110.82 501.57C111.346 501.857 111.742 502.253 112.008 502.758C112.273 503.263 112.406 503.849 112.406 504.516C112.406 505.172 112.284 505.779 112.039 506.336C111.799 506.888 111.406 507.333 110.859 507.672C110.312 508.005 109.581 508.172 108.664 508.172ZM108.727 506.906C109.336 506.906 109.799 506.802 110.117 506.594C110.44 506.38 110.659 506.104 110.773 505.766C110.888 505.422 110.945 505.057 110.945 504.672C110.945 504.292 110.885 503.93 110.766 503.586C110.651 503.242 110.432 502.961 110.109 502.742C109.786 502.523 109.315 502.414 108.695 502.414C108.086 502.414 107.615 502.523 107.281 502.742C106.953 502.961 106.727 503.242 106.602 503.586C106.477 503.93 106.414 504.292 106.414 504.672C106.414 505.057 106.477 505.422 106.602 505.766C106.732 506.104 106.964 506.38 107.297 506.594C107.63 506.802 108.107 506.906 108.727 506.906ZM114.281 511.188V499.719H115.438L115.609 500.344C115.828 500.146 116.143 499.966 116.555 499.805C116.971 499.643 117.417 499.562 117.891 499.562C118.948 499.562 119.734 499.82 120.25 500.336C120.771 500.852 121.031 501.508 121.031 502.305V505.312C121.031 505.865 120.904 506.357 120.648 506.789C120.393 507.221 120.018 507.56 119.523 507.805C119.029 508.049 118.422 508.172 117.703 508.172C117.24 508.172 116.846 508.122 116.523 508.023C116.206 507.93 115.948 507.833 115.75 507.734V511.188H114.281ZM117.609 507.047C118.188 507.047 118.656 506.911 119.016 506.641C119.38 506.365 119.562 505.974 119.562 505.469V502.188C119.562 501.693 119.38 501.32 119.016 501.07C118.656 500.815 118.206 500.688 117.664 500.688C117.32 500.688 117.01 500.747 116.734 500.867C116.464 500.982 116.242 501.109 116.07 501.25C115.904 501.391 115.797 501.495 115.75 501.562V506.602C115.938 506.706 116.188 506.807 116.5 506.906C116.812 507 117.182 507.047 117.609 507.047ZM127.945 508L125.398 504.305L122.234 499.719H123.789L126.242 503.273L129.5 508H127.945ZM122.188 508L125.156 503.586L125.953 504.602L123.75 508H122.188ZM126.461 504.078L125.68 503.062L127.914 499.719H129.461L126.461 504.078Z" fill="black"/>
</svg>
