<svg width="67" height="177" viewBox="0 0 67 177" fill="none" xmlns="http://www.w3.org/2000/svg">
<path d="M33.5678 66.1356L32.5932 66.3597L34.5424 66.3597L33.5678 66.1356ZM1 33.5678L0.77672 32.5931L0.775857 34.5424L1 33.5678ZM33.5678 1L34.5426 0.776629L32.5931 0.776629L33.5678 1ZM66.1356 33.5678L66.3598 34.5424L66.3589 32.5931L66.1356 33.5678ZM43.8911 43.9008L43.1839 43.1938L43.1839 43.1938L43.8911 43.9008ZM23.2445 43.9008L23.9517 43.1938L23.9517 43.1938L23.2445 43.9008ZM23.2445 23.2542L23.9515 23.9614L23.9515 23.9614L23.2445 23.2542ZM43.8911 23.2542L43.1842 23.9614L43.1842 23.9614L43.8911 23.2542ZM33.9999 77.2264L28.2264 82.9999L33.9999 88.7734L39.7734 82.9999L33.9999 77.2264ZM66.1356 33.5678C65.9115 32.5933 65.9113 32.5933 65.911 32.5934C65.9108 32.5934 65.9105 32.5935 65.9102 32.5936C65.9095 32.5937 65.9086 32.5939 65.9074 32.5942C65.9052 32.5947 65.9019 32.5955 65.8978 32.5964C65.8895 32.5984 65.8775 32.6012 65.8619 32.6048C65.8307 32.6122 65.7851 32.623 65.7259 32.6373C65.6073 32.6659 65.4341 32.7083 65.212 32.7646C64.7679 32.8771 64.1282 33.0449 63.3405 33.2673C61.7658 33.712 59.5945 34.3763 57.2072 35.2556C52.4737 36.9989 46.7338 39.6425 43.1839 43.1938L44.5984 44.6078C47.8202 41.3847 53.2025 38.8619 57.8984 37.1323C60.2257 36.2752 62.3458 35.6264 63.8839 35.1921C64.6525 34.975 65.2746 34.8119 65.7032 34.7033C65.9174 34.6491 66.0832 34.6084 66.1946 34.5816C66.2503 34.5682 66.2924 34.5582 66.3202 34.5516C66.3341 34.5484 66.3444 34.546 66.351 34.5444C66.3543 34.5436 66.3567 34.5431 66.3582 34.5427C66.3589 34.5426 66.3594 34.5425 66.3597 34.5424C66.3598 34.5424 66.3598 34.5424 66.3599 34.5423C66.3599 34.5424 66.3598 34.5424 66.1356 33.5678ZM43.1839 43.1938C39.6358 46.7433 36.9947 52.4807 35.253 57.2118C34.3745 59.598 33.7109 61.7682 33.2667 63.342C33.0444 64.1293 32.8768 64.7686 32.7644 65.2125C32.7082 65.4344 32.6658 65.6076 32.6372 65.7261C32.6229 65.7853 32.6121 65.8309 32.6048 65.862C32.6011 65.8776 32.5983 65.8896 32.5964 65.8979C32.5954 65.902 32.5947 65.9053 32.5942 65.9075C32.5939 65.9087 32.5937 65.9096 32.5935 65.9103C32.5935 65.9106 32.5934 65.9109 32.5934 65.9111C32.5933 65.9114 32.5932 65.9116 33.5678 66.1356C34.5424 66.3597 34.5424 66.3598 34.5424 66.3598C34.5424 66.3597 34.5424 66.3597 34.5424 66.3596C34.5425 66.3593 34.5426 66.3588 34.5428 66.3581C34.5431 66.3566 34.5437 66.3542 34.5444 66.3509C34.546 66.3443 34.5484 66.334 34.5516 66.3201C34.5582 66.2923 34.5682 66.2503 34.5816 66.1946C34.6084 66.0832 34.649 65.9175 34.7032 65.7034C34.8117 65.2751 34.9746 64.6534 35.1915 63.8852C35.6254 62.3479 36.2735 60.2289 37.1298 57.9027C38.8577 53.2091 41.3782 47.8291 44.5984 44.6078L43.1839 43.1938ZM33.5678 66.1356C34.5424 65.9116 34.5423 65.9114 34.5423 65.9111C34.5422 65.9109 34.5422 65.9106 34.5421 65.9103C34.5419 65.9096 34.5417 65.9087 34.5415 65.9075C34.5409 65.9053 34.5402 65.902 34.5392 65.8979C34.5373 65.8896 34.5345 65.8776 34.5308 65.862C34.5235 65.8309 34.5127 65.7853 34.4984 65.7261C34.4699 65.6076 34.4274 65.4344 34.3712 65.2125C34.2588 64.7686 34.0912 64.1293 33.869 63.342C33.4248 61.7682 32.7611 59.598 31.8827 57.2118C30.1409 52.4807 27.4998 46.7433 23.9517 43.1938L22.5373 44.6078C25.7574 47.8291 28.2779 53.2091 30.0058 57.9027C30.8621 60.2289 31.5103 62.3479 31.9442 63.8852C32.161 64.6534 32.324 65.2751 32.4324 65.7034C32.4867 65.9175 32.5272 66.0832 32.5541 66.1946C32.5675 66.2503 32.5775 66.2923 32.584 66.3201C32.5873 66.334 32.5897 66.3443 32.5912 66.3509C32.592 66.3542 32.5925 66.3566 32.5929 66.3581C32.593 66.3588 32.5932 66.3593 32.5932 66.3596C32.5932 66.3597 32.5933 66.3597 32.5933 66.3598C32.5933 66.3598 32.5932 66.3597 33.5678 66.1356ZM23.9517 43.1938C20.4018 39.6425 14.6619 36.9989 9.92847 35.2556C7.5411 34.3763 5.36981 33.712 3.79517 33.2673C3.00739 33.0449 2.36776 32.8771 1.92366 32.7646C1.70158 32.7083 1.52832 32.6659 1.40978 32.6373C1.35051 32.623 1.30491 32.6122 1.27373 32.6048C1.25813 32.6012 1.24614 32.5984 1.23785 32.5964C1.2337 32.5955 1.23048 32.5947 1.22819 32.5942C1.22705 32.5939 1.22614 32.5937 1.22546 32.5936C1.22512 32.5935 1.22479 32.5934 1.22463 32.5934C1.22435 32.5933 1.22414 32.5933 1 33.5678C0.775857 34.5424 0.775763 34.5424 0.775728 34.5423C0.775795 34.5424 0.775819 34.5424 0.775952 34.5424C0.776219 34.5425 0.776719 34.5426 0.777452 34.5427C0.778919 34.5431 0.781315 34.5436 0.784631 34.5444C0.791262 34.546 0.80157 34.5484 0.81546 34.5516C0.843242 34.5582 0.885354 34.5682 0.941061 34.5816C1.05248 34.6084 1.21825 34.6491 1.43248 34.7033C1.86101 34.8119 2.48309 34.975 3.25169 35.1921C4.78981 35.6264 6.90995 36.2752 9.23724 37.1323C13.9331 38.8619 19.3155 41.3847 22.5373 44.6078L23.9517 43.1938ZM1 33.5678C1.22328 34.5426 1.22349 34.5425 1.22376 34.5425C1.22393 34.5424 1.22426 34.5423 1.2246 34.5423C1.22527 34.5421 1.22618 34.5419 1.22733 34.5416C1.22962 34.5411 1.23284 34.5404 1.23699 34.5394C1.24528 34.5375 1.25727 34.5347 1.27287 34.531C1.30405 34.5237 1.34965 34.513 1.40892 34.4987C1.52746 34.4703 1.70073 34.428 1.9228 34.3719C2.3669 34.2598 3.00653 34.0926 3.79431 33.8709C5.36893 33.4277 7.54022 32.7654 9.9276 31.8882C14.661 30.1491 20.4012 27.5104 23.9515 23.9614L22.5375 22.5469C19.3158 25.7675 13.9337 28.2856 9.23785 30.0109C6.91061 30.866 4.79053 31.5128 3.25246 31.9457C2.48388 32.162 1.86182 32.3246 1.43331 32.4327C1.21909 32.4868 1.05333 32.5273 0.941912 32.554C0.886207 32.5674 0.844098 32.5773 0.816318 32.5838C0.802429 32.5871 0.792123 32.5895 0.785492 32.591C0.782177 32.5918 0.779781 32.5924 0.778315 32.5927C0.777582 32.5929 0.777081 32.593 0.776815 32.593C0.776682 32.5931 0.776659 32.5931 0.776592 32.5931C0.776627 32.5931 0.77672 32.5931 1 33.5678ZM23.9515 23.9614C27.5037 20.4106 30.1448 14.6679 31.8856 9.93222C32.7636 7.54368 33.4266 5.37126 33.8702 3.79579C34.0921 3.0076 34.2595 2.36762 34.3717 1.92328C34.4278 1.70108 34.4702 1.52772 34.4987 1.40911C34.5129 1.34981 34.5237 1.30419 34.531 1.27298C34.5347 1.25738 34.5375 1.24539 34.5394 1.23709C34.5403 1.23294 34.5411 1.22971 34.5416 1.22742C34.5419 1.22628 34.5421 1.22537 34.5422 1.22469C34.5423 1.22435 34.5424 1.22402 34.5424 1.22385C34.5425 1.22358 34.5426 1.22337 33.5678 1C32.5931 0.776629 32.5931 0.776535 32.5931 0.7765C32.5931 0.776567 32.5931 0.776591 32.5931 0.776724C32.593 0.77699 32.5929 0.777491 32.5927 0.778224C32.5924 0.779691 32.5918 0.782089 32.5911 0.785406C32.5895 0.79204 32.5871 0.802352 32.5839 0.81625C32.5773 0.844045 32.5674 0.886179 32.554 0.941914C32.5272 1.05339 32.4867 1.21925 32.4326 1.43359C32.3243 1.86233 32.1616 2.48474 31.9451 3.25372C31.5117 4.79263 30.8643 6.91382 30.0084 9.24219C28.2815 13.9403 25.761 19.3247 22.5375 22.5469L23.9515 23.9614ZM33.5678 1C32.5931 1.22337 32.5931 1.22358 32.5932 1.22385C32.5932 1.22402 32.5933 1.22435 32.5934 1.22469C32.5935 1.22537 32.5938 1.22628 32.594 1.22742C32.5945 1.22971 32.5953 1.23294 32.5963 1.23709C32.5982 1.24539 32.601 1.25738 32.6046 1.27298C32.6119 1.30419 32.6227 1.34981 32.637 1.40911C32.6655 1.52772 32.7078 1.70108 32.7639 1.92328C32.8761 2.36762 33.0435 3.0076 33.2654 3.79579C33.7091 5.37126 34.372 7.54368 35.25 9.93222C36.9908 14.6679 39.632 20.4106 43.1842 23.9614L44.5981 22.5469C41.3747 19.3247 38.8542 13.9403 37.1272 9.24219C36.2713 6.91382 35.6239 4.79263 35.1906 3.25372C34.9741 2.48474 34.8113 1.86233 34.7031 1.43359C34.6489 1.21925 34.6084 1.05339 34.5816 0.941915C34.5683 0.886179 34.5583 0.844045 34.5518 0.81625C34.5485 0.802353 34.5461 0.792041 34.5446 0.785406C34.5438 0.782089 34.5433 0.779691 34.5429 0.778224C34.5427 0.777491 34.5426 0.77699 34.5426 0.776724C34.5425 0.776591 34.5425 0.776567 34.5425 0.7765C34.5425 0.776535 34.5426 0.776629 33.5678 1ZM43.1842 23.9614C46.7345 27.5104 52.4746 30.1491 57.208 31.8882C59.5954 32.7654 61.7667 33.4277 63.3413 33.8709C64.1291 34.0926 64.7687 34.2598 65.2128 34.3719C65.4349 34.428 65.6082 34.4703 65.7267 34.4987C65.786 34.513 65.8316 34.5237 65.8628 34.531C65.8784 34.5347 65.8904 34.5375 65.8986 34.5394C65.9028 34.5404 65.906 34.5411 65.9083 34.5416C65.9095 34.5419 65.9104 34.5421 65.911 34.5423C65.9114 34.5423 65.9117 34.5424 65.9119 34.5425C65.9121 34.5425 65.9124 34.5426 66.1356 33.5678C66.3589 32.5931 66.359 32.5931 66.359 32.5931C66.359 32.5931 66.359 32.5931 66.3588 32.593C66.3586 32.593 66.3581 32.5929 66.3573 32.5927C66.3559 32.5924 66.3535 32.5918 66.3501 32.591C66.3435 32.5895 66.3332 32.5871 66.3193 32.5838C66.2915 32.5773 66.2494 32.5674 66.1937 32.554C66.0823 32.5273 65.9165 32.4868 65.7023 32.4327C65.2738 32.3246 64.6518 32.162 63.8832 31.9457C62.3451 31.5128 60.225 30.866 57.8978 30.0109C53.2019 28.2856 47.8199 25.7675 44.5981 22.5469L43.1842 23.9614ZM32.9999 82.9999L32.9999 177L34.9999 177L34.9999 82.9999L32.9999 82.9999Z" fill="#FFFFC5"/>
</svg>
