<svg width="68" height="60" viewBox="0 0 68 60" fill="none" xmlns="http://www.w3.org/2000/svg">
<path d="M52.0635 10.5789C52.0635 10.5789 53.8032 18.1896 57.1151 21.5219C60.4287 24.8559 68 26.6074 68 26.6074C68 26.6074 60.4288 28.3516 57.1151 31.6833C53.7995 35.0166 52.0635 42.6358 52.0635 42.6358C52.0635 42.6358 50.3275 35.0166 47.012 31.6833C43.6982 28.3516 36.1271 26.6074 36.1271 26.6074C36.1271 26.6074 43.6984 24.8559 47.012 21.5219C50.3239 18.1896 52.0635 10.5789 52.0635 10.5789Z" fill="#43A9B7"/>
<path d="M39.089 0.0471308C39.089 0.0471308 39.9142 3.65712 41.4851 5.23771C43.0569 6.81914 46.6482 7.64989 46.6482 7.64989C46.6482 7.64989 43.0569 8.47725 41.4851 10.0575C39.9125 11.6387 39.089 15.2526 39.089 15.2526C39.089 15.2526 38.2656 11.6387 36.6929 10.0575C35.1211 8.47725 31.5299 7.64989 31.5299 7.64989C31.5299 7.64989 35.1212 6.81914 36.6929 5.23771C38.2639 3.65712 39.089 0.0471308 39.089 0.0471308Z" fill="#43A9B7"/>
<path d="M25.4763 0C16.6608 9.00729 14.1202 23.0163 20.1516 34.8888C26.1831 46.7612 38.9588 52.8992 51.3814 50.9922C49.1814 53.24 46.5906 55.1764 43.6447 56.6903C28.8945 64.2704 10.8274 58.389 3.29074 43.5536C-4.24594 28.7183 1.6018 10.5469 16.352 2.96675C19.2979 1.45285 22.3761 0.475909 25.4763 0Z" fill="#43A9B7"/>
</svg>
