<svg width="135" height="509" viewBox="0 0 135 509" fill="none" xmlns="http://www.w3.org/2000/svg">
<path d="M88.9252 34.7052L88.5781 46.9477L100.821 47.2948L101.168 35.0523L88.9252 34.7052ZM111.177 87.26L109.735 87.6739L111.177 87.26ZM122.403 190.982L123.898 191.101L122.403 190.982ZM88.7255 272.3L89.771 273.376L88.7255 272.3ZM6.53755 292.215L5.39968 293.192L6.53755 292.215ZM27.1179 256.534L26.395 255.22L27.1179 256.534ZM114.117 253.63L115.159 252.551L114.117 253.63ZM121.066 363.16L119.643 362.685L121.066 363.16ZM95.7208 44.2788C96.233 44.9299 97.1761 45.0425 97.8272 44.5304C98.4783 44.0182 98.5909 43.0751 98.0788 42.424L95.7208 44.2788ZM101.628 47.8051C101.227 47.0799 100.315 46.8166 99.5898 47.2171C98.8645 47.6176 98.6013 48.5301 99.0018 49.2553L101.628 47.8051ZM101.551 54.7033C101.856 55.4735 102.728 55.8506 103.498 55.5455C104.268 55.2404 104.645 54.3687 104.34 53.5985L101.551 54.7033ZM106.388 59.6039C106.155 58.8091 105.321 58.3541 104.526 58.5876C103.731 58.8212 103.276 59.6549 103.51 60.4497L106.388 59.6039ZM105.048 66.3753C105.235 67.1824 106.041 67.6852 106.848 67.4984C107.655 67.3115 108.158 66.5058 107.971 65.6987L105.048 66.3753ZM109.28 71.8125C109.116 71.0005 108.325 70.4753 107.513 70.6395C106.701 70.8037 106.176 71.595 106.34 72.407L109.28 71.8125ZM107.564 78.5003C107.73 79.3118 108.523 79.8347 109.335 79.6682C110.146 79.5017 110.669 78.7088 110.502 77.8973L107.564 78.5003ZM111.836 83.901C111.638 83.0967 110.825 82.6056 110.021 82.8041C109.216 83.0026 108.725 83.8155 108.924 84.6198L111.836 83.901ZM110.523 90.4648C110.744 91.2631 111.571 91.7307 112.369 91.5092C113.167 91.2878 113.635 90.4611 113.414 89.6629L110.523 90.4648ZM114.928 95.3176C114.721 94.5154 113.902 94.033 113.1 94.24C112.298 94.447 111.816 95.2651 112.023 96.0672L114.928 95.3176ZM113.421 101.696C113.613 102.502 114.423 102.999 115.228 102.806C116.034 102.614 116.531 101.805 116.339 100.999L113.421 101.696ZM117.647 106.706C117.469 105.896 116.669 105.384 115.86 105.562C115.051 105.74 114.539 106.54 114.716 107.349L117.647 106.706ZM115.907 113.024C116.07 113.837 116.86 114.363 117.673 114.201C118.485 114.038 119.012 113.248 118.849 112.435L115.907 113.024ZM119.945 118.187C119.798 117.372 119.017 116.83 118.202 116.978C117.387 117.125 116.845 117.905 116.993 118.721L119.945 118.187ZM117.971 124.436C118.103 125.254 118.873 125.81 119.691 125.678C120.509 125.546 121.065 124.776 120.933 123.958L117.971 124.436ZM121.811 129.747C121.694 128.927 120.935 128.357 120.115 128.473C119.295 128.589 118.724 129.349 118.84 130.169L121.811 129.747ZM119.599 135.917C119.7 136.739 120.448 137.324 121.27 137.224C122.092 137.123 122.677 136.375 122.577 135.553L119.599 135.917ZM123.23 141.373C123.146 140.549 122.409 139.949 121.585 140.033C120.761 140.117 120.161 140.854 120.245 141.678L123.23 141.373ZM120.777 147.45C120.845 148.276 121.569 148.89 122.395 148.823C123.221 148.755 123.835 148.031 123.767 147.205L120.777 147.45ZM124.187 153.047C124.136 152.22 123.425 151.591 122.598 151.642C121.771 151.693 121.142 152.405 121.193 153.232L124.187 153.047ZM121.49 159.02C121.524 159.848 122.222 160.491 123.05 160.457C123.878 160.424 124.521 159.725 124.487 158.897L121.49 159.02ZM124.666 164.753C124.649 163.925 123.965 163.266 123.136 163.283C122.308 163.3 121.65 163.984 121.666 164.813L124.666 164.753ZM121.72 170.607C121.719 171.436 122.39 172.108 123.218 172.109C124.046 172.111 124.719 171.44 124.72 170.612L121.72 170.607ZM124.648 176.471C124.667 175.643 124.011 174.956 123.183 174.936C122.355 174.917 121.668 175.573 121.649 176.401L124.648 176.471ZM121.45 182.191C121.412 183.019 122.052 183.72 122.88 183.758C123.708 183.795 124.409 183.155 124.447 182.328L121.45 182.191ZM124.114 188.179C124.171 187.352 123.546 186.636 122.72 186.58C121.893 186.524 121.177 187.148 121.121 187.974L124.114 188.179ZM120.668 193.649C120.592 194.473 121.199 195.204 122.024 195.28C122.849 195.356 123.579 194.749 123.655 193.924L120.668 193.649ZM123.061 199.562C123.159 198.739 122.571 197.993 121.749 197.895C120.926 197.797 120.18 198.384 120.082 199.207L123.061 199.562ZM119.339 204.742C119.217 205.561 119.782 206.325 120.601 206.447C121.42 206.57 122.184 206.005 122.306 205.186L119.339 204.742ZM121.376 210.787C121.525 209.973 120.986 209.191 120.171 209.042C119.356 208.892 118.574 209.432 118.425 210.247L121.376 210.787ZM117.323 215.712C117.144 216.521 117.655 217.321 118.464 217.5C119.273 217.678 120.074 217.167 120.252 216.358L117.323 215.712ZM118.92 221.888C119.13 221.087 118.65 220.267 117.849 220.057C117.048 219.847 116.228 220.326 116.018 221.127L118.92 221.888ZM114.495 226.481C114.252 227.273 114.696 228.112 115.488 228.356C116.28 228.599 117.119 228.155 117.362 227.363L114.495 226.481ZM115.566 232.769C115.846 231.989 115.439 231.131 114.659 230.852C113.879 230.572 113.021 230.979 112.742 231.759L115.566 232.769ZM110.746 236.945C110.43 237.711 110.795 238.588 111.56 238.904C112.326 239.22 113.203 238.855 113.519 238.09L110.746 236.945ZM111.211 243.306C111.566 242.557 111.246 241.663 110.497 241.309C109.748 240.954 108.854 241.274 108.5 242.023L111.211 243.306ZM105.995 246.975C105.602 247.705 105.874 248.614 106.603 249.008C107.332 249.401 108.242 249.129 108.636 248.4L105.995 246.975ZM105.79 253.35C106.222 252.643 106 251.72 105.293 251.288C104.586 250.855 103.663 251.078 103.231 251.784L105.79 253.35ZM100.207 256.432C99.7356 257.114 99.9064 258.048 100.588 258.519C101.269 258.99 102.204 258.819 102.675 258.138L100.207 256.432ZM99.2965 262.745C99.805 262.091 99.6869 261.148 99.0329 260.64C98.3788 260.131 97.4364 260.249 96.928 260.903L99.2965 262.745ZM93.4032 265.184C92.8589 265.809 92.924 266.756 93.5485 267.3C94.173 267.845 95.1205 267.78 95.6648 267.155L93.4032 265.184ZM91.7926 271.356C92.3707 270.763 92.3582 269.813 91.7648 269.235C91.1714 268.657 90.2217 268.67 89.6437 269.263L91.7926 271.356ZM85.7059 273.094C85.0975 273.656 85.0599 274.605 85.622 275.213C86.1842 275.822 87.1332 275.86 87.7417 275.297L85.7059 273.094ZM83.5478 279.003C84.1801 278.467 84.2587 277.521 83.7234 276.889C83.1881 276.256 82.2416 276.178 81.6093 276.713L83.5478 279.003ZM77.3652 280.165C76.7125 280.675 76.597 281.618 77.1072 282.271C77.6173 282.923 78.56 283.039 79.2127 282.529L77.3652 280.165ZM74.743 285.886C75.4149 285.401 75.5667 284.464 75.0821 283.792C74.5974 283.12 73.6599 282.968 72.988 283.453L74.743 285.886ZM68.4897 286.564C67.799 287.021 67.6097 287.952 68.0671 288.643C68.5244 289.333 69.4551 289.523 70.1459 289.065L68.4897 286.564ZM65.4154 292.054C66.1254 291.627 66.3548 290.705 65.9278 289.996C65.5009 289.286 64.5793 289.056 63.8693 289.483L65.4154 292.054ZM59.1274 292.184C58.3976 292.576 58.1238 293.485 58.5159 294.215C58.9079 294.945 59.8173 295.219 60.5471 294.827L59.1274 292.184ZM55.5322 297.348C56.2826 296.997 56.6066 296.104 56.2558 295.354C55.9049 294.603 55.0121 294.279 54.2617 294.63L55.5322 297.348ZM49.2707 296.772C48.4989 297.073 48.1171 297.943 48.4179 298.715C48.7188 299.487 49.5884 299.868 50.3603 299.568L49.2707 296.772ZM45.0238 301.415C45.8171 301.177 46.2665 300.34 46.0277 299.547C45.7889 298.753 44.9522 298.304 44.159 298.543L45.0238 301.415ZM38.9399 299.85C38.1271 300.01 37.5982 300.799 37.7584 301.612C37.9187 302.425 38.7076 302.954 39.5203 302.793L38.9399 299.85ZM33.8613 303.566C34.6876 303.506 35.3089 302.788 35.249 301.962C35.1892 301.136 34.4709 300.514 33.6446 300.574L33.8613 303.566ZM27.6888 300.558C26.8625 300.499 26.1449 301.121 26.086 301.947C26.0271 302.773 26.6493 303.491 27.4756 303.55L27.6888 300.558ZM20.4773 302.443C21.2797 302.649 22.0972 302.165 22.3032 301.363C22.5091 300.561 22.0256 299.743 21.2232 299.537L20.4773 302.443ZM15.1821 297.241C14.4485 296.856 13.5418 297.139 13.157 297.873C12.7722 298.606 13.055 299.513 13.7887 299.898L15.1821 297.241ZM7.90061 295.772C8.51273 296.33 9.46147 296.287 10.0197 295.674C10.5779 295.062 10.5342 294.114 9.9221 293.555L7.90061 295.772ZM5.93584 288.952C5.47816 288.262 4.54736 288.073 3.85684 288.531C3.16631 288.988 2.97755 289.919 3.43523 290.61L5.93584 288.952ZM0.79543 284.54C0.964796 285.351 1.75948 285.871 2.57041 285.702C3.38134 285.532 3.90143 284.737 3.73207 283.927L0.79543 284.54ZM3.94941 278.628C4.18083 277.832 3.72359 277 2.92814 276.768C2.13269 276.537 1.30026 276.994 1.06884 277.79L3.94941 278.628ZM4.07589 271.926C3.58452 272.593 3.72687 273.532 4.39385 274.023C5.06081 274.514 5.99983 274.372 6.4912 273.705L4.07589 271.926ZM10.409 269.44C11.0209 268.882 11.0643 267.933 10.5059 267.321C9.94756 266.709 8.9988 266.666 8.38685 267.224L10.409 269.44ZM13.2648 263.293C12.5936 263.779 12.4432 264.716 12.9289 265.388C13.4145 266.059 14.3522 266.209 15.0234 265.723L13.2648 263.293ZM20.004 262.396C20.7071 261.958 20.9219 261.033 20.4839 260.33C20.0458 259.627 19.1207 259.412 18.4175 259.85L20.004 262.396ZM23.7179 256.713C22.9971 257.121 22.7438 258.037 23.1521 258.757C23.5605 259.478 24.4758 259.731 25.1966 259.323L23.7179 256.713ZM30.3726 256.489C31.1064 256.105 31.3895 255.198 31.005 254.464C30.6205 253.73 29.7139 253.447 28.9801 253.832L30.3726 256.489ZM34.2326 251.211C33.484 251.566 33.165 252.461 33.52 253.21C33.875 253.958 34.7696 254.277 35.5181 253.922L34.2326 251.211ZM40.7626 251.563C41.5249 251.238 41.8797 250.357 41.5552 249.595C41.2307 248.833 40.3497 248.478 39.5875 248.802L40.7626 251.563ZM45.0396 246.614C44.2644 246.906 43.8728 247.772 44.165 248.547C44.4571 249.322 45.3224 249.714 46.0976 249.421L45.0396 246.614ZM51.5162 247.515C52.3037 247.258 52.7337 246.411 52.4766 245.624C52.2194 244.836 51.3726 244.406 50.5851 244.663L51.5162 247.515ZM56.2207 242.972C55.4215 243.19 54.9508 244.015 55.1692 244.814C55.3877 245.613 56.2126 246.084 57.0117 245.866L56.2207 242.972ZM62.577 244.502C63.3867 244.327 63.9012 243.528 63.7261 242.718C63.551 241.909 62.7527 241.394 61.9429 241.569L62.577 244.502ZM67.7455 240.493C66.9267 240.619 66.3651 241.385 66.491 242.204C66.617 243.023 67.3828 243.584 68.2016 243.458L67.7455 240.493ZM73.8694 242.78C74.6949 242.71 75.3076 241.984 75.2379 241.159C75.1682 240.333 74.4425 239.721 73.617 239.79L73.8694 242.78ZM79.5382 239.518C78.7098 239.523 78.0423 240.198 78.0473 241.027C78.0524 241.855 78.728 242.522 79.5564 242.517L79.5382 239.518ZM85.2274 242.731C86.0529 242.8 86.7782 242.187 86.8474 241.362C86.9165 240.536 86.3034 239.811 85.4778 239.742L85.2274 242.731ZM91.3868 240.537C90.5727 240.384 89.7885 240.919 89.6352 241.733C89.4819 242.548 90.0176 243.332 90.8317 243.485L91.3868 240.537ZM96.3006 244.84C97.0916 245.086 97.9324 244.645 98.1787 243.854C98.425 243.063 97.9835 242.222 97.1925 241.976L96.3006 244.84ZM102.797 244.116C102.043 243.771 101.153 244.102 100.808 244.855C100.463 245.608 100.794 246.499 101.548 246.843L102.797 244.116ZM106.476 249.513C107.176 249.957 108.102 249.749 108.546 249.049C108.989 248.349 108.781 247.422 108.081 246.979L106.476 249.513ZM112.928 250.536C112.295 250.001 111.349 250.081 110.814 250.714C110.28 251.347 110.36 252.293 110.993 252.828L112.928 250.536ZM115.066 256.727C115.634 257.331 116.583 257.36 117.187 256.793C117.79 256.225 117.82 255.276 117.252 254.672L115.066 256.727ZM121.104 259.199C120.599 258.542 119.658 258.418 119.001 258.923C118.344 259.428 118.221 260.37 118.726 261.027L121.104 259.199ZM121.935 265.668C122.371 266.372 123.296 266.589 124 266.153C124.704 265.717 124.921 264.792 124.485 264.088L121.935 265.668ZM127.361 269.291C126.997 268.547 126.098 268.239 125.354 268.604C124.61 268.969 124.303 269.867 124.668 270.611L127.361 269.291ZM126.911 275.8C127.204 276.575 128.07 276.965 128.844 276.673C129.619 276.38 130.01 275.514 129.717 274.739L126.911 275.8ZM131.564 280.373C131.34 279.575 130.512 279.11 129.714 279.333C128.917 279.557 128.451 280.385 128.675 281.182L131.564 280.373ZM129.981 286.706C130.139 287.519 130.927 288.049 131.74 287.891C132.553 287.732 133.084 286.945 132.925 286.131L129.981 286.706ZM133.84 291.967C133.741 291.145 132.994 290.559 132.172 290.658C131.349 290.757 130.763 291.504 130.862 292.326L133.84 291.967ZM131.355 298.003C131.4 298.83 132.108 299.464 132.935 299.419C133.762 299.374 134.396 298.666 134.351 297.839L131.355 298.003ZM134.499 303.723C134.502 302.895 133.833 302.221 133.004 302.219C132.176 302.216 131.502 302.886 131.5 303.714L134.499 303.723ZM131.332 309.432C131.287 310.259 131.921 310.966 132.749 311.011C133.576 311.056 134.283 310.422 134.328 309.595L131.332 309.432ZM133.873 315.444C133.956 314.62 133.355 313.885 132.53 313.802C131.706 313.72 130.971 314.321 130.888 315.145L133.873 315.444ZM130.199 320.842C130.083 321.662 130.654 322.421 131.475 322.537C132.295 322.652 133.054 322.081 133.17 321.261L130.199 320.842ZM132.246 327.041C132.391 326.225 131.848 325.446 131.032 325.301C130.216 325.156 129.438 325.7 129.293 326.515L132.246 327.041ZM128.195 332.16C128.024 332.97 128.542 333.766 129.353 333.937C130.164 334.108 130.959 333.589 131.13 332.778L128.195 332.16ZM129.843 338.478C130.037 337.673 129.541 336.863 128.735 336.669C127.93 336.476 127.12 336.972 126.926 337.777L129.843 338.478ZM125.51 343.36C125.297 344.16 125.773 344.982 126.573 345.195C127.374 345.409 128.196 344.933 128.409 344.132L125.51 343.36ZM126.844 349.753C127.074 348.957 126.616 348.125 125.821 347.895C125.025 347.664 124.193 348.122 123.962 348.918L126.844 349.753ZM122.302 354.447C122.057 355.238 122.499 356.078 123.291 356.324C124.082 356.569 124.922 356.127 125.168 355.335L122.302 354.447ZM123.401 360.878C123.658 360.09 123.228 359.243 122.441 358.986C121.654 358.728 120.807 359.158 120.549 359.945L123.401 360.878ZM118.641 365.644C118.372 366.428 118.79 367.281 119.573 367.55C120.357 367.819 121.21 367.402 121.479 366.618L118.641 365.644ZM119.38 372.561C119.663 371.782 119.262 370.921 118.483 370.639C117.704 370.356 116.844 370.758 116.561 371.536L119.38 372.561ZM114.372 377.385C114.074 378.158 114.459 379.027 115.232 379.325C116.005 379.623 116.873 379.238 117.171 378.465L114.372 377.385ZM114.841 384.325C115.156 383.558 114.789 382.682 114.023 382.368C113.256 382.054 112.38 382.42 112.066 383.187L114.841 384.325ZM109.633 388.933C109.302 389.693 109.648 390.577 110.407 390.909C111.166 391.24 112.051 390.894 112.382 390.135L109.633 388.933ZM109.784 395.887C110.135 395.137 109.81 394.244 109.06 393.894C108.309 393.543 107.416 393.868 107.066 394.618L109.784 395.887ZM104.355 400.233C103.985 400.974 104.286 401.875 105.027 402.245C105.768 402.615 106.669 402.315 107.039 401.574L104.355 400.233ZM104.136 407.185C104.527 406.454 104.253 405.545 103.522 405.154C102.792 404.763 101.883 405.038 101.492 405.768L104.136 407.185ZM98.4677 411.213C98.0543 411.931 98.3012 412.848 99.0191 413.262C99.7371 413.675 100.654 413.428 101.068 412.71L98.4677 411.213ZM97.824 418.139C98.2606 417.435 98.0438 416.51 97.3398 416.073C96.6358 415.637 95.7111 415.853 95.2745 416.557L97.824 418.139ZM93.7826 42.0302C94.4673 42.7548 95.1123 43.5051 95.7208 44.2788L98.0788 42.424C97.416 41.5815 96.712 40.7624 95.9632 39.9698L93.7826 42.0302ZM99.0018 49.2553C99.9649 50.9995 100.806 52.8218 101.551 54.7033L104.34 53.5985C103.555 51.6159 102.661 49.676 101.628 47.8051L99.0018 49.2553ZM103.51 60.4497C104.082 62.3976 104.586 64.3789 105.048 66.3753L107.971 65.6987C107.499 63.6617 106.981 61.6217 106.388 59.6039L103.51 60.4497ZM106.34 72.407C106.751 74.4431 107.154 76.5043 107.564 78.5003L110.502 77.8973C110.092 75.8977 109.699 73.8841 109.28 71.8125L106.34 72.407ZM108.924 84.6198C109.179 85.6545 109.448 86.674 109.735 87.6739L112.619 86.8461C112.344 85.8882 112.084 84.9056 111.836 83.901L108.924 84.6198ZM109.735 87.6739C110.002 88.6028 110.264 89.5331 110.523 90.4648L113.414 89.6629C113.153 88.7225 112.888 87.7836 112.619 86.8461L109.735 87.6739ZM112.023 96.0672C112.506 97.9388 112.972 99.8151 113.421 101.696L116.339 100.999C115.886 99.1006 115.415 97.2066 114.928 95.3176L112.023 96.0672ZM114.716 107.349C115.131 109.237 115.528 111.129 115.907 113.024L118.849 112.435C118.466 110.522 118.065 108.612 117.647 106.706L114.716 107.349ZM116.993 118.721C117.337 120.623 117.663 122.528 117.971 124.436L120.933 123.958C120.622 122.032 120.292 120.108 119.945 118.187L116.993 118.721ZM118.84 130.169C119.112 132.083 119.365 133.999 119.599 135.917L122.577 135.553C122.34 133.616 122.085 131.681 121.811 129.747L118.84 130.169ZM120.245 141.678C120.442 143.601 120.619 145.526 120.777 147.45L123.767 147.205C123.608 145.26 123.428 143.316 123.23 141.373L120.245 141.678ZM121.193 153.232C121.312 155.162 121.411 157.091 121.49 159.02L124.487 158.897C124.408 156.948 124.307 154.997 124.187 153.047L121.193 153.232ZM121.666 164.813C121.705 166.745 121.723 168.677 121.72 170.607L124.72 170.612C124.723 168.66 124.705 166.707 124.666 164.753L121.666 164.813ZM121.649 176.401C121.604 178.333 121.538 180.264 121.45 182.191L124.447 182.328C124.535 180.378 124.602 178.425 124.648 176.471L121.649 176.401ZM121.121 187.974C121.055 188.938 120.984 189.901 120.907 190.863L123.898 191.101C123.975 190.128 124.048 189.154 124.114 188.179L121.121 187.974ZM120.907 190.863C120.833 191.791 120.754 192.719 120.668 193.649L123.655 193.924C123.742 192.982 123.823 192.041 123.898 191.101L120.907 190.863ZM120.082 199.207C119.862 201.053 119.615 202.899 119.339 204.742L122.306 205.186C122.587 203.311 122.837 201.436 123.061 199.562L120.082 199.207ZM118.425 210.247C118.09 212.073 117.724 213.896 117.323 215.712L120.252 216.358C120.661 214.506 121.035 212.648 121.376 210.787L118.425 210.247ZM116.018 221.127C115.548 222.921 115.041 224.706 114.495 226.481L117.362 227.363C117.921 225.546 118.44 223.72 118.92 221.888L116.018 221.127ZM112.742 231.759C112.119 233.499 111.455 235.229 110.746 236.945L113.519 238.09C114.247 236.328 114.928 234.554 115.566 232.769L112.742 231.759ZM108.5 242.023C107.711 243.689 106.877 245.34 105.995 246.975L108.636 248.4C109.543 246.717 110.401 245.019 111.211 243.306L108.5 242.023ZM103.231 251.784C102.272 253.351 101.265 254.901 100.207 256.432L102.675 258.138C103.765 256.56 104.802 254.963 105.79 253.35L103.231 251.784ZM96.928 260.903C95.804 262.349 94.6298 263.777 93.4032 265.184L95.6648 267.155C96.9285 265.705 98.1383 264.235 99.2965 262.745L96.928 260.903ZM89.6437 269.263C89.0019 269.922 88.3475 270.576 87.68 271.224L89.771 273.376C90.458 272.708 91.1318 272.035 91.7926 271.356L89.6437 269.263ZM87.68 271.224C87.056 271.831 86.3972 272.455 85.7059 273.094L87.7417 275.297C88.4509 274.642 89.1281 274 89.771 273.376L87.68 271.224ZM81.6093 276.713C80.2687 277.848 78.8503 279.004 77.3652 280.165L79.2127 282.529C80.7289 281.344 82.1776 280.163 83.5478 279.003L81.6093 276.713ZM72.988 283.453C71.5317 284.503 70.0295 285.544 68.4897 286.564L70.1459 289.065C71.7206 288.023 73.2557 286.959 74.743 285.886L72.988 283.453ZM63.8693 289.483C62.3131 290.419 60.7299 291.323 59.1274 292.184L60.5471 294.827C62.1951 293.941 63.8204 293.013 65.4154 292.054L63.8693 289.483ZM54.2617 294.63C52.6063 295.404 50.9401 296.122 49.2707 296.772L50.3603 299.568C52.0955 298.891 53.8222 298.147 55.5322 297.348L54.2617 294.63ZM44.159 298.543C42.4087 299.07 40.6661 299.509 38.9399 299.85L39.5203 302.793C41.3512 302.432 43.1889 301.968 45.0238 301.415L44.159 298.543ZM33.6446 300.574C32.7527 300.639 31.8686 300.672 30.9935 300.672V303.672C31.9443 303.672 32.9007 303.636 33.8613 303.566L33.6446 300.574ZM30.9935 300.672C29.8623 300.672 28.7607 300.634 27.6888 300.558L27.4756 303.55C28.6225 303.632 29.7953 303.672 30.9935 303.672V300.672ZM21.2232 299.537C19.0578 298.981 17.0451 298.218 15.1821 297.241L13.7887 299.898C15.8717 300.99 18.1036 301.833 20.4773 302.443L21.2232 299.537ZM9.9221 293.555C9.13935 292.842 8.39034 292.07 7.67541 291.237L5.39968 293.192C6.19215 294.115 7.02585 294.974 7.90061 295.772L9.9221 293.555ZM7.67541 291.237C7.00681 290.459 6.42944 289.697 5.93584 288.952L3.43523 290.61C4.0034 291.467 4.65723 292.328 5.39968 293.192L7.67541 291.237ZM3.73207 283.927C3.34964 282.095 3.45212 280.337 3.94941 278.628L1.06884 277.79C0.442075 279.944 0.306958 282.201 0.79543 284.54L3.73207 283.927ZM6.4912 273.705C7.56228 272.251 8.88683 270.829 10.409 269.44L8.38685 267.224C6.7565 268.712 5.28968 270.278 4.07589 271.926L6.4912 273.705ZM15.0234 265.723C16.6073 264.577 18.2827 263.468 20.004 262.396L18.4175 259.85C16.6516 260.95 14.9166 262.098 13.2648 263.293L15.0234 265.723ZM25.1966 259.323C26.0815 258.822 26.9649 258.33 27.8408 257.849L26.395 255.22C25.5106 255.706 24.616 256.204 23.7179 256.713L25.1966 259.323ZM27.8408 257.849C28.6702 257.392 29.5145 256.939 30.3726 256.489L28.9801 253.832C28.1041 254.291 27.242 254.754 26.395 255.22L27.8408 257.849ZM35.5181 253.922C37.2274 253.111 38.978 252.322 40.7626 251.563L39.5875 248.802C37.7647 249.578 35.9773 250.384 34.2326 251.211L35.5181 253.922ZM46.0976 249.421C47.8811 248.749 49.6894 248.112 51.5162 247.515L50.5851 244.663C48.7139 245.274 46.8632 245.927 45.0396 246.614L46.0976 249.421ZM57.0117 245.866C58.8576 245.361 60.7148 244.904 62.577 244.502L61.9429 241.569C60.0254 241.984 58.1158 242.454 56.2207 242.972L57.0117 245.866ZM68.2016 243.458C70.0952 243.167 71.9866 242.939 73.8694 242.78L73.617 239.79C71.6621 239.955 69.7027 240.192 67.7455 240.493L68.2016 243.458ZM79.5564 242.517C81.466 242.506 83.3586 242.575 85.2274 242.731L85.4778 239.742C83.5143 239.577 81.5318 239.505 79.5382 239.518L79.5564 242.517ZM90.8317 243.485C92.6897 243.835 94.515 244.284 96.3006 244.84L97.1925 241.976C95.2906 241.383 93.3526 240.907 91.3868 240.537L90.8317 243.485ZM101.548 246.843C103.238 247.617 104.883 248.505 106.476 249.513L108.081 246.979C106.371 245.896 104.606 244.944 102.797 244.116L101.548 246.843ZM110.993 252.828C111.7 253.425 112.394 254.052 113.075 254.709L115.159 252.551C114.43 251.847 113.686 251.176 112.928 250.536L110.993 252.828ZM113.075 254.709C113.761 255.372 114.425 256.045 115.066 256.727L117.252 254.672C116.578 253.955 115.88 253.247 115.159 252.551L113.075 254.709ZM118.726 261.027C119.886 262.536 120.954 264.085 121.935 265.668L124.485 264.088C123.452 262.42 122.326 260.789 121.104 259.199L118.726 261.027ZM124.668 270.611C125.5 272.308 126.246 274.039 126.911 275.8L129.717 274.739C129.02 272.893 128.236 271.075 127.361 269.291L124.668 270.611ZM128.675 281.182C129.184 282.999 129.617 284.841 129.981 286.706L132.925 286.131C132.547 284.192 132.095 282.271 131.564 280.373L128.675 281.182ZM130.862 292.326C131.088 294.203 131.251 296.097 131.355 298.003L134.351 297.839C134.243 295.871 134.075 293.912 133.84 291.967L130.862 292.326ZM131.5 303.714C131.494 305.613 131.436 307.521 131.332 309.432L134.328 309.595C134.435 307.635 134.494 305.677 134.499 303.723L131.5 303.714ZM130.888 315.145C130.698 317.046 130.467 318.946 130.199 320.842L133.17 321.261C133.442 319.328 133.679 317.387 133.873 315.444L130.888 315.145ZM129.293 326.515C128.956 328.407 128.589 330.29 128.195 332.16L131.13 332.778C131.53 330.879 131.904 328.965 132.246 327.041L129.293 326.515ZM126.926 337.777C126.475 339.657 126.001 341.519 125.51 343.36L128.409 344.132C128.906 342.27 129.386 340.384 129.843 338.478L126.926 337.777ZM123.962 348.918C123.419 350.791 122.864 352.636 122.302 354.447L125.168 355.335C125.734 353.509 126.295 351.646 126.844 349.753L123.962 348.918ZM120.549 359.945C120.247 360.87 119.945 361.783 119.643 362.685L122.489 363.636C122.792 362.728 123.096 361.809 123.401 360.878L120.549 359.945ZM119.643 362.685C119.314 363.67 118.98 364.657 118.641 365.644L121.479 366.618C121.821 365.623 122.157 364.628 122.489 363.636L119.643 362.685ZM116.561 371.536C115.853 373.485 115.124 375.436 114.372 377.385L117.171 378.465C117.93 376.496 118.666 374.527 119.38 372.561L116.561 371.536ZM112.066 383.187C111.279 385.107 110.468 387.023 109.633 388.933L112.382 390.135C113.227 388.203 114.046 386.265 114.841 384.325L112.066 383.187ZM107.066 394.618C106.188 396.499 105.285 398.372 104.355 400.233L107.039 401.574C107.981 399.688 108.896 397.791 109.784 395.887L107.066 394.618ZM101.492 405.768C100.512 407.597 99.5042 409.413 98.4677 411.213L101.068 412.71C102.12 410.883 103.142 409.04 104.136 407.185L101.492 405.768ZM95.2745 416.557C94.7278 417.439 94.1737 418.316 93.6119 419.188L96.1339 420.812C96.7051 419.926 97.2684 419.034 97.824 418.139L95.2745 416.557Z" fill="#7EFFBC"/>
<path d="M98.7285 0C98.7285 0 102.52 16.4901 109.737 23.7101C116.958 30.9339 133.457 34.7286 133.457 34.7286C133.457 34.7286 116.958 38.5079 109.737 45.7266C102.512 52.949 98.7285 69.4573 98.7285 69.4573C98.7285 69.4573 94.9455 52.949 87.7203 45.7266C80.4989 38.5079 63.9999 34.7286 63.9999 34.7286C63.9999 34.7286 80.4992 30.9339 87.7203 23.7101C94.9375 16.4901 98.7285 0 98.7285 0Z" fill="#7EFFBC"/>
<path d="M60.0729 491.93L44.8607 399L80.5139 426.705L69.4824 467.071L87.9432 429.518L133.006 432.363L60.0729 491.93Z" fill="#7EFFBC"/>
</svg>
