<svg width="135" height="617" viewBox="0 0 135 617" fill="none" xmlns="http://www.w3.org/2000/svg">
<path d="M89.8767 33.9263L87.7992 45.9962L99.8691 48.0737L101.947 36.0038L89.8767 33.9263ZM111.177 102.883L109.71 103.198L111.177 102.883ZM122.403 241.635L123.9 241.725L122.403 241.635ZM88.7255 350.417L89.9145 351.332L89.9145 351.332L88.7255 350.417ZM6.53755 377.057L5.27534 377.868L5.27534 377.868L6.53755 377.057ZM27.1179 329.327L26.229 328.119L27.1179 329.327ZM114.117 325.442L115.303 324.523L114.117 325.442ZM121.066 471.964L119.611 471.6L121.066 471.964ZM95.3502 44.4749C95.7779 45.1844 96.6998 45.4128 97.4093 44.9851C98.1187 44.5574 98.3472 43.6356 97.9195 42.9261L95.3502 44.4749ZM100.976 48.8125C100.638 48.0562 99.751 47.717 98.9946 48.055C98.2383 48.3931 97.8992 49.2802 98.2372 50.0365L100.976 48.8125ZM100.525 55.9151C100.79 56.6997 101.642 57.1205 102.427 56.8548C103.211 56.5892 103.632 55.7377 103.366 54.953L100.525 55.9151ZM105.239 61.2355C105.029 60.4342 104.209 59.955 103.408 60.1653C102.606 60.3755 102.127 61.1955 102.338 61.9968L105.239 61.2355ZM103.791 68.2057C103.96 69.0165 104.755 69.5364 105.566 69.3667C106.377 69.197 106.897 68.4022 106.727 67.5913L103.791 68.2057ZM107.943 73.9801C107.801 73.1639 107.024 72.6175 106.208 72.7596C105.392 72.9017 104.845 73.6785 104.987 74.4947L107.943 73.9801ZM106.021 80.8349C106.147 81.6536 106.913 82.2149 107.732 82.0885C108.551 81.9622 109.112 81.196 108.986 80.3773L106.021 80.8349ZM109.947 86.7654C109.825 85.946 109.062 85.3809 108.242 85.5031C107.423 85.6254 106.858 86.3887 106.98 87.208L109.947 86.7654ZM107.959 93.6002C108.089 94.4183 108.858 94.9755 109.676 94.8448C110.494 94.7141 111.052 93.9449 110.921 93.1269L107.959 93.6002ZM112.013 99.4442C111.859 98.6303 111.074 98.0958 110.26 98.2504C109.446 98.405 108.912 99.19 109.066 100.004L112.013 99.4442ZM110.311 106.035C110.481 106.846 111.276 107.366 112.087 107.197C112.898 107.027 113.417 106.232 113.248 105.421L110.311 106.035ZM114.412 111.138C114.251 110.326 113.462 109.797 112.649 109.958C111.836 110.119 111.308 110.909 111.469 111.721L114.412 111.138ZM112.567 117.418C112.719 118.232 113.503 118.769 114.317 118.616C115.132 118.464 115.668 117.68 115.516 116.866L112.567 117.418ZM116.559 122.605C116.415 121.789 115.637 121.245 114.821 121.389C114.005 121.532 113.461 122.31 113.605 123.126L116.559 122.605ZM114.582 128.846C114.717 129.663 115.489 130.216 116.307 130.081C117.124 129.946 117.677 129.173 117.542 128.356L114.582 128.846ZM118.464 134.116C118.337 133.297 117.571 132.736 116.752 132.863C115.933 132.989 115.372 133.756 115.499 134.574L118.464 134.116ZM116.355 140.313C116.473 141.133 117.233 141.702 118.053 141.584C118.873 141.466 119.442 140.706 119.324 139.886L116.355 140.313ZM120.123 145.665C120.014 144.844 119.26 144.266 118.439 144.376C117.618 144.485 117.04 145.239 117.15 146.06L120.123 145.665ZM117.883 151.815C117.983 152.637 118.731 153.223 119.553 153.122C120.376 153.022 120.961 152.274 120.861 151.452L117.883 151.815ZM121.535 157.247C121.444 156.423 120.702 155.83 119.879 155.921C119.056 156.013 118.462 156.754 118.554 157.578L121.535 157.247ZM119.162 163.347C119.245 164.171 119.98 164.773 120.804 164.69C121.628 164.608 122.23 163.873 122.147 163.049L119.162 163.347ZM122.696 168.857C122.622 168.032 121.894 167.422 121.069 167.496C120.244 167.569 119.634 168.297 119.707 169.123L122.696 168.857ZM120.189 174.904C120.253 175.73 120.975 176.347 121.801 176.283C122.627 176.219 123.244 175.497 123.18 174.671L120.189 174.904ZM123.6 180.491C123.545 179.664 122.83 179.038 122.004 179.093C121.177 179.148 120.551 179.863 120.606 180.69L123.6 180.491ZM120.959 186.48C121.004 187.307 121.712 187.941 122.539 187.895C123.366 187.849 124 187.142 123.954 186.315L120.959 186.48ZM124.242 192.142C124.206 191.315 123.506 190.673 122.678 190.709C121.851 190.746 121.209 191.446 121.245 192.273L124.242 192.142ZM121.465 198.069C121.492 198.897 122.185 199.547 123.013 199.52C123.841 199.494 124.49 198.801 124.464 197.973L121.465 198.069ZM124.617 203.807C124.6 202.978 123.915 202.321 123.087 202.338C122.259 202.355 121.601 203.04 121.618 203.868L124.617 203.807ZM121.702 209.667C121.709 210.496 122.387 211.162 123.215 211.154C124.044 211.147 124.709 210.47 124.702 209.641L121.702 209.667ZM124.718 215.477C124.721 214.648 124.051 213.975 123.223 213.972C122.394 213.969 121.721 214.638 121.718 215.467L124.718 215.477ZM121.663 221.266C121.65 222.095 122.311 222.777 123.14 222.789C123.968 222.802 124.65 222.141 124.663 221.313L121.663 221.266ZM124.536 227.148C124.559 226.32 123.907 225.63 123.079 225.607C122.25 225.584 121.56 226.236 121.537 227.064L124.536 227.148ZM121.34 232.859C121.306 233.687 121.95 234.385 122.778 234.419C123.605 234.452 124.304 233.808 124.337 232.98L121.34 232.859ZM124.064 238.812C124.108 237.984 123.473 237.278 122.646 237.234C121.819 237.19 121.112 237.825 121.068 238.652L124.064 238.812ZM120.724 244.419C120.669 245.246 121.294 245.961 122.121 246.016C122.947 246.071 123.662 245.446 123.717 244.619L120.724 244.419ZM123.288 250.406C123.355 249.581 122.741 248.856 121.915 248.789C121.09 248.721 120.365 249.336 120.298 250.162L123.288 250.406ZM119.782 255.895C119.701 256.719 120.303 257.453 121.128 257.534C121.952 257.615 122.686 257.013 122.767 256.188L119.782 255.895ZM122.147 261.962C122.243 261.139 121.654 260.395 120.831 260.299C120.008 260.203 119.263 260.792 119.168 261.615L122.147 261.962ZM118.448 267.321C118.336 268.142 118.911 268.898 119.731 269.01C120.552 269.122 121.308 268.547 121.42 267.726L118.448 267.321ZM120.577 273.476C120.706 272.658 120.147 271.89 119.328 271.761C118.51 271.632 117.742 272.191 117.613 273.01L120.577 273.476ZM116.656 278.676C116.509 279.492 117.051 280.272 117.866 280.419C118.681 280.566 119.461 280.025 119.609 279.209L116.656 278.676ZM118.507 284.92C118.674 284.109 118.151 283.316 117.34 283.149C116.528 282.982 115.735 283.505 115.568 284.316L118.507 284.92ZM114.34 289.925C114.152 290.732 114.654 291.538 115.461 291.726C116.268 291.914 117.074 291.412 117.262 290.605L114.34 289.925ZM115.865 296.257C116.075 295.455 115.596 294.635 114.795 294.425C113.993 294.215 113.173 294.695 112.963 295.496L115.865 296.257ZM111.429 301.023C111.195 301.818 111.65 302.652 112.445 302.885C113.24 303.119 114.074 302.664 114.307 301.869L111.429 301.023ZM112.578 307.434C112.836 306.647 112.408 305.799 111.621 305.541C110.833 305.283 109.986 305.711 109.728 306.498L112.578 307.434ZM107.852 311.913C107.567 312.691 107.968 313.552 108.746 313.836C109.524 314.121 110.385 313.72 110.669 312.942L107.852 311.913ZM108.572 318.385C108.884 317.618 108.514 316.743 107.746 316.431C106.979 316.12 106.104 316.49 105.792 317.257L108.572 318.385ZM103.543 322.521C103.203 323.277 103.54 324.164 104.296 324.504C105.051 324.844 105.939 324.507 106.279 323.751L103.543 322.521ZM103.782 329.029C104.151 328.287 103.849 327.387 103.107 327.018C102.365 326.649 101.465 326.951 101.096 327.693L103.782 329.029ZM98.4469 332.761C98.0482 333.488 98.3137 334.399 99.0399 334.798C99.766 335.197 100.678 334.931 101.077 334.205L98.4469 332.761ZM98.1572 339.268C98.5862 338.559 98.3594 337.637 97.6507 337.208C96.9421 336.779 96.0198 337.005 95.5908 337.714L98.1572 339.268ZM92.5266 342.536C92.0671 343.226 92.2534 344.157 92.9427 344.616C93.632 345.076 94.5633 344.89 95.0228 344.2L92.5266 342.536ZM91.6716 348.992C92.1615 348.324 92.0172 347.385 91.3492 346.895C90.6811 346.406 89.7424 346.55 89.2525 347.218L91.6716 348.992ZM85.7021 351.831C85.1821 352.476 85.2833 353.42 85.9282 353.94C86.5731 354.46 87.5174 354.359 88.0374 353.714L85.7021 351.831ZM84.1246 358.365C84.6704 357.742 84.6076 356.795 83.9844 356.249C83.3612 355.703 82.4135 355.766 81.8677 356.389L84.1246 358.365ZM77.8543 360.8C77.2853 361.402 77.3122 362.351 77.9143 362.92C78.5164 363.489 79.4657 363.462 80.0347 362.86L77.8543 360.8ZM75.7814 367.193C76.373 366.613 76.3824 365.664 75.8025 365.072C75.2225 364.48 74.2728 364.471 73.6812 365.051L75.7814 367.193ZM69.345 369.135C68.7303 369.69 68.6823 370.639 69.2377 371.253C69.7931 371.868 70.7416 371.916 71.3563 371.361L69.345 369.135ZM66.7531 375.338C67.3923 374.811 67.4831 373.866 66.956 373.227C66.4289 372.588 65.4835 372.497 64.8444 373.024L66.7531 375.338ZM60.1696 376.684C59.5039 377.178 59.3641 378.117 59.8573 378.783C60.3505 379.448 61.2899 379.588 61.9555 379.095L60.1696 376.684ZM56.9393 382.584C57.6341 382.133 57.8318 381.204 57.3807 380.509C56.9297 379.814 56.0007 379.616 55.3059 380.067L56.9393 382.584ZM50.2436 383.096C49.5164 383.492 49.2486 384.404 49.6455 385.131C50.0423 385.858 50.9536 386.126 51.6807 385.729L50.2436 383.096ZM46.1414 388.426C46.9037 388.101 47.2585 387.22 46.9341 386.458C46.6096 385.696 45.7286 385.341 44.9664 385.665L46.1414 388.426ZM39.4809 387.617C38.6836 387.842 38.2195 388.67 38.4443 389.468C38.6692 390.265 39.4978 390.729 40.2951 390.504L39.4809 387.617ZM34.1487 391.709C34.9726 391.623 35.5705 390.885 35.4841 390.061C35.3977 389.237 34.6598 388.639 33.8359 388.726L34.1487 391.709ZM27.503 388.705C26.6789 388.62 25.9424 389.22 25.858 390.044C25.7736 390.868 26.3733 391.605 27.1974 391.689L27.503 388.705ZM19.7327 389.99C20.5095 390.278 21.3726 389.882 21.6605 389.105C21.9484 388.328 21.552 387.465 20.7752 387.177L19.7327 389.99ZM14.7633 383.908C14.0995 383.412 13.1596 383.549 12.6639 384.212C12.1682 384.876 12.3045 385.816 12.9682 386.312L14.7633 383.908ZM7.48931 380.961C8.00656 381.608 8.95045 381.713 9.59756 381.196C10.2447 380.679 10.3499 379.735 9.83267 379.088L7.48931 380.961ZM6.38061 373.822C5.99379 373.089 5.08634 372.809 4.35377 373.196C3.6212 373.583 3.34092 374.49 3.72774 375.223L6.38061 373.822ZM1.41833 369.52C1.64301 370.317 2.47155 370.781 3.26893 370.556C4.0663 370.332 4.53057 369.503 4.30589 368.706L1.41833 369.52ZM3.50245 363.319C3.4895 362.49 2.80751 361.829 1.97919 361.842C1.15086 361.855 0.489869 362.537 0.502821 363.366L3.50245 363.319ZM1.23646 357.182C1.03306 357.985 1.51919 358.801 2.32226 359.005C3.12533 359.208 3.94123 358.722 4.14463 357.919L1.23646 357.182ZM6.10165 352.769C6.47544 352.029 6.17913 351.127 5.43982 350.753C4.70052 350.38 3.79818 350.676 3.42439 351.415L6.10165 352.769ZM6.62808 346.235C6.13932 346.904 6.28535 347.842 6.95424 348.331C7.62313 348.82 8.56158 348.674 9.05034 348.005L6.62808 346.235ZM12.6742 343.636C13.237 343.028 13.2005 342.079 12.5926 341.516C11.9848 340.953 11.0357 340.99 10.4729 341.598L12.6742 343.636ZM14.717 337.395C14.1063 337.954 14.065 338.903 14.6247 339.514C15.1844 340.125 16.1333 340.166 16.744 339.606L14.717 337.395ZM21.1117 335.842C21.7535 335.318 21.8493 334.373 21.3255 333.731C20.8017 333.09 19.8568 332.994 19.215 333.518L21.1117 335.842ZM23.8695 329.875C23.2083 330.374 23.0768 331.315 23.5759 331.976C24.0749 332.638 25.0155 332.769 25.6768 332.27L23.8695 329.875ZM30.4465 328.781C31.1244 328.305 31.2881 327.37 30.812 326.692C30.3359 326.014 29.4003 325.85 28.7224 326.326L30.4465 328.781ZM33.8271 322.908C33.1285 323.354 32.9232 324.281 33.3685 324.98C33.8139 325.678 34.7411 325.883 35.4397 325.438L33.8271 322.908ZM40.5779 322.327C41.2964 321.915 41.5448 320.998 41.1325 320.28C40.7203 319.561 39.8036 319.313 39.085 319.725L40.5779 322.327ZM44.4943 316.797C43.756 317.173 43.4621 318.076 43.8379 318.814C44.2137 319.552 45.1168 319.846 45.8551 319.471L44.4943 316.797ZM51.2682 316.897C52.0261 316.562 52.3691 315.677 52.0345 314.919C51.6998 314.161 50.8142 313.818 50.0564 314.153L51.2682 316.897ZM55.7719 311.832C54.995 312.119 54.5981 312.982 54.8855 313.759C55.1729 314.536 56.0357 314.933 56.8127 314.646L55.7719 311.832ZM62.4805 312.767C63.2757 312.535 63.7321 311.702 63.4998 310.907C63.2676 310.112 62.4346 309.655 61.6394 309.887L62.4805 312.767ZM67.6518 308.386C66.8404 308.553 66.3182 309.347 66.4854 310.158C66.6526 310.969 67.4459 311.492 68.2572 311.325L67.6518 308.386ZM74.117 310.395C74.9406 310.305 75.5351 309.564 75.4451 308.741C75.355 307.917 74.6144 307.323 73.7909 307.413L74.117 310.395ZM80.0193 307.068C79.1909 307.067 78.5187 307.738 78.5178 308.566C78.517 309.395 79.1879 310.067 80.0164 310.068L80.0193 307.068ZM85.8876 310.438C86.7093 310.543 87.4609 309.963 87.5665 309.141C87.672 308.319 87.0914 307.568 86.2698 307.462L85.8876 310.438ZM92.4318 308.697C91.6334 308.476 90.8071 308.944 90.5862 309.742C90.3653 310.541 90.8334 311.367 91.6319 311.588L92.4318 308.697ZM97.1272 313.566C97.8829 313.906 98.7707 313.569 99.1102 312.813C99.4498 312.057 99.1124 311.169 98.3567 310.83L97.1272 313.566ZM103.886 313.846C103.191 313.395 102.262 313.593 101.811 314.287C101.36 314.982 101.557 315.911 102.252 316.362L103.886 313.846ZM106.91 319.903C107.531 320.451 108.479 320.39 109.027 319.768C109.574 319.147 109.514 318.199 108.892 317.651L106.91 319.903ZM113.313 322.102C112.768 321.478 111.82 321.414 111.196 321.959C110.572 322.504 110.508 323.451 111.053 324.075L113.313 322.102ZM114.635 328.654C115.116 329.328 116.053 329.485 116.728 329.004C117.402 328.523 117.559 327.586 117.078 326.912L114.635 328.654ZM120.338 331.876C119.91 331.167 118.988 330.939 118.278 331.367C117.569 331.795 117.341 332.717 117.769 333.426L120.338 331.876ZM120.541 338.425C120.917 339.164 121.82 339.458 122.558 339.083C123.297 338.708 123.591 337.805 123.216 337.066L120.541 338.425ZM125.717 342.44C125.393 341.678 124.512 341.322 123.75 341.646C122.987 341.97 122.632 342.851 122.956 343.613L125.717 342.44ZM125.025 348.958C125.299 349.739 126.156 350.15 126.937 349.876C127.719 349.601 128.13 348.745 127.855 347.963L125.025 348.958ZM129.65 353.602C129.421 352.806 128.591 352.345 127.794 352.573C126.998 352.801 126.538 353.632 126.766 354.428L129.65 353.602ZM128.196 359.991C128.381 360.798 129.186 361.303 129.993 361.118C130.801 360.933 131.305 360.128 131.12 359.321L128.196 359.991ZM132.294 365.102C132.149 364.287 131.37 363.743 130.554 363.888C129.739 364.033 129.195 364.812 129.34 365.627L132.294 365.102ZM130.218 371.32C130.327 372.142 131.08 372.72 131.902 372.611C132.723 372.503 133.301 371.75 133.193 370.928L130.218 371.32ZM133.841 376.783C133.766 375.958 133.037 375.35 132.212 375.424C131.387 375.499 130.778 376.228 130.853 377.053L133.841 376.783ZM131.263 382.81C131.307 383.637 132.013 384.273 132.84 384.229C133.667 384.185 134.303 383.479 134.259 382.652L131.263 382.81ZM134.468 388.525C134.452 387.697 133.768 387.038 132.94 387.053C132.111 387.069 131.453 387.753 131.468 388.581L134.468 388.525ZM131.485 394.362C131.475 395.19 132.139 395.87 132.967 395.88C133.795 395.89 134.475 395.227 134.485 394.399L131.485 394.362ZM134.329 400.267C134.362 399.44 133.719 398.741 132.891 398.708C132.063 398.674 131.365 399.318 131.331 400.145L134.329 400.267ZM131.019 405.926C130.964 406.753 131.589 407.467 132.416 407.523C133.243 407.578 133.957 406.953 134.013 406.126L131.019 405.926ZM133.551 411.971C133.626 411.146 133.018 410.417 132.193 410.342C131.368 410.267 130.638 410.875 130.563 411.7L133.551 411.971ZM129.975 417.465C129.882 418.288 130.474 419.031 131.298 419.124C132.121 419.217 132.863 418.625 132.956 417.802L129.975 417.465ZM132.24 423.617C132.349 422.796 131.772 422.041 130.951 421.932C130.13 421.822 129.375 422.399 129.266 423.22L132.24 423.617ZM128.446 428.963C128.321 429.782 128.884 430.547 129.703 430.671C130.522 430.796 131.287 430.233 131.411 429.414L128.446 428.963ZM130.481 435.192C130.62 434.375 130.07 433.601 129.253 433.463C128.436 433.324 127.662 433.874 127.523 434.691L130.481 435.192ZM126.508 440.403C126.357 441.217 126.895 442 127.71 442.151C128.524 442.302 129.307 441.764 129.458 440.95L126.508 440.403ZM128.349 446.695C128.512 445.883 127.985 445.093 127.173 444.93C126.36 444.767 125.57 445.294 125.407 446.106L128.349 446.695ZM124.229 451.798C124.055 452.608 124.572 453.405 125.382 453.578C126.192 453.751 126.989 453.235 127.162 452.425L124.229 451.798ZM125.907 458.133C126.09 457.325 125.583 456.522 124.775 456.34C123.966 456.157 123.163 456.665 122.981 457.473L125.907 458.133ZM121.673 463.127C121.483 463.933 121.982 464.741 122.788 464.932C123.594 465.123 124.402 464.624 124.593 463.818L121.673 463.127ZM123.221 469.506C123.418 468.701 122.926 467.889 122.122 467.691C121.317 467.493 120.505 467.985 120.307 468.79L123.221 469.506ZM118.909 474.383C118.705 475.186 119.19 476.003 119.993 476.207C120.796 476.411 121.612 475.926 121.817 475.123L118.909 474.383ZM120.367 480.707C120.579 479.906 120.102 479.085 119.301 478.873C118.5 478.661 117.679 479.138 117.467 479.939L120.367 480.707ZM115.971 485.479C115.75 486.278 116.219 487.104 117.018 487.324C117.817 487.544 118.643 487.075 118.863 486.277L115.971 485.479ZM117.299 491.832C117.528 491.036 117.068 490.205 116.272 489.976C115.476 489.747 114.645 490.207 114.416 491.003L117.299 491.832ZM112.799 496.507C112.56 497.3 113.011 498.136 113.804 498.375C114.597 498.613 115.434 498.163 115.672 497.369L112.799 496.507ZM113.978 502.888C114.226 502.098 113.786 501.256 112.996 501.008C112.205 500.76 111.364 501.199 111.116 501.99L113.978 502.888ZM109.362 507.45C109.104 508.237 109.532 509.084 110.319 509.343C111.106 509.601 111.954 509.173 112.212 508.386L109.362 507.45ZM110.371 513.86C110.641 513.077 110.225 512.223 109.441 511.954C108.658 511.684 107.805 512.1 107.535 512.884L110.371 513.86ZM105.629 518.289C105.347 519.068 105.751 519.928 106.53 520.209C107.309 520.491 108.169 520.087 108.45 519.308L105.629 518.289ZM106.444 524.727C106.738 523.953 106.348 523.086 105.574 522.793C104.799 522.499 103.933 522.888 103.639 523.663L106.444 524.727ZM101.562 529.001C101.254 529.771 101.629 530.643 102.399 530.95C103.168 531.257 104.041 530.883 104.348 530.113L101.562 529.001ZM102.156 535.464C102.477 534.7 102.118 533.821 101.355 533.499C100.591 533.178 99.7117 533.537 99.3907 534.301L102.156 535.464ZM97.1215 539.557C96.7857 540.315 97.1274 541.201 97.8847 541.537C98.6421 541.872 99.5282 541.531 99.864 540.773L97.1215 539.557ZM97.4654 546.038C97.8167 545.287 97.4933 544.394 96.7431 544.043C95.9929 543.692 95.0999 544.015 94.7485 544.765L97.4654 546.038ZM93.6477 41.8654C94.2438 42.7093 94.8106 43.5798 95.3502 44.4749L97.9195 42.9261C97.3443 41.972 96.738 41.0406 96.0981 40.1346L93.6477 41.8654ZM98.2372 50.0365C99.0819 51.9267 99.8396 53.8911 100.525 55.9151L103.366 54.953C102.655 52.8519 101.864 50.7989 100.976 48.8125L98.2372 50.0365ZM102.338 61.9968C102.872 64.0327 103.352 66.1068 103.791 68.2057L106.727 67.5913C106.279 65.4519 105.788 63.3281 105.239 61.2355L102.338 61.9968ZM104.987 74.4947C105.355 76.604 105.695 78.7215 106.021 80.8349L108.986 80.3773C108.658 78.2525 108.315 76.1147 107.943 73.9801L104.987 74.4947ZM106.98 87.208C107.302 89.3634 107.623 91.5009 107.959 93.6002L110.921 93.1269C110.588 91.0443 110.269 88.9202 109.947 86.7654L106.98 87.208ZM109.066 100.004C109.271 101.084 109.485 102.15 109.71 103.198L112.643 102.569C112.424 101.546 112.215 100.504 112.013 99.4442L109.066 100.004ZM109.71 103.198C109.913 104.143 110.113 105.089 110.311 106.035L113.248 105.421C113.049 104.469 112.847 103.518 112.643 102.569L109.71 103.198ZM111.469 111.721C111.845 113.616 112.211 115.515 112.567 117.418L115.516 116.866C115.157 114.953 114.79 113.044 114.412 111.138L111.469 111.721ZM113.605 123.126C113.94 125.03 114.266 126.936 114.582 128.846L117.542 128.356C117.224 126.436 116.896 124.519 116.559 122.605L113.605 123.126ZM115.499 134.574C115.794 136.485 116.08 138.397 116.355 140.313L119.324 139.886C119.047 137.96 118.761 136.037 118.464 134.116L115.499 134.574ZM117.15 146.06C117.404 147.976 117.649 149.895 117.883 151.815L120.861 151.452C120.625 149.521 120.379 147.592 120.123 145.665L117.15 146.06ZM118.554 157.578C118.767 159.499 118.97 161.423 119.162 163.347L122.147 163.049C121.954 161.113 121.75 159.179 121.535 157.247L118.554 157.578ZM119.707 169.123C119.879 171.049 120.039 172.976 120.189 174.904L123.18 174.671C123.029 172.732 122.868 170.794 122.696 168.857L119.707 169.123ZM120.606 180.69C120.735 182.619 120.852 184.55 120.959 186.48L123.954 186.315C123.847 184.373 123.729 182.432 123.6 180.491L120.606 180.69ZM121.245 192.273C121.33 194.206 121.403 196.138 121.465 198.069L124.464 197.973C124.401 196.03 124.327 194.086 124.242 192.142L121.245 192.273ZM121.618 203.868C121.657 205.802 121.686 207.735 121.702 209.667L124.702 209.641C124.685 207.697 124.657 205.752 124.617 203.807L121.618 203.868ZM121.718 215.467C121.711 217.401 121.693 219.335 121.663 221.266L124.663 221.313C124.693 219.369 124.711 217.423 124.718 215.477L121.718 215.467ZM121.537 227.064C121.483 228.998 121.418 230.93 121.34 232.859L124.337 232.98C124.416 231.038 124.482 229.094 124.536 227.148L121.537 227.064ZM121.068 238.652C121.017 239.617 120.963 240.582 120.905 241.546L123.9 241.725C123.958 240.754 124.013 239.783 124.064 238.812L121.068 238.652ZM120.905 241.546C120.848 242.503 120.788 243.461 120.724 244.419L123.717 244.619C123.781 243.654 123.842 242.689 123.9 241.725L120.905 241.546ZM120.298 250.162C120.141 252.073 119.97 253.984 119.782 255.895L122.767 256.188C122.957 254.261 123.13 252.333 123.288 250.406L120.298 250.162ZM119.168 261.615C118.946 263.52 118.706 265.422 118.448 267.321L121.42 267.726C121.681 265.807 121.923 263.885 122.147 261.962L119.168 261.615ZM117.613 273.01C117.315 274.903 116.997 276.793 116.656 278.676L119.609 279.209C119.953 277.303 120.275 275.391 120.577 273.476L117.613 273.01ZM115.568 284.316C115.182 286.193 114.774 288.063 114.34 289.925L117.262 290.605C117.701 288.717 118.116 286.822 118.507 284.92L115.568 284.316ZM112.963 295.496C112.478 297.348 111.967 299.191 111.429 301.023L114.307 301.869C114.854 300.007 115.373 298.136 115.865 296.257L112.963 295.496ZM109.728 306.498C109.131 308.315 108.507 310.12 107.852 311.913L110.669 312.942C111.336 311.118 111.972 309.281 112.578 307.434L109.728 306.498ZM105.792 317.257C105.074 319.026 104.325 320.781 103.543 322.521L106.279 323.751C107.077 321.977 107.841 320.188 108.572 318.385L105.792 317.257ZM101.096 327.693C100.248 329.399 99.3649 331.089 98.4469 332.761L101.077 334.205C102.015 332.497 102.916 330.771 103.782 329.029L101.096 327.693ZM95.5908 337.714C94.6062 339.341 93.5853 340.948 92.5266 342.536L95.0228 344.2C96.1061 342.575 97.1504 340.931 98.1572 339.268L95.5908 337.714ZM89.2525 347.218C88.6901 347.985 88.1182 348.746 87.5365 349.503L89.9145 351.332C90.5102 350.557 91.0958 349.777 91.6716 348.992L89.2525 347.218ZM87.5365 349.503C86.9544 350.259 86.3423 351.037 85.7021 351.831L88.0374 353.714C88.6917 352.903 89.318 352.107 89.9145 351.332L87.5365 349.503ZM81.8677 356.389C80.5988 357.838 79.2577 359.315 77.8543 360.8L80.0347 362.86C81.4646 361.347 82.8311 359.842 84.1246 358.365L81.8677 356.389ZM73.6812 365.051C72.2783 366.426 70.8304 367.793 69.345 369.135L71.3563 371.361C72.8734 369.99 74.351 368.596 75.7814 367.193L73.6812 365.051ZM64.8444 373.024C63.3118 374.288 61.751 375.513 60.1696 376.684L61.9555 379.095C63.5818 377.89 65.1835 376.633 66.7531 375.338L64.8444 373.024ZM55.3059 380.067C53.628 381.156 51.9378 382.171 50.2436 383.096L51.6807 385.729C53.4482 384.764 55.2038 383.71 56.9393 382.584L55.3059 380.067ZM44.9664 385.665C43.1249 386.449 41.293 387.106 39.4809 387.617L40.2951 390.504C42.2441 389.955 44.1967 389.254 46.1414 388.426L44.9664 385.665ZM33.8359 388.726C32.8779 388.826 31.93 388.878 30.9935 388.878V391.878C32.04 391.878 33.0925 391.82 34.1487 391.709L33.8359 388.726ZM30.9935 388.878C29.7954 388.878 28.632 388.82 27.503 388.705L27.1974 391.689C28.4339 391.816 29.6995 391.878 30.9935 391.878V388.878ZM20.7752 387.177C18.6258 386.381 16.6227 385.297 14.7633 383.908L12.9682 386.312C15.0596 387.874 17.3166 389.095 19.7327 389.99L20.7752 387.177ZM9.83267 379.088C9.12854 378.207 8.45069 377.261 7.79975 376.247L5.27534 377.868C5.97931 378.964 6.71721 379.995 7.48931 380.961L9.83267 379.088ZM7.79975 376.247C7.27382 375.428 6.80176 374.62 6.38061 373.822L3.72774 375.223C4.1903 376.099 4.70553 376.981 5.27534 377.868L7.79975 376.247ZM4.30589 368.706C3.78455 366.856 3.5297 365.061 3.50245 363.319L0.502821 363.366C0.534194 365.372 0.827925 367.424 1.41833 369.52L4.30589 368.706ZM4.14463 357.919C4.58898 356.164 5.25256 354.448 6.10165 352.769L3.42439 351.415C2.4881 353.267 1.74115 355.189 1.23646 357.182L4.14463 357.919ZM9.05034 348.005C10.1414 346.512 11.3597 345.056 12.6742 343.636L10.4729 341.598C9.09231 343.089 7.79776 344.634 6.62808 346.235L9.05034 348.005ZM16.744 339.606C18.1541 338.314 19.6198 337.059 21.1117 335.842L19.215 333.518C17.6872 334.764 16.177 336.057 14.717 337.395L16.744 339.606ZM25.6768 332.27C26.4566 331.681 27.2346 331.103 28.0069 330.535L26.229 328.119C25.4489 328.693 24.6609 329.278 23.8695 329.875L25.6768 332.27ZM28.0069 330.535C28.8066 329.947 29.6201 329.362 30.4465 328.781L28.7224 326.326C27.8778 326.919 27.0464 327.517 26.229 328.119L28.0069 330.535ZM35.4397 325.438C37.1148 324.37 38.8298 323.33 40.5779 322.327L39.085 319.725C37.295 320.752 35.5401 321.816 33.8271 322.908L35.4397 325.438ZM45.8551 319.471C47.6367 318.564 49.4432 317.703 51.2682 316.897L50.0564 314.153C48.1785 314.982 46.3223 315.866 44.4943 316.797L45.8551 319.471ZM56.8127 314.646C58.6929 313.95 60.5844 313.321 62.4805 312.767L61.6394 309.887C59.6719 310.462 57.7137 311.114 55.7719 311.832L56.8127 314.646ZM68.2572 311.325C70.2165 310.921 72.1721 310.608 74.117 310.395L73.7909 307.413C71.746 307.636 69.697 307.965 67.6518 308.386L68.2572 311.325ZM80.0164 310.068C81.996 310.07 83.9556 310.19 85.8876 310.438L86.2698 307.462C84.2045 307.197 82.1179 307.07 80.0193 307.068L80.0164 310.068ZM91.6319 311.588C93.4993 312.105 95.3335 312.76 97.1272 313.566L98.3567 310.83C96.42 309.96 94.4419 309.253 92.4318 308.697L91.6319 311.588ZM102.252 316.362C103.845 317.397 105.4 318.574 106.91 319.903L108.892 317.651C107.274 316.227 105.603 314.962 103.886 313.846L102.252 316.362ZM111.053 324.075C111.689 324.804 112.315 325.565 112.931 326.36L115.303 324.523C114.652 323.683 113.988 322.876 113.313 322.102L111.053 324.075ZM112.931 326.36C113.515 327.115 114.083 327.88 114.635 328.654L117.078 326.912C116.503 326.106 115.912 325.31 115.303 324.523L112.931 326.36ZM117.769 333.426C118.754 335.057 119.677 336.725 120.541 338.425L123.216 337.066C122.319 335.302 121.361 333.571 120.338 331.876L117.769 333.426ZM122.956 343.613C123.7 345.365 124.389 347.148 125.025 348.958L127.855 347.963C127.199 346.095 126.487 344.253 125.717 342.44L122.956 343.613ZM126.766 354.428C127.29 356.259 127.766 358.114 128.196 359.991L131.12 359.321C130.679 357.394 130.19 355.487 129.65 353.602L126.766 354.428ZM129.34 365.627C129.674 367.508 129.966 369.406 130.218 371.32L133.193 370.928C132.935 368.972 132.636 367.029 132.294 365.102L129.34 365.627ZM130.853 377.053C131.025 378.961 131.161 380.88 131.263 382.81L134.259 382.652C134.155 380.687 134.016 378.73 133.841 376.783L130.853 377.053ZM131.468 388.581C131.504 390.502 131.509 392.429 131.485 394.362L134.485 394.399C134.509 392.437 134.504 390.478 134.468 388.525L131.468 388.581ZM131.331 400.145C131.253 402.071 131.148 403.998 131.019 405.926L134.013 406.126C134.143 404.173 134.249 402.22 134.329 400.267L131.331 400.145ZM130.563 411.7C130.389 413.625 130.192 415.547 129.975 417.465L132.956 417.802C133.175 415.863 133.374 413.919 133.551 411.971L130.563 411.7ZM129.266 423.22C129.01 425.142 128.736 427.057 128.446 428.963L131.411 429.414C131.704 427.491 131.981 425.558 132.24 423.617L129.266 423.22ZM127.523 434.691C127.198 436.608 126.859 438.512 126.508 440.403L129.458 440.95C129.812 439.045 130.153 437.125 130.481 435.192L127.523 434.691ZM125.407 446.106C125.024 448.023 124.63 449.921 124.229 451.798L127.162 452.425C127.566 450.536 127.962 448.625 128.349 446.695L125.407 446.106ZM122.981 457.473C122.549 459.384 122.112 461.27 121.673 463.127L124.593 463.818C125.034 461.952 125.473 460.056 125.907 458.133L122.981 457.473ZM120.307 468.79C120.075 469.736 119.842 470.673 119.611 471.6L122.521 472.327C122.754 471.396 122.987 470.456 123.221 469.506L120.307 468.79ZM119.611 471.6C119.379 472.527 119.146 473.455 118.909 474.383L121.817 475.123C122.054 474.19 122.289 473.258 122.521 472.327L119.611 471.6ZM117.467 479.939C116.979 481.784 116.48 483.631 115.971 485.479L118.863 486.277C119.375 484.419 119.876 482.561 120.367 480.707L117.467 479.939ZM114.416 491.003C113.888 492.838 113.349 494.673 112.799 496.507L115.672 497.369C116.226 495.524 116.768 493.678 117.299 491.832L114.416 491.003ZM111.116 501.99C110.543 503.813 109.959 505.633 109.362 507.45L112.212 508.386C112.813 506.557 113.402 504.724 113.978 502.888L111.116 501.99ZM107.535 512.884C106.912 514.691 106.277 516.493 105.629 518.289L108.45 519.308C109.104 517.498 109.744 515.682 110.371 513.86L107.535 512.884ZM103.639 523.663C102.961 525.451 102.268 527.23 101.562 529.001L104.348 530.113C105.061 528.326 105.76 526.53 106.444 524.727L103.639 523.663ZM99.3907 534.301C98.6495 536.064 97.8933 537.817 97.1215 539.557L99.864 540.773C100.644 539.014 101.408 537.244 102.156 535.464L99.3907 534.301ZM94.7485 544.765C94.3436 545.63 93.9346 546.491 93.5214 547.349L96.2244 548.651C96.6423 547.783 97.0559 546.912 97.4654 546.038L94.7485 544.765Z" fill="#7EFFBC"/>
<path d="M98.7285 0C98.7285 0 102.52 16.4901 109.737 23.7101C116.958 30.9339 133.457 34.7286 133.457 34.7286C133.457 34.7286 116.958 38.5079 109.737 45.7266C102.512 52.949 98.7285 69.4573 98.7285 69.4573C98.7285 69.4573 94.9455 52.949 87.7203 45.7266C80.4989 38.5079 63.9999 34.7286 63.9999 34.7286C63.9999 34.7286 80.4992 30.9339 87.7203 23.7101C94.9375 16.4901 98.7285 0 98.7285 0Z" fill="#7EFFBC"/>
<path d="M75.4907 603.617L63.931 533L91.0237 554.053L82.6409 584.726L96.6692 556.19L130.912 558.353L75.4907 603.617Z" fill="#7EFFBC"/>
</svg>
