<svg width="326" height="326" viewBox="0 0 326 326" fill="none" xmlns="http://www.w3.org/2000/svg">
<path d="M214.285 163C214.285 191.324 191.324 214.285 163 214.285C134.676 214.285 111.715 191.324 111.715 163C111.715 134.676 134.676 111.715 163 111.715C191.324 111.715 214.285 134.676 214.285 163Z" fill="#FFF5D3"/>
<path d="M143.074 19.9259C143.074 8.92111 151.995 0 163 0C174.005 0 182.926 8.92111 182.926 19.9259V64.3507C182.926 75.3554 174.005 84.2766 163 84.2766C151.995 84.2766 143.074 75.3554 143.074 64.3507V19.9259Z" fill="#FFF5D3"/>
<path d="M143.074 261.649C143.074 250.645 151.995 241.723 163 241.723C174.005 241.723 182.926 250.645 182.926 261.649V306.074C182.926 317.079 174.005 326 163 326C151.995 326 143.074 317.079 143.074 306.074V261.649Z" fill="#FFF5D3"/>
<path d="M261.649 182.926C250.645 182.926 241.723 174.005 241.723 163C241.723 151.995 250.645 143.074 261.649 143.074H306.074C317.079 143.074 326 151.995 326 163C326 174.005 317.079 182.926 306.074 182.926H261.649Z" fill="#FFF5D3"/>
<path d="M19.9259 182.926C8.92111 182.926 0 174.005 0 163C0 151.995 8.92111 143.074 19.9259 143.074H64.3507C75.3554 143.074 84.2766 151.995 84.2766 163C84.2766 174.005 75.3554 182.926 64.3507 182.926H19.9259Z" fill="#FFF5D3"/>
<path d="M252.084 49.5685C259.805 41.8466 272.325 41.8466 280.047 49.5685C287.769 57.2904 287.769 69.8101 280.047 77.532L248.436 109.143C240.714 116.865 228.195 116.865 220.473 109.143C212.751 101.421 212.751 88.9013 220.473 81.1794L252.084 49.5685Z" fill="#FFF5D3"/>
<path d="M77.7987 217.102C85.5206 209.38 98.0403 209.38 105.762 217.102C113.484 224.824 113.484 237.343 105.762 245.065L74.1513 276.676C66.4294 284.398 53.9097 284.398 46.1878 276.676C38.4658 268.954 38.4659 256.434 46.1878 248.713L77.7987 217.102Z" fill="#FFF5D3"/>
<path d="M217.102 248.198C209.38 240.476 209.38 227.956 217.102 220.234C224.824 212.512 237.343 212.512 245.065 220.234L276.676 251.845C284.398 259.567 284.398 272.087 276.676 279.809C268.954 287.531 256.434 287.531 248.713 279.809L217.102 248.198Z" fill="#FFF5D3"/>
<path d="M49.5685 73.9129C41.8466 66.191 41.8466 53.6713 49.5685 45.9494C57.2904 38.2275 69.8101 38.2275 77.532 45.9494L109.143 77.5603C116.865 85.2822 116.865 97.8019 109.143 105.524C101.421 113.246 88.9013 113.246 81.1794 105.524L49.5685 73.9129Z" fill="#FFF5D3"/>
</svg>
