<svg width="549" height="66" viewBox="0 0 549 66" fill="none" xmlns="http://www.w3.org/2000/svg">
<path d="M-6.53267e-05 32.9961L5.77344 38.7696L11.5469 32.9961L5.77344 27.2226L-6.53267e-05 32.9961ZM190.547 32.9961L184.773 27.2226L179 32.9961L184.773 38.7696L190.547 32.9961ZM5.77344 32.9961V33.9961H184.773V32.9961V31.9961H5.77344V32.9961Z" fill="#A54C48"/>
<path d="M179 32.9961L184.773 38.7696L190.547 32.9961L184.773 27.2226L179 32.9961ZM369.547 32.9961L363.773 27.2226L358 32.9961L363.773 38.7696L369.547 32.9961ZM184.773 32.9961V33.9961H363.773V32.9961V31.9961H184.773V32.9961Z" fill="#A54C48"/>
<path d="M358 32.9961L363.773 38.7696L369.547 32.9961L363.773 27.2226L358 32.9961ZM548.547 32.9961L542.773 27.2226L537 32.9961L542.773 38.7696L548.547 32.9961ZM363.773 32.9961V33.9961H542.773V32.9961V31.9961H363.773V32.9961Z" fill="#A54C48"/>
<path d="M184.162 62.4779C183.72 60.9132 183.061 58.7557 182.188 56.3846C180.45 51.6629 177.838 46.0144 174.372 42.547C170.904 39.0779 165.253 36.4645 160.529 34.7246C158.157 33.8509 155.999 33.1904 154.433 32.7483C154.202 32.683 153.983 32.6259 153.779 32.5702C153.983 32.5146 154.202 32.455 154.433 32.3899C155.998 31.9493 158.157 31.2907 160.529 30.4191C165.253 28.6835 170.904 26.0747 174.373 22.6078C177.842 19.1391 180.454 13.486 182.191 8.75986C183.063 6.38649 183.721 4.22666 184.162 2.66037C184.227 2.42956 184.286 2.21107 184.342 2.00713C184.397 2.21107 184.456 2.42956 184.521 2.66037C184.962 4.22666 185.62 6.38649 186.493 8.75986C188.23 13.486 190.841 19.1391 194.311 22.6078C197.779 26.0747 203.431 28.6835 208.155 30.4191C210.527 31.2907 212.685 31.9493 214.251 32.3899C214.482 32.455 214.701 32.5146 214.905 32.5702C214.701 32.6259 214.481 32.683 214.25 32.7483C212.685 33.1904 210.526 33.8509 208.154 34.7246C203.43 36.4645 197.78 39.0779 194.312 42.547C190.846 46.0144 188.234 51.6629 186.496 56.3846C185.623 58.7557 184.964 60.9132 184.522 62.4779C184.457 62.71 184.398 62.9297 184.342 63.1346C184.286 62.9297 184.227 62.71 184.162 62.4779Z" fill="#A54C48" stroke="#A54C48"/>
</svg>
