<svg width="575" height="66" viewBox="0 0 575 66" fill="none" xmlns="http://www.w3.org/2000/svg">
<path d="M-6.53267e-05 32.9961L5.77344 38.7696L11.5469 32.9961L5.77344 27.2226L-6.53267e-05 32.9961ZM190.547 32.9961L184.773 27.2226L179 32.9961L184.773 38.7696L190.547 32.9961ZM5.77344 32.9961V33.9961H184.773V32.9961V31.9961H5.77344V32.9961Z" fill="#A54C48"/>
<path d="M179 32.9961L184.773 38.7696L190.547 32.9961L184.773 27.2226L179 32.9961ZM369.547 32.9961L363.773 27.2226L358 32.9961L363.773 38.7696L369.547 32.9961ZM184.773 32.9961V33.9961H363.773V32.9961V31.9961H184.773V32.9961Z" fill="#A54C48"/>
<path d="M358 32.9961L363.773 38.7696L369.547 32.9961L363.773 27.2226L358 32.9961ZM548.547 32.9961L542.773 27.2226L537 32.9961L542.773 38.7696L548.547 32.9961ZM363.773 32.9961V33.9961H542.773V32.9961V31.9961H363.773V32.9961Z" fill="#A54C48"/>
<path d="M542.162 62.4779C541.72 60.9132 541.061 58.7557 540.188 56.3846C538.45 51.6629 535.838 46.0144 532.372 42.547C528.904 39.0779 523.253 36.4645 518.529 34.7246C516.157 33.8509 513.999 33.1904 512.433 32.7483C512.202 32.683 511.983 32.6259 511.779 32.5702C511.983 32.5146 512.202 32.455 512.433 32.3899C513.998 31.9493 516.157 31.2907 518.529 30.4191C523.253 28.6835 528.904 26.0747 532.373 22.6078C535.842 19.1391 538.454 13.486 540.191 8.75986C541.063 6.38649 541.721 4.22666 542.162 2.66037C542.227 2.42956 542.286 2.21107 542.342 2.00713C542.397 2.21107 542.456 2.42956 542.521 2.66037C542.962 4.22666 543.62 6.38649 544.493 8.75986C546.23 13.486 548.841 19.1391 552.311 22.6078C555.779 26.0747 561.431 28.6835 566.155 30.4191C568.527 31.2907 570.685 31.9493 572.251 32.3899C572.482 32.455 572.701 32.5146 572.905 32.5702C572.701 32.6259 572.481 32.683 572.25 32.7483C570.685 33.1904 568.526 33.8509 566.154 34.7246C561.43 36.4645 555.78 39.0779 552.312 42.547C548.846 46.0144 546.234 51.6629 544.496 56.3846C543.623 58.7557 542.964 60.9132 542.522 62.4779C542.457 62.71 542.398 62.9297 542.342 63.1346C542.286 62.9297 542.227 62.71 542.162 62.4779Z" fill="#A54C48" stroke="#A54C48"/>
</svg>
