<svg width="576" height="66" viewBox="0 0 576 66" fill="none" xmlns="http://www.w3.org/2000/svg">
<path d="M27.2285 32.9961L33.002 38.7696L38.7755 32.9961L33.002 27.2226L27.2285 32.9961ZM217.775 32.9961L212.002 27.2226L206.228 32.9961L212.002 38.7696L217.775 32.9961ZM33.002 32.9961V33.9961H212.002V32.9961V31.9961H33.002V32.9961Z" fill="#A54C48"/>
<path d="M206.228 32.9961L212.002 38.7696L217.775 32.9961L212.002 27.2226L206.228 32.9961ZM396.775 32.9961L391.002 27.2226L385.228 32.9961L391.002 38.7696L396.775 32.9961ZM212.002 32.9961V33.9961H391.002V32.9961V31.9961H212.002V32.9961Z" fill="#A54C48"/>
<path d="M385.228 32.9961L391.002 38.7696L396.775 32.9961L391.002 27.2226L385.228 32.9961ZM575.775 32.9961L570.002 27.2226L564.228 32.9961L570.002 38.7696L575.775 32.9961ZM391.002 32.9961V33.9961H570.002V32.9961V31.9961H391.002V32.9961Z" fill="#A54C48"/>
<path d="M32.3881 62.4779C31.9465 60.9132 31.2875 58.7557 30.4146 56.3846C28.6763 51.6629 26.0645 46.0144 22.5984 42.547C19.1305 39.0779 13.4799 36.4645 8.75599 34.7246C6.38375 33.8509 4.2254 33.1904 2.65995 32.7483C2.42878 32.683 2.20953 32.6259 2.00533 32.5702C2.20954 32.5146 2.42806 32.455 2.65926 32.3899C4.22466 31.9493 6.38311 31.2907 8.7553 30.4191C13.4793 28.6835 19.1309 26.0747 22.5991 22.6078C26.069 19.1391 28.6801 13.486 30.4173 8.75986C31.2898 6.38649 31.9478 4.22666 32.3888 2.66037C32.4538 2.42956 32.5128 2.21107 32.5684 2.00713C32.6239 2.21107 32.6829 2.42956 32.7479 2.66037C33.1889 4.22666 33.847 6.38649 34.7194 8.75986C36.4566 13.486 39.0678 19.1391 42.5376 22.6078C46.0058 26.0747 51.6574 28.6835 56.3814 30.4191C58.7536 31.2907 60.9121 31.9493 62.4775 32.3899C62.7087 32.455 62.9272 32.5146 63.1314 32.5702C62.9272 32.6259 62.7079 32.683 62.4768 32.7483C60.9113 33.1904 58.753 33.8509 56.3807 34.7246C51.6568 36.4645 46.0062 39.0779 42.5383 42.547C39.0722 46.0144 36.4604 51.6629 34.7221 56.3846C33.8492 58.7557 33.1902 60.9132 32.7486 62.4779C32.6831 62.71 32.6243 62.9297 32.5684 63.1346C32.5124 62.9297 32.4536 62.71 32.3881 62.4779Z" fill="#A54C48" stroke="#A54C48"/>
</svg>
