<svg width="549" height="66" viewBox="0 0 549 66" fill="none" xmlns="http://www.w3.org/2000/svg">
<path d="M-6.53267e-05 32.9961L5.77344 38.7696L11.5469 32.9961L5.77344 27.2226L-6.53267e-05 32.9961ZM190.547 32.9961L184.773 27.2226L179 32.9961L184.773 38.7696L190.547 32.9961ZM5.77344 32.9961V33.9961H184.773V32.9961V31.9961H5.77344V32.9961Z" fill="#A54C48"/>
<path d="M179 32.9961L184.773 38.7696L190.547 32.9961L184.773 27.2226L179 32.9961ZM369.547 32.9961L363.773 27.2226L358 32.9961L363.773 38.7696L369.547 32.9961ZM184.773 32.9961V33.9961H363.773V32.9961V31.9961H184.773V32.9961Z" fill="#A54C48"/>
<path d="M358 32.9961L363.773 38.7696L369.547 32.9961L363.773 27.2226L358 32.9961ZM548.547 32.9961L542.773 27.2226L537 32.9961L542.773 38.7696L548.547 32.9961ZM363.773 32.9961V33.9961H542.773V32.9961V31.9961H363.773V32.9961Z" fill="#A54C48"/>
<path d="M363.162 62.4779C362.72 60.9132 362.061 58.7557 361.188 56.3846C359.45 51.6629 356.838 46.0144 353.372 42.547C349.904 39.0779 344.253 36.4645 339.529 34.7246C337.157 33.8509 334.999 33.1904 333.433 32.7483C333.202 32.683 332.983 32.6259 332.779 32.5702C332.983 32.5146 333.202 32.455 333.433 32.3899C334.998 31.9493 337.157 31.2907 339.529 30.4191C344.253 28.6835 349.904 26.0747 353.373 22.6078C356.842 19.1391 359.454 13.486 361.191 8.75986C362.063 6.38649 362.721 4.22666 363.162 2.66037C363.227 2.42956 363.286 2.21107 363.342 2.00713C363.397 2.21107 363.456 2.42956 363.521 2.66037C363.962 4.22666 364.62 6.38649 365.493 8.75986C367.23 13.486 369.841 19.1391 373.311 22.6078C376.779 26.0747 382.431 28.6835 387.155 30.4191C389.527 31.2907 391.685 31.9493 393.251 32.3899C393.482 32.455 393.701 32.5146 393.905 32.5702C393.701 32.6259 393.481 32.683 393.25 32.7483C391.685 33.1904 389.526 33.8509 387.154 34.7246C382.43 36.4645 376.78 39.0779 373.312 42.547C369.846 46.0144 367.234 51.6629 365.496 56.3846C364.623 58.7557 363.964 60.9132 363.522 62.4779C363.457 62.71 363.398 62.9297 363.342 63.1346C363.286 62.9297 363.227 62.71 363.162 62.4779Z" fill="#A54C48" stroke="#A54C48"/>
</svg>
