<svg width="1036" height="179" viewBox="0 0 1036 179" fill="none" xmlns="http://www.w3.org/2000/svg">
<path opacity="0.05" d="M198.256 -38.6381H219.899L244.748 -38.6381V-37.8365H240.74C227.38 -37.8365 219.899 -36.5006 219.899 -23.6753L219.899 163.627C219.899 176.452 227.38 177.788 240.74 177.788H244.748V178.59H219.899H197.989L173.14 178.59V177.788H177.148C190.508 177.788 197.989 176.452 197.989 163.627L197.989 -36.2334L120.236 93.8895C131.191 113.127 139.741 131.297 139.741 145.191C139.741 164.963 129.855 178.59 109.548 178.59C96.9903 178.59 88.9745 170.039 88.9745 156.947C88.9745 145.992 98.3263 128.357 106.876 113.929C106.075 112.326 105.006 110.723 104.205 109.12C96.1887 94.9583 44.3533 5.1815 26.1842 -27.1488L26.1842 163.36C26.1842 176.185 33.6656 177.788 47.0253 177.788H51.0331V178.322H26.1842H24.8483L-0.000679437 178.322V177.788H4.00721C17.3669 177.788 24.8483 176.452 24.8483 163.36L24.8483 -23.6753C24.8483 -36.5006 17.3669 -37.8365 4.00721 -37.8365H-0.000679437V-38.6381H19.5044H29.6577H44.6205C60.1177 -11.3844 110.083 75.7204 119.702 92.5536L198.256 -38.6381ZM109.548 177.254C119.702 177.254 125.847 169.772 125.847 158.016C125.847 147.862 117.564 132.098 107.678 115.265C99.395 129.693 90.3105 146.794 90.3105 156.947C90.3105 170.039 97.7919 177.254 109.548 177.254ZM259.055 99.2334C259.055 113.127 261.727 125.685 266.537 136.64C264.933 129.961 265.201 123.548 267.873 117.67C272.949 105.112 286.309 95.7599 305.28 90.6832C321.311 86.4081 343.221 80.5299 358.718 76.522C353.374 44.1917 336.007 20.9459 310.623 20.9459C279.896 20.9459 259.055 55.4138 259.055 99.2334ZM315.967 174.047C343.755 174.047 369.406 160.153 378.49 122.479L379.826 123.014C371.811 155.077 348.03 178.59 310.623 178.59C264.666 178.59 239.016 143.053 239.016 99.2334C239.016 55.4138 264.666 19.8771 310.623 19.8771C346.962 19.8771 370.475 41.7869 379.025 72.5141L359.253 77.5907C343.488 81.8658 321.578 87.4769 305.547 91.752C286.843 96.5614 273.751 105.913 268.941 117.937C265.201 125.953 266.002 135.304 270.545 144.923C280.965 163.092 297.531 174.047 315.967 174.047ZM436.857 174.849C450.751 174.849 461.172 164.963 465.981 156.68L467.05 157.214C462.508 164.963 451.019 178.59 433.651 178.59C407.466 178.59 396.244 160.421 396.244 144.122V20.9459H374.601V20.4115V19.8771C395.443 19.8771 414.948 14.8004 414.948 -21.805H415.482H416.284V17.2052V19.8771H457.966V20.9459H416.284V53.2762V141.183C416.284 160.955 420.024 174.849 436.857 174.849ZM598.833 163.627C598.833 176.452 606.581 177.788 619.674 177.788H623.949V178.59H553.944V177.788H557.952C571.312 177.788 578.793 176.452 578.793 163.627V58.3529C578.793 42.5885 578.793 22.2818 551.807 22.2818C525.889 22.2818 498.635 57.8185 498.635 57.8185V163.36C498.635 176.185 506.384 177.788 519.476 177.788H523.751V178.322H453.747V177.788H457.755C471.114 177.788 478.596 176.452 478.596 163.36V-13.2548C478.596 -23.6753 475.924 -27.416 459.358 -18.5987V-19.133L498.635 -38.6381V56.2153C498.635 56.2153 525.622 19.8771 556.616 19.8771C587.611 19.8771 598.833 36.4431 598.833 58.3529V163.627ZM690.006 177.254C720.733 177.254 741.841 143.053 741.841 99.2334C741.841 55.4138 720.733 20.9459 690.006 20.9459C659.279 20.9459 638.438 55.4138 638.438 99.2334C638.438 143.053 659.279 177.254 690.006 177.254ZM690.006 19.8771C735.963 19.8771 761.881 55.4138 761.881 99.2334C761.881 143.053 736.23 178.59 690.006 178.59C644.049 178.59 618.398 143.053 618.398 99.2334C618.398 55.4138 644.049 19.8771 690.006 19.8771ZM839.156 177.254C858.661 177.254 873.624 168.436 881.639 156.947V50.3371C870.952 31.6336 852.783 20.9459 834.346 20.9459C803.619 20.9459 784.381 55.4138 784.381 99.2334C784.381 143.053 808.429 177.254 839.156 177.254ZM901.946 163.627C901.946 176.452 909.695 177.788 923.054 177.788V178.322H901.946C891.258 178.322 882.441 170.039 881.907 159.352C872.288 171.108 857.592 178.322 839.423 178.322C793.466 178.322 764.342 142.251 764.342 98.9662C764.342 55.6809 788.389 19.6099 834.346 19.6099C855.722 19.6099 871.486 31.0992 881.907 46.3292V-13.2548C881.907 -23.6753 878.968 -27.416 862.402 -18.5987V-19.133L901.946 -38.6381V163.627ZM975.579 80.2627C1004.44 93.3551 1035.7 105.913 1035.7 136.106C1035.7 166.299 1004.44 178.322 977.182 178.322C957.677 178.322 936.836 172.444 925.614 162.024C915.995 153.206 913.323 138.778 926.148 125.953C933.362 151.336 950.997 177.254 977.182 177.254C999.092 177.254 1015.66 165.23 1015.66 143.053C1015.66 120.876 996.42 110.188 973.708 100.569C951.531 90.9504 926.682 78.9267 926.682 55.4138C926.682 32.168 952.867 20.1443 975.579 20.1443C989.473 20.1443 998.023 22.0147 1007.37 26.0225C1018.86 31.0992 1025.01 43.6573 1013.79 53.5434C1009.24 38.0462 999.626 21.2131 975.579 21.2131C951.531 21.2131 940.309 33.7711 940.309 47.6652C940.309 61.8264 948.325 67.7046 975.579 80.2627Z" fill="#DCDCCF"/>
</svg>
