<svg width="1409" height="276" viewBox="0 0 1409 276" fill="none" xmlns="http://www.w3.org/2000/svg">
<path opacity="0.05" d="M176.614 -0.00041507H177.683L202.799 -0.00041507V0.801169H198.524C185.431 0.801169 177.683 2.13713 177.683 14.9624L177.683 217.227H176.614L26.1846 10.6873L26.1846 201.997C26.1846 214.823 33.666 216.426 47.0256 216.426H51.0335V216.96L26.1846 216.96H24.8486H-0.000313226V216.426H4.00758C17.3672 216.426 24.8486 215.09 24.8486 201.997L24.8486 14.9624C24.8486 2.13713 17.3672 0.801169 4.00758 0.801169H-0.000313226V-0.00041507L22.1767 -0.00041507H24.8486H26.1846L45.4225 -0.00041507L176.614 180.355L176.614 14.9624C176.614 2.13713 168.866 0.801169 155.773 0.801169H151.498V-0.00041507L176.614 -0.00041507ZM519.769 202.265C526.716 214.555 535.533 216.426 549.16 216.693H551.832V217.227H477.82V216.693H483.431C496.523 216.693 502.669 214.021 495.989 202.532C487.439 187.569 474.079 164.323 461.521 142.681L413.961 202.532C403.54 215.09 410.22 216.693 423.312 216.693H428.923V217.227H400.601L400.868 216.693L400.601 217.227L377.355 217.227V216.693H380.027C393.12 216.693 402.204 215.09 412.357 202.265L460.987 141.612C448.963 120.504 438.008 101.8 433.466 94.0515C421.709 73.4776 413.961 62.2555 403.54 62.2555C381.63 62.2555 368.538 93.7843 355.713 128.787C340.483 171.003 320.443 217.227 269.142 217.227C222.918 217.227 197.534 181.691 197.534 137.871C197.534 94.0515 222.918 58.5148 269.142 58.5148C305.213 58.5148 328.726 80.4246 337.276 111.152L317.237 116.496C301.74 120.504 279.83 126.382 263.798 130.39C245.095 135.466 232.002 144.551 226.926 156.575C223.452 164.858 224.254 174.209 228.529 183.828C239.217 201.73 255.783 212.685 273.952 212.685C363.728 212.685 345.292 59.0492 410.487 58.782H410.754C437.206 58.782 444.955 72.9432 453.772 87.906C455.643 91.1123 464.193 105.808 474.881 124.244L514.96 73.4776C525.113 60.9195 518.7 59.3164 505.608 59.3164H499.997V58.782L528.319 58.782V58.5148H551.565V59.0492H548.893C535.801 59.0492 526.716 60.6523 516.563 73.4776L475.415 125.046C490.111 150.964 509.081 183.561 519.769 202.265ZM217.04 137.871C217.04 151.765 219.711 164.323 224.521 175.278C222.918 168.598 223.185 162.186 225.857 156.307C230.934 143.749 244.293 134.398 263.264 129.321C279.295 125.046 301.205 119.168 316.702 115.16C311.359 82.8293 293.991 59.5836 268.608 59.5836C237.881 59.5836 217.04 94.0515 217.04 137.871ZM600.722 213.487C614.616 213.487 625.037 203.6 629.846 195.318L630.915 195.852C626.373 203.6 614.883 217.227 597.516 217.227C571.331 217.227 560.109 199.058 560.109 182.759V59.5836H538.466V59.0492V58.5148C559.307 58.5148 578.812 53.4381 578.812 16.8327L579.347 16.8327H580.148V55.8429V58.5148L621.83 58.5148V59.5836L580.148 59.5836V91.9139V179.82C580.148 199.593 583.889 213.487 600.722 213.487ZM788.511 85.7685C828.055 103.938 870.806 118.366 870.806 159.514C870.806 200.661 828.055 217.227 790.648 217.227C763.929 217.227 735.339 209.212 720.376 195.05C707.017 183.027 702.742 159.246 717.437 145.62C727.591 180.088 755.112 215.891 790.648 215.891C820.841 215.891 851.568 199.325 851.568 168.865C851.568 138.405 816.833 121.84 786.106 108.747C755.646 95.6546 721.712 80.959 721.712 48.8959C721.712 16.5655 757.516 0.266774 788.511 0.266774C807.481 0.266774 819.238 2.9387 832.063 8.28257C848.095 15.2296 856.11 32.8643 840.88 46.2239C834.735 24.8485 821.375 1.86993 788.511 1.86993C755.646 1.86993 735.606 20.5734 735.606 39.8113C735.606 59.0492 751.371 68.9353 788.511 85.7685ZM935.746 213.487C949.64 213.487 960.061 203.6 964.87 195.318L965.939 195.852C961.397 203.6 949.908 217.227 932.54 217.227C906.355 217.227 895.133 199.058 895.133 182.759V59.5836H873.49V59.0492V58.5148C894.332 58.5148 913.837 53.4381 913.837 16.8327H914.371H915.173V55.8429V58.5148L956.855 58.5148V59.5836L915.173 59.5836V91.9139V179.82C915.173 199.593 918.913 213.487 935.746 213.487ZM1218.23 58.5148C1264.18 58.5148 1288.23 94.5858 1288.23 137.871C1288.23 181.156 1259.37 217.227 1213.15 217.227C1195.25 217.227 1180.55 209.746 1170.67 197.989V257.841C1170.67 273.071 1180.02 274.941 1195.78 274.941V275.475L1125.78 275.475V274.941H1129.78C1143.14 274.941 1150.63 273.605 1150.63 260.78V137.871C1156.5 128.519 1165.05 108.747 1170.67 100.998V195.585C1179.22 207.074 1193.91 215.891 1213.15 215.891C1243.88 215.891 1268.19 181.691 1268.19 137.871C1268.19 94.0515 1248.95 59.5836 1218.23 59.5836C1187.5 59.5836 1167.19 91.6467 1157.04 112.221C1141.27 141.077 1097.72 217.227 1032.26 217.227C986.035 217.227 960.652 181.691 960.652 137.871C960.652 94.0515 986.035 58.5148 1032.26 58.5148C1068.33 58.5148 1091.84 80.4246 1100.39 111.152L1080.62 116.228C1064.86 120.504 1042.95 126.115 1026.92 130.39C1008.21 135.199 995.387 144.551 990.31 156.575C986.837 164.59 987.371 173.942 991.913 183.561C1002.33 201.73 1018.9 212.685 1037.34 212.685C1087.84 212.685 1129.25 159.781 1150.63 121.305V83.8981C1150.63 73.4776 1147.95 69.7369 1131.39 78.5543V77.7527L1170.67 58.5148V87.3716C1185.09 68.1337 1200.59 58.5148 1218.23 58.5148ZM980.691 137.871C980.691 151.765 983.363 164.323 987.905 175.278C986.302 168.598 986.837 162.186 989.241 156.307C994.318 143.749 1007.68 134.398 1026.65 129.321C1042.68 125.046 1064.86 119.168 1080.35 115.16C1074.74 82.8293 1057.38 59.5836 1032.26 59.5836C1001.53 59.5836 980.691 94.0515 980.691 137.871ZM1348.79 118.9C1377.65 131.993 1408.91 144.551 1408.91 174.744C1408.91 204.936 1377.65 216.96 1350.4 216.96C1330.89 216.96 1310.05 211.082 1298.83 200.661C1289.21 191.844 1286.54 177.416 1299.36 164.59C1306.58 189.974 1324.21 215.891 1350.4 215.891C1372.31 215.891 1388.87 203.868 1388.87 181.691C1388.87 159.514 1369.63 148.826 1346.92 139.207C1324.75 129.588 1299.9 117.564 1299.9 94.0515C1299.9 70.8057 1326.08 58.782 1348.79 58.782C1362.69 58.782 1371.24 60.6523 1380.59 64.6602C1392.08 69.7369 1398.22 82.295 1387 92.1811C1382.46 76.6839 1372.84 59.8508 1348.79 59.8508C1324.75 59.8508 1313.52 72.4088 1313.52 86.3029C1313.52 100.464 1321.54 106.342 1348.79 118.9Z" fill="#DCDCCF"/>
</svg>
