<svg width="643" height="66" viewBox="0 0 643 66" fill="none" xmlns="http://www.w3.org/2000/svg">
<path d="M480.226 33L486 38.7735L491.774 33L486 27.2265L480.226 33ZM642.773 33L637 27.2265L631.227 33L637 38.7735L642.773 33ZM486 33L486 34L637 34L637 33L637 32L486 32L486 33Z" fill="#FF9977"/>
<path d="M178.226 33L184 38.7735L189.774 33L184 27.2265L178.226 33ZM340.773 33L335 27.2265L329.227 33L335 38.7735L340.773 33ZM184 33L184 34L335 34L335 33L335 32L184 32L184 33Z" fill="#FF9977"/>
<path d="M27.2265 33L33 38.7735L38.7735 33L33 27.2265L27.2265 33ZM189.773 33L184 27.2265L178.227 33L184 38.7735L189.773 33ZM33 33V34H184V33V32H33V33Z" fill="#FF9977"/>
<path d="M329.226 33L335 38.7735L340.774 33L335 27.2265L329.226 33ZM491.773 33L486 27.2265L480.227 33L486 38.7735L491.773 33ZM335 33V34H486V33V32H335V33Z" fill="#FF9977"/>
<path d="M32.3881 62.4779C31.9465 60.9132 31.2875 58.7557 30.4146 56.3846C28.6763 51.6629 26.0645 46.0144 22.5984 42.547C19.1305 39.0779 13.4799 36.4645 8.75599 34.7246C6.38375 33.8509 4.2254 33.1904 2.65995 32.7483C2.42878 32.683 2.20953 32.6259 2.00533 32.5702C2.20954 32.5146 2.42806 32.455 2.65926 32.3899C4.22466 31.9493 6.38311 31.2907 8.7553 30.4191C13.4793 28.6835 19.1309 26.0747 22.5991 22.6078C26.069 19.1391 28.6801 13.486 30.4173 8.75986C31.2898 6.38649 31.9478 4.22666 32.3888 2.66037C32.4538 2.42956 32.5128 2.21107 32.5684 2.00713C32.6239 2.21107 32.6829 2.42956 32.7479 2.66037C33.1889 4.22666 33.847 6.38649 34.7194 8.75986C36.4566 13.486 39.0678 19.1391 42.5376 22.6078C46.0058 26.0747 51.6574 28.6835 56.3814 30.4191C58.7536 31.2907 60.9121 31.9493 62.4775 32.3899C62.7087 32.455 62.9272 32.5146 63.1314 32.5702C62.9272 32.6259 62.7079 32.683 62.4768 32.7483C60.9113 33.1904 58.753 33.8509 56.3807 34.7246C51.6568 36.4645 46.0062 39.0779 42.5383 42.547C39.0722 46.0144 36.4604 51.6629 34.7221 56.3846C33.8492 58.7557 33.1902 60.9132 32.7486 62.4779C32.6831 62.71 32.6243 62.9297 32.5684 63.1346C32.5124 62.9297 32.4536 62.71 32.3881 62.4779Z" fill="#FF9977" stroke="#FF9977"/>
</svg>
