<svg width="642" height="66" viewBox="0 0 642 66" fill="none" xmlns="http://www.w3.org/2000/svg">
<path d="M453 32.9727L458.773 38.7462L464.547 32.9727L458.773 27.1992L453 32.9727ZM615.547 32.9727L609.773 27.1992L604 32.9727L609.773 38.7462L615.547 32.9727ZM458.773 32.9727L458.773 33.9727L609.773 33.9727L609.773 32.9727L609.773 31.9727L458.773 31.9727L458.773 32.9727Z" fill="#FF9977"/>
<path d="M151 32.9727L156.773 38.7462L162.547 32.9727L156.773 27.1992L151 32.9727ZM313.547 32.9727L307.773 27.1992L302 32.9727L307.773 38.7462L313.547 32.9727ZM156.773 32.9727L156.773 33.9727L307.773 33.9727L307.773 32.9727L307.773 31.9727L156.773 31.9727L156.773 32.9727Z" fill="#FF9977"/>
<path d="M-6.53267e-05 32.9727L5.77344 38.7462L11.5469 32.9727L5.77344 27.1992L-6.53267e-05 32.9727ZM162.547 32.9727L156.773 27.1992L151 32.9727L156.773 38.7462L162.547 32.9727ZM5.77344 32.9727V33.9727H156.773V32.9727V31.9727H5.77344V32.9727Z" fill="#FF9977"/>
<path d="M302 32.9727L307.773 38.7462L313.547 32.9727L307.773 27.1992L302 32.9727ZM464.547 32.9727L458.773 27.1992L453 32.9727L458.773 38.7462L464.547 32.9727ZM307.773 32.9727V33.9727H458.773V32.9727V31.9727H307.773V32.9727Z" fill="#FF9977"/>
<path d="M609.342 65.1367C609.342 65.1367 605.787 49.6727 599.018 42.9019C592.247 36.1276 576.774 32.5689 576.774 32.5689C576.774 32.5689 592.246 29.0248 599.018 22.2553C605.794 15.4822 609.342 0.0010893 609.342 0.0010893C609.342 0.0010893 612.889 15.4822 619.665 22.2553C626.437 29.0248 641.91 32.5689 641.91 32.5689C641.91 32.5689 626.437 36.1276 619.665 42.9019C612.897 49.6727 609.342 65.1367 609.342 65.1367Z" fill="#FF9977"/>
</svg>
