<svg width="616" height="66" viewBox="0 0 616 66" fill="none" xmlns="http://www.w3.org/2000/svg">
<path d="M453 33L458.773 38.7735L464.547 33L458.773 27.2265L453 33ZM615.547 33L609.773 27.2265L604 33L609.773 38.7735L615.547 33ZM458.773 33L458.773 34L609.773 34L609.773 33L609.773 32L458.773 32L458.773 33Z" fill="#FF9977"/>
<path d="M151 33L156.773 38.7735L162.547 33L156.773 27.2265L151 33ZM313.547 33L307.773 27.2265L302 33L307.773 38.7735L313.547 33ZM156.773 33L156.773 34L307.773 34L307.773 33L307.773 32L156.773 32L156.773 33Z" fill="#FF9977"/>
<path d="M-6.53267e-05 33L5.77344 38.7735L11.5469 33L5.77344 27.2265L-6.53267e-05 33ZM162.547 33L156.773 27.2265L151 33L156.773 38.7735L162.547 33ZM5.77344 33V34H156.773V33V32H5.77344V33Z" fill="#FF9977"/>
<path d="M302 33L307.773 38.7735L313.547 33L307.773 27.2265L302 33ZM464.547 33L458.773 27.2265L453 33L458.773 38.7735L464.547 33ZM307.773 33V34H458.773V33V32H307.773V33Z" fill="#FF9977"/>
<path d="M156.342 65.1357C156.342 65.1357 152.787 49.6717 146.018 42.9009C139.247 36.1266 123.774 32.5679 123.774 32.5679C123.774 32.5679 139.246 29.0238 146.018 22.2543C152.794 15.4813 156.342 0.000112737 156.342 0.000112737C156.342 0.000112737 159.889 15.4813 166.665 22.2543C173.437 29.0238 188.91 32.5679 188.91 32.5679C188.91 32.5679 173.437 36.1266 166.665 42.9009C159.897 49.6717 156.342 65.1357 156.342 65.1357Z" fill="#FF9977"/>
</svg>
