<svg width="616" height="66" viewBox="0 0 616 66" fill="none" xmlns="http://www.w3.org/2000/svg">
<path d="M453 32.9189L458.773 38.6924L464.547 32.9189L458.773 27.1454L453 32.9189ZM615.547 32.919L609.773 27.1455L604 32.919L609.773 38.6925L615.547 32.919ZM458.773 32.9189L458.773 33.9189L609.773 33.919L609.773 32.919L609.773 31.919L458.773 31.9189L458.773 32.9189Z" fill="#FF9977"/>
<path d="M151 32.9189L156.773 38.6924L162.547 32.9189L156.773 27.1454L151 32.9189ZM313.547 32.919L307.773 27.1455L302 32.919L307.773 38.6925L313.547 32.919ZM156.773 32.9189L156.773 33.9189L307.773 33.919L307.773 32.919L307.773 31.919L156.773 31.9189L156.773 32.9189Z" fill="#FF9977"/>
<path d="M-6.53267e-05 32.9189L5.77344 38.6924L11.5469 32.9189L5.77344 27.1454L-6.53267e-05 32.9189ZM162.547 32.9189L156.773 27.1454L151 32.9189L156.773 38.6924L162.547 32.9189ZM5.77344 32.9189V33.9189H156.773V32.9189V31.9189H5.77344V32.9189Z" fill="#FF9977"/>
<path d="M302 32.9189L307.773 38.6924L313.547 32.9189L307.773 27.1454L302 32.9189ZM464.547 32.9189L458.773 27.1454L453 32.9189L458.773 38.6924L464.547 32.9189ZM307.773 32.9189V33.9189H458.773V32.9189V31.9189H307.773V32.9189Z" fill="#FF9977"/>
<path d="M458.162 62.4779C457.72 60.9132 457.061 58.7557 456.188 56.3846C454.45 51.6629 451.838 46.0144 448.372 42.547C444.904 39.0779 439.253 36.4645 434.529 34.7246C432.157 33.8509 429.999 33.1904 428.433 32.7483C428.202 32.683 427.983 32.6259 427.779 32.5702C427.983 32.5146 428.202 32.455 428.433 32.3899C429.998 31.9493 432.157 31.2907 434.529 30.4191C439.253 28.6835 444.904 26.0747 448.373 22.6078C451.842 19.1391 454.454 13.486 456.191 8.75986C457.063 6.38649 457.721 4.22666 458.162 2.66037C458.227 2.42956 458.286 2.21107 458.342 2.00713C458.397 2.21107 458.456 2.42956 458.521 2.66037C458.962 4.22666 459.62 6.38649 460.493 8.75986C462.23 13.486 464.841 19.1391 468.311 22.6078C471.779 26.0747 477.431 28.6835 482.155 30.4191C484.527 31.2907 486.685 31.9493 488.251 32.3899C488.482 32.455 488.701 32.5146 488.905 32.5702C488.701 32.6259 488.481 32.683 488.25 32.7483C486.685 33.1904 484.526 33.8509 482.154 34.7246C477.43 36.4645 471.78 39.0779 468.312 42.547C464.846 46.0144 462.234 51.6629 460.496 56.3846C459.623 58.7557 458.964 60.9132 458.522 62.4779C458.457 62.71 458.398 62.9297 458.342 63.1346C458.286 62.9297 458.227 62.71 458.162 62.4779Z" fill="#FF9977" stroke="#FF9977"/>
</svg>
