<svg width="616" height="66" viewBox="0 0 616 66" fill="none" xmlns="http://www.w3.org/2000/svg">
<path d="M453 33L458.773 38.7735L464.547 33L458.773 27.2265L453 33ZM615.547 33L609.773 27.2265L604 33L609.773 38.7735L615.547 33ZM458.773 33L458.773 34L609.773 34L609.773 33L609.773 32L458.773 32L458.773 33Z" fill="#FF9977"/>
<path d="M151 33L156.773 38.7735L162.547 33L156.773 27.2265L151 33ZM313.547 33L307.773 27.2265L302 33L307.773 38.7735L313.547 33ZM156.773 33L156.773 34L307.773 34L307.773 33L307.773 32L156.773 32L156.773 33Z" fill="#FF9977"/>
<path d="M-6.53267e-05 33L5.77344 38.7735L11.5469 33L5.77344 27.2265L-6.53267e-05 33ZM162.547 33L156.773 27.2265L151 33L156.773 38.7735L162.547 33ZM5.77344 33V34H156.773V33V32H5.77344V33Z" fill="#FF9977"/>
<path d="M302 33L307.773 38.7735L313.547 33L307.773 27.2265L302 33ZM464.547 33L458.773 27.2265L453 33L458.773 38.7735L464.547 33ZM307.773 33V34H458.773V33V32H307.773V33Z" fill="#FF9977"/>
<path d="M307.162 62.4779C306.72 60.9132 306.061 58.7557 305.188 56.3846C303.45 51.6629 300.838 46.0144 297.372 42.547C293.904 39.0779 288.253 36.4645 283.529 34.7246C281.157 33.8509 278.999 33.1904 277.433 32.7483C277.202 32.683 276.983 32.6259 276.779 32.5702C276.983 32.5146 277.202 32.455 277.433 32.3899C278.998 31.9493 281.157 31.2907 283.529 30.4191C288.253 28.6835 293.904 26.0747 297.373 22.6078C300.842 19.1391 303.454 13.486 305.191 8.75986C306.063 6.38649 306.721 4.22666 307.162 2.66037C307.227 2.42956 307.286 2.21107 307.342 2.00713C307.397 2.21107 307.456 2.42956 307.521 2.66037C307.962 4.22666 308.62 6.38649 309.493 8.75986C311.23 13.486 313.841 19.1391 317.311 22.6078C320.779 26.0747 326.431 28.6835 331.155 30.4191C333.527 31.2907 335.685 31.9493 337.251 32.3899C337.482 32.455 337.701 32.5146 337.905 32.5702C337.701 32.6259 337.481 32.683 337.25 32.7483C335.685 33.1904 333.526 33.8509 331.154 34.7246C326.43 36.4645 320.78 39.0779 317.312 42.547C313.846 46.0144 311.234 51.6629 309.496 56.3846C308.623 58.7557 307.964 60.9132 307.522 62.4779C307.457 62.71 307.398 62.9297 307.342 63.1346C307.286 62.9297 307.227 62.71 307.162 62.4779Z" fill="#FF9977" stroke="#FF9977"/>
</svg>
