<svg width="1085" height="137" viewBox="0 0 1085 137" fill="none" xmlns="http://www.w3.org/2000/svg">
<g clip-path="url(#clip0_2371_1252)">
<mask id="path-1-outside-1_2371_1252" maskUnits="userSpaceOnUse" x="0" y="0" width="1085" height="137" fill="black">
<rect fill="white" width="1085" height="137"/>
<path d="M0 61C0 27.3106 27.3106 0 61 0H1024C1057.69 0 1085 27.3106 1085 61C1085 94.6894 1057.69 122 1024 122H61C27.3106 122 0 94.6894 0 61Z"/>
</mask>
<path d="M0 61C0 27.3106 27.3106 0 61 0H1024C1057.69 0 1085 27.3106 1085 61C1085 94.6894 1057.69 122 1024 122H61C27.3106 122 0 94.6894 0 61Z" fill="#BAACA7"/>
<path d="M0 0H1085H0ZM1085 61C1085 102.974 1050.97 137 1009 137H76C34.0264 137 0 102.974 0 61C0 86.4051 27.3106 107 61 107H1024C1057.69 107 1085 86.4051 1085 61ZM0 122V0V122ZM1085 0V122V0Z" fill="#AF3D10" mask="url(#path-1-outside-1_2371_1252)"/>
<rect x="704" y="31" width="59" height="59" fill="#C77E62"/>
<rect x="790" y="31" width="59" height="59" fill="#2C237E"/>
<rect x="876" y="31" width="59" height="59" fill="#544E87"/>
<rect x="962" y="31" width="59" height="59" fill="#AF3D10"/>
<g clip-path="url(#clip1_2371_1252)">
<g filter="url(#filter0_f_2371_1252)">
<ellipse cx="504.5" cy="107" rx="149.5" ry="138" fill="#AF3D10" fill-opacity="0.68"/>
</g>
<rect x="403" y="7" width="200" height="200" rx="100" fill="black" fill-opacity="0.01"/>
<circle cx="470.5" cy="50.5" r="7.5" fill="#BAACA7"/>
<circle cx="535.5" cy="50.5" r="7.5" fill="#BAACA7"/>
<path d="M494 63C499.027 71.2256 510.973 71.2256 516 63" stroke="#BAACA7" stroke-width="4" stroke-linecap="round"/>
</g>
<mask id="path-12-outside-2_2371_1252" maskUnits="userSpaceOnUse" x="52.0176" y="26.8037" width="263" height="64" fill="black">
<rect fill="white" x="52.0176" y="26.8037" width="263" height="64"/>
<path d="M71.7117 87.7931C68.4414 87.7931 65.597 86.9961 63.1786 85.4021C60.7602 83.7807 58.8777 81.6234 57.5311 78.9302C56.212 76.2095 55.5524 73.2002 55.5524 69.9024C55.5524 66.6046 56.212 63.6091 57.5311 60.9159C58.8777 58.1952 60.7602 56.0241 63.1786 54.4027C65.597 52.7813 68.4414 51.9706 71.7117 51.9706C73.8827 51.9706 75.8065 52.3141 77.4829 53.0011C79.1592 53.6607 80.5196 54.4577 81.5639 55.3921C82.6082 56.299 83.2403 57.1372 83.4601 57.9066V30.0814H95.9918V86.8037H83.5838V81.3211C83.0617 82.3379 82.2097 83.3548 81.028 84.3716C79.8463 85.3609 78.4585 86.1716 76.8645 86.8037C75.2706 87.4633 73.553 87.7931 71.7117 87.7931ZM75.5454 77.9408C77.0569 77.9408 78.4035 77.5973 79.5852 76.9103C80.7944 76.2232 81.7425 75.2751 82.4296 74.0659C83.1166 72.8292 83.4601 71.4414 83.4601 69.9024C83.4601 68.3635 83.1166 66.9894 82.4296 65.7802C81.7425 64.5435 80.7944 63.5816 79.5852 62.8946C78.4035 62.1801 77.0569 61.8228 75.5454 61.8228C74.0889 61.8228 72.7697 62.1801 71.588 62.8946C70.4338 63.5816 69.5131 64.5435 68.8261 65.7802C68.1665 66.9894 67.8368 68.3635 67.8368 69.9024C67.8368 71.4414 68.1665 72.8292 68.8261 74.0659C69.5131 75.2751 70.4338 76.2232 71.588 76.9103C72.7697 77.5973 74.0889 77.9408 75.5454 77.9408ZM129.514 86.8037V81.3211C129.266 81.8707 128.634 82.6677 127.617 83.712C126.628 84.7563 125.309 85.7044 123.66 86.5564C122.011 87.3808 120.087 87.7931 117.889 87.7931C114.591 87.7931 111.705 86.9961 109.232 85.4021C106.759 83.7807 104.835 81.6234 103.461 78.9302C102.087 76.2095 101.4 73.2002 101.4 69.9024C101.4 66.6046 102.087 63.6091 103.461 60.9159C104.835 58.1952 106.759 56.0241 109.232 54.4027C111.705 52.7813 114.591 51.9706 117.889 51.9706C120.005 51.9706 121.86 52.3141 123.454 53.0011C125.048 53.6607 126.339 54.4577 127.329 55.3921C128.318 56.299 129.005 57.1372 129.39 57.9066V52.9599H141.839V86.8037H129.514ZM113.684 69.9024C113.684 71.4414 114.041 72.8292 114.756 74.0659C115.47 75.2751 116.418 76.2232 117.6 76.9103C118.809 77.5973 120.142 77.9408 121.599 77.9408C123.11 77.9408 124.443 77.5973 125.597 76.9103C126.752 76.2232 127.659 75.2751 128.318 74.0659C129.005 72.8292 129.349 71.4414 129.349 69.9024C129.349 68.3635 129.005 66.9894 128.318 65.7802C127.659 64.5435 126.752 63.5816 125.597 62.8946C124.443 62.1801 123.11 61.8228 121.599 61.8228C120.142 61.8228 118.809 62.1801 117.6 62.8946C116.418 63.5816 115.47 64.5435 114.756 65.7802C114.041 66.9894 113.684 68.3635 113.684 69.9024ZM175.844 67.1817L167.97 86.8037H156.469L145.257 52.9599H158.572L163.972 73.4064L171.763 53.6195H180.007L187.675 73.4064L193.116 52.9599H206.431L195.26 86.8037H183.8L175.844 67.1817ZM224.525 87.7931C221.255 87.7931 218.411 86.9961 215.992 85.4021C213.574 83.7807 211.691 81.6234 210.345 78.9302C209.026 76.2095 208.366 73.2002 208.366 69.9024C208.366 66.6046 209.026 63.6091 210.345 60.9159C211.691 58.1952 213.574 56.0241 215.992 54.4027C218.411 52.7813 221.255 51.9706 224.525 51.9706C226.696 51.9706 228.62 52.3141 230.296 53.0011C231.973 53.6607 233.333 54.4577 234.377 55.3921C235.422 56.299 236.054 57.1372 236.274 57.9066V30.0814H248.805V86.8037H236.397V81.3211C235.875 82.3379 235.023 83.3548 233.842 84.3716C232.66 85.3609 231.272 86.1716 229.678 86.8037C228.084 87.4633 226.367 87.7931 224.525 87.7931ZM228.359 77.9408C229.87 77.9408 231.217 77.5973 232.399 76.9103C233.608 76.2232 234.556 75.2751 235.243 74.0659C235.93 72.8292 236.274 71.4414 236.274 69.9024C236.274 68.3635 235.93 66.9894 235.243 65.7802C234.556 64.5435 233.608 63.5816 232.399 62.8946C231.217 62.1801 229.87 61.8228 228.359 61.8228C226.902 61.8228 225.583 62.1801 224.402 62.8946C223.247 63.5816 222.327 64.5435 221.64 65.7802C220.98 66.9894 220.65 68.3635 220.65 69.9024C220.65 71.4414 220.98 72.8292 221.64 74.0659C222.327 75.2751 223.247 76.2232 224.402 76.9103C225.583 77.5973 226.902 77.9408 228.359 77.9408ZM268.6 86.8037H256.027V30.0814H268.6V86.8037ZM286.656 72.5407C286.738 73.7499 287.123 74.8217 287.81 75.756C288.497 76.6904 289.445 77.4324 290.654 77.9821C291.891 78.5042 293.347 78.7653 295.024 78.7653C296.618 78.7653 298.047 78.6004 299.311 78.2706C300.603 77.9408 301.716 77.5286 302.65 77.0339C303.612 76.5393 304.354 76.0309 304.876 75.5087L309.74 83.2586C309.053 84.0006 308.078 84.7288 306.813 85.4434C305.577 86.1304 303.942 86.6938 301.908 87.1335C299.874 87.5732 297.305 87.7931 294.199 87.7931C290.462 87.7931 287.136 87.0923 284.223 85.6907C281.31 84.2891 279.016 82.228 277.339 79.5073C275.663 76.7866 274.825 73.4613 274.825 69.5314C274.825 66.2336 275.539 63.2656 276.968 60.6273C278.425 57.9616 280.527 55.8593 283.275 54.3203C286.023 52.7538 289.335 51.9706 293.21 51.9706C296.892 51.9706 300.08 52.6439 302.774 53.9905C305.494 55.3371 307.583 57.3433 309.039 60.009C310.523 62.6472 311.265 65.9451 311.265 69.9024C311.265 70.1223 311.252 70.562 311.224 71.2216C311.224 71.8811 311.197 72.3208 311.142 72.5407H286.656ZM299.476 65.9863C299.448 65.1069 299.215 64.2412 298.775 63.3893C298.335 62.5098 297.676 61.7953 296.796 61.2457C295.917 60.6686 294.79 60.38 293.416 60.38C292.042 60.38 290.874 60.6548 289.912 61.2045C288.978 61.7266 288.263 62.4137 287.769 63.2656C287.274 64.1175 286.999 65.0244 286.944 65.9863H299.476Z"/>
</mask>
<path d="M71.7117 87.7931C68.4414 87.7931 65.597 86.9961 63.1786 85.4021C60.7602 83.7807 58.8777 81.6234 57.5311 78.9302C56.212 76.2095 55.5524 73.2002 55.5524 69.9024C55.5524 66.6046 56.212 63.6091 57.5311 60.9159C58.8777 58.1952 60.7602 56.0241 63.1786 54.4027C65.597 52.7813 68.4414 51.9706 71.7117 51.9706C73.8827 51.9706 75.8065 52.3141 77.4829 53.0011C79.1592 53.6607 80.5196 54.4577 81.5639 55.3921C82.6082 56.299 83.2403 57.1372 83.4601 57.9066V30.0814H95.9918V86.8037H83.5838V81.3211C83.0617 82.3379 82.2097 83.3548 81.028 84.3716C79.8463 85.3609 78.4585 86.1716 76.8645 86.8037C75.2706 87.4633 73.553 87.7931 71.7117 87.7931ZM75.5454 77.9408C77.0569 77.9408 78.4035 77.5973 79.5852 76.9103C80.7944 76.2232 81.7425 75.2751 82.4296 74.0659C83.1166 72.8292 83.4601 71.4414 83.4601 69.9024C83.4601 68.3635 83.1166 66.9894 82.4296 65.7802C81.7425 64.5435 80.7944 63.5816 79.5852 62.8946C78.4035 62.1801 77.0569 61.8228 75.5454 61.8228C74.0889 61.8228 72.7697 62.1801 71.588 62.8946C70.4338 63.5816 69.5131 64.5435 68.8261 65.7802C68.1665 66.9894 67.8368 68.3635 67.8368 69.9024C67.8368 71.4414 68.1665 72.8292 68.8261 74.0659C69.5131 75.2751 70.4338 76.2232 71.588 76.9103C72.7697 77.5973 74.0889 77.9408 75.5454 77.9408ZM129.514 86.8037V81.3211C129.266 81.8707 128.634 82.6677 127.617 83.712C126.628 84.7563 125.309 85.7044 123.66 86.5564C122.011 87.3808 120.087 87.7931 117.889 87.7931C114.591 87.7931 111.705 86.9961 109.232 85.4021C106.759 83.7807 104.835 81.6234 103.461 78.9302C102.087 76.2095 101.4 73.2002 101.4 69.9024C101.4 66.6046 102.087 63.6091 103.461 60.9159C104.835 58.1952 106.759 56.0241 109.232 54.4027C111.705 52.7813 114.591 51.9706 117.889 51.9706C120.005 51.9706 121.86 52.3141 123.454 53.0011C125.048 53.6607 126.339 54.4577 127.329 55.3921C128.318 56.299 129.005 57.1372 129.39 57.9066V52.9599H141.839V86.8037H129.514ZM113.684 69.9024C113.684 71.4414 114.041 72.8292 114.756 74.0659C115.47 75.2751 116.418 76.2232 117.6 76.9103C118.809 77.5973 120.142 77.9408 121.599 77.9408C123.11 77.9408 124.443 77.5973 125.597 76.9103C126.752 76.2232 127.659 75.2751 128.318 74.0659C129.005 72.8292 129.349 71.4414 129.349 69.9024C129.349 68.3635 129.005 66.9894 128.318 65.7802C127.659 64.5435 126.752 63.5816 125.597 62.8946C124.443 62.1801 123.11 61.8228 121.599 61.8228C120.142 61.8228 118.809 62.1801 117.6 62.8946C116.418 63.5816 115.47 64.5435 114.756 65.7802C114.041 66.9894 113.684 68.3635 113.684 69.9024ZM175.844 67.1817L167.97 86.8037H156.469L145.257 52.9599H158.572L163.972 73.4064L171.763 53.6195H180.007L187.675 73.4064L193.116 52.9599H206.431L195.26 86.8037H183.8L175.844 67.1817ZM224.525 87.7931C221.255 87.7931 218.411 86.9961 215.992 85.4021C213.574 83.7807 211.691 81.6234 210.345 78.9302C209.026 76.2095 208.366 73.2002 208.366 69.9024C208.366 66.6046 209.026 63.6091 210.345 60.9159C211.691 58.1952 213.574 56.0241 215.992 54.4027C218.411 52.7813 221.255 51.9706 224.525 51.9706C226.696 51.9706 228.62 52.3141 230.296 53.0011C231.973 53.6607 233.333 54.4577 234.377 55.3921C235.422 56.299 236.054 57.1372 236.274 57.9066V30.0814H248.805V86.8037H236.397V81.3211C235.875 82.3379 235.023 83.3548 233.842 84.3716C232.66 85.3609 231.272 86.1716 229.678 86.8037C228.084 87.4633 226.367 87.7931 224.525 87.7931ZM228.359 77.9408C229.87 77.9408 231.217 77.5973 232.399 76.9103C233.608 76.2232 234.556 75.2751 235.243 74.0659C235.93 72.8292 236.274 71.4414 236.274 69.9024C236.274 68.3635 235.93 66.9894 235.243 65.7802C234.556 64.5435 233.608 63.5816 232.399 62.8946C231.217 62.1801 229.87 61.8228 228.359 61.8228C226.902 61.8228 225.583 62.1801 224.402 62.8946C223.247 63.5816 222.327 64.5435 221.64 65.7802C220.98 66.9894 220.65 68.3635 220.65 69.9024C220.65 71.4414 220.98 72.8292 221.64 74.0659C222.327 75.2751 223.247 76.2232 224.402 76.9103C225.583 77.5973 226.902 77.9408 228.359 77.9408ZM268.6 86.8037H256.027V30.0814H268.6V86.8037ZM286.656 72.5407C286.738 73.7499 287.123 74.8217 287.81 75.756C288.497 76.6904 289.445 77.4324 290.654 77.9821C291.891 78.5042 293.347 78.7653 295.024 78.7653C296.618 78.7653 298.047 78.6004 299.311 78.2706C300.603 77.9408 301.716 77.5286 302.65 77.0339C303.612 76.5393 304.354 76.0309 304.876 75.5087L309.74 83.2586C309.053 84.0006 308.078 84.7288 306.813 85.4434C305.577 86.1304 303.942 86.6938 301.908 87.1335C299.874 87.5732 297.305 87.7931 294.199 87.7931C290.462 87.7931 287.136 87.0923 284.223 85.6907C281.31 84.2891 279.016 82.228 277.339 79.5073C275.663 76.7866 274.825 73.4613 274.825 69.5314C274.825 66.2336 275.539 63.2656 276.968 60.6273C278.425 57.9616 280.527 55.8593 283.275 54.3203C286.023 52.7538 289.335 51.9706 293.21 51.9706C296.892 51.9706 300.08 52.6439 302.774 53.9905C305.494 55.3371 307.583 57.3433 309.039 60.009C310.523 62.6472 311.265 65.9451 311.265 69.9024C311.265 70.1223 311.252 70.562 311.224 71.2216C311.224 71.8811 311.197 72.3208 311.142 72.5407H286.656ZM299.476 65.9863C299.448 65.1069 299.215 64.2412 298.775 63.3893C298.335 62.5098 297.676 61.7953 296.796 61.2457C295.917 60.6686 294.79 60.38 293.416 60.38C292.042 60.38 290.874 60.6548 289.912 61.2045C288.978 61.7266 288.263 62.4137 287.769 63.2656C287.274 64.1175 286.999 65.0244 286.944 65.9863H299.476Z" fill="url(#paint0_linear_2371_1252)"/>
<path d="M63.1786 85.4021L61.508 87.8939L61.5178 87.9005L61.5277 87.907L63.1786 85.4021ZM57.5311 78.9302L54.8317 80.239L54.8396 80.2555L54.8478 80.2718L57.5311 78.9302ZM57.5311 60.9159L54.8424 59.5851L54.8369 59.5963L57.5311 60.9159ZM63.1786 54.4027L64.8492 56.8945L64.8492 56.8945L63.1786 54.4027ZM77.4829 53.0011L76.3452 55.7771L76.3648 55.7851L76.3845 55.7928L77.4829 53.0011ZM81.5639 55.3921L79.5635 57.6278L79.5801 57.6426L79.5968 57.6572L81.5639 55.3921ZM83.4601 57.9066L80.5756 58.7308L86.4601 57.9066H83.4601ZM83.4601 30.0814V27.0814H80.4601V30.0814H83.4601ZM95.9918 30.0814H98.9918V27.0814H95.9918V30.0814ZM95.9918 86.8037V89.8037H98.9918V86.8037H95.9918ZM83.5838 86.8037H80.5838V89.8037H83.5838V86.8037ZM83.5838 81.3211H86.5838L80.9151 79.9507L83.5838 81.3211ZM81.028 84.3716L82.9538 86.6718L82.9694 86.6588L82.9847 86.6456L81.028 84.3716ZM76.8645 86.8037L75.7586 84.015L75.738 84.0232L75.7175 84.0317L76.8645 86.8037ZM79.5852 76.9103L78.1032 74.3019L78.0902 74.3093L78.0773 74.3168L79.5852 76.9103ZM82.4296 74.0659L85.0379 75.5479L85.0451 75.5354L85.052 75.5228L82.4296 74.0659ZM82.4296 65.7802L79.8071 67.2371L79.8141 67.2497L79.8212 67.2622L82.4296 65.7802ZM79.5852 62.8946L78.033 65.4618L78.0678 65.4828L78.1032 65.503L79.5852 62.8946ZM71.588 62.8946L73.1225 65.4725L73.1314 65.4671L73.1403 65.4618L71.588 62.8946ZM68.8261 65.7802L66.2036 64.3232L66.198 64.3334L66.1924 64.3436L68.8261 65.7802ZM68.8261 74.0659L66.179 75.4777L66.1979 75.5131L66.2177 75.5479L68.8261 74.0659ZM71.588 76.9103L70.0536 79.4882L70.0668 79.496L70.0802 79.5038L71.588 76.9103ZM71.7117 87.7931V84.7931C68.95 84.7931 66.6964 84.1277 64.8295 82.8973L63.1786 85.4021L61.5277 87.907C64.4976 89.8645 67.9327 90.7931 71.7117 90.7931V87.7931ZM63.1786 85.4021L64.8492 82.9104C62.8774 81.5883 61.337 79.8337 60.2144 77.5885L57.5311 78.9302L54.8478 80.2718C56.4184 83.4131 58.643 85.9731 61.508 87.8939L63.1786 85.4021ZM57.5311 78.9302L60.2305 77.6214C59.1267 75.3446 58.5524 72.7886 58.5524 69.9024H55.5524H52.5524C52.5524 73.6119 53.2973 77.0744 54.8317 80.239L57.5311 78.9302ZM55.5524 69.9024H58.5524C58.5524 67.0158 59.1268 64.4783 60.2253 62.2355L57.5311 60.9159L54.8369 59.5963C53.2972 62.7399 52.5524 66.1934 52.5524 69.9024H55.5524ZM57.5311 60.9159L60.2198 62.2467C61.3445 59.9744 62.8846 58.2117 64.8492 56.8945L63.1786 54.4027L61.508 51.9109C58.6358 53.8366 56.4109 56.4161 54.8424 59.5851L57.5311 60.9159ZM63.1786 54.4027L64.8492 56.8945C66.714 55.6443 68.9604 54.9706 71.7117 54.9706V51.9706V48.9706C67.9223 48.9706 64.48 49.9183 61.508 51.9109L63.1786 54.4027ZM71.7117 51.9706V54.9706C73.5683 54.9706 75.0938 55.2642 76.3452 55.7771L77.4829 53.0011L78.6205 50.2252C76.5191 49.364 74.1972 48.9706 71.7117 48.9706V51.9706ZM77.4829 53.0011L76.3845 55.7928C77.8196 56.3575 78.8481 56.9877 79.5635 57.6278L81.5639 55.3921L83.5643 53.1563C82.191 51.9276 80.4988 50.9639 78.5812 50.2095L77.4829 53.0011ZM81.5639 55.3921L79.5968 57.6572C80.0074 58.0137 80.2687 58.2987 80.4259 58.5072C80.5854 58.7187 80.5931 58.7922 80.5756 58.7308L83.4601 57.9066L86.3447 57.0825C85.8866 55.4791 84.7321 54.1701 83.531 53.127L81.5639 55.3921ZM83.4601 57.9066H86.4601V30.0814H83.4601H80.4601V57.9066H83.4601ZM83.4601 30.0814V33.0814H95.9918V30.0814V27.0814H83.4601V30.0814ZM95.9918 30.0814H92.9918V86.8037H95.9918H98.9918V30.0814H95.9918ZM95.9918 86.8037V83.8037H83.5838V86.8037V89.8037H95.9918V86.8037ZM83.5838 86.8037H86.5838V81.3211H83.5838H80.5838V86.8037H83.5838ZM83.5838 81.3211L80.9151 79.9507C80.6214 80.5226 80.0596 81.2471 79.0713 82.0975L81.028 84.3716L82.9847 86.6456C84.3598 85.4624 85.5019 84.1532 86.2525 82.6915L83.5838 81.3211ZM81.028 84.3716L79.1022 82.0713C78.1919 82.8334 77.0882 83.4878 75.7586 84.015L76.8645 86.8037L77.9704 89.5924C79.8288 88.8555 81.5006 87.8885 82.9538 86.6718L81.028 84.3716ZM76.8645 86.8037L75.7175 84.0317C74.5112 84.5308 73.1862 84.7931 71.7117 84.7931V87.7931V90.7931C73.9197 90.7931 76.0299 90.3958 78.0116 89.5758L76.8645 86.8037ZM75.5454 77.9408V80.9408C77.5291 80.9408 79.4062 80.4846 81.0931 79.5038L79.5852 76.9103L78.0773 74.3168C77.4008 74.7101 76.5847 74.9408 75.5454 74.9408V77.9408ZM79.5852 76.9103L81.0672 79.5186C82.7465 78.5645 84.0838 77.2272 85.0379 75.5479L82.4296 74.0659L79.8212 72.5839C79.4012 73.323 78.8423 73.882 78.1032 74.3019L79.5852 76.9103ZM82.4296 74.0659L85.052 75.5228C86.0081 73.8019 86.4601 71.9052 86.4601 69.9024H83.4601H80.4601C80.4601 70.9776 80.2251 71.8565 79.8071 72.609L82.4296 74.0659ZM83.4601 69.9024H86.4601C86.4601 67.9006 86.0083 66.006 85.0379 64.2981L82.4296 65.7802L79.8212 67.2622C80.2249 67.9728 80.4601 68.8263 80.4601 69.9024H83.4601ZM82.4296 65.7802L85.052 64.3232C84.1025 62.6141 82.7636 61.2501 81.0672 60.2862L79.5852 62.8946L78.1032 65.503C78.8252 65.9132 79.3825 66.4728 79.8071 67.2371L82.4296 65.7802ZM79.5852 62.8946L81.1375 60.3274C79.4438 59.3033 77.5507 58.8228 75.5454 58.8228V61.8228V64.8228C76.5631 64.8228 77.3632 65.0568 78.033 65.4618L79.5852 62.8946ZM75.5454 61.8228V58.8228C73.5729 58.8228 71.7118 59.314 70.0358 60.3274L71.588 62.8946L73.1403 65.4618C73.8277 65.0461 74.6048 64.8228 75.5454 64.8228V61.8228ZM71.588 62.8946L70.0536 60.3167C68.4195 61.2894 67.1338 62.649 66.2036 64.3232L68.8261 65.7802L71.4486 67.2371C71.8925 66.438 72.4481 65.8739 73.1225 65.4725L71.588 62.8946ZM68.8261 65.7802L66.1924 64.3436C65.2653 66.0433 64.8368 67.9214 64.8368 69.9024H67.8368H70.8368C70.8368 68.8055 71.0677 67.9355 71.4598 67.2167L68.8261 65.7802ZM67.8368 69.9024H64.8368C64.8368 71.8845 65.2656 73.765 66.179 75.4777L68.8261 74.0659L71.4732 72.6542C71.0675 71.8935 70.8368 70.9983 70.8368 69.9024H67.8368ZM68.8261 74.0659L66.2177 75.5479C67.1522 77.1927 68.4362 78.5255 70.0536 79.4882L71.588 76.9103L73.1225 74.3324C72.4313 73.921 71.8741 73.3576 71.4345 72.5839L68.8261 74.0659ZM71.588 76.9103L70.0802 79.5038C71.7499 80.4746 73.5952 80.9408 75.5454 80.9408V77.9408V74.9408C74.5825 74.9408 73.7895 74.72 73.0959 74.3168L71.588 76.9103ZM129.514 86.8037H126.514V89.8037H129.514V86.8037ZM129.514 81.3211H132.514L126.778 80.09L129.514 81.3211ZM127.617 83.712L125.468 81.6192L125.454 81.6339L125.439 81.6488L127.617 83.712ZM123.66 86.5564L125.002 89.2397L125.019 89.2308L125.037 89.2217L123.66 86.5564ZM109.232 85.4021L107.587 87.9111L107.597 87.9175L107.607 87.9239L109.232 85.4021ZM103.461 78.9302L100.783 80.2826L100.789 80.2936L103.461 78.9302ZM103.461 60.9159L106.133 62.2793L106.139 62.2683L103.461 60.9159ZM109.232 54.4027L110.877 56.9117L110.877 56.9117L109.232 54.4027ZM123.454 53.0011L122.266 55.7561L122.286 55.7648L122.307 55.7732L123.454 53.0011ZM127.329 55.3921L125.269 57.5731L125.285 57.5884L125.302 57.6035L127.329 55.3921ZM129.39 57.9066L126.707 59.2483L132.39 57.9066H129.39ZM129.39 52.9599V49.9599H126.39V52.9599H129.39ZM141.839 52.9599H144.839V49.9599H141.839V52.9599ZM141.839 86.8037V89.8037H144.839V86.8037H141.839ZM114.756 74.0659L112.158 75.5667L112.166 75.5795L112.173 75.5921L114.756 74.0659ZM117.6 76.9103L116.092 79.5038L116.105 79.5113L116.118 79.5186L117.6 76.9103ZM125.597 76.9103L124.063 74.3324L125.597 76.9103ZM128.318 74.0659L125.696 72.609L125.69 72.6192L125.684 72.6294L128.318 74.0659ZM128.318 65.7802L125.671 67.1919L125.69 67.2273L125.71 67.2622L128.318 65.7802ZM125.597 62.8946L124.018 65.4454L124.041 65.4591L124.063 65.4725L125.597 62.8946ZM117.6 62.8946L119.108 65.4881L119.117 65.4828L119.126 65.4774L117.6 62.8946ZM114.756 65.7802L117.339 67.3064L117.346 67.2937L117.353 67.281L114.756 65.7802ZM129.514 86.8037H132.514V81.3211H129.514H126.514V86.8037H129.514ZM129.514 81.3211L126.778 80.09C126.802 80.0366 126.755 80.1493 126.503 80.4669C126.271 80.7599 125.933 81.1415 125.468 81.6192L127.617 83.712L129.767 85.8049C130.778 84.7662 131.762 83.6355 132.249 82.5522L129.514 81.3211ZM127.617 83.712L125.439 81.6488C124.737 82.3898 123.715 83.1511 122.283 83.8911L123.66 86.5564L125.037 89.2217C126.902 88.2578 128.518 87.1229 129.795 85.7752L127.617 83.712ZM123.66 86.5564L122.318 83.8731C121.159 84.4528 119.711 84.7931 117.889 84.7931V87.7931V90.7931C120.464 90.7931 122.863 90.3088 125.002 89.2397L123.66 86.5564ZM117.889 87.7931V84.7931C115.095 84.7931 112.789 84.1254 110.857 82.8804L109.232 85.4021L107.607 87.9239C110.622 89.8668 114.086 90.7931 117.889 90.7931V87.7931ZM109.232 85.4021L110.877 82.8932C108.85 81.5644 107.276 79.8062 106.133 77.5668L103.461 78.9302L100.789 80.2936C102.394 83.4406 104.668 85.997 107.587 87.9111L109.232 85.4021ZM103.461 78.9302L106.139 77.5777C104.993 75.3102 104.4 72.7697 104.4 69.9024H101.4H98.3997C98.3997 73.6307 99.1801 77.1088 100.783 80.2826L103.461 78.9302ZM101.4 69.9024H104.4C104.4 67.0348 104.994 64.5129 106.133 62.2793L103.461 60.9159L100.789 59.5525C99.18 62.7053 98.3997 66.1745 98.3997 69.9024H101.4ZM103.461 60.9159L106.139 62.2683C107.283 60.002 108.857 58.2357 110.877 56.9117L109.232 54.4027L107.587 51.8938C104.66 53.8126 102.387 56.3884 100.783 59.5634L103.461 60.9159ZM109.232 54.4027L110.877 56.9117C112.806 55.6468 115.106 54.9706 117.889 54.9706V51.9706V48.9706C114.076 48.9706 110.605 49.9158 107.587 51.8938L109.232 54.4027ZM117.889 51.9706V54.9706C119.684 54.9706 121.12 55.262 122.266 55.7561L123.454 53.0011L124.641 50.2462C122.6 49.3662 120.326 48.9706 117.889 48.9706V51.9706ZM123.454 53.0011L122.307 55.7732C123.65 56.3288 124.606 56.9468 125.269 57.5731L127.329 55.3921L129.389 53.211C128.073 51.9685 126.446 50.9926 124.601 50.2291L123.454 53.0011ZM127.329 55.3921L125.302 57.6035C126.155 58.386 126.551 58.9371 126.707 59.2483L129.39 57.9066L132.073 56.565C131.459 55.3372 130.481 54.2119 129.356 53.1806L127.329 55.3921ZM129.39 57.9066H132.39V52.9599H129.39H126.39V57.9066H129.39ZM129.39 52.9599V55.9599H141.839V52.9599V49.9599H129.39V52.9599ZM141.839 52.9599H138.839V86.8037H141.839H144.839V52.9599H141.839ZM141.839 86.8037V83.8037H129.514V86.8037V89.8037H141.839V86.8037ZM113.684 69.9024H110.684C110.684 71.9261 111.16 73.8386 112.158 75.5667L114.756 74.0659L117.353 72.5651C116.923 71.8199 116.684 70.9567 116.684 69.9024H113.684ZM114.756 74.0659L112.173 75.5921C113.141 77.2305 114.454 78.5515 116.092 79.5038L117.6 76.9103L119.108 74.3168C118.383 73.895 117.8 73.3197 117.339 72.5397L114.756 74.0659ZM117.6 76.9103L116.118 79.5186C117.801 80.4747 119.648 80.9408 121.599 80.9408V77.9408V74.9408C120.636 74.9408 119.818 74.7199 119.082 74.3019L117.6 76.9103ZM121.599 77.9408V80.9408C123.581 80.9408 125.457 80.4849 127.132 79.4882L125.597 76.9103L124.063 74.3324C123.429 74.7098 122.639 74.9408 121.599 74.9408V77.9408ZM125.597 76.9103L127.132 79.4882C128.76 78.5188 130.042 77.1712 130.952 75.5025L128.318 74.0659L125.684 72.6294C125.275 73.3791 124.743 73.9276 124.063 74.3324L125.597 76.9103ZM128.318 74.0659L130.941 75.5228C131.897 73.8019 132.349 71.9052 132.349 69.9024H129.349H126.349C126.349 70.9776 126.114 71.8565 125.696 72.609L128.318 74.0659ZM129.349 69.9024H132.349C132.349 67.9006 131.897 66.006 130.926 64.2981L128.318 65.7802L125.71 67.2622C126.113 67.9728 126.349 68.8263 126.349 69.9024H129.349ZM128.318 65.7802L130.965 64.3684C130.06 62.6708 128.777 61.2961 127.132 60.3167L125.597 62.8946L124.063 65.4725C124.726 65.8671 125.257 66.4162 125.671 67.1919L128.318 65.7802ZM125.597 62.8946L127.176 60.3438C125.495 59.3031 123.603 58.8228 121.599 58.8228V61.8228V64.8228C122.618 64.8228 123.391 65.057 124.018 65.4454L125.597 62.8946ZM121.599 61.8228V58.8228C119.626 58.8228 117.763 59.3138 116.074 60.3118L117.6 62.8946L119.126 65.4774C119.856 65.0464 120.658 64.8228 121.599 64.8228V61.8228ZM117.6 62.8946L116.092 60.3011C114.438 61.2631 113.122 62.6108 112.158 64.2793L114.756 65.7802L117.353 67.281C117.818 66.4762 118.399 65.9002 119.108 65.4881L117.6 62.8946ZM114.756 65.7802L112.173 64.254C111.16 65.969 110.684 67.8795 110.684 69.9024H113.684H116.684C116.684 68.8474 116.923 68.0098 117.339 67.3064L114.756 65.7802ZM175.844 67.1817L178.624 66.0545L175.829 59.162L173.06 66.0645L175.844 67.1817ZM167.97 86.8037V89.8037H169.999L170.755 87.9209L167.97 86.8037ZM156.469 86.8037L153.622 87.7472L154.303 89.8037H156.469V86.8037ZM145.257 52.9599V49.9599H141.102L142.409 53.9034L145.257 52.9599ZM158.572 52.9599L161.472 52.1939L160.882 49.9599H158.572V52.9599ZM163.972 73.4064L161.071 74.1724L163.409 83.0239L166.763 74.5055L163.972 73.4064ZM171.763 53.6195V50.6195H169.72L168.971 52.5204L171.763 53.6195ZM180.007 53.6195L182.805 52.5355L182.062 50.6195H180.007V53.6195ZM187.675 73.4064L184.877 74.4903L188.205 83.0782L190.574 74.1779L187.675 73.4064ZM193.116 52.9599V49.9599H190.81L190.217 52.1884L193.116 52.9599ZM206.431 52.9599L209.28 53.9003L210.581 49.9599H206.431V52.9599ZM195.26 86.8037V89.8037H197.429L198.109 87.7441L195.26 86.8037ZM183.8 86.8037L181.02 87.931L181.779 89.8037H183.8V86.8037ZM175.844 67.1817L173.06 66.0645L165.186 85.6865L167.97 86.8037L170.755 87.9209L178.628 68.2989L175.844 67.1817ZM167.97 86.8037V83.8037H156.469V86.8037V89.8037H167.97V86.8037ZM156.469 86.8037L159.317 85.8602L148.105 52.0164L145.257 52.9599L142.409 53.9034L153.622 87.7472L156.469 86.8037ZM145.257 52.9599V55.9599H158.572V52.9599V49.9599H145.257V52.9599ZM158.572 52.9599L155.671 53.726L161.071 74.1724L163.972 73.4064L166.872 72.6403L161.472 52.1939L158.572 52.9599ZM163.972 73.4064L166.763 74.5055L174.554 54.7186L171.763 53.6195L168.971 52.5204L161.18 72.3072L163.972 73.4064ZM171.763 53.6195V56.6195H180.007V53.6195V50.6195H171.763V53.6195ZM180.007 53.6195L177.21 54.7035L184.877 74.4903L187.675 73.4064L190.472 72.3224L182.805 52.5355L180.007 53.6195ZM187.675 73.4064L190.574 74.1779L196.015 53.7315L193.116 52.9599L190.217 52.1884L184.776 72.6348L187.675 73.4064ZM193.116 52.9599V55.9599H206.431V52.9599V49.9599H193.116V52.9599ZM206.431 52.9599L203.582 52.0196L192.411 85.8634L195.26 86.8037L198.109 87.7441L209.28 53.9003L206.431 52.9599ZM195.26 86.8037V83.8037H183.8V86.8037V89.8037H195.26V86.8037ZM183.8 86.8037L186.58 85.6765L178.624 66.0545L175.844 67.1817L173.064 68.309L181.02 87.931L183.8 86.8037ZM215.992 85.4021L214.322 87.8939L214.331 87.9005L214.341 87.907L215.992 85.4021ZM210.345 78.9302L207.645 80.239L207.653 80.2555L207.661 80.2718L210.345 78.9302ZM210.345 60.9159L207.656 59.5851L207.65 59.5963L210.345 60.9159ZM215.992 54.4027L217.663 56.8945L217.663 56.8945L215.992 54.4027ZM230.296 53.0011L229.159 55.7771L229.178 55.7851L229.198 55.7928L230.296 53.0011ZM234.377 55.3921L232.377 57.6278L232.394 57.6426L232.41 57.6572L234.377 55.3921ZM236.274 57.9066L233.389 58.7308L239.274 57.9066H236.274ZM236.274 30.0814V27.0814H233.274V30.0814H236.274ZM248.805 30.0814H251.805V27.0814H248.805V30.0814ZM248.805 86.8037V89.8037H251.805V86.8037H248.805ZM236.397 86.8037H233.397V89.8037H236.397V86.8037ZM236.397 81.3211H239.397L233.729 79.9507L236.397 81.3211ZM233.842 84.3716L235.767 86.6718L235.783 86.6588L235.798 86.6456L233.842 84.3716ZM229.678 86.8037L228.572 84.015L228.552 84.0232L228.531 84.0317L229.678 86.8037ZM232.399 76.9103L230.917 74.3019L230.904 74.3093L230.891 74.3168L232.399 76.9103ZM235.243 74.0659L237.852 75.5479L237.859 75.5354L237.866 75.5228L235.243 74.0659ZM235.243 65.7802L232.621 67.2371L232.628 67.2497L232.635 67.2622L235.243 65.7802ZM232.399 62.8946L230.847 65.4618L230.881 65.4828L230.917 65.503L232.399 62.8946ZM224.402 62.8946L225.936 65.4725L225.945 65.4671L225.954 65.4618L224.402 62.8946ZM221.64 65.7802L219.017 64.3232L219.012 64.3334L219.006 64.3436L221.64 65.7802ZM221.64 74.0659L218.993 75.4777L219.012 75.5131L219.031 75.5479L221.64 74.0659ZM224.402 76.9103L222.867 79.4882L222.88 79.496L222.894 79.5038L224.402 76.9103ZM224.525 87.7931V84.7931C221.764 84.7931 219.51 84.1277 217.643 82.8973L215.992 85.4021L214.341 87.907C217.311 89.8645 220.746 90.7931 224.525 90.7931V87.7931ZM215.992 85.4021L217.663 82.9104C215.691 81.5883 214.151 79.8337 213.028 77.5885L210.345 78.9302L207.661 80.2718C209.232 83.4131 211.457 85.9731 214.322 87.8939L215.992 85.4021ZM210.345 78.9302L213.044 77.6214C211.94 75.3446 211.366 72.7886 211.366 69.9024H208.366H205.366C205.366 73.6119 206.111 77.0744 207.645 80.239L210.345 78.9302ZM208.366 69.9024H211.366C211.366 67.0158 211.94 64.4783 213.039 62.2355L210.345 60.9159L207.65 59.5963C206.111 62.7399 205.366 66.1934 205.366 69.9024H208.366ZM210.345 60.9159L213.033 62.2467C214.158 59.9744 215.698 58.2117 217.663 56.8945L215.992 54.4027L214.322 51.9109C211.449 53.8366 209.225 56.4161 207.656 59.5851L210.345 60.9159ZM215.992 54.4027L217.663 56.8945C219.528 55.6443 221.774 54.9706 224.525 54.9706V51.9706V48.9706C220.736 48.9706 217.294 49.9183 214.322 51.9109L215.992 54.4027ZM224.525 51.9706V54.9706C226.382 54.9706 227.907 55.2642 229.159 55.7771L230.296 53.0011L231.434 50.2252C229.333 49.364 227.011 48.9706 224.525 48.9706V51.9706ZM230.296 53.0011L229.198 55.7928C230.633 56.3575 231.662 56.9877 232.377 57.6278L234.377 55.3921L236.378 53.1563C235.005 51.9276 233.312 50.9639 231.395 50.2095L230.296 53.0011ZM234.377 55.3921L232.41 57.6572C232.821 58.0137 233.082 58.2987 233.239 58.5072C233.399 58.7187 233.407 58.7922 233.389 58.7308L236.274 57.9066L239.158 57.0825C238.7 55.4791 237.546 54.1701 236.345 53.127L234.377 55.3921ZM236.274 57.9066H239.274V30.0814H236.274H233.274V57.9066H236.274ZM236.274 30.0814V33.0814H248.805V30.0814V27.0814H236.274V30.0814ZM248.805 30.0814H245.805V86.8037H248.805H251.805V30.0814H248.805ZM248.805 86.8037V83.8037H236.397V86.8037V89.8037H248.805V86.8037ZM236.397 86.8037H239.397V81.3211H236.397H233.397V86.8037H236.397ZM236.397 81.3211L233.729 79.9507C233.435 80.5226 232.873 81.2471 231.885 82.0975L233.842 84.3716L235.798 86.6456C237.173 85.4624 238.315 84.1532 239.066 82.6915L236.397 81.3211ZM233.842 84.3716L231.916 82.0713C231.006 82.8334 229.902 83.4878 228.572 84.015L229.678 86.8037L230.784 89.5924C232.642 88.8555 234.314 87.8885 235.767 86.6718L233.842 84.3716ZM229.678 86.8037L228.531 84.0317C227.325 84.5308 226 84.7931 224.525 84.7931V87.7931V90.7931C226.733 90.7931 228.844 90.3958 230.825 89.5758L229.678 86.8037ZM228.359 77.9408V80.9408C230.343 80.9408 232.22 80.4846 233.907 79.5038L232.399 76.9103L230.891 74.3168C230.214 74.7101 229.398 74.9408 228.359 74.9408V77.9408ZM232.399 76.9103L233.881 79.5186C235.56 78.5645 236.897 77.2272 237.852 75.5479L235.243 74.0659L232.635 72.5839C232.215 73.323 231.656 73.882 230.917 74.3019L232.399 76.9103ZM235.243 74.0659L237.866 75.5228C238.822 73.8019 239.274 71.9052 239.274 69.9024H236.274H233.274C233.274 70.9776 233.039 71.8565 232.621 72.609L235.243 74.0659ZM236.274 69.9024H239.274C239.274 67.9006 238.822 66.006 237.852 64.2981L235.243 65.7802L232.635 67.2622C233.039 67.9728 233.274 68.8263 233.274 69.9024H236.274ZM235.243 65.7802L237.866 64.3232C236.916 62.6141 235.577 61.2501 233.881 60.2862L232.399 62.8946L230.917 65.503C231.639 65.9132 232.196 66.4728 232.621 67.2371L235.243 65.7802ZM232.399 62.8946L233.951 60.3274C232.257 59.3033 230.364 58.8228 228.359 58.8228V61.8228V64.8228C229.377 64.8228 230.177 65.0568 230.847 65.4618L232.399 62.8946ZM228.359 61.8228V58.8228C226.386 58.8228 224.525 59.314 222.849 60.3274L224.402 62.8946L225.954 65.4618C226.641 65.0461 227.418 64.8228 228.359 64.8228V61.8228ZM224.402 62.8946L222.867 60.3167C221.233 61.2894 219.947 62.649 219.017 64.3232L221.64 65.7802L224.262 67.2371C224.706 66.438 225.262 65.8739 225.936 65.4725L224.402 62.8946ZM221.64 65.7802L219.006 64.3436C218.079 66.0433 217.65 67.9214 217.65 69.9024H220.65H223.65C223.65 68.8055 223.881 67.9355 224.273 67.2167L221.64 65.7802ZM220.65 69.9024H217.65C217.65 71.8845 218.079 73.765 218.993 75.4777L221.64 74.0659L224.287 72.6542C223.881 71.8935 223.65 70.9983 223.65 69.9024H220.65ZM221.64 74.0659L219.031 75.5479C219.966 77.1927 221.25 78.5255 222.867 79.4882L224.402 76.9103L225.936 74.3324C225.245 73.921 224.688 73.3576 224.248 72.5839L221.64 74.0659ZM224.402 76.9103L222.894 79.5038C224.564 80.4746 226.409 80.9408 228.359 80.9408V77.9408V74.9408C227.396 74.9408 226.603 74.72 225.909 74.3168L224.402 76.9103ZM268.6 86.8037V89.8037H271.6V86.8037H268.6ZM256.027 86.8037H253.027V89.8037H256.027V86.8037ZM256.027 30.0814V27.0814H253.027V30.0814H256.027ZM268.6 30.0814H271.6V27.0814H268.6V30.0814ZM268.6 86.8037V83.8037H256.027V86.8037V89.8037H268.6V86.8037ZM256.027 86.8037H259.027V30.0814H256.027H253.027V86.8037H256.027ZM256.027 30.0814V33.0814H268.6V30.0814V27.0814H256.027V30.0814ZM268.6 30.0814H265.6V86.8037H268.6H271.6V30.0814H268.6ZM286.656 72.5407V69.5407H283.444L283.662 72.7448L286.656 72.5407ZM287.81 75.756L285.393 77.5332L285.393 77.5332L287.81 75.756ZM290.654 77.9821L289.413 80.7132L289.45 80.73L289.487 80.7458L290.654 77.9821ZM299.311 78.2706L298.569 75.3639L298.561 75.3658L298.554 75.3678L299.311 78.2706ZM302.65 77.0339L301.278 74.3661L301.262 74.3742L301.246 74.3826L302.65 77.0339ZM304.876 75.5087L307.417 73.9139L305.416 70.726L302.755 73.3874L304.876 75.5087ZM309.74 83.2586L311.941 85.2968L313.503 83.6104L312.281 81.6637L309.74 83.2586ZM306.813 85.4434L308.27 88.0658L308.28 88.0605L308.29 88.0551L306.813 85.4434ZM301.908 87.1335L302.542 90.0657L301.908 87.1335ZM277.339 79.5073L274.785 81.081L274.785 81.081L277.339 79.5073ZM276.968 60.6273L274.336 59.1889L274.33 59.1985L276.968 60.6273ZM283.275 54.3203L284.741 56.9378L284.751 56.9322L284.761 56.9266L283.275 54.3203ZM302.774 53.9905L301.432 56.6738L301.443 56.6792L302.774 53.9905ZM309.039 60.009L306.407 61.4475L306.416 61.4637L306.425 61.4798L309.039 60.009ZM311.224 71.2216L308.227 71.0967L308.224 71.1591V71.2216H311.224ZM311.142 72.5407V75.5407H313.484L314.052 73.2683L311.142 72.5407ZM299.476 65.9863V68.9863H302.571L302.474 65.8926L299.476 65.9863ZM298.775 63.3893L296.092 64.7309L296.1 64.7481L296.109 64.7652L298.775 63.3893ZM296.796 61.2457L295.15 63.7538L295.178 63.7721L295.206 63.7897L296.796 61.2457ZM289.912 61.2045L291.376 63.8233L291.388 63.8163L291.401 63.8092L289.912 61.2045ZM286.944 65.9863L283.949 65.8151L283.768 68.9863H286.944V65.9863ZM286.656 72.5407L283.662 72.7448C283.782 74.4955 284.353 76.1186 285.393 77.5332L287.81 75.756L290.227 73.9789C289.893 73.5248 289.694 73.0043 289.649 72.3366L286.656 72.5407ZM287.81 75.756L285.393 77.5332C286.425 78.9376 287.805 79.9825 289.413 80.7132L290.654 77.9821L291.896 75.251C291.085 74.8824 290.568 74.4432 290.227 73.9789L287.81 75.756ZM290.654 77.9821L289.487 80.7458C291.173 81.4575 293.043 81.7653 295.024 81.7653V78.7653V75.7653C293.652 75.7653 292.609 75.551 291.821 75.2183L290.654 77.9821ZM295.024 78.7653V81.7653C296.819 81.7653 298.51 81.5801 300.068 81.1735L299.311 78.2706L298.554 75.3678C297.584 75.6208 296.416 75.7653 295.024 75.7653V78.7653ZM299.311 78.2706L300.053 81.1774C301.518 80.8034 302.863 80.3154 304.054 79.6853L302.65 77.0339L301.246 74.3826C300.568 74.7419 299.687 75.0783 298.569 75.3639L299.311 78.2706ZM302.65 77.0339L304.022 79.7018C305.144 79.1246 306.179 78.4486 306.997 77.63L304.876 75.5087L302.755 73.3874C302.529 73.6132 302.079 73.9539 301.278 74.3661L302.65 77.0339ZM304.876 75.5087L302.335 77.1036L307.199 84.8534L309.74 83.2586L312.281 81.6637L307.417 73.9139L304.876 75.5087ZM309.74 83.2586L307.539 81.2203C307.132 81.6594 306.439 82.2091 305.337 82.8317L306.813 85.4434L308.29 88.0551C309.716 87.2485 310.974 86.3417 311.941 85.2968L309.74 83.2586ZM306.813 85.4434L305.356 82.8209C304.468 83.3147 303.142 83.7974 301.274 84.2012L301.908 87.1335L302.542 90.0657C304.741 89.5902 306.686 88.9461 308.27 88.0658L306.813 85.4434ZM301.908 87.1335L301.274 84.2012C299.523 84.5797 297.185 84.7931 294.199 84.7931V87.7931V90.7931C297.425 90.7931 300.225 90.5667 302.542 90.0657L301.908 87.1335ZM294.199 87.7931V84.7931C290.842 84.7931 287.972 84.1653 285.524 82.9873L284.223 85.6907L282.923 88.3941C286.3 90.0192 290.082 90.7931 294.199 90.7931V87.7931ZM284.223 85.6907L285.524 82.9873C283.122 81.8316 281.265 80.1596 279.893 77.9336L277.339 79.5073L274.785 81.081C276.766 84.2964 279.499 86.7467 282.923 88.3941L284.223 85.6907ZM277.339 79.5073L279.893 77.9336C278.569 75.784 277.825 73.0331 277.825 69.5314H274.825H271.825C271.825 73.8895 272.757 77.7892 274.785 81.081L277.339 79.5073ZM274.825 69.5314H277.825C277.825 66.6821 278.438 64.2133 279.606 62.0562L276.968 60.6273L274.33 59.1985C272.641 62.3179 271.825 65.7852 271.825 69.5314H274.825ZM276.968 60.6273L279.601 62.0658C280.777 59.9138 282.466 58.2119 284.741 56.9378L283.275 54.3203L281.809 51.7028C278.588 53.5066 276.073 56.0094 274.336 59.1889L276.968 60.6273ZM283.275 54.3203L284.761 56.9266C286.965 55.6703 289.74 54.9706 293.21 54.9706V51.9706V48.9706C288.93 48.9706 285.082 49.8374 281.79 51.7139L283.275 54.3203ZM293.21 51.9706V54.9706C296.529 54.9706 299.238 55.5768 301.432 56.6738L302.774 53.9905L304.115 51.3072C300.923 49.711 297.256 48.9706 293.21 48.9706V51.9706ZM302.774 53.9905L301.443 56.6792C303.611 57.7524 305.245 59.3219 306.407 61.4475L309.039 60.009L311.672 58.5705C309.92 55.3647 307.377 52.9218 304.104 51.3018L302.774 53.9905ZM309.039 60.009L306.425 61.4798C307.59 63.5517 308.265 66.3065 308.265 69.9024H311.265H314.265C314.265 65.5836 313.457 61.7428 311.654 58.5382L309.039 60.009ZM311.265 69.9024H308.265C308.265 70.0494 308.255 70.4266 308.227 71.0967L311.224 71.2216L314.222 71.3464C314.249 70.6973 314.265 70.1952 314.265 69.9024H311.265ZM311.224 71.2216H308.224C308.224 71.5163 308.218 71.7237 308.209 71.8589C308.205 71.9255 308.202 71.9575 308.201 71.9625C308.199 71.9749 308.206 71.9154 308.231 71.8131L311.142 72.5407L314.052 73.2683C314.211 72.633 314.224 71.8254 314.224 71.2216H311.224ZM311.142 72.5407V69.5407H286.656V72.5407V75.5407H311.142V72.5407ZM299.476 65.9863L302.474 65.8926C302.432 64.5274 302.067 63.2264 301.441 62.0133L298.775 63.3893L296.109 64.7652C296.362 65.256 296.465 65.6864 296.477 66.08L299.476 65.9863ZM298.775 63.3893L301.458 62.0476C300.758 60.647 299.707 59.5272 298.386 58.7017L296.796 61.2457L295.206 63.7897C295.644 64.0635 295.913 64.3727 296.092 64.7309L298.775 63.3893ZM296.796 61.2457L298.442 58.7375C296.945 57.7547 295.198 57.38 293.416 57.38V60.38V63.38C294.382 63.38 294.889 63.5824 295.15 63.7538L296.796 61.2457ZM293.416 60.38V57.38C291.644 57.38 289.936 57.7357 288.424 58.5997L289.912 61.2045L291.401 63.8092C291.812 63.5739 292.44 63.38 293.416 63.38V60.38ZM289.912 61.2045L288.449 58.5856C287.086 59.3469 285.962 60.4018 285.174 61.7592L287.769 63.2656L290.363 64.772C290.564 64.4255 290.869 64.1063 291.376 63.8233L289.912 61.2045ZM287.769 63.2656L285.174 61.7592C284.448 63.009 284.031 64.372 283.949 65.8151L286.944 65.9863L289.939 66.1574C289.967 65.6768 290.099 65.226 290.363 64.772L287.769 63.2656ZM286.944 65.9863V68.9863H299.476V65.9863V62.9863H286.944V65.9863Z" fill="#AF3D10" mask="url(#path-12-outside-2_2371_1252)"/>
<mask id="path-14-outside-3_2371_1252" maskUnits="userSpaceOnUse" x="138" y="29" width="72" height="22" fill="black">
<rect fill="white" x="138" y="29" width="72" height="22"/>
<path d="M149.304 47.9893C147.27 47.9893 145.511 47.2611 144.027 45.8045C142.571 44.3205 141.843 42.5617 141.843 40.528C141.843 38.4394 142.571 36.6669 144.027 35.2103C145.511 33.7263 147.27 32.9843 149.304 32.9843C151.392 32.9843 153.165 33.7263 154.622 35.2103C156.078 36.6669 156.806 38.4394 156.806 40.528C156.806 42.5617 156.078 44.3205 154.622 45.8045C153.165 47.2611 151.392 47.9893 149.304 47.9893ZM174.343 47.9893C172.31 47.9893 170.551 47.2611 169.067 45.8045C167.61 44.3205 166.882 42.5617 166.882 40.528C166.882 38.4394 167.61 36.6669 169.067 35.2103C170.551 33.7263 172.31 32.9843 174.343 32.9843C176.432 32.9843 178.205 33.7263 179.661 35.2103C181.118 36.6669 181.846 38.4394 181.846 40.528C181.846 42.5617 181.118 44.3205 179.661 45.8045C178.205 47.2611 176.432 47.9893 174.343 47.9893ZM199.383 47.9893C197.349 47.9893 195.59 47.2611 194.106 45.8045C192.65 44.3205 191.922 42.5617 191.922 40.528C191.922 38.4394 192.65 36.6669 194.106 35.2103C195.59 33.7263 197.349 32.9843 199.383 32.9843C201.471 32.9843 203.244 33.7263 204.701 35.2103C206.157 36.6669 206.885 38.4394 206.885 40.528C206.885 42.5617 206.157 44.3205 204.701 45.8045C203.244 47.2611 201.471 47.9893 199.383 47.9893Z"/>
</mask>
<path d="M149.304 47.9893C147.27 47.9893 145.511 47.2611 144.027 45.8045C142.571 44.3205 141.843 42.5617 141.843 40.528C141.843 38.4394 142.571 36.6669 144.027 35.2103C145.511 33.7263 147.27 32.9843 149.304 32.9843C151.392 32.9843 153.165 33.7263 154.622 35.2103C156.078 36.6669 156.806 38.4394 156.806 40.528C156.806 42.5617 156.078 44.3205 154.622 45.8045C153.165 47.2611 151.392 47.9893 149.304 47.9893ZM174.343 47.9893C172.31 47.9893 170.551 47.2611 169.067 45.8045C167.61 44.3205 166.882 42.5617 166.882 40.528C166.882 38.4394 167.61 36.6669 169.067 35.2103C170.551 33.7263 172.31 32.9843 174.343 32.9843C176.432 32.9843 178.205 33.7263 179.661 35.2103C181.118 36.6669 181.846 38.4394 181.846 40.528C181.846 42.5617 181.118 44.3205 179.661 45.8045C178.205 47.2611 176.432 47.9893 174.343 47.9893ZM199.383 47.9893C197.349 47.9893 195.59 47.2611 194.106 45.8045C192.65 44.3205 191.922 42.5617 191.922 40.528C191.922 38.4394 192.65 36.6669 194.106 35.2103C195.59 33.7263 197.349 32.9843 199.383 32.9843C201.471 32.9843 203.244 33.7263 204.701 35.2103C206.157 36.6669 206.885 38.4394 206.885 40.528C206.885 42.5617 206.157 44.3205 204.701 45.8045C203.244 47.2611 201.471 47.9893 199.383 47.9893Z" fill="url(#paint1_linear_2371_1252)"/>
<path d="M144.027 45.8045L141.886 47.9059L141.906 47.926L141.926 47.9456L144.027 45.8045ZM144.027 35.2103L141.906 33.089L141.906 33.089L144.027 35.2103ZM154.622 35.2103L152.48 37.3117L152.49 37.3217L152.5 37.3316L154.622 35.2103ZM154.622 45.8045L156.743 47.9259L156.753 47.916L156.763 47.9059L154.622 45.8045ZM149.304 47.9893V44.9893C148.076 44.9893 147.066 44.5833 146.129 43.6635L144.027 45.8045L141.926 47.9456C143.957 49.9388 146.465 50.9893 149.304 50.9893V47.9893ZM144.027 45.8045L146.168 43.7031C145.249 42.7659 144.843 41.7562 144.843 40.528H141.843H138.843C138.843 43.3672 139.893 45.8751 141.886 47.9059L144.027 45.8045ZM141.843 40.528H144.843C144.843 39.2226 145.263 38.2168 146.149 37.3316L144.027 35.2103L141.906 33.089C139.878 35.1169 138.843 37.6563 138.843 40.528H141.843ZM144.027 35.2103L146.149 37.3316C147.09 36.3901 148.094 35.9843 149.304 35.9843V32.9843V29.9843C146.447 29.9843 143.933 31.0625 141.906 33.089L144.027 35.2103ZM149.304 32.9843V35.9843C150.591 35.9843 151.591 36.4054 152.48 37.3117L154.622 35.2103L156.763 33.1089C154.739 31.0473 152.194 29.9843 149.304 29.9843V32.9843ZM154.622 35.2103L152.5 37.3316C153.385 38.2168 153.806 39.2226 153.806 40.528H156.806H159.806C159.806 37.6563 158.771 35.1169 156.743 33.089L154.622 35.2103ZM156.806 40.528H153.806C153.806 41.7562 153.4 42.7659 152.48 43.7031L154.622 45.8045L156.763 47.9059C158.756 45.8751 159.806 43.3672 159.806 40.528H156.806ZM154.622 45.8045L152.5 43.6832C151.615 44.5684 150.609 44.9893 149.304 44.9893V47.9893V50.9893C152.176 50.9893 154.715 49.9538 156.743 47.9259L154.622 45.8045ZM169.067 45.8045L166.926 47.9059L166.945 47.926L166.965 47.9456L169.067 45.8045ZM169.067 35.2103L166.946 33.089L166.946 33.089L169.067 35.2103ZM179.661 35.2103L177.52 37.3117L177.53 37.3217L177.54 37.3316L179.661 35.2103ZM179.661 45.8045L181.782 47.9259L181.792 47.916L181.802 47.9059L179.661 45.8045ZM174.343 47.9893V44.9893C173.115 44.9893 172.105 44.5833 171.168 43.6635L169.067 45.8045L166.965 47.9456C168.996 49.9388 171.504 50.9893 174.343 50.9893V47.9893ZM169.067 45.8045L171.208 43.7031C170.288 42.7659 169.882 41.7562 169.882 40.528H166.882H163.882C163.882 43.3672 164.933 45.8751 166.926 47.9059L169.067 45.8045ZM166.882 40.528H169.882C169.882 39.2226 170.303 38.2168 171.188 37.3316L169.067 35.2103L166.946 33.089C164.918 35.1169 163.882 37.6563 163.882 40.528H166.882ZM169.067 35.2103L171.188 37.3316C172.13 36.3901 173.133 35.9843 174.343 35.9843V32.9843V29.9843C171.486 29.9843 168.972 31.0625 166.946 33.089L169.067 35.2103ZM174.343 32.9843V35.9843C175.631 35.9843 176.63 36.4054 177.52 37.3117L179.661 35.2103L181.802 33.1089C179.779 31.0473 177.233 29.9843 174.343 29.9843V32.9843ZM179.661 35.2103L177.54 37.3316C178.425 38.2168 178.846 39.2226 178.846 40.528H181.846H184.846C184.846 37.6563 183.81 35.1169 181.782 33.089L179.661 35.2103ZM181.846 40.528H178.846C178.846 41.7562 178.44 42.7659 177.52 43.7031L179.661 45.8045L181.802 47.9059C183.795 45.8751 184.846 43.3672 184.846 40.528H181.846ZM179.661 45.8045L177.54 43.6832C176.655 44.5684 175.649 44.9893 174.343 44.9893V47.9893V50.9893C177.215 50.9893 179.754 49.9538 181.782 47.9259L179.661 45.8045ZM194.106 45.8045L191.965 47.9059L191.985 47.926L192.005 47.9456L194.106 45.8045ZM194.106 35.2103L191.985 33.089L191.985 33.089L194.106 35.2103ZM204.701 35.2103L202.56 37.3117L202.569 37.3217L202.579 37.3316L204.701 35.2103ZM204.701 45.8045L206.822 47.9259L206.832 47.916L206.842 47.9059L204.701 45.8045ZM199.383 47.9893V44.9893C198.155 44.9893 197.145 44.5833 196.208 43.6635L194.106 45.8045L192.005 47.9456C194.036 49.9388 196.544 50.9893 199.383 50.9893V47.9893ZM194.106 45.8045L196.247 43.7031C195.328 42.7659 194.922 41.7562 194.922 40.528H191.922H188.922C188.922 43.3672 189.972 45.8751 191.965 47.9059L194.106 45.8045ZM191.922 40.528H194.922C194.922 39.2226 195.343 38.2168 196.228 37.3316L194.106 35.2103L191.985 33.089C189.957 35.1169 188.922 37.6563 188.922 40.528H191.922ZM194.106 35.2103L196.228 37.3316C197.169 36.3901 198.173 35.9843 199.383 35.9843V32.9843V29.9843C196.526 29.9843 194.012 31.0625 191.985 33.089L194.106 35.2103ZM199.383 32.9843V35.9843C200.67 35.9843 201.67 36.4054 202.56 37.3117L204.701 35.2103L206.842 33.1089C204.818 31.0473 202.273 29.9843 199.383 29.9843V32.9843ZM204.701 35.2103L202.579 37.3316C203.464 38.2168 203.885 39.2226 203.885 40.528H206.885H209.885C209.885 37.6563 208.85 35.1169 206.822 33.089L204.701 35.2103ZM206.885 40.528H203.885C203.885 41.7562 203.479 42.7659 202.56 43.7031L204.701 45.8045L206.842 47.9059C208.835 45.8751 209.885 43.3672 209.885 40.528H206.885ZM204.701 45.8045L202.579 43.6832C201.694 44.5684 200.688 44.9893 199.383 44.9893V47.9893V50.9893C202.255 50.9893 204.794 49.9538 206.822 47.9259L204.701 45.8045Z" fill="#AF3D10" mask="url(#path-14-outside-3_2371_1252)"/>
<mask id="path-16-outside-4_2371_1252" maskUnits="userSpaceOnUse" x="52.0176" y="26.8037" width="263" height="64" fill="black">
<rect fill="white" x="52.0176" y="26.8037" width="263" height="64"/>
<path d="M71.7117 87.7931C68.4414 87.7931 65.597 86.9961 63.1786 85.4021C60.7602 83.7807 58.8777 81.6234 57.5311 78.9302C56.212 76.2095 55.5524 73.2002 55.5524 69.9024C55.5524 66.6046 56.212 63.6091 57.5311 60.9159C58.8777 58.1952 60.7602 56.0241 63.1786 54.4027C65.597 52.7813 68.4414 51.9706 71.7117 51.9706C73.8827 51.9706 75.8065 52.3141 77.4829 53.0011C79.1592 53.6607 80.5196 54.4577 81.5639 55.3921C82.6082 56.299 83.2403 57.1372 83.4601 57.9066V30.0814H95.9918V86.8037H83.5838V81.3211C83.0617 82.3379 82.2097 83.3548 81.028 84.3716C79.8463 85.3609 78.4585 86.1716 76.8645 86.8037C75.2706 87.4633 73.553 87.7931 71.7117 87.7931ZM75.5454 77.9408C77.0569 77.9408 78.4035 77.5973 79.5852 76.9103C80.7944 76.2232 81.7425 75.2751 82.4296 74.0659C83.1166 72.8292 83.4601 71.4414 83.4601 69.9024C83.4601 68.3635 83.1166 66.9894 82.4296 65.7802C81.7425 64.5435 80.7944 63.5816 79.5852 62.8946C78.4035 62.1801 77.0569 61.8228 75.5454 61.8228C74.0889 61.8228 72.7697 62.1801 71.588 62.8946C70.4338 63.5816 69.5131 64.5435 68.8261 65.7802C68.1665 66.9894 67.8368 68.3635 67.8368 69.9024C67.8368 71.4414 68.1665 72.8292 68.8261 74.0659C69.5131 75.2751 70.4338 76.2232 71.588 76.9103C72.7697 77.5973 74.0889 77.9408 75.5454 77.9408ZM129.514 86.8037V81.3211C129.266 81.8707 128.634 82.6677 127.617 83.712C126.628 84.7563 125.309 85.7044 123.66 86.5564C122.011 87.3808 120.087 87.7931 117.889 87.7931C114.591 87.7931 111.705 86.9961 109.232 85.4021C106.759 83.7807 104.835 81.6234 103.461 78.9302C102.087 76.2095 101.4 73.2002 101.4 69.9024C101.4 66.6046 102.087 63.6091 103.461 60.9159C104.835 58.1952 106.759 56.0241 109.232 54.4027C111.705 52.7813 114.591 51.9706 117.889 51.9706C120.005 51.9706 121.86 52.3141 123.454 53.0011C125.048 53.6607 126.339 54.4577 127.329 55.3921C128.318 56.299 129.005 57.1372 129.39 57.9066V52.9599H141.839V86.8037H129.514ZM113.684 69.9024C113.684 71.4414 114.041 72.8292 114.756 74.0659C115.47 75.2751 116.418 76.2232 117.6 76.9103C118.809 77.5973 120.142 77.9408 121.599 77.9408C123.11 77.9408 124.443 77.5973 125.597 76.9103C126.752 76.2232 127.659 75.2751 128.318 74.0659C129.005 72.8292 129.349 71.4414 129.349 69.9024C129.349 68.3635 129.005 66.9894 128.318 65.7802C127.659 64.5435 126.752 63.5816 125.597 62.8946C124.443 62.1801 123.11 61.8228 121.599 61.8228C120.142 61.8228 118.809 62.1801 117.6 62.8946C116.418 63.5816 115.47 64.5435 114.756 65.7802C114.041 66.9894 113.684 68.3635 113.684 69.9024ZM175.844 67.1817L167.97 86.8037H156.469L145.257 52.9599H158.572L163.972 73.4064L171.763 53.6195H180.007L187.675 73.4064L193.116 52.9599H206.431L195.26 86.8037H183.8L175.844 67.1817ZM224.525 87.7931C221.255 87.7931 218.411 86.9961 215.992 85.4021C213.574 83.7807 211.691 81.6234 210.345 78.9302C209.026 76.2095 208.366 73.2002 208.366 69.9024C208.366 66.6046 209.026 63.6091 210.345 60.9159C211.691 58.1952 213.574 56.0241 215.992 54.4027C218.411 52.7813 221.255 51.9706 224.525 51.9706C226.696 51.9706 228.62 52.3141 230.296 53.0011C231.973 53.6607 233.333 54.4577 234.377 55.3921C235.422 56.299 236.054 57.1372 236.274 57.9066V30.0814H248.805V86.8037H236.397V81.3211C235.875 82.3379 235.023 83.3548 233.842 84.3716C232.66 85.3609 231.272 86.1716 229.678 86.8037C228.084 87.4633 226.367 87.7931 224.525 87.7931ZM228.359 77.9408C229.87 77.9408 231.217 77.5973 232.399 76.9103C233.608 76.2232 234.556 75.2751 235.243 74.0659C235.93 72.8292 236.274 71.4414 236.274 69.9024C236.274 68.3635 235.93 66.9894 235.243 65.7802C234.556 64.5435 233.608 63.5816 232.399 62.8946C231.217 62.1801 229.87 61.8228 228.359 61.8228C226.902 61.8228 225.583 62.1801 224.402 62.8946C223.247 63.5816 222.327 64.5435 221.64 65.7802C220.98 66.9894 220.65 68.3635 220.65 69.9024C220.65 71.4414 220.98 72.8292 221.64 74.0659C222.327 75.2751 223.247 76.2232 224.402 76.9103C225.583 77.5973 226.902 77.9408 228.359 77.9408ZM268.6 86.8037H256.027V30.0814H268.6V86.8037ZM286.656 72.5407C286.738 73.7499 287.123 74.8217 287.81 75.756C288.497 76.6904 289.445 77.4324 290.654 77.9821C291.891 78.5042 293.347 78.7653 295.024 78.7653C296.618 78.7653 298.047 78.6004 299.311 78.2706C300.603 77.9408 301.716 77.5286 302.65 77.0339C303.612 76.5393 304.354 76.0309 304.876 75.5087L309.74 83.2586C309.053 84.0006 308.078 84.7288 306.813 85.4434C305.577 86.1304 303.942 86.6938 301.908 87.1335C299.874 87.5732 297.305 87.7931 294.199 87.7931C290.462 87.7931 287.136 87.0923 284.223 85.6907C281.31 84.2891 279.016 82.228 277.339 79.5073C275.663 76.7866 274.825 73.4613 274.825 69.5314C274.825 66.2336 275.539 63.2656 276.968 60.6273C278.425 57.9616 280.527 55.8593 283.275 54.3203C286.023 52.7538 289.335 51.9706 293.21 51.9706C296.892 51.9706 300.08 52.6439 302.774 53.9905C305.494 55.3371 307.583 57.3433 309.039 60.009C310.523 62.6472 311.265 65.9451 311.265 69.9024C311.265 70.1223 311.252 70.562 311.224 71.2216C311.224 71.8811 311.197 72.3208 311.142 72.5407H286.656ZM299.476 65.9863C299.448 65.1069 299.215 64.2412 298.775 63.3893C298.335 62.5098 297.676 61.7953 296.796 61.2457C295.917 60.6686 294.79 60.38 293.416 60.38C292.042 60.38 290.874 60.6548 289.912 61.2045C288.978 61.7266 288.263 62.4137 287.769 63.2656C287.274 64.1175 286.999 65.0244 286.944 65.9863H299.476Z"/>
</mask>
<path d="M71.7117 87.7931C68.4414 87.7931 65.597 86.9961 63.1786 85.4021C60.7602 83.7807 58.8777 81.6234 57.5311 78.9302C56.212 76.2095 55.5524 73.2002 55.5524 69.9024C55.5524 66.6046 56.212 63.6091 57.5311 60.9159C58.8777 58.1952 60.7602 56.0241 63.1786 54.4027C65.597 52.7813 68.4414 51.9706 71.7117 51.9706C73.8827 51.9706 75.8065 52.3141 77.4829 53.0011C79.1592 53.6607 80.5196 54.4577 81.5639 55.3921C82.6082 56.299 83.2403 57.1372 83.4601 57.9066V30.0814H95.9918V86.8037H83.5838V81.3211C83.0617 82.3379 82.2097 83.3548 81.028 84.3716C79.8463 85.3609 78.4585 86.1716 76.8645 86.8037C75.2706 87.4633 73.553 87.7931 71.7117 87.7931ZM75.5454 77.9408C77.0569 77.9408 78.4035 77.5973 79.5852 76.9103C80.7944 76.2232 81.7425 75.2751 82.4296 74.0659C83.1166 72.8292 83.4601 71.4414 83.4601 69.9024C83.4601 68.3635 83.1166 66.9894 82.4296 65.7802C81.7425 64.5435 80.7944 63.5816 79.5852 62.8946C78.4035 62.1801 77.0569 61.8228 75.5454 61.8228C74.0889 61.8228 72.7697 62.1801 71.588 62.8946C70.4338 63.5816 69.5131 64.5435 68.8261 65.7802C68.1665 66.9894 67.8368 68.3635 67.8368 69.9024C67.8368 71.4414 68.1665 72.8292 68.8261 74.0659C69.5131 75.2751 70.4338 76.2232 71.588 76.9103C72.7697 77.5973 74.0889 77.9408 75.5454 77.9408ZM129.514 86.8037V81.3211C129.266 81.8707 128.634 82.6677 127.617 83.712C126.628 84.7563 125.309 85.7044 123.66 86.5564C122.011 87.3808 120.087 87.7931 117.889 87.7931C114.591 87.7931 111.705 86.9961 109.232 85.4021C106.759 83.7807 104.835 81.6234 103.461 78.9302C102.087 76.2095 101.4 73.2002 101.4 69.9024C101.4 66.6046 102.087 63.6091 103.461 60.9159C104.835 58.1952 106.759 56.0241 109.232 54.4027C111.705 52.7813 114.591 51.9706 117.889 51.9706C120.005 51.9706 121.86 52.3141 123.454 53.0011C125.048 53.6607 126.339 54.4577 127.329 55.3921C128.318 56.299 129.005 57.1372 129.39 57.9066V52.9599H141.839V86.8037H129.514ZM113.684 69.9024C113.684 71.4414 114.041 72.8292 114.756 74.0659C115.47 75.2751 116.418 76.2232 117.6 76.9103C118.809 77.5973 120.142 77.9408 121.599 77.9408C123.11 77.9408 124.443 77.5973 125.597 76.9103C126.752 76.2232 127.659 75.2751 128.318 74.0659C129.005 72.8292 129.349 71.4414 129.349 69.9024C129.349 68.3635 129.005 66.9894 128.318 65.7802C127.659 64.5435 126.752 63.5816 125.597 62.8946C124.443 62.1801 123.11 61.8228 121.599 61.8228C120.142 61.8228 118.809 62.1801 117.6 62.8946C116.418 63.5816 115.47 64.5435 114.756 65.7802C114.041 66.9894 113.684 68.3635 113.684 69.9024ZM175.844 67.1817L167.97 86.8037H156.469L145.257 52.9599H158.572L163.972 73.4064L171.763 53.6195H180.007L187.675 73.4064L193.116 52.9599H206.431L195.26 86.8037H183.8L175.844 67.1817ZM224.525 87.7931C221.255 87.7931 218.411 86.9961 215.992 85.4021C213.574 83.7807 211.691 81.6234 210.345 78.9302C209.026 76.2095 208.366 73.2002 208.366 69.9024C208.366 66.6046 209.026 63.6091 210.345 60.9159C211.691 58.1952 213.574 56.0241 215.992 54.4027C218.411 52.7813 221.255 51.9706 224.525 51.9706C226.696 51.9706 228.62 52.3141 230.296 53.0011C231.973 53.6607 233.333 54.4577 234.377 55.3921C235.422 56.299 236.054 57.1372 236.274 57.9066V30.0814H248.805V86.8037H236.397V81.3211C235.875 82.3379 235.023 83.3548 233.842 84.3716C232.66 85.3609 231.272 86.1716 229.678 86.8037C228.084 87.4633 226.367 87.7931 224.525 87.7931ZM228.359 77.9408C229.87 77.9408 231.217 77.5973 232.399 76.9103C233.608 76.2232 234.556 75.2751 235.243 74.0659C235.93 72.8292 236.274 71.4414 236.274 69.9024C236.274 68.3635 235.93 66.9894 235.243 65.7802C234.556 64.5435 233.608 63.5816 232.399 62.8946C231.217 62.1801 229.87 61.8228 228.359 61.8228C226.902 61.8228 225.583 62.1801 224.402 62.8946C223.247 63.5816 222.327 64.5435 221.64 65.7802C220.98 66.9894 220.65 68.3635 220.65 69.9024C220.65 71.4414 220.98 72.8292 221.64 74.0659C222.327 75.2751 223.247 76.2232 224.402 76.9103C225.583 77.5973 226.902 77.9408 228.359 77.9408ZM268.6 86.8037H256.027V30.0814H268.6V86.8037ZM286.656 72.5407C286.738 73.7499 287.123 74.8217 287.81 75.756C288.497 76.6904 289.445 77.4324 290.654 77.9821C291.891 78.5042 293.347 78.7653 295.024 78.7653C296.618 78.7653 298.047 78.6004 299.311 78.2706C300.603 77.9408 301.716 77.5286 302.65 77.0339C303.612 76.5393 304.354 76.0309 304.876 75.5087L309.74 83.2586C309.053 84.0006 308.078 84.7288 306.813 85.4434C305.577 86.1304 303.942 86.6938 301.908 87.1335C299.874 87.5732 297.305 87.7931 294.199 87.7931C290.462 87.7931 287.136 87.0923 284.223 85.6907C281.31 84.2891 279.016 82.228 277.339 79.5073C275.663 76.7866 274.825 73.4613 274.825 69.5314C274.825 66.2336 275.539 63.2656 276.968 60.6273C278.425 57.9616 280.527 55.8593 283.275 54.3203C286.023 52.7538 289.335 51.9706 293.21 51.9706C296.892 51.9706 300.08 52.6439 302.774 53.9905C305.494 55.3371 307.583 57.3433 309.039 60.009C310.523 62.6472 311.265 65.9451 311.265 69.9024C311.265 70.1223 311.252 70.562 311.224 71.2216C311.224 71.8811 311.197 72.3208 311.142 72.5407H286.656ZM299.476 65.9863C299.448 65.1069 299.215 64.2412 298.775 63.3893C298.335 62.5098 297.676 61.7953 296.796 61.2457C295.917 60.6686 294.79 60.38 293.416 60.38C292.042 60.38 290.874 60.6548 289.912 61.2045C288.978 61.7266 288.263 62.4137 287.769 63.2656C287.274 64.1175 286.999 65.0244 286.944 65.9863H299.476Z" fill="#544E87"/>
<path d="M63.1786 85.4021L61.508 87.8939L61.5178 87.9005L61.5277 87.907L63.1786 85.4021ZM57.5311 78.9302L54.8317 80.239L54.8396 80.2555L54.8478 80.2718L57.5311 78.9302ZM57.5311 60.9159L54.8424 59.5851L54.8369 59.5963L57.5311 60.9159ZM63.1786 54.4027L64.8492 56.8945L64.8492 56.8945L63.1786 54.4027ZM77.4829 53.0011L76.3452 55.7771L76.3648 55.7851L76.3845 55.7928L77.4829 53.0011ZM81.5639 55.3921L79.5635 57.6278L79.5801 57.6426L79.5968 57.6572L81.5639 55.3921ZM83.4601 57.9066L80.5756 58.7308L86.4601 57.9066H83.4601ZM83.4601 30.0814V27.0814H80.4601V30.0814H83.4601ZM95.9918 30.0814H98.9918V27.0814H95.9918V30.0814ZM95.9918 86.8037V89.8037H98.9918V86.8037H95.9918ZM83.5838 86.8037H80.5838V89.8037H83.5838V86.8037ZM83.5838 81.3211H86.5838L80.9151 79.9507L83.5838 81.3211ZM81.028 84.3716L82.9538 86.6718L82.9694 86.6588L82.9847 86.6456L81.028 84.3716ZM76.8645 86.8037L75.7586 84.015L75.738 84.0232L75.7175 84.0317L76.8645 86.8037ZM79.5852 76.9103L78.1032 74.3019L78.0902 74.3093L78.0773 74.3168L79.5852 76.9103ZM82.4296 74.0659L85.0379 75.5479L85.0451 75.5354L85.052 75.5228L82.4296 74.0659ZM82.4296 65.7802L79.8071 67.2371L79.8141 67.2497L79.8212 67.2622L82.4296 65.7802ZM79.5852 62.8946L78.033 65.4618L78.0678 65.4828L78.1032 65.503L79.5852 62.8946ZM71.588 62.8946L73.1225 65.4725L73.1314 65.4671L73.1403 65.4618L71.588 62.8946ZM68.8261 65.7802L66.2036 64.3232L66.198 64.3334L66.1924 64.3436L68.8261 65.7802ZM68.8261 74.0659L66.179 75.4777L66.1979 75.5131L66.2177 75.5479L68.8261 74.0659ZM71.588 76.9103L70.0536 79.4882L70.0668 79.496L70.0802 79.5038L71.588 76.9103ZM71.7117 87.7931V84.7931C68.95 84.7931 66.6964 84.1277 64.8295 82.8973L63.1786 85.4021L61.5277 87.907C64.4976 89.8645 67.9327 90.7931 71.7117 90.7931V87.7931ZM63.1786 85.4021L64.8492 82.9104C62.8774 81.5883 61.337 79.8337 60.2144 77.5885L57.5311 78.9302L54.8478 80.2718C56.4184 83.4131 58.643 85.9731 61.508 87.8939L63.1786 85.4021ZM57.5311 78.9302L60.2305 77.6214C59.1267 75.3446 58.5524 72.7886 58.5524 69.9024H55.5524H52.5524C52.5524 73.6119 53.2973 77.0744 54.8317 80.239L57.5311 78.9302ZM55.5524 69.9024H58.5524C58.5524 67.0158 59.1268 64.4783 60.2253 62.2355L57.5311 60.9159L54.8369 59.5963C53.2972 62.7399 52.5524 66.1934 52.5524 69.9024H55.5524ZM57.5311 60.9159L60.2198 62.2467C61.3445 59.9744 62.8846 58.2117 64.8492 56.8945L63.1786 54.4027L61.508 51.9109C58.6358 53.8366 56.4109 56.4161 54.8424 59.5851L57.5311 60.9159ZM63.1786 54.4027L64.8492 56.8945C66.714 55.6443 68.9604 54.9706 71.7117 54.9706V51.9706V48.9706C67.9223 48.9706 64.48 49.9183 61.508 51.9109L63.1786 54.4027ZM71.7117 51.9706V54.9706C73.5683 54.9706 75.0938 55.2642 76.3452 55.7771L77.4829 53.0011L78.6205 50.2252C76.5191 49.364 74.1972 48.9706 71.7117 48.9706V51.9706ZM77.4829 53.0011L76.3845 55.7928C77.8196 56.3575 78.8481 56.9877 79.5635 57.6278L81.5639 55.3921L83.5643 53.1563C82.191 51.9276 80.4988 50.9639 78.5812 50.2095L77.4829 53.0011ZM81.5639 55.3921L79.5968 57.6572C80.0074 58.0137 80.2687 58.2987 80.4259 58.5072C80.5854 58.7187 80.5931 58.7922 80.5756 58.7308L83.4601 57.9066L86.3447 57.0825C85.8866 55.4791 84.7321 54.1701 83.531 53.127L81.5639 55.3921ZM83.4601 57.9066H86.4601V30.0814H83.4601H80.4601V57.9066H83.4601ZM83.4601 30.0814V33.0814H95.9918V30.0814V27.0814H83.4601V30.0814ZM95.9918 30.0814H92.9918V86.8037H95.9918H98.9918V30.0814H95.9918ZM95.9918 86.8037V83.8037H83.5838V86.8037V89.8037H95.9918V86.8037ZM83.5838 86.8037H86.5838V81.3211H83.5838H80.5838V86.8037H83.5838ZM83.5838 81.3211L80.9151 79.9507C80.6214 80.5226 80.0596 81.2471 79.0713 82.0975L81.028 84.3716L82.9847 86.6456C84.3598 85.4624 85.5019 84.1532 86.2525 82.6915L83.5838 81.3211ZM81.028 84.3716L79.1022 82.0713C78.1919 82.8334 77.0882 83.4878 75.7586 84.015L76.8645 86.8037L77.9704 89.5924C79.8288 88.8555 81.5006 87.8885 82.9538 86.6718L81.028 84.3716ZM76.8645 86.8037L75.7175 84.0317C74.5112 84.5308 73.1862 84.7931 71.7117 84.7931V87.7931V90.7931C73.9197 90.7931 76.0299 90.3958 78.0116 89.5758L76.8645 86.8037ZM75.5454 77.9408V80.9408C77.5291 80.9408 79.4062 80.4846 81.0931 79.5038L79.5852 76.9103L78.0773 74.3168C77.4008 74.7101 76.5847 74.9408 75.5454 74.9408V77.9408ZM79.5852 76.9103L81.0672 79.5186C82.7465 78.5645 84.0838 77.2272 85.0379 75.5479L82.4296 74.0659L79.8212 72.5839C79.4012 73.323 78.8423 73.882 78.1032 74.3019L79.5852 76.9103ZM82.4296 74.0659L85.052 75.5228C86.0081 73.8019 86.4601 71.9052 86.4601 69.9024H83.4601H80.4601C80.4601 70.9776 80.2251 71.8565 79.8071 72.609L82.4296 74.0659ZM83.4601 69.9024H86.4601C86.4601 67.9006 86.0083 66.006 85.0379 64.2981L82.4296 65.7802L79.8212 67.2622C80.2249 67.9728 80.4601 68.8263 80.4601 69.9024H83.4601ZM82.4296 65.7802L85.052 64.3232C84.1025 62.6141 82.7636 61.2501 81.0672 60.2862L79.5852 62.8946L78.1032 65.503C78.8252 65.9132 79.3825 66.4728 79.8071 67.2371L82.4296 65.7802ZM79.5852 62.8946L81.1375 60.3274C79.4438 59.3033 77.5507 58.8228 75.5454 58.8228V61.8228V64.8228C76.5631 64.8228 77.3632 65.0568 78.033 65.4618L79.5852 62.8946ZM75.5454 61.8228V58.8228C73.5729 58.8228 71.7118 59.314 70.0358 60.3274L71.588 62.8946L73.1403 65.4618C73.8277 65.0461 74.6048 64.8228 75.5454 64.8228V61.8228ZM71.588 62.8946L70.0536 60.3167C68.4195 61.2894 67.1338 62.649 66.2036 64.3232L68.8261 65.7802L71.4486 67.2371C71.8925 66.438 72.4481 65.8739 73.1225 65.4725L71.588 62.8946ZM68.8261 65.7802L66.1924 64.3436C65.2653 66.0433 64.8368 67.9214 64.8368 69.9024H67.8368H70.8368C70.8368 68.8055 71.0677 67.9355 71.4598 67.2167L68.8261 65.7802ZM67.8368 69.9024H64.8368C64.8368 71.8845 65.2656 73.765 66.179 75.4777L68.8261 74.0659L71.4732 72.6542C71.0675 71.8935 70.8368 70.9983 70.8368 69.9024H67.8368ZM68.8261 74.0659L66.2177 75.5479C67.1522 77.1927 68.4362 78.5255 70.0536 79.4882L71.588 76.9103L73.1225 74.3324C72.4313 73.921 71.8741 73.3576 71.4345 72.5839L68.8261 74.0659ZM71.588 76.9103L70.0802 79.5038C71.7499 80.4746 73.5952 80.9408 75.5454 80.9408V77.9408V74.9408C74.5825 74.9408 73.7895 74.72 73.0959 74.3168L71.588 76.9103ZM129.514 86.8037H126.514V89.8037H129.514V86.8037ZM129.514 81.3211H132.514L126.778 80.09L129.514 81.3211ZM127.617 83.712L125.468 81.6192L125.454 81.6339L125.439 81.6488L127.617 83.712ZM123.66 86.5564L125.002 89.2397L125.019 89.2308L125.037 89.2217L123.66 86.5564ZM109.232 85.4021L107.587 87.9111L107.597 87.9175L107.607 87.9239L109.232 85.4021ZM103.461 78.9302L100.783 80.2826L100.789 80.2936L103.461 78.9302ZM103.461 60.9159L106.133 62.2793L106.139 62.2683L103.461 60.9159ZM109.232 54.4027L110.877 56.9117L110.877 56.9117L109.232 54.4027ZM123.454 53.0011L122.266 55.7561L122.286 55.7648L122.307 55.7732L123.454 53.0011ZM127.329 55.3921L125.269 57.5731L125.285 57.5884L125.302 57.6035L127.329 55.3921ZM129.39 57.9066L126.707 59.2483L132.39 57.9066H129.39ZM129.39 52.9599V49.9599H126.39V52.9599H129.39ZM141.839 52.9599H144.839V49.9599H141.839V52.9599ZM141.839 86.8037V89.8037H144.839V86.8037H141.839ZM114.756 74.0659L112.158 75.5667L112.166 75.5795L112.173 75.5921L114.756 74.0659ZM117.6 76.9103L116.092 79.5038L116.105 79.5113L116.118 79.5186L117.6 76.9103ZM125.597 76.9103L124.063 74.3324L125.597 76.9103ZM128.318 74.0659L125.696 72.609L125.69 72.6192L125.684 72.6294L128.318 74.0659ZM128.318 65.7802L125.671 67.1919L125.69 67.2273L125.71 67.2622L128.318 65.7802ZM125.597 62.8946L124.018 65.4454L124.041 65.4591L124.063 65.4725L125.597 62.8946ZM117.6 62.8946L119.108 65.4881L119.117 65.4828L119.126 65.4774L117.6 62.8946ZM114.756 65.7802L117.339 67.3064L117.346 67.2937L117.353 67.281L114.756 65.7802ZM129.514 86.8037H132.514V81.3211H129.514H126.514V86.8037H129.514ZM129.514 81.3211L126.778 80.09C126.802 80.0366 126.755 80.1493 126.503 80.4669C126.271 80.7599 125.933 81.1415 125.468 81.6192L127.617 83.712L129.767 85.8049C130.778 84.7662 131.762 83.6355 132.249 82.5522L129.514 81.3211ZM127.617 83.712L125.439 81.6488C124.737 82.3898 123.715 83.1511 122.283 83.8911L123.66 86.5564L125.037 89.2217C126.902 88.2578 128.518 87.1229 129.795 85.7752L127.617 83.712ZM123.66 86.5564L122.318 83.8731C121.159 84.4528 119.711 84.7931 117.889 84.7931V87.7931V90.7931C120.464 90.7931 122.863 90.3088 125.002 89.2397L123.66 86.5564ZM117.889 87.7931V84.7931C115.095 84.7931 112.789 84.1254 110.857 82.8804L109.232 85.4021L107.607 87.9239C110.622 89.8668 114.086 90.7931 117.889 90.7931V87.7931ZM109.232 85.4021L110.877 82.8932C108.85 81.5644 107.276 79.8062 106.133 77.5668L103.461 78.9302L100.789 80.2936C102.394 83.4406 104.668 85.997 107.587 87.9111L109.232 85.4021ZM103.461 78.9302L106.139 77.5777C104.993 75.3102 104.4 72.7697 104.4 69.9024H101.4H98.3997C98.3997 73.6307 99.1801 77.1088 100.783 80.2826L103.461 78.9302ZM101.4 69.9024H104.4C104.4 67.0348 104.994 64.5129 106.133 62.2793L103.461 60.9159L100.789 59.5525C99.18 62.7053 98.3997 66.1745 98.3997 69.9024H101.4ZM103.461 60.9159L106.139 62.2683C107.283 60.002 108.857 58.2357 110.877 56.9117L109.232 54.4027L107.587 51.8938C104.66 53.8126 102.387 56.3884 100.783 59.5634L103.461 60.9159ZM109.232 54.4027L110.877 56.9117C112.806 55.6468 115.106 54.9706 117.889 54.9706V51.9706V48.9706C114.076 48.9706 110.605 49.9158 107.587 51.8938L109.232 54.4027ZM117.889 51.9706V54.9706C119.684 54.9706 121.12 55.262 122.266 55.7561L123.454 53.0011L124.641 50.2462C122.6 49.3662 120.326 48.9706 117.889 48.9706V51.9706ZM123.454 53.0011L122.307 55.7732C123.65 56.3288 124.606 56.9468 125.269 57.5731L127.329 55.3921L129.389 53.211C128.073 51.9685 126.446 50.9926 124.601 50.2291L123.454 53.0011ZM127.329 55.3921L125.302 57.6035C126.155 58.386 126.551 58.9371 126.707 59.2483L129.39 57.9066L132.073 56.565C131.459 55.3372 130.481 54.2119 129.356 53.1806L127.329 55.3921ZM129.39 57.9066H132.39V52.9599H129.39H126.39V57.9066H129.39ZM129.39 52.9599V55.9599H141.839V52.9599V49.9599H129.39V52.9599ZM141.839 52.9599H138.839V86.8037H141.839H144.839V52.9599H141.839ZM141.839 86.8037V83.8037H129.514V86.8037V89.8037H141.839V86.8037ZM113.684 69.9024H110.684C110.684 71.9261 111.16 73.8386 112.158 75.5667L114.756 74.0659L117.353 72.5651C116.923 71.8199 116.684 70.9567 116.684 69.9024H113.684ZM114.756 74.0659L112.173 75.5921C113.141 77.2305 114.454 78.5515 116.092 79.5038L117.6 76.9103L119.108 74.3168C118.383 73.895 117.8 73.3197 117.339 72.5397L114.756 74.0659ZM117.6 76.9103L116.118 79.5186C117.801 80.4747 119.648 80.9408 121.599 80.9408V77.9408V74.9408C120.636 74.9408 119.818 74.7199 119.082 74.3019L117.6 76.9103ZM121.599 77.9408V80.9408C123.581 80.9408 125.457 80.4849 127.132 79.4882L125.597 76.9103L124.063 74.3324C123.429 74.7098 122.639 74.9408 121.599 74.9408V77.9408ZM125.597 76.9103L127.132 79.4882C128.76 78.5188 130.042 77.1712 130.952 75.5025L128.318 74.0659L125.684 72.6294C125.275 73.3791 124.743 73.9276 124.063 74.3324L125.597 76.9103ZM128.318 74.0659L130.941 75.5228C131.897 73.8019 132.349 71.9052 132.349 69.9024H129.349H126.349C126.349 70.9776 126.114 71.8565 125.696 72.609L128.318 74.0659ZM129.349 69.9024H132.349C132.349 67.9006 131.897 66.006 130.926 64.2981L128.318 65.7802L125.71 67.2622C126.113 67.9728 126.349 68.8263 126.349 69.9024H129.349ZM128.318 65.7802L130.965 64.3684C130.06 62.6708 128.777 61.2961 127.132 60.3167L125.597 62.8946L124.063 65.4725C124.726 65.8671 125.257 66.4162 125.671 67.1919L128.318 65.7802ZM125.597 62.8946L127.176 60.3438C125.495 59.3031 123.603 58.8228 121.599 58.8228V61.8228V64.8228C122.618 64.8228 123.391 65.057 124.018 65.4454L125.597 62.8946ZM121.599 61.8228V58.8228C119.626 58.8228 117.763 59.3138 116.074 60.3118L117.6 62.8946L119.126 65.4774C119.856 65.0464 120.658 64.8228 121.599 64.8228V61.8228ZM117.6 62.8946L116.092 60.3011C114.438 61.2631 113.122 62.6108 112.158 64.2793L114.756 65.7802L117.353 67.281C117.818 66.4762 118.399 65.9002 119.108 65.4881L117.6 62.8946ZM114.756 65.7802L112.173 64.254C111.16 65.969 110.684 67.8795 110.684 69.9024H113.684H116.684C116.684 68.8474 116.923 68.0098 117.339 67.3064L114.756 65.7802ZM175.844 67.1817L178.624 66.0545L175.829 59.162L173.06 66.0645L175.844 67.1817ZM167.97 86.8037V89.8037H169.999L170.755 87.9209L167.97 86.8037ZM156.469 86.8037L153.622 87.7472L154.303 89.8037H156.469V86.8037ZM145.257 52.9599V49.9599H141.102L142.409 53.9034L145.257 52.9599ZM158.572 52.9599L161.472 52.1939L160.882 49.9599H158.572V52.9599ZM163.972 73.4064L161.071 74.1724L163.409 83.0239L166.763 74.5055L163.972 73.4064ZM171.763 53.6195V50.6195H169.72L168.971 52.5204L171.763 53.6195ZM180.007 53.6195L182.805 52.5355L182.062 50.6195H180.007V53.6195ZM187.675 73.4064L184.877 74.4903L188.205 83.0782L190.574 74.1779L187.675 73.4064ZM193.116 52.9599V49.9599H190.81L190.217 52.1884L193.116 52.9599ZM206.431 52.9599L209.28 53.9003L210.581 49.9599H206.431V52.9599ZM195.26 86.8037V89.8037H197.429L198.109 87.7441L195.26 86.8037ZM183.8 86.8037L181.02 87.931L181.779 89.8037H183.8V86.8037ZM175.844 67.1817L173.06 66.0645L165.186 85.6865L167.97 86.8037L170.755 87.9209L178.628 68.2989L175.844 67.1817ZM167.97 86.8037V83.8037H156.469V86.8037V89.8037H167.97V86.8037ZM156.469 86.8037L159.317 85.8602L148.105 52.0164L145.257 52.9599L142.409 53.9034L153.622 87.7472L156.469 86.8037ZM145.257 52.9599V55.9599H158.572V52.9599V49.9599H145.257V52.9599ZM158.572 52.9599L155.671 53.726L161.071 74.1724L163.972 73.4064L166.872 72.6403L161.472 52.1939L158.572 52.9599ZM163.972 73.4064L166.763 74.5055L174.554 54.7186L171.763 53.6195L168.971 52.5204L161.18 72.3072L163.972 73.4064ZM171.763 53.6195V56.6195H180.007V53.6195V50.6195H171.763V53.6195ZM180.007 53.6195L177.21 54.7035L184.877 74.4903L187.675 73.4064L190.472 72.3224L182.805 52.5355L180.007 53.6195ZM187.675 73.4064L190.574 74.1779L196.015 53.7315L193.116 52.9599L190.217 52.1884L184.776 72.6348L187.675 73.4064ZM193.116 52.9599V55.9599H206.431V52.9599V49.9599H193.116V52.9599ZM206.431 52.9599L203.582 52.0196L192.411 85.8634L195.26 86.8037L198.109 87.7441L209.28 53.9003L206.431 52.9599ZM195.26 86.8037V83.8037H183.8V86.8037V89.8037H195.26V86.8037ZM183.8 86.8037L186.58 85.6765L178.624 66.0545L175.844 67.1817L173.064 68.309L181.02 87.931L183.8 86.8037ZM215.992 85.4021L214.322 87.8939L214.331 87.9005L214.341 87.907L215.992 85.4021ZM210.345 78.9302L207.645 80.239L207.653 80.2555L207.661 80.2718L210.345 78.9302ZM210.345 60.9159L207.656 59.5851L207.65 59.5963L210.345 60.9159ZM215.992 54.4027L217.663 56.8945L217.663 56.8945L215.992 54.4027ZM230.296 53.0011L229.159 55.7771L229.178 55.7851L229.198 55.7928L230.296 53.0011ZM234.377 55.3921L232.377 57.6278L232.394 57.6426L232.41 57.6572L234.377 55.3921ZM236.274 57.9066L233.389 58.7308L239.274 57.9066H236.274ZM236.274 30.0814V27.0814H233.274V30.0814H236.274ZM248.805 30.0814H251.805V27.0814H248.805V30.0814ZM248.805 86.8037V89.8037H251.805V86.8037H248.805ZM236.397 86.8037H233.397V89.8037H236.397V86.8037ZM236.397 81.3211H239.397L233.729 79.9507L236.397 81.3211ZM233.842 84.3716L235.767 86.6718L235.783 86.6588L235.798 86.6456L233.842 84.3716ZM229.678 86.8037L228.572 84.015L228.552 84.0232L228.531 84.0317L229.678 86.8037ZM232.399 76.9103L230.917 74.3019L230.904 74.3093L230.891 74.3168L232.399 76.9103ZM235.243 74.0659L237.852 75.5479L237.859 75.5354L237.866 75.5228L235.243 74.0659ZM235.243 65.7802L232.621 67.2371L232.628 67.2497L232.635 67.2622L235.243 65.7802ZM232.399 62.8946L230.847 65.4618L230.881 65.4828L230.917 65.503L232.399 62.8946ZM224.402 62.8946L225.936 65.4725L225.945 65.4671L225.954 65.4618L224.402 62.8946ZM221.64 65.7802L219.017 64.3232L219.012 64.3334L219.006 64.3436L221.64 65.7802ZM221.64 74.0659L218.993 75.4777L219.012 75.5131L219.031 75.5479L221.64 74.0659ZM224.402 76.9103L222.867 79.4882L222.88 79.496L222.894 79.5038L224.402 76.9103ZM224.525 87.7931V84.7931C221.764 84.7931 219.51 84.1277 217.643 82.8973L215.992 85.4021L214.341 87.907C217.311 89.8645 220.746 90.7931 224.525 90.7931V87.7931ZM215.992 85.4021L217.663 82.9104C215.691 81.5883 214.151 79.8337 213.028 77.5885L210.345 78.9302L207.661 80.2718C209.232 83.4131 211.457 85.9731 214.322 87.8939L215.992 85.4021ZM210.345 78.9302L213.044 77.6214C211.94 75.3446 211.366 72.7886 211.366 69.9024H208.366H205.366C205.366 73.6119 206.111 77.0744 207.645 80.239L210.345 78.9302ZM208.366 69.9024H211.366C211.366 67.0158 211.94 64.4783 213.039 62.2355L210.345 60.9159L207.65 59.5963C206.111 62.7399 205.366 66.1934 205.366 69.9024H208.366ZM210.345 60.9159L213.033 62.2467C214.158 59.9744 215.698 58.2117 217.663 56.8945L215.992 54.4027L214.322 51.9109C211.449 53.8366 209.225 56.4161 207.656 59.5851L210.345 60.9159ZM215.992 54.4027L217.663 56.8945C219.528 55.6443 221.774 54.9706 224.525 54.9706V51.9706V48.9706C220.736 48.9706 217.294 49.9183 214.322 51.9109L215.992 54.4027ZM224.525 51.9706V54.9706C226.382 54.9706 227.907 55.2642 229.159 55.7771L230.296 53.0011L231.434 50.2252C229.333 49.364 227.011 48.9706 224.525 48.9706V51.9706ZM230.296 53.0011L229.198 55.7928C230.633 56.3575 231.662 56.9877 232.377 57.6278L234.377 55.3921L236.378 53.1563C235.005 51.9276 233.312 50.9639 231.395 50.2095L230.296 53.0011ZM234.377 55.3921L232.41 57.6572C232.821 58.0137 233.082 58.2987 233.239 58.5072C233.399 58.7187 233.407 58.7922 233.389 58.7308L236.274 57.9066L239.158 57.0825C238.7 55.4791 237.546 54.1701 236.345 53.127L234.377 55.3921ZM236.274 57.9066H239.274V30.0814H236.274H233.274V57.9066H236.274ZM236.274 30.0814V33.0814H248.805V30.0814V27.0814H236.274V30.0814ZM248.805 30.0814H245.805V86.8037H248.805H251.805V30.0814H248.805ZM248.805 86.8037V83.8037H236.397V86.8037V89.8037H248.805V86.8037ZM236.397 86.8037H239.397V81.3211H236.397H233.397V86.8037H236.397ZM236.397 81.3211L233.729 79.9507C233.435 80.5226 232.873 81.2471 231.885 82.0975L233.842 84.3716L235.798 86.6456C237.173 85.4624 238.315 84.1532 239.066 82.6915L236.397 81.3211ZM233.842 84.3716L231.916 82.0713C231.006 82.8334 229.902 83.4878 228.572 84.015L229.678 86.8037L230.784 89.5924C232.642 88.8555 234.314 87.8885 235.767 86.6718L233.842 84.3716ZM229.678 86.8037L228.531 84.0317C227.325 84.5308 226 84.7931 224.525 84.7931V87.7931V90.7931C226.733 90.7931 228.844 90.3958 230.825 89.5758L229.678 86.8037ZM228.359 77.9408V80.9408C230.343 80.9408 232.22 80.4846 233.907 79.5038L232.399 76.9103L230.891 74.3168C230.214 74.7101 229.398 74.9408 228.359 74.9408V77.9408ZM232.399 76.9103L233.881 79.5186C235.56 78.5645 236.897 77.2272 237.852 75.5479L235.243 74.0659L232.635 72.5839C232.215 73.323 231.656 73.882 230.917 74.3019L232.399 76.9103ZM235.243 74.0659L237.866 75.5228C238.822 73.8019 239.274 71.9052 239.274 69.9024H236.274H233.274C233.274 70.9776 233.039 71.8565 232.621 72.609L235.243 74.0659ZM236.274 69.9024H239.274C239.274 67.9006 238.822 66.006 237.852 64.2981L235.243 65.7802L232.635 67.2622C233.039 67.9728 233.274 68.8263 233.274 69.9024H236.274ZM235.243 65.7802L237.866 64.3232C236.916 62.6141 235.577 61.2501 233.881 60.2862L232.399 62.8946L230.917 65.503C231.639 65.9132 232.196 66.4728 232.621 67.2371L235.243 65.7802ZM232.399 62.8946L233.951 60.3274C232.257 59.3033 230.364 58.8228 228.359 58.8228V61.8228V64.8228C229.377 64.8228 230.177 65.0568 230.847 65.4618L232.399 62.8946ZM228.359 61.8228V58.8228C226.386 58.8228 224.525 59.314 222.849 60.3274L224.402 62.8946L225.954 65.4618C226.641 65.0461 227.418 64.8228 228.359 64.8228V61.8228ZM224.402 62.8946L222.867 60.3167C221.233 61.2894 219.947 62.649 219.017 64.3232L221.64 65.7802L224.262 67.2371C224.706 66.438 225.262 65.8739 225.936 65.4725L224.402 62.8946ZM221.64 65.7802L219.006 64.3436C218.079 66.0433 217.65 67.9214 217.65 69.9024H220.65H223.65C223.65 68.8055 223.881 67.9355 224.273 67.2167L221.64 65.7802ZM220.65 69.9024H217.65C217.65 71.8845 218.079 73.765 218.993 75.4777L221.64 74.0659L224.287 72.6542C223.881 71.8935 223.65 70.9983 223.65 69.9024H220.65ZM221.64 74.0659L219.031 75.5479C219.966 77.1927 221.25 78.5255 222.867 79.4882L224.402 76.9103L225.936 74.3324C225.245 73.921 224.688 73.3576 224.248 72.5839L221.64 74.0659ZM224.402 76.9103L222.894 79.5038C224.564 80.4746 226.409 80.9408 228.359 80.9408V77.9408V74.9408C227.396 74.9408 226.603 74.72 225.909 74.3168L224.402 76.9103ZM268.6 86.8037V89.8037H271.6V86.8037H268.6ZM256.027 86.8037H253.027V89.8037H256.027V86.8037ZM256.027 30.0814V27.0814H253.027V30.0814H256.027ZM268.6 30.0814H271.6V27.0814H268.6V30.0814ZM268.6 86.8037V83.8037H256.027V86.8037V89.8037H268.6V86.8037ZM256.027 86.8037H259.027V30.0814H256.027H253.027V86.8037H256.027ZM256.027 30.0814V33.0814H268.6V30.0814V27.0814H256.027V30.0814ZM268.6 30.0814H265.6V86.8037H268.6H271.6V30.0814H268.6ZM286.656 72.5407V69.5407H283.444L283.662 72.7448L286.656 72.5407ZM287.81 75.756L285.393 77.5332L285.393 77.5332L287.81 75.756ZM290.654 77.9821L289.413 80.7132L289.45 80.73L289.487 80.7458L290.654 77.9821ZM299.311 78.2706L298.569 75.3639L298.561 75.3658L298.554 75.3678L299.311 78.2706ZM302.65 77.0339L301.278 74.3661L301.262 74.3742L301.246 74.3826L302.65 77.0339ZM304.876 75.5087L307.417 73.9139L305.416 70.726L302.755 73.3874L304.876 75.5087ZM309.74 83.2586L311.941 85.2968L313.503 83.6104L312.281 81.6637L309.74 83.2586ZM306.813 85.4434L308.27 88.0658L308.28 88.0605L308.29 88.0551L306.813 85.4434ZM301.908 87.1335L302.542 90.0657L301.908 87.1335ZM277.339 79.5073L274.785 81.081L274.785 81.081L277.339 79.5073ZM276.968 60.6273L274.336 59.1889L274.33 59.1985L276.968 60.6273ZM283.275 54.3203L284.741 56.9378L284.751 56.9322L284.761 56.9266L283.275 54.3203ZM302.774 53.9905L301.432 56.6738L301.443 56.6792L302.774 53.9905ZM309.039 60.009L306.407 61.4475L306.416 61.4637L306.425 61.4798L309.039 60.009ZM311.224 71.2216L308.227 71.0967L308.224 71.1591V71.2216H311.224ZM311.142 72.5407V75.5407H313.484L314.052 73.2683L311.142 72.5407ZM299.476 65.9863V68.9863H302.571L302.474 65.8926L299.476 65.9863ZM298.775 63.3893L296.092 64.7309L296.1 64.7481L296.109 64.7652L298.775 63.3893ZM296.796 61.2457L295.15 63.7538L295.178 63.7721L295.206 63.7897L296.796 61.2457ZM289.912 61.2045L291.376 63.8233L291.388 63.8163L291.401 63.8092L289.912 61.2045ZM286.944 65.9863L283.949 65.8151L283.768 68.9863H286.944V65.9863ZM286.656 72.5407L283.662 72.7448C283.782 74.4955 284.353 76.1186 285.393 77.5332L287.81 75.756L290.227 73.9789C289.893 73.5248 289.694 73.0043 289.649 72.3366L286.656 72.5407ZM287.81 75.756L285.393 77.5332C286.425 78.9376 287.805 79.9825 289.413 80.7132L290.654 77.9821L291.896 75.251C291.085 74.8824 290.568 74.4432 290.227 73.9789L287.81 75.756ZM290.654 77.9821L289.487 80.7458C291.173 81.4575 293.043 81.7653 295.024 81.7653V78.7653V75.7653C293.652 75.7653 292.609 75.551 291.821 75.2183L290.654 77.9821ZM295.024 78.7653V81.7653C296.819 81.7653 298.51 81.5801 300.068 81.1735L299.311 78.2706L298.554 75.3678C297.584 75.6208 296.416 75.7653 295.024 75.7653V78.7653ZM299.311 78.2706L300.053 81.1774C301.518 80.8034 302.863 80.3154 304.054 79.6853L302.65 77.0339L301.246 74.3826C300.568 74.7419 299.687 75.0783 298.569 75.3639L299.311 78.2706ZM302.65 77.0339L304.022 79.7018C305.144 79.1246 306.179 78.4486 306.997 77.63L304.876 75.5087L302.755 73.3874C302.529 73.6132 302.079 73.9539 301.278 74.3661L302.65 77.0339ZM304.876 75.5087L302.335 77.1036L307.199 84.8534L309.74 83.2586L312.281 81.6637L307.417 73.9139L304.876 75.5087ZM309.74 83.2586L307.539 81.2203C307.132 81.6594 306.439 82.2091 305.337 82.8317L306.813 85.4434L308.29 88.0551C309.716 87.2485 310.974 86.3417 311.941 85.2968L309.74 83.2586ZM306.813 85.4434L305.356 82.8209C304.468 83.3147 303.142 83.7974 301.274 84.2012L301.908 87.1335L302.542 90.0657C304.741 89.5902 306.686 88.9461 308.27 88.0658L306.813 85.4434ZM301.908 87.1335L301.274 84.2012C299.523 84.5797 297.185 84.7931 294.199 84.7931V87.7931V90.7931C297.425 90.7931 300.225 90.5667 302.542 90.0657L301.908 87.1335ZM294.199 87.7931V84.7931C290.842 84.7931 287.972 84.1653 285.524 82.9873L284.223 85.6907L282.923 88.3941C286.3 90.0192 290.082 90.7931 294.199 90.7931V87.7931ZM284.223 85.6907L285.524 82.9873C283.122 81.8316 281.265 80.1596 279.893 77.9336L277.339 79.5073L274.785 81.081C276.766 84.2964 279.499 86.7467 282.923 88.3941L284.223 85.6907ZM277.339 79.5073L279.893 77.9336C278.569 75.784 277.825 73.0331 277.825 69.5314H274.825H271.825C271.825 73.8895 272.757 77.7892 274.785 81.081L277.339 79.5073ZM274.825 69.5314H277.825C277.825 66.6821 278.438 64.2133 279.606 62.0562L276.968 60.6273L274.33 59.1985C272.641 62.3179 271.825 65.7852 271.825 69.5314H274.825ZM276.968 60.6273L279.601 62.0658C280.777 59.9138 282.466 58.2119 284.741 56.9378L283.275 54.3203L281.809 51.7028C278.588 53.5066 276.073 56.0094 274.336 59.1889L276.968 60.6273ZM283.275 54.3203L284.761 56.9266C286.965 55.6703 289.74 54.9706 293.21 54.9706V51.9706V48.9706C288.93 48.9706 285.082 49.8374 281.79 51.7139L283.275 54.3203ZM293.21 51.9706V54.9706C296.529 54.9706 299.238 55.5768 301.432 56.6738L302.774 53.9905L304.115 51.3072C300.923 49.711 297.256 48.9706 293.21 48.9706V51.9706ZM302.774 53.9905L301.443 56.6792C303.611 57.7524 305.245 59.3219 306.407 61.4475L309.039 60.009L311.672 58.5705C309.92 55.3647 307.377 52.9218 304.104 51.3018L302.774 53.9905ZM309.039 60.009L306.425 61.4798C307.59 63.5517 308.265 66.3065 308.265 69.9024H311.265H314.265C314.265 65.5836 313.457 61.7428 311.654 58.5382L309.039 60.009ZM311.265 69.9024H308.265C308.265 70.0494 308.255 70.4266 308.227 71.0967L311.224 71.2216L314.222 71.3464C314.249 70.6973 314.265 70.1952 314.265 69.9024H311.265ZM311.224 71.2216H308.224C308.224 71.5163 308.218 71.7237 308.209 71.8589C308.205 71.9255 308.202 71.9575 308.201 71.9625C308.199 71.9749 308.206 71.9154 308.231 71.8131L311.142 72.5407L314.052 73.2683C314.211 72.633 314.224 71.8254 314.224 71.2216H311.224ZM311.142 72.5407V69.5407H286.656V72.5407V75.5407H311.142V72.5407ZM299.476 65.9863L302.474 65.8926C302.432 64.5274 302.067 63.2264 301.441 62.0133L298.775 63.3893L296.109 64.7652C296.362 65.256 296.465 65.6864 296.477 66.08L299.476 65.9863ZM298.775 63.3893L301.458 62.0476C300.758 60.647 299.707 59.5272 298.386 58.7017L296.796 61.2457L295.206 63.7897C295.644 64.0635 295.913 64.3727 296.092 64.7309L298.775 63.3893ZM296.796 61.2457L298.442 58.7375C296.945 57.7547 295.198 57.38 293.416 57.38V60.38V63.38C294.382 63.38 294.889 63.5824 295.15 63.7538L296.796 61.2457ZM293.416 60.38V57.38C291.644 57.38 289.936 57.7357 288.424 58.5997L289.912 61.2045L291.401 63.8092C291.812 63.5739 292.44 63.38 293.416 63.38V60.38ZM289.912 61.2045L288.449 58.5856C287.086 59.3469 285.962 60.4018 285.174 61.7592L287.769 63.2656L290.363 64.772C290.564 64.4255 290.869 64.1063 291.376 63.8233L289.912 61.2045ZM287.769 63.2656L285.174 61.7592C284.448 63.009 284.031 64.372 283.949 65.8151L286.944 65.9863L289.939 66.1574C289.967 65.6768 290.099 65.226 290.363 64.772L287.769 63.2656ZM286.944 65.9863V68.9863H299.476V65.9863V62.9863H286.944V65.9863Z" fill="#AF3D10" mask="url(#path-16-outside-4_2371_1252)"/>
<mask id="path-18-outside-5_2371_1252" maskUnits="userSpaceOnUse" x="138" y="29" width="72" height="22" fill="black">
<rect fill="white" x="138" y="29" width="72" height="22"/>
<path d="M149.304 47.9893C147.27 47.9893 145.511 47.2611 144.027 45.8045C142.571 44.3205 141.843 42.5617 141.843 40.528C141.843 38.4394 142.571 36.6669 144.027 35.2103C145.511 33.7263 147.27 32.9843 149.304 32.9843C151.392 32.9843 153.165 33.7263 154.622 35.2103C156.078 36.6669 156.806 38.4394 156.806 40.528C156.806 42.5617 156.078 44.3205 154.622 45.8045C153.165 47.2611 151.392 47.9893 149.304 47.9893ZM174.343 47.9893C172.31 47.9893 170.551 47.2611 169.067 45.8045C167.61 44.3205 166.882 42.5617 166.882 40.528C166.882 38.4394 167.61 36.6669 169.067 35.2103C170.551 33.7263 172.31 32.9843 174.343 32.9843C176.432 32.9843 178.205 33.7263 179.661 35.2103C181.118 36.6669 181.846 38.4394 181.846 40.528C181.846 42.5617 181.118 44.3205 179.661 45.8045C178.205 47.2611 176.432 47.9893 174.343 47.9893ZM199.383 47.9893C197.349 47.9893 195.59 47.2611 194.106 45.8045C192.65 44.3205 191.922 42.5617 191.922 40.528C191.922 38.4394 192.65 36.6669 194.106 35.2103C195.59 33.7263 197.349 32.9843 199.383 32.9843C201.471 32.9843 203.244 33.7263 204.701 35.2103C206.157 36.6669 206.885 38.4394 206.885 40.528C206.885 42.5617 206.157 44.3205 204.701 45.8045C203.244 47.2611 201.471 47.9893 199.383 47.9893Z"/>
</mask>
<path d="M149.304 47.9893C147.27 47.9893 145.511 47.2611 144.027 45.8045C142.571 44.3205 141.843 42.5617 141.843 40.528C141.843 38.4394 142.571 36.6669 144.027 35.2103C145.511 33.7263 147.27 32.9843 149.304 32.9843C151.392 32.9843 153.165 33.7263 154.622 35.2103C156.078 36.6669 156.806 38.4394 156.806 40.528C156.806 42.5617 156.078 44.3205 154.622 45.8045C153.165 47.2611 151.392 47.9893 149.304 47.9893ZM174.343 47.9893C172.31 47.9893 170.551 47.2611 169.067 45.8045C167.61 44.3205 166.882 42.5617 166.882 40.528C166.882 38.4394 167.61 36.6669 169.067 35.2103C170.551 33.7263 172.31 32.9843 174.343 32.9843C176.432 32.9843 178.205 33.7263 179.661 35.2103C181.118 36.6669 181.846 38.4394 181.846 40.528C181.846 42.5617 181.118 44.3205 179.661 45.8045C178.205 47.2611 176.432 47.9893 174.343 47.9893ZM199.383 47.9893C197.349 47.9893 195.59 47.2611 194.106 45.8045C192.65 44.3205 191.922 42.5617 191.922 40.528C191.922 38.4394 192.65 36.6669 194.106 35.2103C195.59 33.7263 197.349 32.9843 199.383 32.9843C201.471 32.9843 203.244 33.7263 204.701 35.2103C206.157 36.6669 206.885 38.4394 206.885 40.528C206.885 42.5617 206.157 44.3205 204.701 45.8045C203.244 47.2611 201.471 47.9893 199.383 47.9893Z" fill="#544E87"/>
<path d="M144.027 45.8045L141.886 47.9059L141.906 47.926L141.926 47.9456L144.027 45.8045ZM144.027 35.2103L141.906 33.089L141.906 33.089L144.027 35.2103ZM154.622 35.2103L152.48 37.3117L152.49 37.3217L152.5 37.3316L154.622 35.2103ZM154.622 45.8045L156.743 47.9259L156.753 47.916L156.763 47.9059L154.622 45.8045ZM149.304 47.9893V44.9893C148.076 44.9893 147.066 44.5833 146.129 43.6635L144.027 45.8045L141.926 47.9456C143.957 49.9388 146.465 50.9893 149.304 50.9893V47.9893ZM144.027 45.8045L146.168 43.7031C145.249 42.7659 144.843 41.7562 144.843 40.528H141.843H138.843C138.843 43.3672 139.893 45.8751 141.886 47.9059L144.027 45.8045ZM141.843 40.528H144.843C144.843 39.2226 145.263 38.2168 146.149 37.3316L144.027 35.2103L141.906 33.089C139.878 35.1169 138.843 37.6563 138.843 40.528H141.843ZM144.027 35.2103L146.149 37.3316C147.09 36.3901 148.094 35.9843 149.304 35.9843V32.9843V29.9843C146.447 29.9843 143.933 31.0625 141.906 33.089L144.027 35.2103ZM149.304 32.9843V35.9843C150.591 35.9843 151.591 36.4054 152.48 37.3117L154.622 35.2103L156.763 33.1089C154.739 31.0473 152.194 29.9843 149.304 29.9843V32.9843ZM154.622 35.2103L152.5 37.3316C153.385 38.2168 153.806 39.2226 153.806 40.528H156.806H159.806C159.806 37.6563 158.771 35.1169 156.743 33.089L154.622 35.2103ZM156.806 40.528H153.806C153.806 41.7562 153.4 42.7659 152.48 43.7031L154.622 45.8045L156.763 47.9059C158.756 45.8751 159.806 43.3672 159.806 40.528H156.806ZM154.622 45.8045L152.5 43.6832C151.615 44.5684 150.609 44.9893 149.304 44.9893V47.9893V50.9893C152.176 50.9893 154.715 49.9538 156.743 47.9259L154.622 45.8045ZM169.067 45.8045L166.926 47.9059L166.945 47.926L166.965 47.9456L169.067 45.8045ZM169.067 35.2103L166.946 33.089L166.946 33.089L169.067 35.2103ZM179.661 35.2103L177.52 37.3117L177.53 37.3217L177.54 37.3316L179.661 35.2103ZM179.661 45.8045L181.782 47.9259L181.792 47.916L181.802 47.9059L179.661 45.8045ZM174.343 47.9893V44.9893C173.115 44.9893 172.105 44.5833 171.168 43.6635L169.067 45.8045L166.965 47.9456C168.996 49.9388 171.504 50.9893 174.343 50.9893V47.9893ZM169.067 45.8045L171.208 43.7031C170.288 42.7659 169.882 41.7562 169.882 40.528H166.882H163.882C163.882 43.3672 164.933 45.8751 166.926 47.9059L169.067 45.8045ZM166.882 40.528H169.882C169.882 39.2226 170.303 38.2168 171.188 37.3316L169.067 35.2103L166.946 33.089C164.918 35.1169 163.882 37.6563 163.882 40.528H166.882ZM169.067 35.2103L171.188 37.3316C172.13 36.3901 173.133 35.9843 174.343 35.9843V32.9843V29.9843C171.486 29.9843 168.972 31.0625 166.946 33.089L169.067 35.2103ZM174.343 32.9843V35.9843C175.631 35.9843 176.63 36.4054 177.52 37.3117L179.661 35.2103L181.802 33.1089C179.779 31.0473 177.233 29.9843 174.343 29.9843V32.9843ZM179.661 35.2103L177.54 37.3316C178.425 38.2168 178.846 39.2226 178.846 40.528H181.846H184.846C184.846 37.6563 183.81 35.1169 181.782 33.089L179.661 35.2103ZM181.846 40.528H178.846C178.846 41.7562 178.44 42.7659 177.52 43.7031L179.661 45.8045L181.802 47.9059C183.795 45.8751 184.846 43.3672 184.846 40.528H181.846ZM179.661 45.8045L177.54 43.6832C176.655 44.5684 175.649 44.9893 174.343 44.9893V47.9893V50.9893C177.215 50.9893 179.754 49.9538 181.782 47.9259L179.661 45.8045ZM194.106 45.8045L191.965 47.9059L191.985 47.926L192.005 47.9456L194.106 45.8045ZM194.106 35.2103L191.985 33.089L191.985 33.089L194.106 35.2103ZM204.701 35.2103L202.56 37.3117L202.569 37.3217L202.579 37.3316L204.701 35.2103ZM204.701 45.8045L206.822 47.9259L206.832 47.916L206.842 47.9059L204.701 45.8045ZM199.383 47.9893V44.9893C198.155 44.9893 197.145 44.5833 196.208 43.6635L194.106 45.8045L192.005 47.9456C194.036 49.9388 196.544 50.9893 199.383 50.9893V47.9893ZM194.106 45.8045L196.247 43.7031C195.328 42.7659 194.922 41.7562 194.922 40.528H191.922H188.922C188.922 43.3672 189.972 45.8751 191.965 47.9059L194.106 45.8045ZM191.922 40.528H194.922C194.922 39.2226 195.343 38.2168 196.228 37.3316L194.106 35.2103L191.985 33.089C189.957 35.1169 188.922 37.6563 188.922 40.528H191.922ZM194.106 35.2103L196.228 37.3316C197.169 36.3901 198.173 35.9843 199.383 35.9843V32.9843V29.9843C196.526 29.9843 194.012 31.0625 191.985 33.089L194.106 35.2103ZM199.383 32.9843V35.9843C200.67 35.9843 201.67 36.4054 202.56 37.3117L204.701 35.2103L206.842 33.1089C204.818 31.0473 202.273 29.9843 199.383 29.9843V32.9843ZM204.701 35.2103L202.579 37.3316C203.464 38.2168 203.885 39.2226 203.885 40.528H206.885H209.885C209.885 37.6563 208.85 35.1169 206.822 33.089L204.701 35.2103ZM206.885 40.528H203.885C203.885 41.7562 203.479 42.7659 202.56 43.7031L204.701 45.8045L206.842 47.9059C208.835 45.8751 209.885 43.3672 209.885 40.528H206.885ZM204.701 45.8045L202.579 43.6832C201.694 44.5684 200.688 44.9893 199.383 44.9893V47.9893V50.9893C202.255 50.9893 204.794 49.9538 206.822 47.9259L204.701 45.8045Z" fill="#AF3D10" mask="url(#path-18-outside-5_2371_1252)"/>
</g>
<defs>
<filter id="filter0_f_2371_1252" x="255" y="-131" width="499" height="476" filterUnits="userSpaceOnUse" color-interpolation-filters="sRGB">
<feFlood flood-opacity="0" result="BackgroundImageFix"/>
<feBlend mode="normal" in="SourceGraphic" in2="BackgroundImageFix" result="shape"/>
<feGaussianBlur stdDeviation="50" result="effect1_foregroundBlur_2371_1252"/>
</filter>
<linearGradient id="paint0_linear_2371_1252" x1="41.0176" y1="67.1766" x2="327" y2="67.1766" gradientUnits="userSpaceOnUse">
<stop stop-color="#FF7E1E"/>
<stop offset="0.5" stop-color="#932558"/>
<stop offset="1" stop-color="#5F5B87"/>
</linearGradient>
<linearGradient id="paint1_linear_2371_1252" x1="32" y1="27.3728" x2="317.982" y2="27.3728" gradientUnits="userSpaceOnUse">
<stop stop-color="#FF7E1E"/>
<stop offset="0.5" stop-color="#932558"/>
<stop offset="1" stop-color="#5F5B87"/>
</linearGradient>
<clipPath id="clip0_2371_1252">
<rect width="1085" height="137" fill="white"/>
</clipPath>
<clipPath id="clip1_2371_1252">
<rect width="730" height="122" fill="white" transform="translate(158)"/>
</clipPath>
</defs>
</svg>
