<svg width="1085" height="137" viewBox="0 0 1085 137" fill="none" xmlns="http://www.w3.org/2000/svg">
<g clip-path="url(#clip0_2327_1540)">
<mask id="path-1-outside-1_2327_1540" maskUnits="userSpaceOnUse" x="0" y="0" width="1085" height="137" fill="black">
<rect fill="white" width="1085" height="137"/>
<path d="M0 61C0 27.3106 27.3106 0 61 0H1024C1057.69 0 1085 27.3106 1085 61C1085 94.6894 1057.69 122 1024 122H61C27.3106 122 0 94.6894 0 61Z"/>
</mask>
<path d="M0 61C0 27.3106 27.3106 0 61 0H1024C1057.69 0 1085 27.3106 1085 61C1085 94.6894 1057.69 122 1024 122H61C27.3106 122 0 94.6894 0 61Z" fill="#F6EDEA"/>
<path d="M0 0H1085H0ZM1085 61C1085 102.974 1050.97 137 1009 137H76C34.0264 137 0 102.974 0 61C0 86.4051 27.3106 107 61 107H1024C1057.69 107 1085 86.4051 1085 61ZM0 122V0V122ZM1085 0V122V0Z" fill="#FF6123" mask="url(#path-1-outside-1_2327_1540)"/>
<rect x="704" y="31" width="59" height="59" fill="#FF9977"/>
<rect x="790" y="31" width="59" height="59" fill="#544E87"/>
<rect x="876" y="31" width="59" height="59" fill="#BCB6FF"/>
<rect x="962" y="31" width="59" height="59" fill="#FF6123"/>
<g clip-path="url(#clip1_2327_1540)">
<g filter="url(#filter0_f_2327_1540)">
<ellipse cx="504.5" cy="107" rx="149.5" ry="138" fill="#FF6123" fill-opacity="0.68"/>
</g>
<rect x="403" y="7" width="200" height="200" rx="100" fill="black" fill-opacity="0.01"/>
<circle cx="470.5" cy="50.5" r="7.5" fill="#F6EDEA"/>
<circle cx="535.5" cy="50.5" r="7.5" fill="#F6EDEA"/>
<path d="M494 63C499.027 71.2256 510.973 71.2256 516 63" stroke="#F6EDEA" stroke-width="4" stroke-linecap="round"/>
</g>
<path d="M71.7117 87.7931C68.4414 87.7931 65.597 86.9961 63.1786 85.4021C60.7602 83.7807 58.8777 81.6234 57.5311 78.9302C56.212 76.2095 55.5524 73.2002 55.5524 69.9024C55.5524 66.6046 56.212 63.6091 57.5311 60.9159C58.8777 58.1952 60.7602 56.0241 63.1786 54.4027C65.597 52.7813 68.4414 51.9706 71.7117 51.9706C73.8827 51.9706 75.8065 52.3141 77.4829 53.0011C79.1592 53.6607 80.5196 54.4577 81.5639 55.3921C82.6082 56.299 83.2403 57.1372 83.4601 57.9066V30.0814H95.9918V86.8037H83.5838V81.3211C83.0617 82.3379 82.2097 83.3548 81.028 84.3716C79.8463 85.3609 78.4585 86.1716 76.8645 86.8037C75.2706 87.4633 73.553 87.7931 71.7117 87.7931ZM75.5454 77.9408C77.0569 77.9408 78.4035 77.5973 79.5852 76.9103C80.7944 76.2232 81.7425 75.2751 82.4296 74.0659C83.1166 72.8292 83.4601 71.4414 83.4601 69.9024C83.4601 68.3635 83.1166 66.9894 82.4296 65.7802C81.7425 64.5435 80.7944 63.5816 79.5852 62.8946C78.4035 62.1801 77.0569 61.8228 75.5454 61.8228C74.0889 61.8228 72.7697 62.1801 71.588 62.8946C70.4338 63.5816 69.5131 64.5435 68.8261 65.7802C68.1665 66.9894 67.8368 68.3635 67.8368 69.9024C67.8368 71.4414 68.1665 72.8292 68.8261 74.0659C69.5131 75.2751 70.4338 76.2232 71.588 76.9103C72.7697 77.5973 74.0889 77.9408 75.5454 77.9408ZM129.514 86.8037V81.3211C129.266 81.8707 128.634 82.6677 127.617 83.712C126.628 84.7563 125.309 85.7044 123.66 86.5564C122.011 87.3808 120.087 87.7931 117.889 87.7931C114.591 87.7931 111.705 86.9961 109.232 85.4021C106.759 83.7807 104.835 81.6234 103.461 78.9302C102.087 76.2095 101.4 73.2002 101.4 69.9024C101.4 66.6046 102.087 63.6091 103.461 60.9159C104.835 58.1952 106.759 56.0241 109.232 54.4027C111.705 52.7813 114.591 51.9706 117.889 51.9706C120.005 51.9706 121.86 52.3141 123.454 53.0011C125.048 53.6607 126.339 54.4577 127.329 55.3921C128.318 56.299 129.005 57.1372 129.39 57.9066V52.9599H141.839V86.8037H129.514ZM113.684 69.9024C113.684 71.4414 114.041 72.8292 114.756 74.0659C115.47 75.2751 116.418 76.2232 117.6 76.9103C118.809 77.5973 120.142 77.9408 121.599 77.9408C123.11 77.9408 124.443 77.5973 125.597 76.9103C126.752 76.2232 127.659 75.2751 128.318 74.0659C129.005 72.8292 129.349 71.4414 129.349 69.9024C129.349 68.3635 129.005 66.9894 128.318 65.7802C127.659 64.5435 126.752 63.5816 125.597 62.8946C124.443 62.1801 123.11 61.8228 121.599 61.8228C120.142 61.8228 118.809 62.1801 117.6 62.8946C116.418 63.5816 115.47 64.5435 114.756 65.7802C114.041 66.9894 113.684 68.3635 113.684 69.9024ZM175.844 67.1817L167.97 86.8037H156.469L145.257 52.9599H158.572L163.972 73.4064L171.763 53.6195H180.007L187.675 73.4064L193.116 52.9599H206.431L195.26 86.8037H183.8L175.844 67.1817ZM224.525 87.7931C221.255 87.7931 218.411 86.9961 215.992 85.4021C213.574 83.7807 211.691 81.6234 210.345 78.9302C209.026 76.2095 208.366 73.2002 208.366 69.9024C208.366 66.6046 209.026 63.6091 210.345 60.9159C211.691 58.1952 213.574 56.0241 215.992 54.4027C218.411 52.7813 221.255 51.9706 224.525 51.9706C226.696 51.9706 228.62 52.3141 230.296 53.0011C231.973 53.6607 233.333 54.4577 234.377 55.3921C235.422 56.299 236.054 57.1372 236.274 57.9066V30.0814H248.805V86.8037H236.397V81.3211C235.875 82.3379 235.023 83.3548 233.842 84.3716C232.66 85.3609 231.272 86.1716 229.678 86.8037C228.084 87.4633 226.367 87.7931 224.525 87.7931ZM228.359 77.9408C229.87 77.9408 231.217 77.5973 232.399 76.9103C233.608 76.2232 234.556 75.2751 235.243 74.0659C235.93 72.8292 236.274 71.4414 236.274 69.9024C236.274 68.3635 235.93 66.9894 235.243 65.7802C234.556 64.5435 233.608 63.5816 232.399 62.8946C231.217 62.1801 229.87 61.8228 228.359 61.8228C226.902 61.8228 225.583 62.1801 224.402 62.8946C223.247 63.5816 222.327 64.5435 221.64 65.7802C220.98 66.9894 220.65 68.3635 220.65 69.9024C220.65 71.4414 220.98 72.8292 221.64 74.0659C222.327 75.2751 223.247 76.2232 224.402 76.9103C225.583 77.5973 226.902 77.9408 228.359 77.9408ZM268.6 86.8037H256.027V30.0814H268.6V86.8037ZM286.656 72.5407C286.738 73.7499 287.123 74.8217 287.81 75.756C288.497 76.6904 289.445 77.4324 290.654 77.9821C291.891 78.5042 293.347 78.7653 295.024 78.7653C296.618 78.7653 298.047 78.6004 299.311 78.2706C300.603 77.9408 301.716 77.5286 302.65 77.0339C303.612 76.5393 304.354 76.0309 304.876 75.5087L309.74 83.2586C309.053 84.0006 308.078 84.7288 306.813 85.4434C305.577 86.1304 303.942 86.6938 301.908 87.1335C299.874 87.5732 297.305 87.7931 294.199 87.7931C290.462 87.7931 287.136 87.0923 284.223 85.6907C281.31 84.2891 279.016 82.228 277.339 79.5073C275.663 76.7866 274.825 73.4613 274.825 69.5314C274.825 66.2336 275.539 63.2656 276.968 60.6273C278.425 57.9616 280.527 55.8593 283.275 54.3203C286.023 52.7538 289.335 51.9706 293.21 51.9706C296.892 51.9706 300.08 52.6439 302.774 53.9905C305.494 55.3371 307.583 57.3433 309.039 60.009C310.523 62.6472 311.265 65.9451 311.265 69.9024C311.265 70.1223 311.252 70.562 311.224 71.2216C311.224 71.8811 311.197 72.3208 311.142 72.5407H286.656ZM299.476 65.9863C299.448 65.1069 299.215 64.2412 298.775 63.3893C298.335 62.5098 297.676 61.7953 296.796 61.2457C295.917 60.6686 294.79 60.38 293.416 60.38C292.042 60.38 290.874 60.6548 289.912 61.2045C288.978 61.7266 288.263 62.4137 287.769 63.2656C287.274 64.1175 286.999 65.0244 286.944 65.9863H299.476Z" fill="url(#paint0_linear_2327_1540)"/>
<path d="M149.304 47.9893C147.27 47.9893 145.511 47.2611 144.027 45.8045C142.571 44.3205 141.843 42.5617 141.843 40.528C141.843 38.4394 142.571 36.6669 144.027 35.2103C145.511 33.7263 147.27 32.9843 149.304 32.9843C151.392 32.9843 153.165 33.7263 154.622 35.2103C156.078 36.6669 156.806 38.4394 156.806 40.528C156.806 42.5617 156.078 44.3205 154.622 45.8045C153.165 47.2611 151.392 47.9893 149.304 47.9893ZM174.343 47.9893C172.31 47.9893 170.551 47.2611 169.067 45.8045C167.61 44.3205 166.882 42.5617 166.882 40.528C166.882 38.4394 167.61 36.6669 169.067 35.2103C170.551 33.7263 172.31 32.9843 174.343 32.9843C176.432 32.9843 178.205 33.7263 179.661 35.2103C181.118 36.6669 181.846 38.4394 181.846 40.528C181.846 42.5617 181.118 44.3205 179.661 45.8045C178.205 47.2611 176.432 47.9893 174.343 47.9893ZM199.383 47.9893C197.349 47.9893 195.59 47.2611 194.106 45.8045C192.65 44.3205 191.922 42.5617 191.922 40.528C191.922 38.4394 192.65 36.6669 194.106 35.2103C195.59 33.7263 197.349 32.9843 199.383 32.9843C201.471 32.9843 203.244 33.7263 204.701 35.2103C206.157 36.6669 206.885 38.4394 206.885 40.528C206.885 42.5617 206.157 44.3205 204.701 45.8045C203.244 47.2611 201.471 47.9893 199.383 47.9893Z" fill="url(#paint1_linear_2327_1540)"/>
<path d="M71.7117 87.7931C68.4414 87.7931 65.597 86.9961 63.1786 85.4021C60.7602 83.7807 58.8777 81.6234 57.5311 78.9302C56.212 76.2095 55.5524 73.2002 55.5524 69.9024C55.5524 66.6046 56.212 63.6091 57.5311 60.9159C58.8777 58.1952 60.7602 56.0241 63.1786 54.4027C65.597 52.7813 68.4414 51.9706 71.7117 51.9706C73.8827 51.9706 75.8065 52.3141 77.4829 53.0011C79.1592 53.6607 80.5196 54.4577 81.5639 55.3921C82.6082 56.299 83.2403 57.1372 83.4601 57.9066V30.0814H95.9918V86.8037H83.5838V81.3211C83.0617 82.3379 82.2097 83.3548 81.028 84.3716C79.8463 85.3609 78.4585 86.1716 76.8645 86.8037C75.2706 87.4633 73.553 87.7931 71.7117 87.7931ZM75.5454 77.9408C77.0569 77.9408 78.4035 77.5973 79.5852 76.9103C80.7944 76.2232 81.7425 75.2751 82.4296 74.0659C83.1166 72.8292 83.4601 71.4414 83.4601 69.9024C83.4601 68.3635 83.1166 66.9894 82.4296 65.7802C81.7425 64.5435 80.7944 63.5816 79.5852 62.8946C78.4035 62.1801 77.0569 61.8228 75.5454 61.8228C74.0889 61.8228 72.7697 62.1801 71.588 62.8946C70.4338 63.5816 69.5131 64.5435 68.8261 65.7802C68.1665 66.9894 67.8368 68.3635 67.8368 69.9024C67.8368 71.4414 68.1665 72.8292 68.8261 74.0659C69.5131 75.2751 70.4338 76.2232 71.588 76.9103C72.7697 77.5973 74.0889 77.9408 75.5454 77.9408ZM129.514 86.8037V81.3211C129.266 81.8707 128.634 82.6677 127.617 83.712C126.628 84.7563 125.309 85.7044 123.66 86.5564C122.011 87.3808 120.087 87.7931 117.889 87.7931C114.591 87.7931 111.705 86.9961 109.232 85.4021C106.759 83.7807 104.835 81.6234 103.461 78.9302C102.087 76.2095 101.4 73.2002 101.4 69.9024C101.4 66.6046 102.087 63.6091 103.461 60.9159C104.835 58.1952 106.759 56.0241 109.232 54.4027C111.705 52.7813 114.591 51.9706 117.889 51.9706C120.005 51.9706 121.86 52.3141 123.454 53.0011C125.048 53.6607 126.339 54.4577 127.329 55.3921C128.318 56.299 129.005 57.1372 129.39 57.9066V52.9599H141.839V86.8037H129.514ZM113.684 69.9024C113.684 71.4414 114.041 72.8292 114.756 74.0659C115.47 75.2751 116.418 76.2232 117.6 76.9103C118.809 77.5973 120.142 77.9408 121.599 77.9408C123.11 77.9408 124.443 77.5973 125.597 76.9103C126.752 76.2232 127.659 75.2751 128.318 74.0659C129.005 72.8292 129.349 71.4414 129.349 69.9024C129.349 68.3635 129.005 66.9894 128.318 65.7802C127.659 64.5435 126.752 63.5816 125.597 62.8946C124.443 62.1801 123.11 61.8228 121.599 61.8228C120.142 61.8228 118.809 62.1801 117.6 62.8946C116.418 63.5816 115.47 64.5435 114.756 65.7802C114.041 66.9894 113.684 68.3635 113.684 69.9024ZM175.844 67.1817L167.97 86.8037H156.469L145.257 52.9599H158.572L163.972 73.4064L171.763 53.6195H180.007L187.675 73.4064L193.116 52.9599H206.431L195.26 86.8037H183.8L175.844 67.1817ZM224.525 87.7931C221.255 87.7931 218.411 86.9961 215.992 85.4021C213.574 83.7807 211.691 81.6234 210.345 78.9302C209.026 76.2095 208.366 73.2002 208.366 69.9024C208.366 66.6046 209.026 63.6091 210.345 60.9159C211.691 58.1952 213.574 56.0241 215.992 54.4027C218.411 52.7813 221.255 51.9706 224.525 51.9706C226.696 51.9706 228.62 52.3141 230.296 53.0011C231.973 53.6607 233.333 54.4577 234.377 55.3921C235.422 56.299 236.054 57.1372 236.274 57.9066V30.0814H248.805V86.8037H236.397V81.3211C235.875 82.3379 235.023 83.3548 233.842 84.3716C232.66 85.3609 231.272 86.1716 229.678 86.8037C228.084 87.4633 226.367 87.7931 224.525 87.7931ZM228.359 77.9408C229.87 77.9408 231.217 77.5973 232.399 76.9103C233.608 76.2232 234.556 75.2751 235.243 74.0659C235.93 72.8292 236.274 71.4414 236.274 69.9024C236.274 68.3635 235.93 66.9894 235.243 65.7802C234.556 64.5435 233.608 63.5816 232.399 62.8946C231.217 62.1801 229.87 61.8228 228.359 61.8228C226.902 61.8228 225.583 62.1801 224.402 62.8946C223.247 63.5816 222.327 64.5435 221.64 65.7802C220.98 66.9894 220.65 68.3635 220.65 69.9024C220.65 71.4414 220.98 72.8292 221.64 74.0659C222.327 75.2751 223.247 76.2232 224.402 76.9103C225.583 77.5973 226.902 77.9408 228.359 77.9408ZM268.6 86.8037H256.027V30.0814H268.6V86.8037ZM286.656 72.5407C286.738 73.7499 287.123 74.8217 287.81 75.756C288.497 76.6904 289.445 77.4324 290.654 77.9821C291.891 78.5042 293.347 78.7653 295.024 78.7653C296.618 78.7653 298.047 78.6004 299.311 78.2706C300.603 77.9408 301.716 77.5286 302.65 77.0339C303.612 76.5393 304.354 76.0309 304.876 75.5087L309.74 83.2586C309.053 84.0006 308.078 84.7288 306.813 85.4434C305.577 86.1304 303.942 86.6938 301.908 87.1335C299.874 87.5732 297.305 87.7931 294.199 87.7931C290.462 87.7931 287.136 87.0923 284.223 85.6907C281.31 84.2891 279.016 82.228 277.339 79.5073C275.663 76.7866 274.825 73.4613 274.825 69.5314C274.825 66.2336 275.539 63.2656 276.968 60.6273C278.425 57.9616 280.527 55.8593 283.275 54.3203C286.023 52.7538 289.335 51.9706 293.21 51.9706C296.892 51.9706 300.08 52.6439 302.774 53.9905C305.494 55.3371 307.583 57.3433 309.039 60.009C310.523 62.6472 311.265 65.9451 311.265 69.9024C311.265 70.1223 311.252 70.562 311.224 71.2216C311.224 71.8811 311.197 72.3208 311.142 72.5407H286.656ZM299.476 65.9863C299.448 65.1069 299.215 64.2412 298.775 63.3893C298.335 62.5098 297.676 61.7953 296.796 61.2457C295.917 60.6686 294.79 60.38 293.416 60.38C292.042 60.38 290.874 60.6548 289.912 61.2045C288.978 61.7266 288.263 62.4137 287.769 63.2656C287.274 64.1175 286.999 65.0244 286.944 65.9863H299.476Z" fill="url(#paint2_linear_2327_1540)"/>
<path d="M149.304 47.9893C147.27 47.9893 145.511 47.2611 144.027 45.8045C142.571 44.3205 141.843 42.5617 141.843 40.528C141.843 38.4394 142.571 36.6669 144.027 35.2103C145.511 33.7263 147.27 32.9843 149.304 32.9843C151.392 32.9843 153.165 33.7263 154.622 35.2103C156.078 36.6669 156.806 38.4394 156.806 40.528C156.806 42.5617 156.078 44.3205 154.622 45.8045C153.165 47.2611 151.392 47.9893 149.304 47.9893ZM174.343 47.9893C172.31 47.9893 170.551 47.2611 169.067 45.8045C167.61 44.3205 166.882 42.5617 166.882 40.528C166.882 38.4394 167.61 36.6669 169.067 35.2103C170.551 33.7263 172.31 32.9843 174.343 32.9843C176.432 32.9843 178.205 33.7263 179.661 35.2103C181.118 36.6669 181.846 38.4394 181.846 40.528C181.846 42.5617 181.118 44.3205 179.661 45.8045C178.205 47.2611 176.432 47.9893 174.343 47.9893ZM199.383 47.9893C197.349 47.9893 195.59 47.2611 194.106 45.8045C192.65 44.3205 191.922 42.5617 191.922 40.528C191.922 38.4394 192.65 36.6669 194.106 35.2103C195.59 33.7263 197.349 32.9843 199.383 32.9843C201.471 32.9843 203.244 33.7263 204.701 35.2103C206.157 36.6669 206.885 38.4394 206.885 40.528C206.885 42.5617 206.157 44.3205 204.701 45.8045C203.244 47.2611 201.471 47.9893 199.383 47.9893Z" fill="url(#paint3_linear_2327_1540)"/>
</g>
<defs>
<filter id="filter0_f_2327_1540" x="255" y="-131" width="499" height="476" filterUnits="userSpaceOnUse" color-interpolation-filters="sRGB">
<feFlood flood-opacity="0" result="BackgroundImageFix"/>
<feBlend mode="normal" in="SourceGraphic" in2="BackgroundImageFix" result="shape"/>
<feGaussianBlur stdDeviation="50" result="effect1_foregroundBlur_2327_1540"/>
</filter>
<linearGradient id="paint0_linear_2327_1540" x1="41.0176" y1="67.1766" x2="327" y2="67.1766" gradientUnits="userSpaceOnUse">
<stop stop-color="#FF7E1E"/>
<stop offset="0.5" stop-color="#932558"/>
<stop offset="1" stop-color="#5F5B87"/>
</linearGradient>
<linearGradient id="paint1_linear_2327_1540" x1="32" y1="27.3728" x2="317.982" y2="27.3728" gradientUnits="userSpaceOnUse">
<stop stop-color="#FF7E1E"/>
<stop offset="0.5" stop-color="#932558"/>
<stop offset="1" stop-color="#5F5B87"/>
</linearGradient>
<linearGradient id="paint2_linear_2327_1540" x1="41.0176" y1="67.1766" x2="327" y2="67.1766" gradientUnits="userSpaceOnUse">
<stop stop-color="#FF6123"/>
<stop offset="1" stop-color="#BCB6FF"/>
</linearGradient>
<linearGradient id="paint3_linear_2327_1540" x1="32" y1="27.3728" x2="317.982" y2="27.3728" gradientUnits="userSpaceOnUse">
<stop stop-color="#FF6123"/>
<stop offset="1" stop-color="#BCB6FF"/>
</linearGradient>
<clipPath id="clip0_2327_1540">
<rect width="1085" height="137" fill="white"/>
</clipPath>
<clipPath id="clip1_2327_1540">
<rect width="730" height="122" fill="white" transform="translate(158)"/>
</clipPath>
</defs>
</svg>
