<svg width="1085" height="137" viewBox="0 0 1085 137" fill="none" xmlns="http://www.w3.org/2000/svg">
<mask id="path-1-outside-1_3556_16957" maskUnits="userSpaceOnUse" x="0" y="0" width="1085" height="137" fill="black">
<rect fill="white" width="1085" height="137"/>
<path d="M0 61C0 27.3106 27.3106 0 61 0H1024C1057.69 0 1085 27.3106 1085 61V61C1085 94.6894 1057.69 122 1024 122H61C27.3106 122 0 94.6894 0 61V61Z"/>
</mask>
<path d="M0 61C0 27.3106 27.3106 0 61 0H1024C1057.69 0 1085 27.3106 1085 61V61C1085 94.6894 1057.69 122 1024 122H61C27.3106 122 0 94.6894 0 61V61Z" fill="black"/>
<path d="M0 0H1085H0M1085 61C1085 102.974 1050.97 137 1009 137H76C34.0264 137 0 102.974 0 61C0 86.4051 27.3106 107 61 107H1024C1057.69 107 1085 86.4051 1085 61ZM1085 61M0 122V0V122M0 122M1085 0V122V0" fill="#EF87F5" mask="url(#path-1-outside-1_3556_16957)"/>
<path d="M55 32C55 32.0433 55 32.0865 54.6746 38.8512C54.3492 45.616 53.6985 59.1009 53.0826 67.4394C52.4667 75.778 51.9055 78.5615 51 82" stroke="#EF87F5" stroke-width="4" stroke-linecap="round"/>
<path d="M56.9986 32C60.0335 32 66.7738 32.2758 69.4416 33.3759C71.8558 34.3714 74.7473 36.4802 77.9839 39.643C81 42.5904 81.2025 48.2552 81.6863 50.513C81.9899 51.9295 82.0505 56.4201 81.964 62.3214C81.92 65.3236 80.7997 67.7186 79.3076 70.8232C77.9679 73.6109 75.9872 75.9382 73.849 78.1064C69.585 82.4306 63.906 84.085 59.6064 85.313C58.6631 85.5184 57.86 85.6453 56.6159 85.7477C55.3718 85.85 53.711 85.9239 52 86" stroke="#EF87F5" stroke-width="4" stroke-linecap="round"/>
<path d="M89.3562 58C89.3562 58.0436 89.3562 58.0872 89.3241 62.1815C89.292 66.2758 89.2279 74.4196 89.1681 78.7554C89.1045 83.3729 89 84.2961 89 83.9267C89 76.0975 90.7137 72.4054 91.6411 70.2403C93.5505 65.7826 95.4884 64.1974 97.1786 63.1235C98.4006 62.6458 99.6501 62.2923 101.354 62.1211C102.515 62.0628 104.276 62.0628 106 62.0628" stroke="#EF87F5" stroke-width="4" stroke-linecap="round"/>
<path d="M112.988 58C113.111 58 114.466 58 116.651 58.1139C119.225 58.2481 121.572 61.8686 123.24 64.3451C124.897 66.8052 123.416 70.9088 122.816 72.7355C122.667 73.1887 122.398 73.6554 122.165 73.4653C121.136 72.6266 121.265 71.1665 120.847 70.5111C120.464 69.9084 119.758 69.4476 118.327 69.1097C115.722 68.4948 113.347 69.0626 112.312 69.3778C111.183 69.7222 110.097 70.3343 109.16 70.9883C107.51 72.1398 107.81 76.9473 108.879 79.111C109.644 80.6597 115.762 79.827 118.753 79.2806C119.774 78.6484 120.503 77.9991 120.974 77.4745C121.207 77.2156 121.431 76.9717 121.661 76.5724" stroke="#EF87F5" stroke-width="4" stroke-linecap="round"/>
<path d="M131 61C131 61.2125 131 66.2879 131.03 74.0073C131.042 77.1524 131.486 78.0048 132.153 78.892C132.822 79.7813 134.022 80.4472 135.26 80.8821C135.789 81.0681 136.206 81.0299 136.647 80.7968C139.355 79.3646 141.171 73.9773 142.367 70.5223C143.492 67.2732 143.816 63.4145 143.977 62.8858C145.148 59.0357 146.449 73.7853 147.697 75.9284C148.304 76.9705 149.586 77.3892 150.463 77.5326C151.406 77.6867 152.633 76.4567 154.136 74.4148C155.764 71.5486 157.115 67.9464 157.853 64.8556C158.104 63.6845 158.104 63.3202 157.292 62.4014" stroke="#EF87F5" stroke-width="4" stroke-linecap="round"/>
<path d="M167.026 61C167.026 61.0892 166.942 63.4755 166.613 68.0448C166.304 72.3351 165.716 77.1412 166.161 81.4449C166.434 83.0364 166.805 83.4247 167.231 83.6536C167.656 83.8826 168.124 83.9404 170 84" stroke="#EF87F5" stroke-width="4" stroke-linecap="round"/>
<path d="M164.257 47.0065C164.187 46.9572 163.877 47.1886 163.401 47.7236C162.937 48.2448 162.948 49.5204 163.077 51.0429C163.128 51.6464 163.464 51.8829 163.947 52.119C166.298 53.2686 168.651 53.0067 169.571 52.8877C170.379 52.7831 170.659 51.7051 170.937 50.6409C171.157 49.7977 170.783 49.0851 170.107 48.5126C169.681 48.2592 169.083 48.0812 168.412 47.9896C167.74 47.8979 167.014 47.8979 166.265 47.8979" stroke="#EF87F5" stroke-width="4" stroke-linecap="round"/>
<path d="M181 59.0041C181.031 58.9797 181.061 58.9554 181.077 62.3359C181.093 65.7164 181.093 72.5027 181.093 75.5447C181.093 77.6788 182.149 72.2411 183.88 65.131C184.662 61.9202 185.367 61.0471 186.102 60.461C187.954 58.9854 192.173 59.4339 195.224 60.2929C198.186 61.1268 198.047 63.9094 198.69 67.8284C198.862 70.0888 198.993 73.9398 199 76.0792C199.006 78.2185 198.884 78.5295 198.466 79" stroke="#EF87F5" stroke-width="4" stroke-linecap="round"/>
<path d="M226 58.5168C224.864 58.1908 220.558 57.794 218.034 58.1242C216.432 58.3336 214.661 60.5182 211.943 63.2216C208.786 66.3628 206.899 69.5172 205.923 71.7392C205.147 73.5059 205.304 75.2726 205.45 76.7772C205.546 77.7695 206.771 78.3972 208.075 79.0124C209.489 79.6795 211.491 79.6478 213.417 79.2974C215.655 78.8905 217.422 75.7018 219.745 72.2623C223.649 66.4817 223.077 62.1994 223.077 61.867C223.077 61.8335 223.077 62.3447 223.537 66.7641C223.998 71.1835 224.919 79.5648 225.358 84.1961C225.856 89.4488 225.152 91.4434 224.137 93.7921C222.785 96.9197 218.155 98.5631 208.591 100.941C202.45 102.468 196.157 102.073 190.037 101.433C181.902 100.583 176.967 98.0375 174.547 97.528C172.977 97.1756 170.712 96.6327 169.334 96.3077C167.956 95.9828 167.534 95.8923 167 95.7256" stroke="#EF87F5" stroke-width="4" stroke-linecap="round"/>
<path d="M288 56.3979C288 56.4418 288 56.4857 288 59.3295C288 62.1733 288 67.8156 288.137 71.0159C288.3 74.8144 289.244 75.8403 290.199 76.5655C290.669 76.9226 291.397 77.0021 291.946 77C292.937 76.9961 294.174 75.7032 295.68 73.7699C299.58 68.7612 299.747 61.7919 299.887 60.2411C299.952 59.5193 300.048 58.9322 300.49 60.3179C301.995 65.0362 302.91 69.3885 303.723 70.9997C305.052 73.631 307.703 74.8538 309.92 75.5333C310.501 75.7114 311.401 75.6234 312.097 75.2836C316.054 73.3496 315.278 68.1874 315.889 65.0188C316.174 63.398 316.614 60.6553 316.84 58.9679C317.066 57.2805 317.066 56.7314 316.752 56" stroke="#EF87F5" stroke-width="4" stroke-linecap="round"/>
<path d="M323 57C323 57.8724 323 63.495 323.065 71.6734C323.13 74.6787 323.259 75.3594 323.426 75.8651C323.593 76.3707 323.794 76.6807 324 77" stroke="#EF87F5" stroke-width="4" stroke-linecap="round"/>
<path d="M321.929 40.9321C321.87 40.9752 321.491 41.0712 320.89 41.3472C319.427 42.0185 320.195 44.2178 320.252 45.5435C320.263 45.8038 320.705 45.9754 321.118 45.9969C323.32 46.1111 324.356 43.0623 324.916 41.7678C325.035 41.4922 325.024 41.2045 324.907 40.9491C324.79 40.6937 324.522 40.4707 324.151 40.3161C323.781 40.1614 323.317 40.0819 322.45 40" stroke="#EF87F5" stroke-width="4" stroke-linecap="round"/>
<path d="M342 34V79" stroke="#EF87F5" stroke-width="4" stroke-linecap="round"/>
<path d="M333.006 61C332.975 61 332.944 61 336.243 61C339.542 61 346.17 61 353 61" stroke="#EF87F5" stroke-width="4" stroke-linecap="round"/>
<path d="M364.379 35C364.379 35.044 364.379 35.0879 364.352 41.5183C364.326 47.9487 364.274 60.7643 364.183 67.5892C364.093 74.414 363.966 74.86 363.866 74.8664C358.957 75.1819 365.185 63.7312 366.064 61.7725C367.129 59.3992 369.31 58.2679 371.373 57.6009C372.441 57.2557 373.672 57.7573 374.751 58.4455C376.707 60.9729 377.884 63.9129 378.75 68.4686C379.177 71.5627 379.583 76.2451 380 81" stroke="#EF87F5" stroke-width="4" stroke-linecap="round"/>
<path d="M433 87.4021C433 87.3597 433 87.3172 433.058 79.6215C433.115 71.9257 433.23 56.5779 433.381 48.1649C433.585 36.7683 434.573 34.1671 435.252 33.0254C435.553 32.5198 436.658 32.6316 437.735 33.1345C444.667 36.372 449.156 44.6885 455.639 56.6195C457.218 59.5257 457.785 60.6371 458.788 61.0529C460.158 61.6211 462.611 56.1258 467.518 47.7323C473.933 36.7576 479.839 30.5599 480.881 29.549C481.394 29.0515 482.057 28.7013 482.498 29.3664C482.938 30.0315 483.182 31.7521 482.836 38.8569C482.491 45.9617 481.55 58.3985 480.59 67.5018C479.629 76.6051 478.679 81.9979 478.19 85.9813C477.701 89.9646 477.701 92.3751 477.153 95" stroke="#EF87F5" stroke-width="4" stroke-linecap="round"/>
<path d="M492.397 62.0004C495.526 61.9866 502.548 62.3038 504.752 62.8998C507.74 63.7082 510.635 65.6493 512.761 67.4995C513.739 68.3513 513.925 69.4779 514.307 72.2057C514.616 74.4148 514.792 78.3213 514.916 80.4719C515.039 82.6226 515.01 82.9048 514.938 82.9348C512.745 83.8539 510.385 77.6313 506.524 75.3535C503.975 73.8502 499.658 74.147 496.294 75.0866C492.346 76.1895 488.851 81.251 488.156 82.905C487.758 83.8514 488.217 84.7291 488.484 85.2471C489.33 86.8865 492.507 87.9373 497.81 88.7159C501.963 89.3257 504.913 88.8036 506.637 88.54C512.278 87.3649 513.131 87.0725 513.439 86.8323C513.451 86.7115 513.169 86.593 512.879 86.471" stroke="#EF87F5" stroke-width="4" stroke-linecap="round"/>
<path d="M541 64.0375C540.817 63.8287 539.762 63.0756 538.115 62.421C536.734 61.8722 533.726 61.9006 531.929 62.2726C530.228 62.6247 528.665 65.0185 526.3 68.6601C524.807 70.9585 524.42 73.6831 524.072 76.2836C523.897 77.5914 523.953 78.8907 525.271 80.3521C528.464 83.8941 532.511 85.0381 533.73 84.999C535.077 84.882 536.166 84.7069 536.922 84.4983C537.313 84.3845 537.715 84.2542 538.511 83.7773" stroke="#EF87F5" stroke-width="4" stroke-linecap="round"/>
<path d="M550 37C550 37.0315 550 37.0629 550 44.5046C550 51.9464 550 66.7974 550.028 74.0873C550.057 81.3772 550.114 80.6559 550.773 78.8849C551.432 77.1138 552.69 74.3149 554.073 71.7023C556.729 66.6848 558.907 63.8111 559.799 62.8957C560.478 62.1982 561.371 61.9344 562.272 61.8119C562.747 61.7472 563.277 61.7702 564.23 62.5446C565.182 63.319 566.545 64.8679 567.438 66.7897C568.33 68.7116 568.711 70.9595 568.886 73.047C569.06 75.1345 569.017 76.9935 568.874 78.2945C568.731 79.5955 568.49 80.2821 568.163 81" stroke="#EF87F5" stroke-width="4" stroke-linecap="round"/>
<path d="M579.007 63.0023C579.007 62.9856 579.007 62.969 579.003 66.4476C578.998 69.9262 578.989 76.9007 579.082 80.6182C579.194 85.1089 580.896 86.4695 582.366 87.7171C582.686 87.9615 582.965 88.1648 583.232 88.3372C583.499 88.5097 583.746 88.6452 584 89" stroke="#EF87F5" stroke-width="4" stroke-linecap="round"/>
<path d="M579.241 50.7909C579.132 50.7517 578.77 50.8352 578.291 51.1848C577.661 51.6456 578.197 52.5092 578.56 53.074C578.926 53.6431 579.757 53.8691 580.507 53.9694C581.362 54.0841 582.317 53.86 583.138 53.5691C583.507 53.4385 583.728 53.2751 583.864 52.8184C584.221 51.6207 583.821 50.6163 583.288 50.2811C582.999 50.1437 582.67 50.0729 582.013 50.0365C581.356 50 580.38 50 579.375 50" stroke="#EF87F5" stroke-width="4" stroke-linecap="round"/>
<path d="M592 64.1129C592 64.2635 592 65.4925 592.285 69.6732C592.491 72.7057 593.139 77.5742 593.468 80.2601C593.798 82.9459 593.87 83.2982 593.907 83.6792C593.944 84.0603 593.944 84.4594 594.07 82.5964C594.196 80.7335 594.448 76.5963 594.912 73.3044C595.376 70.0125 596.043 67.6911 596.517 66.247C597.597 62.9587 600.143 61.1791 601.778 60.4738C603.054 59.9232 604.945 59.9963 606.492 60.0118C608.732 60.0342 611.093 62.0276 613.174 64.415C614.415 65.839 615.684 67.8496 617.011 70.2008C618.338 72.5521 619.596 75.2227 620.408 77.1461C621.549 80.1649 621.929 81.5722 621.993 82.2286C622.015 82.6062 622.015 83.0743 621.54 83.6627" stroke="#EF87F5" stroke-width="4" stroke-linecap="round"/>
<path d="M634.84 71.1284C635.665 71.1284 640.6 70.7738 644.329 70.2741C646.116 70.0346 648.531 69.9256 650.589 69.7632C654.354 69.466 649.476 61.8145 648.734 60.982C647.619 59.7301 643.604 59.9724 641.498 60.1291C639.774 60.2574 637.87 62.3618 635.931 64.4742C634.327 66.2204 633.415 69.0177 632.579 72.7585C631.406 78.0077 632.296 81.609 632.798 82.3725C633.249 83.0586 634.312 83.8514 635.796 84.7787C639.27 86.9494 644.848 85.7274 646.681 84.9138C647.27 84.5694 648.041 84.0516 648.657 83.6062C649.274 83.1609 649.713 82.8038 650.465 82.0972" stroke="#EF87F5" stroke-width="4" stroke-linecap="round"/>
<path d="M672.831 59.1231C672.926 59.159 672.738 58.9584 672.167 58.5341C671.511 58.0465 670.226 57.9328 668.876 58.0338C666.705 58.1963 664.48 61.205 662.706 63.2314C661.994 64.0453 661.966 64.9523 662.138 65.6029C662.34 66.3659 664.359 67.2268 668.048 68.7603C673.588 71.0632 677.559 72.4874 678.666 73.1348C680.059 73.9488 681.035 74.9804 681.58 76.6048C682.576 79.5706 681.621 82.3942 680.583 83.9749C679.524 85.5899 677.693 86.6506 676.245 87.4467C675.084 88.0847 672.885 88.5018 669.226 88.9022C664.598 89.0883 661.341 88.9922 660.205 88.7539C659.705 88.6503 659.358 88.5817 659 88.5111" stroke="#EF87F5" stroke-width="4" stroke-linecap="round"/>
<path d="M1011.24 22C1006.46 22 994.773 22.7513 988.891 25.8877C985.111 27.9027 982.247 30.2132 978.704 32.6161C976.191 34.3205 974.778 37.78 970.569 45.4129C965.056 55.4125 965.873 68.8626 966.33 75.2432C966.564 78.509 968.581 81.1711 971.041 85.4902C972.943 88.8295 978.576 91.9466 985.477 94.9429C991.987 97.7695 1001.99 97.4055 1011.57 95.6308C1019.82 94.1004 1026.55 85.7049 1030.75 79.9846C1034.49 74.8889 1034.7 67.0828 1035.03 61.9208C1035.69 51.7768 1034.52 48.7347 1033.77 44.7243C1033.02 40.6607 1030.99 37.9516 1028.89 34.1291C1026.54 29.8323 1021.31 26.5035 1018.29 24.8717C1015.74 24.2101 1013.04 23.4362 1010.49 22.5915C1009.89 22.3988 1009.29 22.2333 1006.94 22.0627" stroke="#FF0000" stroke-width="4" stroke-linecap="round"/>
<path d="M1001.72 59.0166C1001.67 59.0569 1001.36 59.5737 1001.01 60.3809C1000.89 60.6711 1001.16 60.8031 1001.36 60.8065C1001.56 60.81 1001.76 60.7025 1001.82 60.5339C1001.97 60.1644 1001.53 59.6554 1001.11 59.3028C1000.93 59.148 1000.67 59.2515 1000.45 59.3873C1000.24 59.5231 1000.04 59.7415 999.964 59.9663C999.889 60.1911 999.941 60.4156 1000.08 60.536C1000.37 60.7886 998.231 60.4863 993.889 60.0816C990.689 59.7833 988.34 59.3038 986.531 59.1316C985.313 59.0156 981.63 57.903 976.565 56.3911C973.822 55.5722 972.942 55.2271 971.913 54.9305C971.029 54.6758 970.114 54.3762 968.314 53.6249C967.808 53.4113 967.343 53.2333 967.004 53.1108C966.666 52.9884 966.467 52.927 966 52.875" stroke="#FF0000" stroke-width="4" stroke-linecap="round"/>
<path d="M967.5 53.6143C966.49 52.5013 960.226 31.3753 957 29.6582C954.364 28.2554 950.262 24.2424 947 23.8359C942.545 23.2806 939.983 24.9734 934 29.6582C931.377 31.7122 930.574 35.7662 928.5 39.3359C927.245 41.4968 926.997 47.0442 925 54.016C924.006 57.486 923.615 62.1646 922.225 66.1659C921.056 69.5294 919.542 71.7629 918.24 74.2672C916.497 77.6184 914.601 79.9753 912.466 82.1911C908.849 85.9425 903.363 86.4236 900.741 87.2564C896.995 88.4459 890.149 87.5369 886.745 86.6364C883.692 85.8287 880.487 81.7479 877.942 78.3504C874.947 74.3521 872.44 68.2815 870.579 63.7963C869.014 60.0219 868.438 57.0207 867.282 54.016C866.257 51.3511 865.307 49.2052 864.065 46.408C862.702 43.3368 861.309 40.9731 859.66 37.8205C858.138 34.9093 856.008 32.0467 853.337 29.5114C851.368 27.6417 848.244 26.8489 844.011 26.4474C839.405 26.0105 835.883 26.7751 833 27.9295C826.787 30.4179 824.882 34.2171 822.877 38.192C819.684 44.5235 820.247 48.8294 819.606 52.0644C818.9 55.6303 818.534 59.6698 818.13 63.1683C817.577 67.9522 816.497 71.8977 815.444 74.7857C814.229 78.1169 813.1 81.1967 810.875 82.9119C807.552 85.474 802.037 87.6121 798.444 88.6663C795.463 89.541 788.241 89.7763 783.833 89.6083C777.731 89.3756 771.701 82.687 768.19 78.7823C764.541 74.7257 763.671 71.659 762.321 69.4487C760.406 66.3161 758.706 61.9184 757.589 57.7747C756.639 54.2532 755.333 47.7228 753.669 42.6848C752.407 38.8636 751.021 36.4101 749.794 34.2772C748.555 32.1228 745.879 30.366 742.85 28.7702C740.503 28.1193 737.181 28.003 733.242 28.078C731.76 28.153 731.326 28.303 730 28.8735" stroke="#EF87F5" stroke-width="4" stroke-linecap="round"/>
</svg>
