<svg width="1085" height="137" viewBox="0 0 1085 137" fill="none" xmlns="http://www.w3.org/2000/svg">
<mask id="path-1-outside-1_1532_1017" maskUnits="userSpaceOnUse" x="0" y="0" width="1085" height="137" fill="black">
<rect fill="white" width="1085" height="137"/>
<path d="M0 61C0 27.3106 27.3106 0 61 0H1024C1057.69 0 1085 27.3106 1085 61V61C1085 94.6894 1057.69 122 1024 122H61C27.3106 122 0 94.6894 0 61V61Z"/>
</mask>
<path d="M0 61C0 27.3106 27.3106 0 61 0H1024C1057.69 0 1085 27.3106 1085 61V61C1085 94.6894 1057.69 122 1024 122H61C27.3106 122 0 94.6894 0 61V61Z" fill="white"/>
<path d="M0 0H1085H0ZM1085 61C1085 102.974 1050.97 137 1009 137H76C34.0264 137 0 102.974 0 61C0 86.4051 27.3106 107 61 107H1024C1057.69 107 1085 86.4051 1085 61ZM0 122V0V122ZM1085 0V122V0Z" fill="#FE3D03" mask="url(#path-1-outside-1_1532_1017)"/>
<path d="M78.72 43.74C81.84 46.9 83.4 50.82 83.4 55.5C83.4 60.18 82.16 63.68 79.68 66C77.24 68.28 73.88 69.42 69.6 69.42H66.6V70.26C65.04 70.26 64.02 70.54 63.54 71.1C63.1 71.66 62.88 72.56 62.88 73.8V74.7C63.16 74.7 63.4 74.54 63.6 74.22L65.28 75.3L68.28 78.9C68.04 80.78 67.36 82.2 66.24 83.16C65.12 84.12 63.76 84.6 62.16 84.6C60.6 84.6 59.06 84.06 57.54 82.98C56.02 84.06 54.44 84.6 52.8 84.6C51.2 84.6 49.36 83.64 47.28 81.72C45.2 79.8 44.04 77.66 43.8 75.3L45.48 74.22C45.64 74.58 46.02 74.76 46.62 74.76C48.34 74.76 49.2 73.26 49.2 70.26H48.48L45.48 66.66V62.28C47.12 62.28 48.28 62.34 48.96 62.46V51.06H47.28L44.28 47.46V39H65.82C71.3 39 75.6 40.58 78.72 43.74ZM52.32 64.26C52.72 64.02 53.2 63.54 53.76 62.82H55.32C55.84 63.54 56.32 64.02 56.76 64.26C57.44 63.34 58.24 62.78 59.16 62.58C60.12 62.38 61.6 62.28 63.6 62.28L65.16 64.14H66.06C74.42 64.14 78.6 60.06 78.6 51.9C78.6 49.42 77.92 47.1 76.56 44.94C75.72 43.66 74.34 42.64 72.42 41.88C70.54 41.08 68.2 40.68 65.4 40.68H45.96V45.78H50.76V62.94C51.32 63.22 51.84 63.66 52.32 64.26ZM58.44 45.78H62.22C67.94 45.78 70.8 48 70.8 52.44C70.8 54.8 70.1 56.74 68.7 58.26C67.34 59.78 65.2 60.54 62.28 60.54H58.44V45.78ZM54.72 77.34C56.16 78.58 57.74 79.2 59.46 79.2C61.22 79.2 62.5 78.2 63.3 76.2C63.02 76.36 62.7 76.44 62.34 76.44C59.54 76.44 58.14 74.38 58.14 70.26C58.14 66.9 59.46 65.22 62.1 65.22V63.72C61.34 63.72 60.76 63.76 60.36 63.84C59.96 63.88 59.46 64.12 58.86 64.56C58.26 65 57.72 65.66 57.24 66.54C56.28 66.34 55.38 65.64 54.54 64.44C53.7 65.52 52.8 66.22 51.84 66.54C51.32 65.66 50.76 65 50.16 64.56C49.56 64.12 49.06 63.88 48.66 63.84C48.26 63.76 47.7 63.72 46.98 63.72V65.22C49.62 65.22 50.94 66.9 50.94 70.26C50.94 73.3 50.3 75.2 49.02 75.96C48.42 76.28 47.66 76.44 46.74 76.44L45.78 76.2C46.58 78.2 47.84 79.2 49.56 79.2C51.32 79.2 52.92 78.58 54.36 77.34H54.72ZM65.04 51H63.12V58.8C67.12 58.48 69.12 56.36 69.12 52.44L69.06 51.54C68.3 51.18 66.96 51 65.04 51ZM109.553 51.06H105.953V62.28H106.433L109.433 65.88V70.26C107.873 70.26 106.853 70.54 106.373 71.1C105.933 71.66 105.713 72.56 105.713 73.8V74.7C105.993 74.7 106.233 74.54 106.433 74.22L108.113 75.3L111.113 78.9C110.873 80.78 110.193 82.2 109.073 83.16C107.953 84.12 106.593 84.6 104.993 84.6C103.433 84.6 101.893 84.06 100.373 82.98C98.8531 84.06 97.2731 84.6 95.6331 84.6C94.0331 84.6 92.1931 83.64 90.1131 81.72C88.0331 79.8 86.8731 77.66 86.6331 75.3L88.3131 74.22C88.4731 74.58 88.8531 74.76 89.4531 74.76C91.1731 74.76 92.0331 73.26 92.0331 70.26H91.3131L88.3131 66.66V62.28C89.9531 62.28 91.1131 62.34 91.7931 62.46V51.06H91.3131L88.3131 47.46V39H106.553L109.553 42.6V51.06ZM95.1531 64.26C95.5531 64.02 96.0331 63.54 96.5931 62.82H98.1531C98.6731 63.54 99.1531 64.02 99.5931 64.26C99.9931 63.7 100.513 63.26 101.153 62.94V45.78H104.873V40.68H89.9931V45.78H93.5931V62.94C94.1531 63.22 94.6731 63.66 95.1531 64.26ZM97.5531 77.34C98.9931 78.58 100.573 79.2 102.293 79.2C104.053 79.2 105.333 78.2 106.133 76.2C105.853 76.36 105.533 76.44 105.173 76.44C102.373 76.44 100.973 74.38 100.973 70.26C100.973 66.9 102.293 65.22 104.933 65.22V63.72C104.173 63.72 103.593 63.76 103.193 63.84C102.793 63.88 102.293 64.12 101.693 64.56C101.093 65 100.553 65.66 100.073 66.54C99.1131 66.34 98.2131 65.64 97.3731 64.44C96.5331 65.52 95.6331 66.22 94.6731 66.54C94.1531 65.66 93.5931 65 92.9931 64.56C92.3931 64.12 91.8931 63.88 91.4931 63.84C91.0931 63.76 90.5331 63.72 89.8131 63.72V65.22C92.4531 65.22 93.7731 66.9 93.7731 70.26C93.7731 73.3 93.1331 75.2 91.8531 75.96C91.2531 76.28 90.4931 76.44 89.5731 76.44L88.6131 76.2C89.4131 78.2 90.6731 79.2 92.3931 79.2C94.1531 79.2 95.7531 78.58 97.1931 77.34H97.5531ZM151.167 82.8C150.647 83.04 150.307 83.64 150.147 84.6C148.307 84.6 146.267 83.64 144.027 81.72C142.947 80.8 142.027 79.5 141.267 77.82C140.547 76.1 140.187 74.2 140.187 72.12V70.26H139.467L137.427 67.8V70.26C135.867 70.26 134.847 70.54 134.367 71.1C133.927 71.66 133.707 72.56 133.707 73.8V74.7C133.987 74.7 134.227 74.54 134.427 74.22L136.107 75.3L139.107 78.9C138.867 80.78 138.187 82.2 137.067 83.16C135.947 84.12 134.587 84.6 132.987 84.6C131.427 84.6 129.887 84.06 128.367 82.98C126.847 84.06 125.267 84.6 123.627 84.6C122.027 84.6 120.187 83.64 118.107 81.72C116.027 79.8 114.867 77.66 114.627 75.3L116.307 74.22C116.467 74.58 116.847 74.76 117.447 74.76C119.167 74.76 120.027 73.26 120.027 70.26H119.307L116.307 66.66V62.28C117.907 62.28 119.027 62.32 119.667 62.4V51.06H119.187L116.187 47.46V39H130.227L143.667 55.02V51.06H143.007L140.007 47.46V39H158.247L161.247 42.6V51.06H157.647V62.28H158.187L161.187 65.88V70.26C159.627 70.26 158.627 70.54 158.187 71.1C157.747 71.66 157.527 72.56 157.527 73.8V74.7C157.807 74.62 158.027 74.46 158.187 74.22L162.867 78.9C162.627 80.78 161.927 82.2 160.767 83.16C159.647 84.12 158.487 84.6 157.287 84.6C156.087 84.6 154.927 84.42 153.807 84.06C152.687 83.74 151.807 83.32 151.167 82.8ZM123.147 64.26C123.547 64.02 124.027 63.54 124.587 62.82H126.147C126.667 63.54 127.147 64.02 127.587 64.26C128.027 63.7 128.567 63.26 129.207 62.94V51.48H130.887L139.647 62.4C141.287 62.6 142.527 63.22 143.367 64.26C143.767 64.02 144.247 63.54 144.807 62.82H149.787C150.307 63.54 150.807 64.02 151.287 64.26C151.807 63.7 152.327 63.28 152.847 63V45.78H156.567V40.68H141.687V45.78H145.287V58.38H143.247L128.367 40.68H117.867V45.78H121.467V62.88C122.107 63.2 122.667 63.66 123.147 64.26ZM153.747 79.2C155.707 79.2 157.067 78.2 157.827 76.2C157.587 76.36 157.287 76.44 156.927 76.44C155.727 76.44 154.787 76.12 154.107 75.48C153.467 74.8 153.067 74.08 152.907 73.32C152.787 72.52 152.727 71.5 152.727 70.26C152.727 66.9 154.027 65.22 156.627 65.22V63.72C155.907 63.72 155.347 63.76 154.947 63.84C154.587 63.88 154.087 64.12 153.447 64.56C152.847 65 152.287 65.66 151.767 66.54C150.807 66.34 149.907 65.64 149.067 64.44H145.527C144.687 65.56 143.787 66.26 142.827 66.54C142.307 65.66 141.747 65 141.147 64.56C140.547 64.12 140.047 63.88 139.647 63.84C139.287 63.76 138.747 63.72 138.027 63.72V65.22C140.587 65.22 141.867 66.9 141.867 70.26V71.82C141.867 74.94 142.887 77.16 144.927 78.48C145.327 78.72 145.687 78.88 146.007 78.96C146.327 77.84 146.987 77.28 147.987 77.28C148.667 77.84 149.607 78.3 150.807 78.66C152.007 79.02 152.987 79.2 153.747 79.2ZM125.547 77.34C126.987 78.58 128.567 79.2 130.287 79.2C132.047 79.2 133.327 78.2 134.127 76.2C133.847 76.36 133.527 76.44 133.167 76.44C130.367 76.44 128.967 74.38 128.967 70.26C128.967 66.9 130.287 65.22 132.927 65.22V63.72C132.167 63.72 131.587 63.76 131.187 63.84C130.787 63.88 130.287 64.12 129.687 64.56C129.087 65 128.547 65.66 128.067 66.54C127.107 66.34 126.207 65.64 125.367 64.44C124.527 65.52 123.627 66.22 122.667 66.54C122.147 65.66 121.587 65 120.987 64.56C120.387 64.12 119.887 63.88 119.487 63.84C119.087 63.76 118.527 63.72 117.807 63.72V65.22C120.447 65.22 121.767 66.9 121.767 70.26C121.767 73.3 121.127 75.2 119.847 75.96C119.247 76.28 118.487 76.44 117.567 76.44L116.607 76.2C117.407 78.2 118.667 79.2 120.387 79.2C122.147 79.2 123.747 78.58 125.187 77.34H125.547ZM133.827 62.28H134.427L136.467 64.74V62.28H137.307L133.827 57.9V62.28ZM172.746 39H202.146L205.146 42.6V50.94H202.026L204.246 62.34C204.606 62.3 205.166 62.28 205.926 62.28L208.926 65.88L209.646 70.2C207.486 70.2 206.406 71.16 206.406 73.08C206.406 74.24 206.546 74.82 206.826 74.82C207.506 74.82 207.886 74.62 207.966 74.22L209.886 75.36L212.886 78.96C212.886 80.88 212.406 82.3 211.446 83.22C210.526 84.14 209.326 84.6 207.846 84.6C206.406 84.6 204.746 84.1 202.866 83.1C201.386 84.1 199.946 84.6 198.546 84.6C196.346 84.6 194.266 83.62 192.306 81.66C190.386 79.7 189.086 77.6 188.406 75.36L189.846 74.22C190.166 74.62 190.626 74.82 191.226 74.82C192.546 74.82 193.206 74.04 193.206 72.48L193.026 71.1C192.266 70.7 191.326 70.5 190.206 70.5C189.126 70.5 188.086 70.82 187.086 71.46C186.086 72.1 185.406 73.02 185.046 74.22L186.486 75.36L189.486 78.96C188.926 80.84 187.986 82.24 186.666 83.16C185.386 84.12 184.006 84.6 182.526 84.6C181.086 84.6 179.566 84.1 177.966 83.1C176.166 84.1 174.506 84.6 172.986 84.6C170.906 84.6 169.066 83.6 167.466 81.6C165.906 79.6 165.126 77.52 165.126 75.36L166.986 74.22C167.066 74.62 167.446 74.82 168.126 74.82C168.846 74.82 169.526 74.34 170.166 73.38C170.846 72.42 171.266 71.36 171.426 70.2L168.246 66.6L168.966 62.28C170.686 62.28 171.986 62.4 172.866 62.64L175.266 50.4L172.746 47.34V39ZM195.006 64.32C195.366 64.04 195.766 63.54 196.206 62.82H197.766C198.406 63.58 198.986 64.08 199.506 64.32C199.666 64.04 199.986 63.7 200.466 63.3L197.046 45.6H200.466V40.68H174.426V45.6H177.846L174.366 63.3C174.846 63.66 175.206 64 175.446 64.32C175.926 64.04 176.486 63.54 177.126 62.82H178.686C179.006 63.58 179.346 64.08 179.706 64.32C181.226 62.8 183.786 62.04 187.386 62.04C191.026 62.04 193.566 62.8 195.006 64.32ZM199.686 77.34C201.446 78.7 203.126 79.38 204.726 79.38C206.366 79.38 207.446 78.34 207.966 76.26C207.766 76.42 207.486 76.5 207.126 76.5C205.606 76.5 204.306 75.76 203.226 74.28C202.186 72.76 201.666 71.32 201.666 69.96C201.666 67.12 202.766 65.54 204.966 65.22L204.726 63.78C203.966 63.78 203.386 63.82 202.986 63.9C202.626 63.94 202.186 64.18 201.666 64.62C201.146 65.02 200.706 65.66 200.346 66.54C199.426 66.38 198.386 65.7 197.226 64.5C196.946 65.02 196.606 65.46 196.206 65.82C195.846 66.14 195.426 66.38 194.946 66.54C193.386 64.62 190.866 63.66 187.386 63.66C183.906 63.66 181.426 64.62 179.946 66.54C179.026 66.38 178.246 65.7 177.606 64.5C176.646 65.54 175.646 66.22 174.606 66.54C174.246 65.66 173.786 65.02 173.226 64.62C172.706 64.18 172.246 63.94 171.846 63.9C171.446 63.82 170.886 63.78 170.166 63.78L169.926 65.22C171.046 65.38 171.866 65.86 172.386 66.66C172.946 67.42 173.226 68.5 173.226 69.9C173.226 71.3 172.686 72.76 171.606 74.28C170.566 75.76 169.306 76.5 167.826 76.5L166.986 76.26C167.506 78.34 168.546 79.38 170.106 79.38C171.706 79.38 173.406 78.7 175.206 77.34H175.566C176.926 78.7 178.286 79.38 179.646 79.38C181.446 79.38 183.006 78.34 184.326 76.26C184.006 76.42 183.646 76.5 183.246 76.5C181.006 76.5 179.886 75.34 179.886 73.02C179.886 70.7 180.646 68.88 182.166 67.56C183.686 66.2 185.446 65.52 187.446 65.52C189.446 65.52 191.206 66.2 192.726 67.56C194.246 68.88 195.006 70.7 195.006 73.02C195.006 75.34 193.886 76.5 191.646 76.5L190.506 76.26C191.786 78.34 193.366 79.38 195.246 79.38C196.646 79.38 198.006 78.7 199.326 77.34H199.686ZM181.986 60.6L185.226 45.6H189.666L193.026 60.6H181.986ZM189.366 51.9L187.806 59.04H190.986L189.366 51.9ZM240.565 51.06V62.28H241.045L244.045 65.88V70.26C242.485 70.26 241.465 70.54 240.985 71.1C240.545 71.66 240.325 72.56 240.325 73.8V74.7C240.605 74.7 240.845 74.54 241.045 74.22L242.725 75.3L245.725 78.9C245.485 80.78 244.805 82.2 243.685 83.16C242.565 84.12 241.205 84.6 239.605 84.6C238.045 84.6 236.505 84.06 234.985 82.98C233.465 84.06 231.885 84.6 230.245 84.6C228.645 84.6 226.805 83.64 224.725 81.72C222.645 79.8 221.485 77.66 221.245 75.3L222.925 74.22C223.085 74.58 223.465 74.76 224.065 74.76C225.785 74.76 226.645 73.26 226.645 70.26H225.925L222.925 66.66V62.28C224.565 62.28 225.725 62.34 226.405 62.46V51.06H224.665V57.24H217.705L214.705 53.64V39H249.265L252.265 42.6V57.24H245.665L242.665 53.64V51.06H240.565ZM229.765 64.26C230.165 64.02 230.645 63.54 231.205 62.82H232.765C233.285 63.54 233.765 64.02 234.205 64.26C234.605 63.7 235.125 63.26 235.765 62.94V45.78H244.165V51.96H247.585V40.68H216.385V51.96H219.985V45.78H228.205V62.94C228.765 63.22 229.285 63.66 229.765 64.26ZM232.165 77.34C233.605 78.58 235.185 79.2 236.905 79.2C238.665 79.2 239.945 78.2 240.745 76.2C240.465 76.36 240.145 76.44 239.785 76.44C236.985 76.44 235.585 74.38 235.585 70.26C235.585 66.9 236.905 65.22 239.545 65.22V63.72C238.785 63.72 238.205 63.76 237.805 63.84C237.405 63.88 236.905 64.12 236.305 64.56C235.705 65 235.165 65.66 234.685 66.54C233.725 66.34 232.825 65.64 231.985 64.44C231.145 65.52 230.245 66.22 229.285 66.54C228.765 65.66 228.205 65 227.605 64.56C227.005 64.12 226.505 63.88 226.105 63.84C225.705 63.76 225.145 63.72 224.425 63.72V65.22C227.065 65.22 228.385 66.9 228.385 70.26C228.385 73.3 227.745 75.2 226.465 75.96C225.865 76.28 225.105 76.44 224.185 76.44L223.225 76.2C224.025 78.2 225.285 79.2 227.005 79.2C228.765 79.2 230.365 78.58 231.805 77.34H232.165ZM261.875 39H291.275L294.275 42.6V50.94H291.155L293.375 62.34C293.735 62.3 294.295 62.28 295.055 62.28L298.055 65.88L298.775 70.2C296.615 70.2 295.535 71.16 295.535 73.08C295.535 74.24 295.675 74.82 295.955 74.82C296.635 74.82 297.015 74.62 297.095 74.22L299.015 75.36L302.015 78.96C302.015 80.88 301.535 82.3 300.575 83.22C299.655 84.14 298.455 84.6 296.975 84.6C295.535 84.6 293.875 84.1 291.995 83.1C290.515 84.1 289.075 84.6 287.675 84.6C285.475 84.6 283.395 83.62 281.435 81.66C279.515 79.7 278.215 77.6 277.535 75.36L278.975 74.22C279.295 74.62 279.755 74.82 280.355 74.82C281.675 74.82 282.335 74.04 282.335 72.48L282.155 71.1C281.395 70.7 280.455 70.5 279.335 70.5C278.255 70.5 277.215 70.82 276.215 71.46C275.215 72.1 274.535 73.02 274.175 74.22L275.615 75.36L278.615 78.96C278.055 80.84 277.115 82.24 275.795 83.16C274.515 84.12 273.135 84.6 271.655 84.6C270.215 84.6 268.695 84.1 267.095 83.1C265.295 84.1 263.635 84.6 262.115 84.6C260.035 84.6 258.195 83.6 256.595 81.6C255.035 79.6 254.255 77.52 254.255 75.36L256.115 74.22C256.195 74.62 256.575 74.82 257.255 74.82C257.975 74.82 258.655 74.34 259.295 73.38C259.975 72.42 260.395 71.36 260.555 70.2L257.375 66.6L258.095 62.28C259.815 62.28 261.115 62.4 261.995 62.64L264.395 50.4L261.875 47.34V39ZM284.135 64.32C284.495 64.04 284.895 63.54 285.335 62.82H286.895C287.535 63.58 288.115 64.08 288.635 64.32C288.795 64.04 289.115 63.7 289.595 63.3L286.175 45.6H289.595V40.68H263.555V45.6H266.975L263.495 63.3C263.975 63.66 264.335 64 264.575 64.32C265.055 64.04 265.615 63.54 266.255 62.82H267.815C268.135 63.58 268.475 64.08 268.835 64.32C270.355 62.8 272.915 62.04 276.515 62.04C280.155 62.04 282.695 62.8 284.135 64.32ZM288.815 77.34C290.575 78.7 292.255 79.38 293.855 79.38C295.495 79.38 296.575 78.34 297.095 76.26C296.895 76.42 296.615 76.5 296.255 76.5C294.735 76.5 293.435 75.76 292.355 74.28C291.315 72.76 290.795 71.32 290.795 69.96C290.795 67.12 291.895 65.54 294.095 65.22L293.855 63.78C293.095 63.78 292.515 63.82 292.115 63.9C291.755 63.94 291.315 64.18 290.795 64.62C290.275 65.02 289.835 65.66 289.475 66.54C288.555 66.38 287.515 65.7 286.355 64.5C286.075 65.02 285.735 65.46 285.335 65.82C284.975 66.14 284.555 66.38 284.075 66.54C282.515 64.62 279.995 63.66 276.515 63.66C273.035 63.66 270.555 64.62 269.075 66.54C268.155 66.38 267.375 65.7 266.735 64.5C265.775 65.54 264.775 66.22 263.735 66.54C263.375 65.66 262.915 65.02 262.355 64.62C261.835 64.18 261.375 63.94 260.975 63.9C260.575 63.82 260.015 63.78 259.295 63.78L259.055 65.22C260.175 65.38 260.995 65.86 261.515 66.66C262.075 67.42 262.355 68.5 262.355 69.9C262.355 71.3 261.815 72.76 260.735 74.28C259.695 75.76 258.435 76.5 256.955 76.5L256.115 76.26C256.635 78.34 257.675 79.38 259.235 79.38C260.835 79.38 262.535 78.7 264.335 77.34H264.695C266.055 78.7 267.415 79.38 268.775 79.38C270.575 79.38 272.135 78.34 273.455 76.26C273.135 76.42 272.775 76.5 272.375 76.5C270.135 76.5 269.015 75.34 269.015 73.02C269.015 70.7 269.775 68.88 271.295 67.56C272.815 66.2 274.575 65.52 276.575 65.52C278.575 65.52 280.335 66.2 281.855 67.56C283.375 68.88 284.135 70.7 284.135 73.02C284.135 75.34 283.015 76.5 280.775 76.5L279.635 76.26C280.915 78.34 282.495 79.38 284.375 79.38C285.775 79.38 287.135 78.7 288.455 77.34H288.815ZM271.115 60.6L274.355 45.6H278.795L282.155 60.6H271.115ZM278.495 51.9L276.935 59.04H280.115L278.495 51.9ZM364.919 43.74C368.039 46.9 369.599 50.82 369.599 55.5C369.599 60.18 368.359 63.68 365.879 66C363.439 68.28 360.079 69.42 355.799 69.42H352.799V70.26C351.239 70.26 350.219 70.54 349.739 71.1C349.299 71.66 349.079 72.56 349.079 73.8V74.7C349.359 74.7 349.599 74.54 349.799 74.22L351.479 75.3L354.479 78.9C354.239 80.78 353.559 82.2 352.439 83.16C351.319 84.12 349.959 84.6 348.359 84.6C346.799 84.6 345.259 84.06 343.739 82.98C342.219 84.06 340.639 84.6 338.999 84.6C337.399 84.6 335.559 83.64 333.479 81.72C331.399 79.8 330.239 77.66 329.999 75.3L331.679 74.22C331.839 74.58 332.219 74.76 332.819 74.76C334.539 74.76 335.399 73.26 335.399 70.26H334.679L331.679 66.66V62.28C333.319 62.28 334.479 62.34 335.159 62.46V51.06H333.479L330.479 47.46V39H352.019C357.499 39 361.799 40.58 364.919 43.74ZM338.519 64.26C338.919 64.02 339.399 63.54 339.959 62.82H341.519C342.039 63.54 342.519 64.02 342.959 64.26C343.639 63.34 344.439 62.78 345.359 62.58C346.319 62.38 347.799 62.28 349.799 62.28L351.359 64.14H352.259C360.619 64.14 364.799 60.06 364.799 51.9C364.799 49.42 364.119 47.1 362.759 44.94C361.919 43.66 360.539 42.64 358.619 41.88C356.739 41.08 354.399 40.68 351.599 40.68H332.159V45.78H336.959V62.94C337.519 63.22 338.039 63.66 338.519 64.26ZM344.639 45.78H348.419C354.139 45.78 356.999 48 356.999 52.44C356.999 54.8 356.299 56.74 354.899 58.26C353.539 59.78 351.399 60.54 348.479 60.54H344.639V45.78ZM340.919 77.34C342.359 78.58 343.939 79.2 345.659 79.2C347.419 79.2 348.699 78.2 349.499 76.2C349.219 76.36 348.899 76.44 348.539 76.44C345.739 76.44 344.339 74.38 344.339 70.26C344.339 66.9 345.659 65.22 348.299 65.22V63.72C347.539 63.72 346.959 63.76 346.559 63.84C346.159 63.88 345.659 64.12 345.059 64.56C344.459 65 343.919 65.66 343.439 66.54C342.479 66.34 341.579 65.64 340.739 64.44C339.899 65.52 338.999 66.22 338.039 66.54C337.519 65.66 336.959 65 336.359 64.56C335.759 64.12 335.259 63.88 334.859 63.84C334.459 63.76 333.899 63.72 333.179 63.72V65.22C335.819 65.22 337.139 66.9 337.139 70.26C337.139 73.3 336.499 75.2 335.219 75.96C334.619 76.28 333.859 76.44 332.939 76.44L331.979 76.2C332.779 78.2 334.039 79.2 335.759 79.2C337.519 79.2 339.119 78.58 340.559 77.34H340.919ZM351.239 51H349.319V58.8C353.319 58.48 355.319 56.36 355.319 52.44L355.259 51.54C354.499 51.18 353.159 51 351.239 51ZM379.132 39H408.532L411.532 42.6V50.94H408.412L410.632 62.34C410.992 62.3 411.552 62.28 412.312 62.28L415.312 65.88L416.032 70.2C413.872 70.2 412.792 71.16 412.792 73.08C412.792 74.24 412.932 74.82 413.212 74.82C413.892 74.82 414.272 74.62 414.352 74.22L416.272 75.36L419.272 78.96C419.272 80.88 418.792 82.3 417.832 83.22C416.912 84.14 415.712 84.6 414.232 84.6C412.792 84.6 411.132 84.1 409.252 83.1C407.772 84.1 406.332 84.6 404.932 84.6C402.732 84.6 400.652 83.62 398.692 81.66C396.772 79.7 395.472 77.6 394.792 75.36L396.232 74.22C396.552 74.62 397.012 74.82 397.612 74.82C398.932 74.82 399.592 74.04 399.592 72.48L399.412 71.1C398.652 70.7 397.712 70.5 396.592 70.5C395.512 70.5 394.472 70.82 393.472 71.46C392.472 72.1 391.792 73.02 391.432 74.22L392.872 75.36L395.872 78.96C395.312 80.84 394.372 82.24 393.052 83.16C391.772 84.12 390.392 84.6 388.912 84.6C387.472 84.6 385.952 84.1 384.352 83.1C382.552 84.1 380.892 84.6 379.372 84.6C377.292 84.6 375.452 83.6 373.852 81.6C372.292 79.6 371.512 77.52 371.512 75.36L373.372 74.22C373.452 74.62 373.832 74.82 374.512 74.82C375.232 74.82 375.912 74.34 376.552 73.38C377.232 72.42 377.652 71.36 377.812 70.2L374.632 66.6L375.352 62.28C377.072 62.28 378.372 62.4 379.252 62.64L381.652 50.4L379.132 47.34V39ZM401.392 64.32C401.752 64.04 402.152 63.54 402.592 62.82H404.152C404.792 63.58 405.372 64.08 405.892 64.32C406.052 64.04 406.372 63.7 406.852 63.3L403.432 45.6H406.852V40.68H380.812V45.6H384.232L380.752 63.3C381.232 63.66 381.592 64 381.832 64.32C382.312 64.04 382.872 63.54 383.512 62.82H385.072C385.392 63.58 385.732 64.08 386.092 64.32C387.612 62.8 390.172 62.04 393.772 62.04C397.412 62.04 399.952 62.8 401.392 64.32ZM406.072 77.34C407.832 78.7 409.512 79.38 411.112 79.38C412.752 79.38 413.832 78.34 414.352 76.26C414.152 76.42 413.872 76.5 413.512 76.5C411.992 76.5 410.692 75.76 409.612 74.28C408.572 72.76 408.052 71.32 408.052 69.96C408.052 67.12 409.152 65.54 411.352 65.22L411.112 63.78C410.352 63.78 409.772 63.82 409.372 63.9C409.012 63.94 408.572 64.18 408.052 64.62C407.532 65.02 407.092 65.66 406.732 66.54C405.812 66.38 404.772 65.7 403.612 64.5C403.332 65.02 402.992 65.46 402.592 65.82C402.232 66.14 401.812 66.38 401.332 66.54C399.772 64.62 397.252 63.66 393.772 63.66C390.292 63.66 387.812 64.62 386.332 66.54C385.412 66.38 384.632 65.7 383.992 64.5C383.032 65.54 382.032 66.22 380.992 66.54C380.632 65.66 380.172 65.02 379.612 64.62C379.092 64.18 378.632 63.94 378.232 63.9C377.832 63.82 377.272 63.78 376.552 63.78L376.312 65.22C377.432 65.38 378.252 65.86 378.772 66.66C379.332 67.42 379.612 68.5 379.612 69.9C379.612 71.3 379.072 72.76 377.992 74.28C376.952 75.76 375.692 76.5 374.212 76.5L373.372 76.26C373.892 78.34 374.932 79.38 376.492 79.38C378.092 79.38 379.792 78.7 381.592 77.34H381.952C383.312 78.7 384.672 79.38 386.032 79.38C387.832 79.38 389.392 78.34 390.712 76.26C390.392 76.42 390.032 76.5 389.632 76.5C387.392 76.5 386.272 75.34 386.272 73.02C386.272 70.7 387.032 68.88 388.552 67.56C390.072 66.2 391.832 65.52 393.832 65.52C395.832 65.52 397.592 66.2 399.112 67.56C400.632 68.88 401.392 70.7 401.392 73.02C401.392 75.34 400.272 76.5 398.032 76.5L396.892 76.26C398.172 78.34 399.752 79.38 401.632 79.38C403.032 79.38 404.392 78.7 405.712 77.34H406.072ZM388.372 60.6L391.612 45.6H396.052L399.412 60.6H388.372ZM395.752 51.9L394.192 59.04H397.372L395.752 51.9ZM445.752 70.26H445.032C443.472 70.26 442.472 70.54 442.032 71.1C441.632 71.66 441.432 72.56 441.432 73.8V74.7C441.672 74.58 441.872 74.42 442.032 74.22L446.712 78.9C446.472 80.78 445.792 82.2 444.672 83.16C443.552 84.12 442.232 84.6 440.712 84.6C439.192 84.6 437.632 84.06 436.032 82.98C434.432 84.06 432.872 84.6 431.352 84.6C429.192 84.6 427.212 83.58 425.412 81.54C423.612 79.54 422.572 77.46 422.292 75.3L423.972 74.22C424.172 74.58 424.612 74.76 425.292 74.76C425.972 74.76 426.492 74.5 426.852 73.98C427.252 73.42 427.472 72.88 427.512 72.36C427.592 71.84 427.632 71.14 427.632 70.26H426.972L423.972 66.66V62.28C425.612 62.28 426.772 62.34 427.452 62.46V51.06H425.772L422.772 47.46V39H444.312C449.792 39 454.092 40.58 457.212 43.74C460.332 46.9 461.892 50.92 461.892 55.8C461.892 60.68 460.372 64.3 457.332 66.66C458.652 68.7 459.312 71.1 459.312 73.86V74.7C459.592 74.58 459.812 74.42 459.972 74.22L461.592 75.3L464.592 78.9C464.392 80.9 463.652 82.34 462.372 83.22C461.092 84.14 459.092 84.6 456.372 84.6C453.652 84.6 451.192 83.42 448.992 81.06C446.832 78.74 445.752 75.76 445.752 72.12V70.26ZM448.992 64.26C449.472 63.98 449.972 63.5 450.492 62.82C450.892 62.82 451.172 62.84 451.332 62.88C455.172 61.12 457.092 57.46 457.092 51.9C457.092 49.94 456.752 48.26 456.072 46.86C455.432 45.42 454.652 44.32 453.732 43.56C452.852 42.76 451.552 42.08 449.832 41.52C448.152 40.96 446.172 40.68 443.892 40.68H424.452V45.78H429.252V62.94C429.852 63.26 430.372 63.7 430.812 64.26C431.212 64.02 431.692 63.54 432.252 62.82H433.812C434.332 63.54 434.832 64.02 435.312 64.26C436.192 63.1 437.452 62.46 439.092 62.34C439.692 62.3 440.672 62.28 442.032 62.28C443.432 62.28 444.452 62.3 445.092 62.34C446.812 62.46 448.112 63.1 448.992 64.26ZM440.532 63.72C439.812 63.72 439.252 63.76 438.852 63.84C438.492 63.88 438.012 64.12 437.412 64.56C436.812 65 436.272 65.66 435.792 66.54C434.792 66.34 433.872 65.64 433.032 64.44C432.192 65.52 431.272 66.22 430.272 66.54C429.792 65.66 429.252 65 428.652 64.56C428.052 64.12 427.552 63.88 427.152 63.84C426.792 63.76 426.272 63.72 425.592 63.72V65.22C428.152 65.22 429.432 66.9 429.432 70.26C429.432 71.5 429.352 72.52 429.192 73.32C429.072 74.08 428.692 74.8 428.052 75.48C427.412 76.12 426.492 76.44 425.292 76.44L424.392 76.2C425.192 78.2 426.452 79.2 428.172 79.2C429.892 79.2 431.452 78.58 432.852 77.34H433.212C434.612 78.58 436.152 79.2 437.832 79.2C439.552 79.2 440.852 78.2 441.732 76.2C441.532 76.36 441.092 76.44 440.412 76.44C439.732 76.44 439.092 76.28 438.492 75.96C437.932 75.6 437.532 75.1 437.292 74.46C436.892 73.38 436.692 71.98 436.692 70.26C436.692 66.9 437.972 65.22 440.532 65.22H443.652C446.252 65.22 447.552 66.9 447.552 70.26V71.82C447.552 76.74 449.632 79.2 453.792 79.2C455.912 79.2 457.392 78.84 458.232 78.12C459.032 77.48 459.492 76.84 459.612 76.2C459.372 76.36 459.072 76.44 458.712 76.44C457.072 76.44 455.992 75.88 455.472 74.76C454.952 73.64 454.692 72.06 454.692 70.02C454.692 67.06 453.512 65.2 451.152 64.44C450.392 65.52 449.512 66.22 448.512 66.54C447.992 65.66 447.432 65 446.832 64.56C446.232 64.12 445.732 63.88 445.332 63.84C444.932 63.76 444.372 63.72 443.652 63.72H440.532ZM436.932 45.78H440.712C446.432 45.78 449.292 48 449.292 52.44C449.292 54.8 448.592 56.74 447.192 58.26C445.832 59.78 443.692 60.54 440.772 60.54H436.932V45.78ZM443.532 51H441.612V58.8C445.612 58.48 447.612 56.36 447.612 52.44L447.552 51.54C446.792 51.18 445.452 51 443.532 51ZM492.425 51.06V62.28H492.905L495.905 65.88V70.26C494.345 70.26 493.325 70.54 492.845 71.1C492.405 71.66 492.185 72.56 492.185 73.8V74.7C492.465 74.7 492.705 74.54 492.905 74.22L494.585 75.3L497.585 78.9C497.345 80.78 496.665 82.2 495.545 83.16C494.425 84.12 493.065 84.6 491.465 84.6C489.905 84.6 488.365 84.06 486.845 82.98C485.325 84.06 483.745 84.6 482.105 84.6C480.505 84.6 478.665 83.64 476.585 81.72C474.505 79.8 473.345 77.66 473.105 75.3L474.785 74.22C474.945 74.58 475.325 74.76 475.925 74.76C477.645 74.76 478.505 73.26 478.505 70.26H477.785L474.785 66.66V62.28C476.425 62.28 477.585 62.34 478.265 62.46V51.06H476.525V57.24H469.565L466.565 53.64V39H501.125L504.125 42.6V57.24H497.525L494.525 53.64V51.06H492.425ZM481.625 64.26C482.025 64.02 482.505 63.54 483.065 62.82H484.625C485.145 63.54 485.625 64.02 486.065 64.26C486.465 63.7 486.985 63.26 487.625 62.94V45.78H496.025V51.96H499.445V40.68H468.245V51.96H471.845V45.78H480.065V62.94C480.625 63.22 481.145 63.66 481.625 64.26ZM484.025 77.34C485.465 78.58 487.045 79.2 488.765 79.2C490.525 79.2 491.805 78.2 492.605 76.2C492.325 76.36 492.005 76.44 491.645 76.44C488.845 76.44 487.445 74.38 487.445 70.26C487.445 66.9 488.765 65.22 491.405 65.22V63.72C490.645 63.72 490.065 63.76 489.665 63.84C489.265 63.88 488.765 64.12 488.165 64.56C487.565 65 487.025 65.66 486.545 66.54C485.585 66.34 484.685 65.64 483.845 64.44C483.005 65.52 482.105 66.22 481.145 66.54C480.625 65.66 480.065 65 479.465 64.56C478.865 64.12 478.365 63.88 477.965 63.84C477.565 63.76 477.005 63.72 476.285 63.72V65.22C478.925 65.22 480.245 66.9 480.245 70.26C480.245 73.3 479.605 75.2 478.325 75.96C477.725 76.28 476.965 76.44 476.045 76.44L475.085 76.2C475.885 78.2 477.145 79.2 478.865 79.2C480.625 79.2 482.225 78.58 483.665 77.34H484.025ZM515.894 62.28H517.634L511.694 51.06H508.754L505.754 47.46V39H523.514L526.394 42.48V39H544.094L547.094 42.6V51.06H543.014L535.874 64.5L537.014 65.88V70.26C535.454 70.26 534.434 70.54 533.954 71.1C533.514 71.66 533.294 72.56 533.294 73.8V74.7C533.574 74.7 533.814 74.54 534.014 74.22L535.694 75.3L538.694 78.9C538.454 80.78 537.774 82.2 536.654 83.16C535.534 84.12 534.174 84.6 532.574 84.6C531.014 84.6 529.474 84.06 527.954 82.98C526.434 84.06 524.854 84.6 523.214 84.6C521.614 84.6 519.774 83.64 517.694 81.72C515.614 79.8 514.454 77.66 514.214 75.3L515.894 74.22C516.054 74.58 516.434 74.76 517.034 74.76C518.754 74.76 519.614 73.26 519.614 70.26H518.894L515.894 66.66V62.28ZM522.734 64.26C523.134 64.02 523.614 63.54 524.174 62.82H525.734C526.254 63.54 526.734 64.02 527.174 64.26C527.854 63.3 528.854 62.7 530.174 62.46L538.814 45.78H542.414V40.68H528.074V45.78H531.734L526.034 58.14H523.874L518.114 45.78H521.834V40.68H507.434V45.78H511.034L519.614 62.46C520.974 62.7 522.014 63.3 522.734 64.26ZM525.134 77.34C526.574 78.58 528.154 79.2 529.874 79.2C531.634 79.2 532.914 78.2 533.714 76.2C533.434 76.36 533.114 76.44 532.754 76.44C529.954 76.44 528.554 74.38 528.554 70.26C528.554 66.9 529.874 65.22 532.514 65.22V63.72C531.754 63.72 531.174 63.76 530.774 63.84C530.374 63.88 529.874 64.12 529.274 64.56C528.674 65 528.134 65.66 527.654 66.54C526.694 66.34 525.794 65.64 524.954 64.44C524.114 65.52 523.214 66.22 522.254 66.54C521.734 65.66 521.174 65 520.574 64.56C519.974 64.12 519.474 63.88 519.074 63.84C518.674 63.76 518.114 63.72 517.394 63.72V65.22C520.034 65.22 521.354 66.9 521.354 70.26C521.354 73.3 520.714 75.2 519.434 75.96C518.834 76.28 518.074 76.44 517.154 76.44L516.194 76.2C516.994 78.2 518.254 79.2 519.974 79.2C521.734 79.2 523.334 78.58 524.774 77.34H525.134ZM526.514 51.06H523.934L525.674 55.14L528.074 49.5L526.514 47.64V51.06Z" fill="#FF38D1"/>
<rect x="704" y="31" width="59" height="59" fill="#3EFCFF"/>
<rect x="790" y="31" width="59" height="59" fill="#44F01B"/>
<rect x="876" y="31" width="59" height="59" fill="#FF8B00"/>
<rect x="962" y="31" width="59" height="59" fill="#FFFE36"/>
<path d="M628.669 35.2328L627.355 31.1533L625.838 35.1621L622.714 43.4212L611.06 31.5281L607.201 27.5899L608.533 32.9403L613.361 52.334L599.424 51.9857L594.519 51.8631L598.517 54.7074L606.297 60.2432L597.17 65.5148L593.726 67.5044L597.626 68.2846L612.206 71.2005L607.7 83.1124L606.1 87.341L609.91 84.9073L619.885 78.5359L624.07 95.348L625.278 100.2L626.94 95.4843L632.733 79.0522L642.092 85.7116L645.776 88.3326L644.39 84.0294L642.188 77.1973L654.361 79.6318L659.131 80.5859L655.726 77.1111L642.787 63.9066L654.98 56.1186L659.114 53.4775L654.21 53.3549L641.899 53.0473L646.467 40.0896L647.816 36.2623L644.302 38.292L631.952 45.425L628.669 35.2328Z" fill="#FFFE36" stroke="#FF8B00" stroke-width="3"/>
<path d="M628.442 16.9538L626.56 11.7158L624.678 16.9538L619.169 32.2849L597.236 11.5467L591.96 6.55842L593.937 13.5447L603.556 47.5278H578.007H571.32L576.909 51.1994L591.694 60.9128L574.977 70.8679L570.306 73.6491L575.666 74.5581L602.352 79.0845L594.67 100.463L592.645 106.1L597.651 102.811L615.824 90.8721L624.222 120.545L625.99 126.793L628.044 120.632L637.844 91.2315L655.469 102.811L660.475 106.1L658.45 100.463L653.91 87.8292L676.666 91.6888L683.162 92.7907L678.374 88.2637L654.358 65.5563L676.211 51.1994L681.8 47.5278H675.113H652.411L660.18 24.2198L661.881 19.1168L657.26 21.8689L634.977 35.1384L628.442 16.9538Z" stroke="#FE3D03" stroke-width="4"/>
</svg>
