<svg width="1085" height="137" viewBox="0 0 1085 137" fill="none" xmlns="http://www.w3.org/2000/svg">
    <mask id="path-1-outside-1_1851_1835" maskUnits="userSpaceOnUse" x="0" y="0" width="1085"
        height="137" fill="black">
        <rect fill="white" width="1085" height="137" />
        <path
            d="M0 61C0 27.3106 27.3106 0 61 0H1024C1057.69 0 1085 27.3106 1085 61C1085 94.6894 1057.69 122 1024 122H61C27.3106 122 0 94.6894 0 61Z" />
    </mask>
    <path
        d="M0 61C0 27.3106 27.3106 0 61 0H1024C1057.69 0 1085 27.3106 1085 61C1085 94.6894 1057.69 122 1024 122H61C27.3106 122 0 94.6894 0 61Z"
        fill="#417FBF" />
    <path
        d="M0 0H1085H0ZM1085 61C1085 102.974 1050.97 137 1009 137H76C34.0264 137 0 102.974 0 61C0 86.4051 27.3106 107 61 107H1024C1057.69 107 1085 86.4051 1085 61ZM0 122V0V122ZM1085 0V122V0Z"
        fill="#F7CF2F" mask="url(#path-1-outside-1_1851_1835)" />
    <mask id="path-3-outside-2_1851_1835" maskUnits="userSpaceOnUse" x="0" y="0" width="1085"
        height="137" fill="black">
        <rect fill="white" width="1085" height="137" />
        <path
            d="M0 61C0 27.3106 27.3106 0 61 0H1024C1057.69 0 1085 27.3106 1085 61C1085 94.6894 1057.69 122 1024 122H61C27.3106 122 0 94.6894 0 61Z" />
    </mask>
    <path
        d="M0 61C0 27.3106 27.3106 0 61 0H1024C1057.69 0 1085 27.3106 1085 61C1085 94.6894 1057.69 122 1024 122H61C27.3106 122 0 94.6894 0 61Z"
        fill="#386CA2" />
    <path
        d="M0 0H1085H0ZM1085 61C1085 102.974 1050.97 137 1009 137H76C34.0264 137 0 102.974 0 61C0 86.4051 27.3106 107 61 107H1024C1057.69 107 1085 86.4051 1085 61ZM0 122V0V122ZM1085 0V122V0Z"
        fill="#B08D00" mask="url(#path-3-outside-2_1851_1835)" />
    <mask id="path-5-outside-3_1851_1835" maskUnits="userSpaceOnUse" x="41" y="22" width="589"
        height="95" fill="black">
        <rect fill="white" x="41" y="22" width="589" height="95" />
        <path
            d="M73.975 90L63.475 70.5H61.9V90H47.2V37.125H70.375C74.625 37.125 78.225 37.875 81.175 39.375C84.125 40.825 86.35 42.85 87.85 45.45C89.35 48 90.1 50.875 90.1 54.075C90.1 57.675 89.1 60.85 87.1 63.6C85.15 66.3 82.275 68.225 78.475 69.375L90.4 90H73.975ZM61.9 60.45H69.175C71.175 60.45 72.675 59.975 73.675 59.025C74.675 58.075 75.175 56.7 75.175 54.9C75.175 53.2 74.65 51.875 73.6 50.925C72.6 49.925 71.125 49.425 69.175 49.425H61.9V60.45ZM136.985 68.475C136.985 69.625 136.91 70.775 136.76 71.925H108.935C109.085 74.225 109.71 75.95 110.81 77.1C111.96 78.2 113.41 78.75 115.16 78.75C117.61 78.75 119.36 77.65 120.41 75.45H136.085C135.435 78.35 134.16 80.95 132.26 83.25C130.41 85.5 128.06 87.275 125.21 88.575C122.36 89.875 119.21 90.525 115.76 90.525C111.61 90.525 107.91 89.65 104.66 87.9C101.46 86.15 98.935 83.65 97.085 80.4C95.285 77.15 94.385 73.325 94.385 68.925C94.385 64.525 95.285 60.725 97.085 57.525C98.885 54.275 101.385 51.775 104.585 50.025C107.835 48.275 111.56 47.4 115.76 47.4C119.91 47.4 123.585 48.25 126.785 49.95C129.985 51.65 132.485 54.1 134.285 57.3C136.085 60.45 136.985 64.175 136.985 68.475ZM121.985 64.8C121.985 63 121.385 61.6 120.185 60.6C118.985 59.55 117.485 59.025 115.685 59.025C113.885 59.025 112.41 59.525 111.26 60.525C110.11 61.475 109.36 62.9 109.01 64.8H121.985ZM140.601 68.925C140.601 64.575 141.376 60.775 142.926 57.525C144.526 54.275 146.701 51.775 149.451 50.025C152.201 48.275 155.251 47.4 158.601 47.4C161.301 47.4 163.701 47.975 165.801 49.125C167.951 50.225 169.626 51.75 170.826 53.7V34.5H185.601V90H170.826V84.15C169.676 86.1 168.051 87.65 165.951 88.8C163.851 89.95 161.376 90.525 158.526 90.525C155.176 90.525 152.126 89.65 149.376 87.9C146.676 86.15 144.526 83.65 142.926 80.4C141.376 77.1 140.601 73.275 140.601 68.925ZM170.901 68.925C170.901 66.225 170.151 64.1 168.651 62.55C167.201 61 165.401 60.225 163.251 60.225C161.051 60.225 159.226 61 157.776 62.55C156.326 64.05 155.601 66.175 155.601 68.925C155.601 71.625 156.326 73.775 157.776 75.375C159.226 76.925 161.051 77.7 163.251 77.7C165.401 77.7 167.201 76.925 168.651 75.375C170.151 73.825 170.901 71.675 170.901 68.925ZM234.177 68.475C234.177 69.625 234.102 70.775 233.952 71.925H206.127C206.277 74.225 206.902 75.95 208.002 77.1C209.152 78.2 210.602 78.75 212.352 78.75C214.802 78.75 216.552 77.65 217.602 75.45H233.277C232.627 78.35 231.352 80.95 229.452 83.25C227.602 85.5 225.252 87.275 222.402 88.575C219.552 89.875 216.402 90.525 212.952 90.525C208.802 90.525 205.102 89.65 201.852 87.9C198.652 86.15 196.127 83.65 194.277 80.4C192.477 77.15 191.577 73.325 191.577 68.925C191.577 64.525 192.477 60.725 194.277 57.525C196.077 54.275 198.577 51.775 201.777 50.025C205.027 48.275 208.752 47.4 212.952 47.4C217.102 47.4 220.777 48.25 223.977 49.95C227.177 51.65 229.677 54.1 231.477 57.3C233.277 60.45 234.177 64.175 234.177 68.475ZM219.177 64.8C219.177 63 218.577 61.6 217.377 60.6C216.177 59.55 214.677 59.025 212.877 59.025C211.077 59.025 209.602 59.525 208.452 60.525C207.302 61.475 206.552 62.9 206.202 64.8H219.177ZM258.118 90.525C254.318 90.525 250.918 89.9 247.918 88.65C244.968 87.35 242.618 85.6 240.868 83.4C239.168 81.15 238.218 78.625 238.018 75.825H252.268C252.468 77.175 253.093 78.225 254.143 78.975C255.193 79.725 256.493 80.1 258.043 80.1C259.243 80.1 260.193 79.85 260.893 79.35C261.593 78.85 261.943 78.2 261.943 77.4C261.943 76.35 261.368 75.575 260.218 75.075C259.068 74.575 257.168 74.025 254.518 73.425C251.518 72.825 249.018 72.15 247.018 71.4C245.018 70.65 243.268 69.425 241.768 67.725C240.318 66.025 239.593 63.725 239.593 60.825C239.593 58.325 240.268 56.075 241.618 54.075C242.968 52.025 244.943 50.4 247.543 49.2C250.193 48 253.368 47.4 257.068 47.4C262.568 47.4 266.893 48.75 270.043 51.45C273.193 54.15 275.018 57.7 275.518 62.1H262.243C261.993 60.75 261.393 59.725 260.443 59.025C259.543 58.275 258.318 57.9 256.768 57.9C255.568 57.9 254.643 58.125 253.993 58.575C253.393 59.025 253.093 59.65 253.093 60.45C253.093 61.45 253.668 62.225 254.818 62.775C255.968 63.275 257.818 63.8 260.368 64.35C263.418 65 265.943 65.725 267.943 66.525C269.993 67.325 271.768 68.625 273.268 70.425C274.818 72.175 275.593 74.575 275.593 77.625C275.593 80.075 274.868 82.275 273.418 84.225C272.018 86.175 269.993 87.725 267.343 88.875C264.743 89.975 261.668 90.525 258.118 90.525ZM290.245 44.025C287.645 44.025 285.545 43.325 283.945 41.925C282.395 40.475 281.62 38.675 281.62 36.525C281.62 34.325 282.395 32.5 283.945 31.05C285.545 29.6 287.645 28.875 290.245 28.875C292.795 28.875 294.845 29.6 296.395 31.05C297.995 32.5 298.795 34.325 298.795 36.525C298.795 38.675 297.995 40.475 296.395 41.925C294.845 43.325 292.795 44.025 290.245 44.025ZM297.52 47.925V90H282.82V47.925H297.52ZM321.416 47.4C324.266 47.4 326.741 47.975 328.841 49.125C330.991 50.275 332.641 51.825 333.791 53.775V47.925H348.491V89.55C348.491 93.5 347.741 97.05 346.241 100.2C344.741 103.4 342.391 105.95 339.191 107.85C336.041 109.75 332.041 110.7 327.191 110.7C320.691 110.7 315.491 109.175 311.591 106.125C307.691 103.075 305.466 98.925 304.916 93.675H319.391C319.691 95.025 320.441 96.075 321.641 96.825C322.841 97.575 324.391 97.95 326.291 97.95C331.291 97.95 333.791 95.15 333.791 89.55V84.15C332.641 86.1 330.991 87.65 328.841 88.8C326.741 89.95 324.266 90.525 321.416 90.525C318.066 90.525 315.016 89.65 312.266 87.9C309.566 86.15 307.416 83.65 305.816 80.4C304.266 77.1 303.491 73.275 303.491 68.925C303.491 64.575 304.266 60.775 305.816 57.525C307.416 54.275 309.566 51.775 312.266 50.025C315.016 48.275 318.066 47.4 321.416 47.4ZM333.791 68.925C333.791 66.225 333.041 64.1 331.541 62.55C330.091 61 328.291 60.225 326.141 60.225C323.941 60.225 322.116 61 320.666 62.55C319.216 64.05 318.491 66.175 318.491 68.925C318.491 71.625 319.216 73.775 320.666 75.375C322.116 76.925 323.941 77.7 326.141 77.7C328.291 77.7 330.091 76.925 331.541 75.375C333.041 73.825 333.791 71.675 333.791 68.925ZM384.393 47.55C389.243 47.55 393.093 49.175 395.943 52.425C398.793 55.625 400.218 59.975 400.218 65.475V90H385.518V67.425C385.518 65.025 384.893 63.15 383.643 61.8C382.393 60.4 380.718 59.7 378.618 59.7C376.418 59.7 374.693 60.4 373.443 61.8C372.193 63.15 371.568 65.025 371.568 67.425V90H356.868V47.925H371.568V53.925C372.868 52.025 374.618 50.5 376.818 49.35C379.018 48.15 381.543 47.55 384.393 47.55Z" />
        <path
            d="M456.389 54.525C455.539 53.125 454.364 52.05 452.864 51.3C451.414 50.55 449.689 50.175 447.689 50.175C443.989 50.175 441.064 51.375 438.914 53.775C436.814 56.175 435.764 59.4 435.764 63.45C435.764 68 436.889 71.475 439.139 73.875C441.439 76.225 444.764 77.4 449.114 77.4C454.264 77.4 457.939 75.075 460.139 70.425H445.364V59.85H472.814V74.1C471.664 76.9 469.964 79.525 467.714 81.975C465.514 84.425 462.714 86.45 459.314 88.05C455.914 89.6 452.039 90.375 447.689 90.375C442.389 90.375 437.689 89.25 433.589 87C429.539 84.7 426.389 81.525 424.139 77.475C421.939 73.375 420.839 68.7 420.839 63.45C420.839 58.25 421.939 53.625 424.139 49.575C426.389 45.475 429.539 42.3 433.589 40.05C437.639 37.75 442.314 36.6 447.614 36.6C454.264 36.6 459.764 38.2 464.114 41.4C468.464 44.6 471.164 48.975 472.214 54.525H456.389ZM504.752 90.525C499.802 90.525 495.252 89.375 491.102 87.075C486.952 84.725 483.652 81.5 481.202 77.4C478.802 73.25 477.602 68.575 477.602 63.375C477.602 58.175 478.802 53.525 481.202 49.425C483.652 45.275 486.952 42.05 491.102 39.75C495.252 37.45 499.802 36.3 504.752 36.3C509.752 36.3 514.302 37.45 518.402 39.75C522.552 42.05 525.827 45.275 528.227 49.425C530.627 53.525 531.827 58.175 531.827 63.375C531.827 68.575 530.627 73.25 528.227 77.4C525.827 81.5 522.552 84.725 518.402 87.075C514.252 89.375 509.702 90.525 504.752 90.525ZM504.752 76.875C508.502 76.875 511.452 75.65 513.602 73.2C515.802 70.75 516.902 67.475 516.902 63.375C516.902 59.175 515.802 55.875 513.602 53.475C511.452 51.025 508.502 49.8 504.752 49.8C500.952 49.8 497.977 51.025 495.827 53.475C493.677 55.875 492.602 59.175 492.602 63.375C492.602 67.525 493.677 70.825 495.827 73.275C497.977 75.675 500.952 76.875 504.752 76.875ZM553.135 78.75H569.56V90H538.435V37.125H553.135V78.75ZM596.201 37.125C601.751 37.125 606.601 38.25 610.751 40.5C614.951 42.7 618.176 45.8 620.426 49.8C622.676 53.8 623.801 58.375 623.801 63.525C623.801 68.625 622.651 73.175 620.351 77.175C618.101 81.175 614.876 84.325 610.676 86.625C606.526 88.875 601.701 90 596.201 90H575.276V37.125H596.201ZM595.076 77.025C599.376 77.025 602.751 75.85 605.201 73.5C607.651 71.15 608.876 67.825 608.876 63.525C608.876 59.175 607.651 55.825 605.201 53.475C602.751 51.075 599.376 49.875 595.076 49.875H589.976V77.025H595.076Z" />
    </mask>
    <path
        d="M73.975 90L63.475 70.5H61.9V90H47.2V37.125H70.375C74.625 37.125 78.225 37.875 81.175 39.375C84.125 40.825 86.35 42.85 87.85 45.45C89.35 48 90.1 50.875 90.1 54.075C90.1 57.675 89.1 60.85 87.1 63.6C85.15 66.3 82.275 68.225 78.475 69.375L90.4 90H73.975ZM61.9 60.45H69.175C71.175 60.45 72.675 59.975 73.675 59.025C74.675 58.075 75.175 56.7 75.175 54.9C75.175 53.2 74.65 51.875 73.6 50.925C72.6 49.925 71.125 49.425 69.175 49.425H61.9V60.45ZM136.985 68.475C136.985 69.625 136.91 70.775 136.76 71.925H108.935C109.085 74.225 109.71 75.95 110.81 77.1C111.96 78.2 113.41 78.75 115.16 78.75C117.61 78.75 119.36 77.65 120.41 75.45H136.085C135.435 78.35 134.16 80.95 132.26 83.25C130.41 85.5 128.06 87.275 125.21 88.575C122.36 89.875 119.21 90.525 115.76 90.525C111.61 90.525 107.91 89.65 104.66 87.9C101.46 86.15 98.935 83.65 97.085 80.4C95.285 77.15 94.385 73.325 94.385 68.925C94.385 64.525 95.285 60.725 97.085 57.525C98.885 54.275 101.385 51.775 104.585 50.025C107.835 48.275 111.56 47.4 115.76 47.4C119.91 47.4 123.585 48.25 126.785 49.95C129.985 51.65 132.485 54.1 134.285 57.3C136.085 60.45 136.985 64.175 136.985 68.475ZM121.985 64.8C121.985 63 121.385 61.6 120.185 60.6C118.985 59.55 117.485 59.025 115.685 59.025C113.885 59.025 112.41 59.525 111.26 60.525C110.11 61.475 109.36 62.9 109.01 64.8H121.985ZM140.601 68.925C140.601 64.575 141.376 60.775 142.926 57.525C144.526 54.275 146.701 51.775 149.451 50.025C152.201 48.275 155.251 47.4 158.601 47.4C161.301 47.4 163.701 47.975 165.801 49.125C167.951 50.225 169.626 51.75 170.826 53.7V34.5H185.601V90H170.826V84.15C169.676 86.1 168.051 87.65 165.951 88.8C163.851 89.95 161.376 90.525 158.526 90.525C155.176 90.525 152.126 89.65 149.376 87.9C146.676 86.15 144.526 83.65 142.926 80.4C141.376 77.1 140.601 73.275 140.601 68.925ZM170.901 68.925C170.901 66.225 170.151 64.1 168.651 62.55C167.201 61 165.401 60.225 163.251 60.225C161.051 60.225 159.226 61 157.776 62.55C156.326 64.05 155.601 66.175 155.601 68.925C155.601 71.625 156.326 73.775 157.776 75.375C159.226 76.925 161.051 77.7 163.251 77.7C165.401 77.7 167.201 76.925 168.651 75.375C170.151 73.825 170.901 71.675 170.901 68.925ZM234.177 68.475C234.177 69.625 234.102 70.775 233.952 71.925H206.127C206.277 74.225 206.902 75.95 208.002 77.1C209.152 78.2 210.602 78.75 212.352 78.75C214.802 78.75 216.552 77.65 217.602 75.45H233.277C232.627 78.35 231.352 80.95 229.452 83.25C227.602 85.5 225.252 87.275 222.402 88.575C219.552 89.875 216.402 90.525 212.952 90.525C208.802 90.525 205.102 89.65 201.852 87.9C198.652 86.15 196.127 83.65 194.277 80.4C192.477 77.15 191.577 73.325 191.577 68.925C191.577 64.525 192.477 60.725 194.277 57.525C196.077 54.275 198.577 51.775 201.777 50.025C205.027 48.275 208.752 47.4 212.952 47.4C217.102 47.4 220.777 48.25 223.977 49.95C227.177 51.65 229.677 54.1 231.477 57.3C233.277 60.45 234.177 64.175 234.177 68.475ZM219.177 64.8C219.177 63 218.577 61.6 217.377 60.6C216.177 59.55 214.677 59.025 212.877 59.025C211.077 59.025 209.602 59.525 208.452 60.525C207.302 61.475 206.552 62.9 206.202 64.8H219.177ZM258.118 90.525C254.318 90.525 250.918 89.9 247.918 88.65C244.968 87.35 242.618 85.6 240.868 83.4C239.168 81.15 238.218 78.625 238.018 75.825H252.268C252.468 77.175 253.093 78.225 254.143 78.975C255.193 79.725 256.493 80.1 258.043 80.1C259.243 80.1 260.193 79.85 260.893 79.35C261.593 78.85 261.943 78.2 261.943 77.4C261.943 76.35 261.368 75.575 260.218 75.075C259.068 74.575 257.168 74.025 254.518 73.425C251.518 72.825 249.018 72.15 247.018 71.4C245.018 70.65 243.268 69.425 241.768 67.725C240.318 66.025 239.593 63.725 239.593 60.825C239.593 58.325 240.268 56.075 241.618 54.075C242.968 52.025 244.943 50.4 247.543 49.2C250.193 48 253.368 47.4 257.068 47.4C262.568 47.4 266.893 48.75 270.043 51.45C273.193 54.15 275.018 57.7 275.518 62.1H262.243C261.993 60.75 261.393 59.725 260.443 59.025C259.543 58.275 258.318 57.9 256.768 57.9C255.568 57.9 254.643 58.125 253.993 58.575C253.393 59.025 253.093 59.65 253.093 60.45C253.093 61.45 253.668 62.225 254.818 62.775C255.968 63.275 257.818 63.8 260.368 64.35C263.418 65 265.943 65.725 267.943 66.525C269.993 67.325 271.768 68.625 273.268 70.425C274.818 72.175 275.593 74.575 275.593 77.625C275.593 80.075 274.868 82.275 273.418 84.225C272.018 86.175 269.993 87.725 267.343 88.875C264.743 89.975 261.668 90.525 258.118 90.525ZM290.245 44.025C287.645 44.025 285.545 43.325 283.945 41.925C282.395 40.475 281.62 38.675 281.62 36.525C281.62 34.325 282.395 32.5 283.945 31.05C285.545 29.6 287.645 28.875 290.245 28.875C292.795 28.875 294.845 29.6 296.395 31.05C297.995 32.5 298.795 34.325 298.795 36.525C298.795 38.675 297.995 40.475 296.395 41.925C294.845 43.325 292.795 44.025 290.245 44.025ZM297.52 47.925V90H282.82V47.925H297.52ZM321.416 47.4C324.266 47.4 326.741 47.975 328.841 49.125C330.991 50.275 332.641 51.825 333.791 53.775V47.925H348.491V89.55C348.491 93.5 347.741 97.05 346.241 100.2C344.741 103.4 342.391 105.95 339.191 107.85C336.041 109.75 332.041 110.7 327.191 110.7C320.691 110.7 315.491 109.175 311.591 106.125C307.691 103.075 305.466 98.925 304.916 93.675H319.391C319.691 95.025 320.441 96.075 321.641 96.825C322.841 97.575 324.391 97.95 326.291 97.95C331.291 97.95 333.791 95.15 333.791 89.55V84.15C332.641 86.1 330.991 87.65 328.841 88.8C326.741 89.95 324.266 90.525 321.416 90.525C318.066 90.525 315.016 89.65 312.266 87.9C309.566 86.15 307.416 83.65 305.816 80.4C304.266 77.1 303.491 73.275 303.491 68.925C303.491 64.575 304.266 60.775 305.816 57.525C307.416 54.275 309.566 51.775 312.266 50.025C315.016 48.275 318.066 47.4 321.416 47.4ZM333.791 68.925C333.791 66.225 333.041 64.1 331.541 62.55C330.091 61 328.291 60.225 326.141 60.225C323.941 60.225 322.116 61 320.666 62.55C319.216 64.05 318.491 66.175 318.491 68.925C318.491 71.625 319.216 73.775 320.666 75.375C322.116 76.925 323.941 77.7 326.141 77.7C328.291 77.7 330.091 76.925 331.541 75.375C333.041 73.825 333.791 71.675 333.791 68.925ZM384.393 47.55C389.243 47.55 393.093 49.175 395.943 52.425C398.793 55.625 400.218 59.975 400.218 65.475V90H385.518V67.425C385.518 65.025 384.893 63.15 383.643 61.8C382.393 60.4 380.718 59.7 378.618 59.7C376.418 59.7 374.693 60.4 373.443 61.8C372.193 63.15 371.568 65.025 371.568 67.425V90H356.868V47.925H371.568V53.925C372.868 52.025 374.618 50.5 376.818 49.35C379.018 48.15 381.543 47.55 384.393 47.55Z"
        fill="#AFC9E4" />
    <path
        d="M456.389 54.525C455.539 53.125 454.364 52.05 452.864 51.3C451.414 50.55 449.689 50.175 447.689 50.175C443.989 50.175 441.064 51.375 438.914 53.775C436.814 56.175 435.764 59.4 435.764 63.45C435.764 68 436.889 71.475 439.139 73.875C441.439 76.225 444.764 77.4 449.114 77.4C454.264 77.4 457.939 75.075 460.139 70.425H445.364V59.85H472.814V74.1C471.664 76.9 469.964 79.525 467.714 81.975C465.514 84.425 462.714 86.45 459.314 88.05C455.914 89.6 452.039 90.375 447.689 90.375C442.389 90.375 437.689 89.25 433.589 87C429.539 84.7 426.389 81.525 424.139 77.475C421.939 73.375 420.839 68.7 420.839 63.45C420.839 58.25 421.939 53.625 424.139 49.575C426.389 45.475 429.539 42.3 433.589 40.05C437.639 37.75 442.314 36.6 447.614 36.6C454.264 36.6 459.764 38.2 464.114 41.4C468.464 44.6 471.164 48.975 472.214 54.525H456.389ZM504.752 90.525C499.802 90.525 495.252 89.375 491.102 87.075C486.952 84.725 483.652 81.5 481.202 77.4C478.802 73.25 477.602 68.575 477.602 63.375C477.602 58.175 478.802 53.525 481.202 49.425C483.652 45.275 486.952 42.05 491.102 39.75C495.252 37.45 499.802 36.3 504.752 36.3C509.752 36.3 514.302 37.45 518.402 39.75C522.552 42.05 525.827 45.275 528.227 49.425C530.627 53.525 531.827 58.175 531.827 63.375C531.827 68.575 530.627 73.25 528.227 77.4C525.827 81.5 522.552 84.725 518.402 87.075C514.252 89.375 509.702 90.525 504.752 90.525ZM504.752 76.875C508.502 76.875 511.452 75.65 513.602 73.2C515.802 70.75 516.902 67.475 516.902 63.375C516.902 59.175 515.802 55.875 513.602 53.475C511.452 51.025 508.502 49.8 504.752 49.8C500.952 49.8 497.977 51.025 495.827 53.475C493.677 55.875 492.602 59.175 492.602 63.375C492.602 67.525 493.677 70.825 495.827 73.275C497.977 75.675 500.952 76.875 504.752 76.875ZM553.135 78.75H569.56V90H538.435V37.125H553.135V78.75ZM596.201 37.125C601.751 37.125 606.601 38.25 610.751 40.5C614.951 42.7 618.176 45.8 620.426 49.8C622.676 53.8 623.801 58.375 623.801 63.525C623.801 68.625 622.651 73.175 620.351 77.175C618.101 81.175 614.876 84.325 610.676 86.625C606.526 88.875 601.701 90 596.201 90H575.276V37.125H596.201ZM595.076 77.025C599.376 77.025 602.751 75.85 605.201 73.5C607.651 71.15 608.876 67.825 608.876 63.525C608.876 59.175 607.651 55.825 605.201 53.475C602.751 51.075 599.376 49.875 595.076 49.875H589.976V77.025H595.076Z"
        fill="#B08D00" />
    <path
        d="M73.975 90L68.6922 92.8446L70.3912 96H73.975V90ZM63.475 70.5L68.7578 67.6554L67.0588 64.5H63.475V70.5ZM61.9 70.5V64.5H55.9V70.5H61.9ZM61.9 90V96H67.9V90H61.9ZM47.2 90H41.2V96H47.2V90ZM47.2 37.125V31.125H41.2V37.125H47.2ZM81.175 39.375L78.4555 44.7233L78.4918 44.7417L78.5283 44.7597L81.175 39.375ZM87.85 45.45L82.6529 48.4483L82.6656 48.4703L82.6784 48.4921L87.85 45.45ZM87.1 63.6L82.2476 60.071L82.2417 60.079L82.2359 60.0871L87.1 63.6ZM78.475 69.375L76.7371 63.6322L69.4917 65.8249L73.2807 72.3782L78.475 69.375ZM90.4 90V96H100.8L95.5943 86.9968L90.4 90ZM61.9 60.45H55.9V66.45H61.9V60.45ZM73.675 59.025L69.5425 54.675L69.5425 54.675L73.675 59.025ZM73.6 50.925L69.3574 55.1676L69.4634 55.2736L69.5745 55.3742L73.6 50.925ZM61.9 49.425V43.425H55.9V49.425H61.9ZM73.975 90L79.2578 87.1554L68.7578 67.6554L63.475 70.5L58.1922 73.3446L68.6922 92.8446L73.975 90ZM63.475 70.5V64.5H61.9V70.5V76.5H63.475V70.5ZM61.9 70.5H55.9V90H61.9H67.9V70.5H61.9ZM61.9 90V84H47.2V90V96H61.9V90ZM47.2 90H53.2V37.125H47.2H41.2V90H47.2ZM47.2 37.125V43.125H70.375V37.125V31.125H47.2V37.125ZM70.375 37.125V43.125C73.9402 43.125 76.553 43.7559 78.4555 44.7233L81.175 39.375L83.8945 34.0267C79.897 31.9941 75.3098 31.125 70.375 31.125V37.125ZM81.175 39.375L78.5283 44.7597C80.5163 45.7368 81.804 46.9768 82.6529 48.4483L87.85 45.45L93.0471 42.4517C90.8961 38.7232 87.7337 35.9132 83.8217 33.9903L81.175 39.375ZM87.85 45.45L82.6784 48.4921C83.592 50.0452 84.1 51.8545 84.1 54.075H90.1H96.1C96.1 49.8955 95.108 45.9548 93.0216 42.4079L87.85 45.45ZM90.1 54.075H84.1C84.1 56.4861 83.4565 58.4087 82.2476 60.071L87.1 63.6L91.9524 67.129C94.7435 63.2913 96.1 58.8639 96.1 54.075H90.1ZM87.1 63.6L82.2359 60.0871C81.1954 61.5278 79.5284 62.7875 76.7371 63.6322L78.475 69.375L80.2129 75.1178C85.0216 73.6625 89.1046 71.0722 91.9641 67.1129L87.1 63.6ZM78.475 69.375L73.2807 72.3782L85.2057 93.0032L90.4 90L95.5943 86.9968L83.6693 66.3718L78.475 69.375ZM90.4 90V84H73.975V90V96H90.4V90ZM61.9 60.45V66.45H69.175V60.45V54.45H61.9V60.45ZM69.175 60.45V66.45C72.0252 66.45 75.2775 65.7785 77.8075 63.375L73.675 59.025L69.5425 54.675C69.6582 54.5651 69.7702 54.487 69.86 54.4358C69.9476 54.3859 69.9974 54.3709 69.9887 54.3737C69.9584 54.3833 69.7187 54.45 69.175 54.45V60.45ZM73.675 59.025L77.8075 63.375C80.3342 60.9746 81.175 57.8183 81.175 54.9H75.175H69.175C69.175 55.256 69.1244 55.3322 69.1612 55.2308C69.1808 55.1769 69.2201 55.0876 69.2895 54.98C69.3596 54.8713 69.4459 54.7668 69.5425 54.675L73.675 59.025ZM75.175 54.9H81.175C81.175 51.8744 80.1831 48.7898 77.6255 46.4758L73.6 50.925L69.5745 55.3742C69.5039 55.3103 69.427 55.2258 69.3559 55.1231C69.2849 55.0204 69.2352 54.9223 69.2032 54.8414C69.1388 54.6789 69.175 54.6641 69.175 54.9H75.175ZM73.6 50.925L77.8426 46.6824C75.3464 44.1862 72.101 43.425 69.175 43.425V49.425V55.425C69.6529 55.425 69.8342 55.4881 69.8175 55.4824C69.8041 55.4778 69.7422 55.4551 69.6511 55.3999C69.5582 55.3436 69.4558 55.2661 69.3574 55.1676L73.6 50.925ZM69.175 49.425V43.425H61.9V49.425V55.425H69.175V49.425ZM61.9 49.425H55.9V60.45H61.9H67.9V49.425H61.9ZM136.76 71.925V77.925H142.028L142.71 72.701L136.76 71.925ZM108.935 71.925V65.925H102.531L102.948 72.3155L108.935 71.925ZM110.81 77.1L106.474 81.2473L106.566 81.3437L106.663 81.4359L110.81 77.1ZM120.41 75.45V69.45H116.625L114.995 72.8656L120.41 75.45ZM136.085 75.45L141.94 76.7623L143.579 69.45H136.085V75.45ZM132.26 83.25L127.634 79.4287L127.625 79.4394L132.26 83.25ZM125.21 88.575L127.7 94.0339L125.21 88.575ZM104.66 87.9L101.781 93.1642L101.798 93.1736L101.815 93.1828L104.66 87.9ZM97.085 80.4L91.8362 83.307L91.8532 83.3377L91.8706 83.3682L97.085 80.4ZM97.085 57.525L102.314 60.4666L102.324 60.4493L102.334 60.432L97.085 57.525ZM104.585 50.025L101.74 44.7422L101.723 44.7514L101.706 44.7608L104.585 50.025ZM126.785 49.95L129.6 44.6513L129.6 44.6513L126.785 49.95ZM134.285 57.3L129.056 60.2416L129.065 60.2592L129.076 60.2768L134.285 57.3ZM121.985 64.8V70.8H127.985V64.8H121.985ZM120.185 60.6L116.234 65.1155L116.288 65.1631L116.344 65.2093L120.185 60.6ZM111.26 60.525L115.081 65.1508L115.14 65.1024L115.197 65.0526L111.26 60.525ZM109.01 64.8L103.109 63.713L101.804 70.8H109.01V64.8ZM136.985 68.475H130.985C130.985 69.3633 130.927 70.2541 130.81 71.149L136.76 71.925L142.71 72.701C142.893 71.2959 142.985 69.8867 142.985 68.475H136.985ZM136.76 71.925V65.925H108.935V71.925V77.925H136.76V71.925ZM108.935 71.925L102.948 72.3155C103.149 75.4064 104.044 78.7064 106.474 81.2473L110.81 77.1L115.146 72.9527C115.376 73.1936 115.021 73.0436 114.922 71.5345L108.935 71.925ZM110.81 77.1L106.663 81.4359C109.045 83.7147 112.033 84.75 115.16 84.75V78.75V72.75C115.037 72.75 114.96 72.7404 114.92 72.7336C114.882 72.727 114.874 72.7223 114.888 72.7275C114.902 72.733 114.923 72.7429 114.944 72.7559C114.964 72.7687 114.968 72.7748 114.957 72.7641L110.81 77.1ZM115.16 78.75V84.75C117.303 84.75 119.507 84.2597 121.503 83.0048C123.501 81.7488 124.9 79.9731 125.825 78.0344L120.41 75.45L114.995 72.8656C114.928 73.0067 114.892 73.04 114.916 73.0119C114.928 72.998 114.951 72.9726 114.987 72.941C115.024 72.9093 115.067 72.8763 115.117 72.8452C115.166 72.8141 115.214 72.7895 115.257 72.7711C115.3 72.7528 115.331 72.7434 115.346 72.7395C115.376 72.7316 115.324 72.75 115.16 72.75V78.75ZM120.41 75.45V81.45H136.085V75.45V69.45H120.41V75.45ZM136.085 75.45L130.23 74.1377C129.788 76.1127 128.935 77.8538 127.634 79.4287L132.26 83.25L136.886 87.0713C139.385 84.0462 141.082 80.5873 141.94 76.7623L136.085 75.45ZM132.26 83.25L127.625 79.4394C126.399 80.9315 124.803 82.166 122.72 83.1161L125.21 88.575L127.7 94.0339C131.317 92.384 134.421 90.0685 136.895 87.0606L132.26 83.25ZM125.21 88.575L122.72 83.1161C120.728 84.0248 118.439 84.525 115.76 84.525V90.525V96.525C119.981 96.525 123.992 95.7252 127.7 94.0339L125.21 88.575ZM115.76 90.525V84.525C112.478 84.525 109.776 83.8404 107.505 82.6172L104.66 87.9L101.815 93.1828C106.044 95.4596 110.742 96.525 115.76 96.525V90.525ZM104.66 87.9L107.539 82.6358C105.341 81.4338 103.614 79.7405 102.299 77.4318L97.085 80.4L91.8706 83.3682C94.2564 87.5595 97.579 90.8662 101.781 93.1642L104.66 87.9ZM97.085 80.4L102.334 77.493C101.11 75.2836 100.385 72.4957 100.385 68.925H94.385H88.385C88.385 74.1543 89.4599 79.0164 91.8362 83.307L97.085 80.4ZM94.385 68.925H100.385C100.385 65.3511 101.111 62.6058 102.314 60.4666L97.085 57.525L91.8555 54.5834C89.4588 58.8442 88.385 63.6989 88.385 68.925H94.385ZM97.085 57.525L102.334 60.432C103.594 58.1568 105.281 56.4832 107.464 55.2892L104.585 50.025L101.706 44.7608C97.4893 47.0668 94.1761 50.3932 91.8362 54.618L97.085 57.525ZM104.585 50.025L107.43 55.3078C109.691 54.0901 112.414 53.4 115.76 53.4V47.4V41.4C110.705 41.4 105.979 42.4599 101.74 44.7422L104.585 50.025ZM115.76 47.4V53.4C119.072 53.4 121.756 54.0722 123.97 55.2487L126.785 49.95L129.6 44.6513C125.414 42.4278 120.748 41.4 115.76 41.4V47.4ZM126.785 49.95L123.97 55.2487C126.142 56.4026 127.81 58.028 129.056 60.2416L134.285 57.3L139.514 54.3584C137.16 50.172 133.828 46.8974 129.6 44.6513L126.785 49.95ZM134.285 57.3L129.076 60.2768C130.269 62.3654 130.985 65.025 130.985 68.475H136.985H142.985C142.985 63.325 141.901 58.5346 139.494 54.3232L134.285 57.3ZM121.985 64.8H127.985C127.985 61.5224 126.811 58.3114 124.026 55.9907L120.185 60.6L116.344 65.2093C116.301 65.1736 116.238 65.1126 116.172 65.025C116.106 64.9369 116.055 64.8458 116.02 64.7635C115.947 64.5937 115.985 64.5671 115.985 64.8H121.985ZM120.185 60.6L124.136 56.0845C121.7 53.9534 118.738 53.025 115.685 53.025V59.025V65.025C115.998 65.025 116.143 65.0698 116.178 65.0819C116.202 65.0903 116.209 65.0936 116.234 65.1155L120.185 60.6ZM115.685 59.025V53.025C112.714 53.025 109.757 53.8812 107.323 55.9974L111.26 60.525L115.197 65.0526C115.19 65.0587 115.177 65.0689 115.16 65.0782C115.144 65.0874 115.14 65.0876 115.155 65.0824C115.184 65.0726 115.34 65.025 115.685 65.025V59.025ZM111.26 60.525L107.439 55.8992C104.914 57.985 103.638 60.8424 103.109 63.713L109.01 64.8L114.911 65.887C114.997 65.4177 115.101 65.1826 115.144 65.1007C115.179 65.0347 115.166 65.0808 115.081 65.1508L111.26 60.525ZM109.01 64.8V70.8H121.985V64.8V58.8H109.01V64.8ZM142.926 57.525L137.543 54.8749L137.526 54.9084L137.51 54.9422L142.926 57.525ZM149.451 50.025L146.23 44.963V44.963L149.451 50.025ZM165.801 49.125L162.919 54.3876L162.993 54.4281L163.068 54.4665L165.801 49.125ZM170.826 53.7L165.716 56.8446L176.826 74.8982V53.7H170.826ZM170.826 34.5V28.5H164.826V34.5H170.826ZM185.601 34.5H191.601V28.5H185.601V34.5ZM185.601 90V96H191.601V90H185.601ZM170.826 90H164.826V96H170.826V90ZM170.826 84.15H176.826V62.1647L165.658 81.1021L170.826 84.15ZM165.951 88.8L163.069 83.5374L165.951 88.8ZM149.376 87.9L146.112 92.9349L146.133 92.9485L146.155 92.962L149.376 87.9ZM142.926 80.4L137.495 82.9508L137.518 83.0007L137.543 83.0501L142.926 80.4ZM168.651 62.55L164.269 66.6489L164.304 66.686L164.339 66.7225L168.651 62.55ZM157.776 62.55L162.09 66.7201L162.124 66.6848L162.157 66.6489L157.776 62.55ZM157.776 75.375L153.33 79.4041L153.362 79.4393L153.394 79.4739L157.776 75.375ZM168.651 75.375L164.339 71.2025L164.304 71.239L164.269 71.2761L168.651 75.375ZM140.601 68.925H146.601C146.601 65.2856 147.248 62.4008 148.341 60.1078L142.926 57.525L137.51 54.9422C135.504 59.1492 134.601 63.8644 134.601 68.925H140.601ZM142.926 57.525L148.309 60.1751C149.479 57.799 150.951 56.1822 152.672 55.087L149.451 50.025L146.23 44.963C142.451 47.3678 139.573 50.751 137.543 54.8749L142.926 57.525ZM149.451 50.025L152.672 55.087C154.432 53.9673 156.358 53.4 158.601 53.4V47.4V41.4C154.143 41.4 149.97 42.5827 146.23 44.963L149.451 50.025ZM158.601 47.4V53.4C160.424 53.4 161.81 53.7805 162.919 54.3876L165.801 49.125L168.683 43.8624C165.591 42.1695 162.177 41.4 158.601 41.4V47.4ZM165.801 49.125L163.068 54.4665C164.295 55.0944 165.124 55.8829 165.716 56.8446L170.826 53.7L175.936 50.5554C174.128 47.6171 171.606 45.3556 168.534 43.7835L165.801 49.125ZM170.826 53.7H176.826V34.5H170.826H164.826V53.7H170.826ZM170.826 34.5V40.5H185.601V34.5V28.5H170.826V34.5ZM185.601 34.5H179.601V90H185.601H191.601V34.5H185.601ZM185.601 90V84H170.826V90V96H185.601V90ZM170.826 90H176.826V84.15H170.826H164.826V90H170.826ZM170.826 84.15L165.658 81.1021C165.088 82.0672 164.278 82.8752 163.069 83.5374L165.951 88.8L168.833 94.0626C171.823 92.4248 174.263 90.1328 175.994 87.1979L170.826 84.15ZM165.951 88.8L163.069 83.5374C162.006 84.1193 160.56 84.525 158.526 84.525V90.525V96.525C162.192 96.525 165.695 95.7807 168.833 94.0626L165.951 88.8ZM158.526 90.525V84.525C156.283 84.525 154.357 83.9577 152.597 82.838L149.376 87.9L146.155 92.962C149.895 95.3423 154.068 96.525 158.526 96.525V90.525ZM149.376 87.9L152.639 82.8651C150.958 81.7757 149.492 80.1534 148.309 77.7499L142.926 80.4L137.543 83.0501C139.56 87.1466 142.393 90.5243 146.112 92.9349L149.376 87.9ZM142.926 80.4L148.357 77.8492C147.247 75.4866 146.601 72.5614 146.601 68.925H140.601H134.601C134.601 73.9886 135.505 78.7134 137.495 82.9508L142.926 80.4ZM170.901 68.925H176.901C176.901 65.0796 175.801 61.3111 172.962 58.3775L168.651 62.55L164.339 66.7225C164.5 66.8889 164.901 67.3704 164.901 68.925H170.901ZM168.651 62.55L173.032 58.4511C170.431 55.6706 167.037 54.225 163.251 54.225V60.225V66.225C163.765 66.225 163.97 66.3294 164.269 66.6489L168.651 62.55ZM163.251 60.225V54.225C159.459 54.225 156.025 55.6392 153.394 58.4511L157.776 62.55L162.157 66.6489C162.427 66.3608 162.643 66.225 163.251 66.225V60.225ZM157.776 62.55L153.462 58.3799C150.621 61.3188 149.601 65.1298 149.601 68.925H155.601H161.601C161.601 67.2202 162.031 66.7811 162.09 66.7201L157.776 62.55ZM155.601 68.925H149.601C149.601 72.7262 150.647 76.4432 153.33 79.4041L157.776 75.375L162.222 71.3459C162.005 71.1068 161.601 70.5238 161.601 68.925H155.601ZM157.776 75.375L153.394 79.4739C156.025 82.2858 159.459 83.7 163.251 83.7V77.7V71.7C162.643 71.7 162.427 71.5642 162.157 71.2761L157.776 75.375ZM163.251 77.7V83.7C167.037 83.7 170.431 82.2544 173.032 79.4739L168.651 75.375L164.269 71.2761C163.97 71.5956 163.765 71.7 163.251 71.7V77.7ZM168.651 75.375L172.962 79.5475C175.821 76.5939 176.901 72.7852 176.901 68.925H170.901H164.901C164.901 70.5648 164.481 71.0561 164.339 71.2025L168.651 75.375ZM233.952 71.925V77.925H239.221L239.902 72.701L233.952 71.925ZM206.127 71.925V65.925H199.723L200.14 72.3155L206.127 71.925ZM208.002 77.1L203.666 81.2473L203.759 81.3437L203.855 81.4359L208.002 77.1ZM217.602 75.45V69.45H213.818L212.187 72.8656L217.602 75.45ZM233.277 75.45L239.132 76.7623L240.771 69.45H233.277V75.45ZM229.452 83.25L224.827 79.4287L224.818 79.4394L229.452 83.25ZM222.402 88.575L224.892 94.0339L222.402 88.575ZM201.852 87.9L198.973 93.1642L198.991 93.1736L199.008 93.1828L201.852 87.9ZM194.277 80.4L189.029 83.307L189.046 83.3377L189.063 83.3682L194.277 80.4ZM194.277 57.525L199.507 60.4666L199.516 60.4493L199.526 60.432L194.277 57.525ZM201.777 50.025L198.933 44.7422L198.916 44.7514L198.898 44.7608L201.777 50.025ZM223.977 49.95L226.792 44.6513V44.6513L223.977 49.95ZM231.477 57.3L226.248 60.2416L226.258 60.2592L226.268 60.2768L231.477 57.3ZM219.177 64.8V70.8H225.177V64.8H219.177ZM217.377 60.6L213.426 65.1155L213.481 65.1631L213.536 65.2093L217.377 60.6ZM208.452 60.525L212.274 65.1508L212.332 65.1024L212.389 65.0526L208.452 60.525ZM206.202 64.8L200.302 63.713L198.996 70.8H206.202V64.8ZM234.177 68.475H228.177C228.177 69.3633 228.119 70.2541 228.003 71.149L233.952 71.925L239.902 72.701C240.085 71.2959 240.177 69.8867 240.177 68.475H234.177ZM233.952 71.925V65.925H206.127V71.925V77.925H233.952V71.925ZM206.127 71.925L200.14 72.3155C200.342 75.4064 201.236 78.7064 203.666 81.2473L208.002 77.1L212.338 72.9527C212.569 73.1936 212.213 73.0436 212.115 71.5345L206.127 71.925ZM208.002 77.1L203.855 81.4359C206.237 83.7147 209.225 84.75 212.352 84.75V78.75V72.75C212.229 72.75 212.152 72.7404 212.112 72.7336C212.074 72.727 212.066 72.7223 212.08 72.7275C212.095 72.733 212.116 72.7429 212.136 72.7559C212.156 72.7687 212.161 72.7748 212.15 72.7641L208.002 77.1ZM212.352 78.75V84.75C214.495 84.75 216.699 84.2597 218.695 83.0048C220.694 81.7488 222.092 79.9731 223.017 78.0344L217.602 75.45L212.187 72.8656C212.12 73.0067 212.085 73.04 212.109 73.0119C212.12 72.998 212.144 72.9726 212.18 72.941C212.216 72.9093 212.26 72.8763 212.309 72.8452C212.359 72.8141 212.407 72.7895 212.45 72.7711C212.492 72.7528 212.523 72.7434 212.538 72.7395C212.569 72.7316 212.516 72.75 212.352 72.75V78.75ZM217.602 75.45V81.45H233.277V75.45V69.45H217.602V75.45ZM233.277 75.45L227.423 74.1377C226.98 76.1127 226.128 77.8538 224.827 79.4287L229.452 83.25L234.078 87.0713C236.577 84.0462 238.275 80.5873 239.132 76.7623L233.277 75.45ZM229.452 83.25L224.818 79.4394C223.591 80.9315 221.995 82.166 219.912 83.1161L222.402 88.575L224.892 94.0339C228.509 92.384 231.614 90.0685 234.087 87.0606L229.452 83.25ZM222.402 88.575L219.912 83.1161C217.92 84.0248 215.631 84.525 212.952 84.525V90.525V96.525C217.174 96.525 221.184 95.7252 224.892 94.0339L222.402 88.575ZM212.952 90.525V84.525C209.67 84.525 206.969 83.8404 204.697 82.6172L201.852 87.9L199.008 93.1828C203.236 95.4596 207.935 96.525 212.952 96.525V90.525ZM201.852 87.9L204.731 82.6358C202.533 81.4338 200.806 79.7405 199.492 77.4318L194.277 80.4L189.063 83.3682C191.449 87.5595 194.771 90.8662 198.973 93.1642L201.852 87.9ZM194.277 80.4L199.526 77.493C198.302 75.2836 197.577 72.4957 197.577 68.925H191.577H185.577C185.577 74.1543 186.652 79.0164 189.029 83.307L194.277 80.4ZM191.577 68.925H197.577C197.577 65.3511 198.303 62.6058 199.507 60.4666L194.277 57.525L189.048 54.5834C186.651 58.8442 185.577 63.6989 185.577 68.925H191.577ZM194.277 57.525L199.526 60.432C200.786 58.1568 202.473 56.4832 204.656 55.2892L201.777 50.025L198.898 44.7608C194.682 47.0668 191.368 50.3932 189.029 54.618L194.277 57.525ZM201.777 50.025L204.622 55.3078C206.883 54.0901 209.607 53.4 212.952 53.4V47.4V41.4C207.898 41.4 203.171 42.4599 198.933 44.7422L201.777 50.025ZM212.952 47.4V53.4C216.265 53.4 218.948 54.0722 221.162 55.2487L223.977 49.95L226.792 44.6513C222.607 42.4278 217.94 41.4 212.952 41.4V47.4ZM223.977 49.95L221.162 55.2487C223.335 56.4026 225.003 58.028 226.248 60.2416L231.477 57.3L236.707 54.3584C234.352 50.172 231.02 46.8974 226.792 44.6513L223.977 49.95ZM231.477 57.3L226.268 60.2768C227.461 62.3654 228.177 65.025 228.177 68.475H234.177H240.177C240.177 63.325 239.093 58.5346 236.687 54.3232L231.477 57.3ZM219.177 64.8H225.177C225.177 61.5224 224.003 58.3114 221.218 55.9907L217.377 60.6L213.536 65.2093C213.493 65.1736 213.431 65.1126 213.365 65.025C213.299 64.9369 213.248 64.8458 213.212 64.7635C213.14 64.5937 213.177 64.5671 213.177 64.8H219.177ZM217.377 60.6L221.328 56.0845C218.893 53.9534 215.93 53.025 212.877 53.025V59.025V65.025C213.191 65.025 213.336 65.0698 213.37 65.0819C213.394 65.0903 213.401 65.0936 213.426 65.1155L217.377 60.6ZM212.877 59.025V53.025C209.907 53.025 206.949 53.8812 204.515 55.9974L208.452 60.525L212.389 65.0526C212.382 65.0587 212.369 65.0689 212.353 65.0782C212.337 65.0874 212.332 65.0876 212.347 65.0824C212.376 65.0726 212.532 65.025 212.877 65.025V59.025ZM208.452 60.525L204.631 55.8992C202.106 57.985 200.83 60.8424 200.302 63.713L206.202 64.8L212.103 65.887C212.19 65.4177 212.294 65.1826 212.337 65.1007C212.372 65.0347 212.358 65.0808 212.274 65.1508L208.452 60.525ZM206.202 64.8V70.8H219.177V64.8V58.8H206.202V64.8ZM247.918 88.65L245.499 94.1405L245.554 94.1651L245.61 94.1885L247.918 88.65ZM240.868 83.4L236.081 87.017L236.126 87.0766L236.173 87.1351L240.868 83.4ZM238.018 75.825V69.825H231.574L232.033 76.2525L238.018 75.825ZM252.268 75.825L258.203 74.9457L257.445 69.825H252.268V75.825ZM260.218 75.075L262.611 69.5726L260.218 75.075ZM254.518 73.425L255.843 67.5731L255.769 67.5564L255.695 67.5415L254.518 73.425ZM247.018 71.4L244.911 77.018L247.018 71.4ZM241.768 67.725L237.203 71.6187L237.236 71.657L237.269 71.6947L241.768 67.725ZM241.618 54.075L246.591 57.4318L246.61 57.4035L246.629 57.3749L241.618 54.075ZM247.543 49.2L245.068 43.7343L245.048 43.7432L245.029 43.7522L247.543 49.2ZM270.043 51.45L266.138 56.0055V56.0055L270.043 51.45ZM275.518 62.1V68.1H282.239L281.48 61.4225L275.518 62.1ZM262.243 62.1L256.343 63.1925L257.252 68.1H262.243V62.1ZM260.443 59.025L256.602 63.6343L256.74 63.749L256.884 63.8553L260.443 59.025ZM253.993 58.575L250.578 53.6418L250.484 53.7067L250.393 53.775L253.993 58.575ZM254.818 62.775L252.229 68.1878L252.327 68.2344L252.426 68.2774L254.818 62.775ZM260.368 64.35L259.103 70.2151L259.11 70.2167L259.118 70.2182L260.368 64.35ZM267.943 66.525L265.715 72.0959L265.738 72.1053L265.762 72.1145L267.943 66.525ZM273.268 70.425L268.659 74.2661L268.717 74.3355L268.777 74.4032L273.268 70.425ZM273.418 84.225L268.603 80.6448L268.573 80.685L268.544 80.7258L273.418 84.225ZM267.343 88.875L269.681 94.4008L269.706 94.3901L269.732 94.3791L267.343 88.875ZM258.118 90.525V84.525C254.978 84.525 252.382 84.0098 250.226 83.1115L247.918 88.65L245.61 94.1885C249.455 95.7902 253.658 96.525 258.118 96.525V90.525ZM247.918 88.65L250.338 83.1595C248.146 82.1936 246.625 80.9989 245.564 79.6649L240.868 83.4L236.173 87.1351C238.611 90.2011 241.79 92.5064 245.499 94.1405L247.918 88.65ZM240.868 83.4L245.655 79.783C244.651 78.4536 244.12 77.0353 244.003 75.3975L238.018 75.825L232.033 76.2525C232.316 80.2147 233.685 83.8464 236.081 87.017L240.868 83.4ZM238.018 75.825V81.825H252.268V75.825V69.825H238.018V75.825ZM252.268 75.825L246.333 76.7043C246.756 79.5618 248.197 82.1013 250.656 83.8574L254.143 78.975L257.631 74.0926C257.743 74.1726 257.907 74.3281 258.043 74.5561C258.105 74.661 258.146 74.7561 258.172 74.8308C258.197 74.9041 258.203 74.9461 258.203 74.9457L252.268 75.825ZM254.143 78.975L250.656 83.8574C252.914 85.4707 255.5 86.1 258.043 86.1V80.1V74.1C257.751 74.1 257.606 74.0646 257.569 74.0538C257.54 74.0457 257.575 74.0532 257.631 74.0926L254.143 78.975ZM258.043 80.1V86.1C260.014 86.1 262.332 85.6957 264.381 84.2324L260.893 79.35L257.406 74.4676C257.726 74.239 257.999 74.1443 258.129 74.1101C258.248 74.0787 258.237 74.1 258.043 74.1V80.1ZM260.893 79.35L264.381 84.2324C266.518 82.7055 267.943 80.3026 267.943 77.4H261.943H255.943C255.943 76.8922 256.063 76.2642 256.398 75.6429C256.724 75.037 257.132 74.6628 257.406 74.4676L260.893 79.35ZM261.943 77.4H267.943C267.943 75.7073 267.454 73.97 266.331 72.4562C265.256 71.0086 263.868 70.1192 262.611 69.5726L260.218 75.075L257.826 80.5774C257.719 80.5308 257.192 80.2789 256.693 79.6063C256.145 78.8675 255.943 78.0427 255.943 77.4H261.943ZM260.218 75.075L262.611 69.5726C260.908 68.8325 258.538 68.1832 255.843 67.5731L254.518 73.425L253.193 79.2769C255.799 79.8668 257.228 80.3175 257.826 80.5774L260.218 75.075ZM254.518 73.425L255.695 67.5415C252.888 66.9802 250.724 66.3817 249.125 65.782L247.018 71.4L244.911 77.018C247.312 77.9183 250.148 78.6698 253.341 79.3085L254.518 73.425ZM247.018 71.4L249.125 65.782C248.102 65.3984 247.158 64.7648 246.267 63.7553L241.768 67.725L237.269 71.6947C239.378 74.0852 241.934 75.9016 244.911 77.018L247.018 71.4ZM241.768 67.725L246.333 63.8313C246.056 63.5067 245.593 62.731 245.593 60.825H239.593H233.593C233.593 64.719 234.58 68.5433 237.203 71.6187L241.768 67.725ZM239.593 60.825H245.593C245.593 59.4756 245.936 58.403 246.591 57.4318L241.618 54.075L236.645 50.7182C234.601 53.7469 233.593 57.1744 233.593 60.825H239.593ZM241.618 54.075L246.629 57.3749C247.267 56.4063 248.302 55.4581 250.058 54.6478L247.543 49.2L245.029 43.7522C241.585 45.3418 238.669 47.6437 236.607 50.7751L241.618 54.075ZM247.543 49.2L250.018 54.6657C251.71 53.8998 253.998 53.4 257.068 53.4V47.4V41.4C252.739 41.4 248.677 42.1002 245.068 43.7343L247.543 49.2ZM257.068 47.4V53.4C261.608 53.4 264.387 54.5047 266.138 56.0055L270.043 51.45L273.948 46.8945C269.399 42.9953 263.528 41.4 257.068 41.4V47.4ZM270.043 51.45L266.138 56.0055C268.055 57.6486 269.215 59.7724 269.557 62.7775L275.518 62.1L281.48 61.4225C280.821 55.6276 278.331 50.6514 273.948 46.8945L270.043 51.45ZM275.518 62.1V56.1H262.243V62.1V68.1H275.518V62.1ZM262.243 62.1L268.143 61.0075C267.664 58.4216 266.378 55.9448 264.002 54.1947L260.443 59.025L256.884 63.8553C256.698 63.7186 256.537 63.5361 256.428 63.3498C256.327 63.1773 256.326 63.0959 256.343 63.1925L262.243 62.1ZM260.443 59.025L264.284 54.4157C262 52.5122 259.264 51.9 256.768 51.9V57.9V63.9C257.068 63.9 257.154 63.9372 257.093 63.9184C257.06 63.9082 256.991 63.8839 256.9 63.8355C256.807 63.7866 256.705 63.7201 256.602 63.6343L260.443 59.025ZM256.768 57.9V51.9C254.94 51.9 252.628 52.2227 250.578 53.6418L253.993 58.575L257.408 63.5082C257.019 63.778 256.703 63.8719 256.593 63.8988C256.489 63.924 256.528 63.9 256.768 63.9V57.9ZM253.993 58.575L250.393 53.775C248.169 55.4433 247.093 57.908 247.093 60.45H253.093H259.093C259.093 60.8106 259.022 61.3639 258.727 61.9776C258.426 62.6043 258 63.0699 257.593 63.375L253.993 58.575ZM253.093 60.45H247.093C247.093 64.435 249.682 66.9692 252.229 68.1878L254.818 62.775L257.407 57.3622C257.441 57.3786 257.891 57.5973 258.343 58.2062C258.852 58.8922 259.093 59.7124 259.093 60.45H253.093ZM254.818 62.775L252.426 68.2774C254.15 69.0271 256.487 69.6509 259.103 70.2151L260.368 64.35L261.633 58.4849C259.149 57.9491 257.786 57.5229 257.211 57.2726L254.818 62.775ZM260.368 64.35L259.118 70.2182C261.968 70.8256 264.138 71.465 265.715 72.0959L267.943 66.525L270.172 60.9541C267.749 59.985 264.869 59.1744 261.619 58.4818L260.368 64.35ZM267.943 66.525L265.762 72.1145C266.807 72.5222 267.764 73.1925 268.659 74.2661L273.268 70.425L277.877 66.5839C275.772 64.0575 273.18 62.1278 270.124 60.9355L267.943 66.525ZM273.268 70.425L268.777 74.4032C269.089 74.7564 269.593 75.5842 269.593 77.625H275.593H281.593C281.593 73.5658 280.547 69.5936 277.76 66.4468L273.268 70.425ZM275.593 77.625H269.593C269.593 78.7967 269.277 79.7389 268.603 80.6448L273.418 84.225L278.233 87.8052C280.459 84.8111 281.593 81.3533 281.593 77.625H275.593ZM273.418 84.225L268.544 80.7258C267.894 81.6314 266.813 82.5644 264.955 83.3709L267.343 88.875L269.732 94.3791C273.173 92.8856 276.142 90.7186 278.292 87.7242L273.418 84.225ZM267.343 88.875L265.005 83.3492C263.309 84.0669 261.065 84.525 258.118 84.525V90.525V96.525C262.272 96.525 266.177 95.8831 269.681 94.4008L267.343 88.875ZM283.945 41.925L279.846 46.3066L279.919 46.3748L279.994 46.4405L283.945 41.925ZM283.945 31.05L279.916 26.6041L279.881 26.6359L279.846 26.6684L283.945 31.05ZM296.395 31.05L292.296 35.4316L292.331 35.4641L292.366 35.4959L296.395 31.05ZM296.395 41.925L300.417 46.3776L300.424 46.3709L296.395 41.925ZM297.52 47.925H303.52V41.925H297.52V47.925ZM297.52 90V96H303.52V90H297.52ZM282.82 90H276.82V96H282.82V90ZM282.82 47.925V41.925H276.82V47.925H282.82ZM290.245 44.025V38.025C288.761 38.025 288.172 37.6512 287.896 37.4095L283.945 41.925L279.994 46.4405C282.918 48.9988 286.53 50.025 290.245 50.025V44.025ZM283.945 41.925L288.044 37.5434C287.725 37.2445 287.62 37.0387 287.62 36.525H281.62H275.62C275.62 40.3113 277.066 43.7055 279.846 46.3066L283.945 41.925ZM281.62 36.525H287.62C287.62 35.9172 287.756 35.7012 288.044 35.4316L283.945 31.05L279.846 26.6684C277.034 29.2988 275.62 32.7327 275.62 36.525H281.62ZM283.945 31.05L287.974 35.4959C288.254 35.2421 288.814 34.875 290.245 34.875V28.875V22.875C286.476 22.875 282.836 23.9579 279.916 26.6041L283.945 31.05ZM290.245 28.875V34.875C291.598 34.875 292.074 35.2239 292.296 35.4316L296.395 31.05L300.494 26.6684C297.616 23.9761 293.993 22.875 290.245 22.875V28.875ZM296.395 31.05L292.366 35.4959C292.684 35.7843 292.795 35.9823 292.795 36.525H298.795H304.795C304.795 32.6677 303.306 29.2157 300.424 26.6041L296.395 31.05ZM298.795 36.525H292.795C292.795 36.9729 292.717 37.1608 292.366 37.4791L296.395 41.925L300.424 46.3709C303.273 43.7892 304.795 40.3771 304.795 36.525H298.795ZM296.395 41.925L292.373 37.4724C292.157 37.6676 291.653 38.025 290.245 38.025V44.025V50.025C293.937 50.025 297.533 48.9824 300.417 46.3776L296.395 41.925ZM297.52 47.925H291.52V90H297.52H303.52V47.925H297.52ZM297.52 90V84H282.82V90V96H297.52V90ZM282.82 90H288.82V47.925H282.82H276.82V90H282.82ZM282.82 47.925V53.925H297.52V47.925V41.925H282.82V47.925ZM328.841 49.125L325.96 54.3876L325.985 54.4018L326.012 54.4157L328.841 49.125ZM333.791 53.775L328.623 56.8229L339.791 75.7603V53.775H333.791ZM333.791 47.925V41.925H327.791V47.925H333.791ZM348.491 47.925H354.491V41.925H348.491V47.925ZM346.241 100.2L340.824 97.6204L340.816 97.6369L340.809 97.6534L346.241 100.2ZM339.191 107.85L336.128 102.691L336.11 102.701L336.092 102.712L339.191 107.85ZM311.591 106.125L315.288 101.399L311.591 106.125ZM304.916 93.675V87.675H298.255L298.949 94.3002L304.916 93.675ZM319.391 93.675L325.249 92.3734L324.204 87.675H319.391V93.675ZM321.641 96.825L318.461 101.913L321.641 96.825ZM333.791 84.15H339.791V62.1647L328.623 81.1021L333.791 84.15ZM328.841 88.8L326.012 83.5093L325.985 83.5232L325.96 83.5374L328.841 88.8ZM312.266 87.9L309.003 92.9349L309.024 92.9485L309.045 92.962L312.266 87.9ZM305.816 80.4L300.386 82.9508L300.409 83.0007L300.433 83.0501L305.816 80.4ZM305.816 57.525L300.433 54.8749L300.417 54.9084L300.401 54.9422L305.816 57.525ZM312.266 50.025L309.045 44.963L309.024 44.9765L309.003 44.9901L312.266 50.025ZM331.541 62.55L327.16 66.6489L327.194 66.686L327.23 66.7225L331.541 62.55ZM320.666 62.55L324.98 66.7201L325.014 66.6848L325.048 66.6489L320.666 62.55ZM320.666 75.375L316.22 79.4041L316.252 79.4393L316.285 79.4739L320.666 75.375ZM331.541 75.375L327.23 71.2025L327.194 71.239L327.16 71.2761L331.541 75.375ZM321.416 47.4V53.4C323.451 53.4 324.897 53.8057 325.96 54.3876L328.841 49.125L331.723 43.8624C328.586 42.1443 325.082 41.4 321.416 41.4V47.4ZM328.841 49.125L326.012 54.4157C327.269 55.0882 328.075 55.8938 328.623 56.8229L333.791 53.775L338.96 50.7271C337.208 47.7562 334.714 45.4618 331.671 43.8343L328.841 49.125ZM333.791 53.775H339.791V47.925H333.791H327.791V53.775H333.791ZM333.791 47.925V53.925H348.491V47.925V41.925H333.791V47.925ZM348.491 47.925H342.491V89.55H348.491H354.491V47.925H348.491ZM348.491 89.55H342.491C342.491 92.7259 341.893 95.3767 340.824 97.6204L346.241 100.2L351.659 102.78C353.59 98.7233 354.491 94.2741 354.491 89.55H348.491ZM346.241 100.2L340.809 97.6534C339.847 99.7054 338.352 101.37 336.128 102.691L339.191 107.85L342.255 113.009C346.43 110.53 349.636 107.095 351.674 102.747L346.241 100.2ZM339.191 107.85L336.092 102.712C334.131 103.896 331.288 104.7 327.191 104.7V110.7V116.7C332.795 116.7 337.952 115.604 342.29 112.988L339.191 107.85ZM327.191 110.7V104.7C321.611 104.7 317.843 103.397 315.288 101.399L311.591 106.125L307.895 110.851C313.14 114.953 319.772 116.7 327.191 116.7V110.7ZM311.591 106.125L315.288 101.399C312.761 99.4228 311.277 96.8008 310.884 93.0499L304.916 93.675L298.949 94.3002C299.656 101.049 302.622 106.727 307.895 110.851L311.591 106.125ZM304.916 93.675V99.675H319.391V93.675V87.675H304.916V93.675ZM319.391 93.675L313.534 94.9766C314.192 97.937 315.933 100.333 318.461 101.913L321.641 96.825L324.821 91.737C324.818 91.7346 324.847 91.7527 324.895 91.7974C324.945 91.8431 325.003 91.9066 325.061 91.9876C325.188 92.1644 325.236 92.3189 325.249 92.3734L319.391 93.675ZM321.641 96.825L318.461 101.913C320.889 103.43 323.641 103.95 326.291 103.95V97.95V91.95C325.142 91.95 324.794 91.7197 324.821 91.737L321.641 96.825ZM326.291 97.95V103.95C329.903 103.95 333.659 102.907 336.392 99.8461C339.01 96.9142 339.791 93.1178 339.791 89.55H333.791H327.791C327.791 91.5822 327.323 91.9858 327.441 91.8539C327.507 91.7793 327.561 91.7714 327.474 91.804C327.352 91.8496 326.996 91.95 326.291 91.95V97.95ZM333.791 89.55H339.791V84.15H333.791H327.791V89.55H333.791ZM333.791 84.15L328.623 81.1021C328.075 82.0312 327.269 82.8368 326.012 83.5093L328.841 88.8L331.671 94.0907C334.714 92.4632 337.208 90.1688 338.96 87.1979L333.791 84.15ZM328.841 88.8L325.96 83.5374C324.897 84.1193 323.451 84.525 321.416 84.525V90.525V96.525C325.082 96.525 328.586 95.7807 331.723 94.0626L328.841 88.8ZM321.416 90.525V84.525C319.174 84.525 317.247 83.9577 315.488 82.838L312.266 87.9L309.045 92.962C312.786 95.3423 316.959 96.525 321.416 96.525V90.525ZM312.266 87.9L315.53 82.8651C313.849 81.7757 312.383 80.1534 311.199 77.7499L305.816 80.4L300.433 83.0501C302.45 87.1466 305.284 90.5243 309.003 92.9349L312.266 87.9ZM305.816 80.4L311.247 77.8492C310.138 75.4866 309.491 72.5614 309.491 68.925H303.491H297.491C297.491 73.9886 298.395 78.7134 300.386 82.9508L305.816 80.4ZM303.491 68.925H309.491C309.491 65.2856 310.138 62.4008 311.232 60.1078L305.816 57.525L300.401 54.9422C298.394 59.1492 297.491 63.8644 297.491 68.925H303.491ZM305.816 57.525L311.199 60.1751C312.383 57.7716 313.849 56.1493 315.53 55.0599L312.266 50.025L309.003 44.9901C305.284 47.4007 302.45 50.7784 300.433 54.8749L305.816 57.525ZM312.266 50.025L315.488 55.087C317.247 53.9673 319.174 53.4 321.416 53.4V47.4V41.4C316.959 41.4 312.786 42.5827 309.045 44.963L312.266 50.025ZM333.791 68.925H339.791C339.791 65.0796 338.692 61.3111 335.853 58.3775L331.541 62.55L327.23 66.7225C327.391 66.8889 327.791 67.3704 327.791 68.925H333.791ZM331.541 62.55L335.923 58.4511C333.322 55.6706 329.928 54.225 326.141 54.225V60.225V66.225C326.655 66.225 326.861 66.3294 327.16 66.6489L331.541 62.55ZM326.141 60.225V54.225C322.349 54.225 318.915 55.6392 316.285 58.4511L320.666 62.55L325.048 66.6489C325.318 66.3608 325.534 66.225 326.141 66.225V60.225ZM320.666 62.55L316.352 58.3799C313.511 61.3188 312.491 65.1298 312.491 68.925H318.491H324.491C324.491 67.2202 324.921 66.7811 324.98 66.7201L320.666 62.55ZM318.491 68.925H312.491C312.491 72.7262 313.537 76.4432 316.22 79.4041L320.666 75.375L325.112 71.3459C324.896 71.1068 324.491 70.5238 324.491 68.925H318.491ZM320.666 75.375L316.285 79.4739C318.915 82.2858 322.349 83.7 326.141 83.7V77.7V71.7C325.534 71.7 325.318 71.5642 325.048 71.2761L320.666 75.375ZM326.141 77.7V83.7C329.928 83.7 333.322 82.2544 335.923 79.4739L331.541 75.375L327.16 71.2761C326.861 71.5956 326.655 71.7 326.141 71.7V77.7ZM331.541 75.375L335.853 79.5475C338.711 76.5939 339.791 72.7852 339.791 68.925H333.791H327.791C327.791 70.5648 327.371 71.0561 327.23 71.2025L331.541 75.375ZM395.943 52.425L391.432 56.3809L391.447 56.3983L391.462 56.4155L395.943 52.425ZM400.218 90V96H406.218V90H400.218ZM385.518 90H379.518V96H385.518V90ZM383.643 61.8L379.167 65.7961L379.204 65.8366L379.24 65.8764L383.643 61.8ZM373.443 61.8L377.846 65.8764L377.882 65.8366L377.919 65.7961L373.443 61.8ZM371.568 90V96H377.568V90H371.568ZM356.868 90H350.868V96H356.868V90ZM356.868 47.925V41.925H350.868V47.925H356.868ZM371.568 47.925H377.568V41.925H371.568V47.925ZM371.568 53.925H365.568V73.3196L376.52 57.3131L371.568 53.925ZM376.818 49.35L379.598 54.6673L379.645 54.6428L379.691 54.6174L376.818 49.35ZM384.393 47.55V53.55C387.75 53.55 389.868 54.5971 391.432 56.3809L395.943 52.425L400.454 48.4691C396.318 43.7529 390.736 41.55 384.393 41.55V47.55ZM395.943 52.425L391.462 56.4155C393.082 58.2335 394.218 61.0172 394.218 65.475H400.218H406.218C406.218 58.9328 404.504 53.0164 400.424 48.4345L395.943 52.425ZM400.218 65.475H394.218V90H400.218H406.218V65.475H400.218ZM400.218 90V84H385.518V90V96H400.218V90ZM385.518 90H391.518V67.425H385.518H379.518V90H385.518ZM385.518 67.425H391.518C391.518 63.9871 390.604 60.4871 388.046 57.7236L383.643 61.8L379.24 65.8764C379.243 65.8795 379.294 65.9274 379.357 66.1161C379.427 66.3269 379.518 66.7365 379.518 67.425H385.518ZM383.643 61.8L388.119 57.8039C385.588 54.9693 382.201 53.7 378.618 53.7V59.7V65.7C378.81 65.7 378.94 65.716 379.019 65.7307C379.097 65.7451 379.131 65.7592 379.136 65.761C379.139 65.7624 379.133 65.7598 379.127 65.7552C379.121 65.751 379.135 65.7597 379.167 65.7961L383.643 61.8ZM378.618 59.7V53.7C375.032 53.7 371.555 54.9062 368.967 57.8039L373.443 61.8L377.919 65.7961C377.937 65.7751 377.941 65.7752 377.93 65.7831C377.918 65.7911 377.915 65.791 377.93 65.7847C377.959 65.7732 378.153 65.7 378.618 65.7V59.7ZM373.443 61.8L369.04 57.7236C366.482 60.4871 365.568 63.9871 365.568 67.425H371.568H377.568C377.568 66.7365 377.659 66.3269 377.729 66.1161C377.792 65.9274 377.843 65.8795 377.846 65.8764L373.443 61.8ZM371.568 67.425H365.568V90H371.568H377.568V67.425H371.568ZM371.568 90V84H356.868V90V96H371.568V90ZM356.868 90H362.868V47.925H356.868H350.868V90H356.868ZM356.868 47.925V53.925H371.568V47.925V41.925H356.868V47.925ZM371.568 47.925H365.568V53.925H371.568H377.568V47.925H371.568ZM371.568 53.925L376.52 57.3131C377.222 56.2872 378.199 55.3985 379.598 54.6673L376.818 49.35L374.038 44.0326C371.037 45.6015 368.514 47.7628 366.616 50.5369L371.568 53.925ZM376.818 49.35L379.691 54.6174C380.895 53.9608 382.407 53.55 384.393 53.55V47.55V41.55C380.679 41.55 377.141 42.3392 373.945 44.0826L376.818 49.35ZM456.389 54.525L451.261 57.6389L453.013 60.525H456.389V54.525ZM452.864 51.3L450.108 56.6293L450.144 56.6482L450.181 56.6666L452.864 51.3ZM438.914 53.775L434.445 49.7715L434.422 49.7976L434.399 49.824L438.914 53.775ZM439.139 73.875L434.762 77.9786L434.806 78.0257L434.851 78.0718L439.139 73.875ZM460.139 70.425L465.563 72.991L469.616 64.425H460.139V70.425ZM445.364 70.425H439.364V76.425H445.364V70.425ZM445.364 59.85V53.85H439.364V59.85H445.364ZM472.814 59.85H478.814V53.85H472.814V59.85ZM472.814 74.1L478.365 76.3795L478.814 75.2841V74.1H472.814ZM467.714 81.975L463.295 77.9166L463.273 77.9413L463.25 77.9662L467.714 81.975ZM459.314 88.05L461.803 93.5094L461.836 93.4944L461.869 93.4789L459.314 88.05ZM433.589 87L430.626 92.2174L430.665 92.239L430.703 92.26L433.589 87ZM424.139 77.475L418.852 80.3119L418.873 80.3505L418.895 80.3889L424.139 77.475ZM424.139 49.575L418.879 46.6884L418.873 46.6997L418.867 46.711L424.139 49.575ZM433.589 40.05L436.503 45.2949L436.528 45.2813L436.552 45.2674L433.589 40.05ZM464.114 41.4L460.559 46.2331V46.2331L464.114 41.4ZM472.214 54.525V60.525H479.456L478.11 53.4097L472.214 54.525ZM456.389 54.525L461.518 51.4111C460.067 49.0207 458.033 47.1762 455.548 45.9334L452.864 51.3L450.181 56.6666C450.696 56.9238 451.012 57.2293 451.261 57.6389L456.389 54.525ZM452.864 51.3L455.621 45.9707C453.148 44.6916 450.436 44.175 447.689 44.175V50.175V56.175C448.943 56.175 449.681 56.4084 450.108 56.6293L452.864 51.3ZM447.689 50.175V44.175C442.563 44.175 437.908 45.9068 434.445 49.7715L438.914 53.775L443.383 57.7785C444.221 56.8432 445.416 56.175 447.689 56.175V50.175ZM438.914 53.775L434.399 49.824C431.106 53.5878 429.764 58.3509 429.764 63.45H435.764H441.764C441.764 60.4491 442.523 58.7622 443.43 57.726L438.914 53.775ZM435.764 63.45H429.764C429.764 68.9348 431.126 74.1004 434.762 77.9786L439.139 73.875L443.517 69.7714C442.653 68.8496 441.764 67.0652 441.764 63.45H435.764ZM439.139 73.875L434.851 78.0718C438.61 81.9118 443.692 83.4 449.114 83.4V77.4V71.4C445.836 71.4 444.269 70.5382 443.427 69.6782L439.139 73.875ZM449.114 77.4V83.4C452.613 83.4 455.979 82.6006 458.941 80.7267C461.904 78.8525 464.067 76.1532 465.563 72.991L460.139 70.425L454.716 67.859C454.012 69.3468 453.238 70.135 452.525 70.5858C451.812 71.0368 450.766 71.4 449.114 71.4V77.4ZM460.139 70.425V64.425H445.364V70.425V76.425H460.139V70.425ZM445.364 70.425H451.364V59.85H445.364H439.364V70.425H445.364ZM445.364 59.85V65.85H472.814V59.85V53.85H445.364V59.85ZM472.814 59.85H466.814V74.1H472.814H478.814V59.85H472.814ZM472.814 74.1L467.264 71.8205C466.409 73.9037 465.114 75.9366 463.295 77.9166L467.714 81.975L472.134 86.0334C474.815 83.1134 476.92 79.8963 478.365 76.3795L472.814 74.1ZM467.714 81.975L463.25 77.9662C461.656 79.7418 459.536 81.3143 456.76 82.6211L459.314 88.05L461.869 93.4789C465.892 91.5857 469.373 89.1082 472.179 85.9837L467.714 81.975ZM459.314 88.05L456.826 82.5906C454.325 83.7305 451.321 84.375 447.689 84.375V90.375V96.375C452.758 96.375 457.504 95.4695 461.803 93.5094L459.314 88.05ZM447.689 90.375V84.375C443.262 84.375 439.579 83.4429 436.476 81.74L433.589 87L430.703 92.26C435.8 95.0571 441.517 96.375 447.689 96.375V90.375ZM433.589 87L436.552 81.7826C433.455 80.0234 431.097 77.6431 429.384 74.5611L424.139 77.475L418.895 80.3889C421.682 85.4069 425.624 89.3766 430.626 92.2174L433.589 87ZM424.139 77.475L429.426 74.6381C427.752 71.5172 426.839 67.8388 426.839 63.45H420.839H414.839C414.839 69.5612 416.127 75.2328 418.852 80.3119L424.139 77.475ZM420.839 63.45H426.839C426.839 59.1202 427.748 55.5022 429.412 52.439L424.139 49.575L418.867 46.711C416.131 51.7478 414.839 57.3798 414.839 63.45H420.839ZM424.139 49.575L429.399 52.4616C431.111 49.3432 433.452 46.9902 436.503 45.2949L433.589 40.05L430.676 34.8051C425.627 37.6098 421.668 41.6068 418.879 46.6884L424.139 49.575ZM433.589 40.05L436.552 45.2674C439.581 43.5477 443.208 42.6 447.614 42.6V36.6V30.6C441.421 30.6 435.698 31.9523 430.626 34.8326L433.589 40.05ZM447.614 36.6V42.6C453.286 42.6 457.458 43.9521 460.559 46.2331L464.114 41.4L467.67 36.5669C462.071 32.4479 455.242 30.6 447.614 30.6V36.6ZM464.114 41.4L460.559 46.2331C463.627 48.4897 465.537 51.5054 466.319 55.6403L472.214 54.525L478.11 53.4097C476.792 46.4446 473.302 40.7103 467.67 36.5669L464.114 41.4ZM472.214 54.525V48.525H456.389V54.525V60.525H472.214V54.525ZM491.102 87.075L488.146 92.296L488.17 92.3096L488.194 92.3229L491.102 87.075ZM481.202 77.4L476.008 80.4037L476.03 80.4409L476.052 80.4777L481.202 77.4ZM481.202 49.425L476.035 46.3747L476.03 46.3843L476.024 46.3939L481.202 49.425ZM518.402 39.75L515.467 44.9829L515.48 44.9904L515.494 44.9979L518.402 39.75ZM528.227 49.425L523.033 52.4287L523.041 52.4424L523.049 52.4561L528.227 49.425ZM528.227 77.4L533.405 80.4311L533.413 80.4174L533.421 80.4038L528.227 77.4ZM518.402 87.075L521.311 92.3229L521.335 92.3096L521.359 92.296L518.402 87.075ZM513.602 73.2L509.138 69.1912L509.115 69.2167L509.092 69.2425L513.602 73.2ZM513.602 53.475L509.092 57.4325L509.135 57.4814L509.179 57.5293L513.602 53.475ZM495.827 53.475L500.296 57.4785L500.317 57.4556L500.337 57.4325L495.827 53.475ZM495.827 73.275L491.317 77.2325L491.338 77.2556L491.358 77.2785L495.827 73.275ZM504.752 90.525V84.525C500.774 84.525 497.231 83.6121 494.011 81.8271L491.102 87.075L488.194 92.3229C493.273 95.1379 498.83 96.525 504.752 96.525V90.525ZM491.102 87.075L494.059 81.854C490.815 80.017 488.27 77.5312 486.353 74.3223L481.202 77.4L476.052 80.4777C479.034 85.4688 483.09 89.4329 488.146 92.296L491.102 87.075ZM481.202 77.4L486.396 74.3962C484.568 71.2358 483.602 67.6124 483.602 63.375H477.602H471.602C471.602 69.5376 473.036 75.2642 476.008 80.4037L481.202 77.4ZM477.602 63.375H483.602C483.602 59.1367 484.569 55.551 486.38 52.4561L481.202 49.425L476.024 46.3939C473.036 51.499 471.602 57.2133 471.602 63.375H477.602ZM481.202 49.425L486.369 52.4753C488.284 49.2308 490.811 46.7712 494.011 44.9979L491.102 39.75L488.194 34.5021C483.093 37.3288 479.02 41.3192 476.035 46.3747L481.202 49.425ZM491.102 39.75L494.011 44.9979C497.231 43.2129 500.774 42.3 504.752 42.3V36.3V30.3C498.83 30.3 493.273 31.6871 488.194 34.5021L491.102 39.75ZM504.752 36.3V42.3C508.792 42.3 512.32 43.2179 515.467 44.9829L518.402 39.75L521.338 34.5171C516.284 31.6821 510.713 30.3 504.752 30.3V36.3ZM518.402 39.75L515.494 44.9979C518.682 46.7651 521.172 49.2098 523.033 52.4287L528.227 49.425L533.421 46.4212C530.483 41.3402 526.422 37.3349 521.311 34.5021L518.402 39.75ZM528.227 49.425L523.049 52.4561C524.861 55.551 525.827 59.1367 525.827 63.375H531.827H537.827C537.827 57.2133 536.394 51.499 533.405 46.3939L528.227 49.425ZM531.827 63.375H525.827C525.827 67.6124 524.861 71.2358 523.033 74.3962L528.227 77.4L533.421 80.4038C536.393 75.2642 537.827 69.5376 537.827 63.375H531.827ZM528.227 77.4L523.049 74.3689C521.186 77.5521 518.679 80.0232 515.446 81.854L518.402 87.075L521.359 92.296C526.426 89.4268 530.469 85.4479 533.405 80.4311L528.227 77.4ZM518.402 87.075L515.494 81.8271C512.273 83.6121 508.73 84.525 504.752 84.525V90.525V96.525C510.674 96.525 516.231 95.1379 521.311 92.3229L518.402 87.075ZM504.752 76.875V82.875C509.941 82.875 514.646 81.1074 518.112 77.1575L513.602 73.2L509.092 69.2425C508.259 70.1925 507.063 70.875 504.752 70.875V76.875ZM513.602 73.2L518.066 77.2088C521.481 73.4058 522.902 68.5773 522.902 63.375H516.902H510.902C510.902 66.3727 510.123 68.0942 509.138 69.1912L513.602 73.2ZM516.902 63.375H522.902C522.902 58.1229 521.507 53.2189 518.025 49.4206L513.602 53.475L509.179 57.5293C510.098 58.5311 510.902 60.2271 510.902 63.375H516.902ZM513.602 53.475L518.112 49.5175C514.646 45.5675 509.941 43.8 504.752 43.8V49.8V55.8C507.063 55.8 508.259 56.4824 509.092 57.4325L513.602 53.475ZM504.752 49.8V43.8C499.541 43.8 494.8 45.5493 491.317 49.5175L495.827 53.475L500.337 57.4325C501.155 56.5007 502.363 55.8 504.752 55.8V49.8ZM495.827 53.475L491.358 49.4715C487.954 53.2718 486.602 58.1568 486.602 63.375H492.602H498.602C498.602 60.1932 499.401 58.4781 500.296 57.4785L495.827 53.475ZM492.602 63.375H486.602C486.602 68.5717 487.967 73.4149 491.317 77.2325L495.827 73.275L500.337 69.3175C499.387 68.2351 498.602 66.4783 498.602 63.375H492.602ZM495.827 73.275L491.358 77.2785C494.852 81.1789 499.582 82.875 504.752 82.875V76.875V70.875C502.323 70.875 501.102 70.1711 500.296 69.2715L495.827 73.275ZM553.135 78.75H547.135V84.75H553.135V78.75ZM569.56 78.75H575.56V72.75H569.56V78.75ZM569.56 90V96H575.56V90H569.56ZM538.435 90H532.435V96H538.435V90ZM538.435 37.125V31.125H532.435V37.125H538.435ZM553.135 37.125H559.135V31.125H553.135V37.125ZM553.135 78.75V84.75H569.56V78.75V72.75H553.135V78.75ZM569.56 78.75H563.56V90H569.56H575.56V78.75H569.56ZM569.56 90V84H538.435V90V96H569.56V90ZM538.435 90H544.435V37.125H538.435H532.435V90H538.435ZM538.435 37.125V43.125H553.135V37.125V31.125H538.435V37.125ZM553.135 37.125H547.135V78.75H553.135H559.135V37.125H553.135ZM610.751 40.5L607.891 45.7746L607.929 45.7951L607.967 45.815L610.751 40.5ZM620.426 49.8L625.656 46.8584V46.8584L620.426 49.8ZM620.351 77.175L615.15 74.1842L615.136 74.2087L615.122 74.2334L620.351 77.175ZM610.676 86.625L613.536 91.8996L613.547 91.8936L613.558 91.8876L610.676 86.625ZM575.276 90H569.276V96H575.276V90ZM575.276 37.125V31.125H569.276V37.125H575.276ZM605.201 53.475L601.003 57.7611L601.025 57.7832L601.048 57.8051L605.201 53.475ZM589.976 49.875V43.875H583.976V49.875H589.976ZM589.976 77.025H583.976V83.025H589.976V77.025ZM596.201 37.125V43.125C600.928 43.125 604.762 44.078 607.891 45.7746L610.751 40.5L613.611 35.2254C608.44 32.422 602.574 31.125 596.201 31.125V37.125ZM610.751 40.5L607.967 45.815C611.176 47.4956 613.535 49.7872 615.197 52.7416L620.426 49.8L625.656 46.8584C622.817 41.8128 618.727 37.9043 613.535 35.185L610.751 40.5ZM620.426 49.8L615.197 52.7416C616.882 55.7379 617.801 59.2771 617.801 63.525H623.801H629.801C629.801 57.4728 628.47 51.8621 625.656 46.8584L620.426 49.8ZM623.801 63.525H617.801C617.801 67.6887 616.873 71.1876 615.15 74.1842L620.351 77.175L625.553 80.1658C628.43 75.1624 629.801 69.5613 629.801 63.525H623.801ZM620.351 77.175L615.122 74.2334C613.446 77.2119 611.055 79.5768 607.794 81.3624L610.676 86.625L613.558 91.8876C618.697 89.0732 622.756 85.1381 625.581 80.1166L620.351 77.175ZM610.676 86.625L607.816 81.3504C604.679 83.0512 600.868 84 596.201 84V90V96C602.534 96 608.373 94.6988 613.536 91.8996L610.676 86.625ZM596.201 90V84H575.276V90V96H596.201V90ZM575.276 90H581.276V37.125H575.276H569.276V90H575.276ZM575.276 37.125V43.125H596.201V37.125V31.125H575.276V37.125ZM595.076 77.025V83.025C600.493 83.025 605.511 81.5171 609.355 77.8301L605.201 73.5L601.048 69.1699C599.992 70.1829 598.259 71.025 595.076 71.025V77.025ZM605.201 73.5L609.355 77.8301C613.28 74.0646 614.876 68.9983 614.876 63.525H608.876H602.876C602.876 66.6517 602.022 68.2354 601.048 69.1699L605.201 73.5ZM608.876 63.525H614.876C614.876 58.0253 613.294 52.9232 609.355 49.1449L605.201 53.475L601.048 57.8051C602.009 58.7268 602.876 60.3247 602.876 63.525H608.876ZM605.201 53.475L609.4 49.1888C605.561 45.4283 600.527 43.875 595.076 43.875V49.875V55.875C598.225 55.875 599.941 56.7217 601.003 57.7611L605.201 53.475ZM595.076 49.875V43.875H589.976V49.875V55.875H595.076V49.875ZM589.976 49.875H583.976V77.025H589.976H595.976V49.875H589.976ZM589.976 77.025V83.025H595.076V77.025V71.025H589.976V77.025Z"
        fill="#5F80A3" mask="url(#path-5-outside-3_1851_1835)" />
    <rect x="962" y="31" width="59" height="59" fill="#B08D00" />
    <rect x="876" y="31" width="59" height="59" fill="#0F1C3D" />
    <rect x="704" y="31" width="59" height="59" fill="#AFC9E4" />
    <rect x="790" y="31" width="59" height="59" fill="#21325D" />
</svg>
    