<svg width="1085" height="137" viewBox="0 0 1085 137" fill="none" xmlns="http://www.w3.org/2000/svg">
<mask id="path-1-outside-1_763_1092" maskUnits="userSpaceOnUse" x="0" y="0" width="1085" height="137" fill="black">
<rect fill="white" width="1085" height="137"/>
<path d="M0 61C0 27.3106 27.3106 0 61 0H1024C1057.69 0 1085 27.3106 1085 61C1085 94.6894 1057.69 122 1024 122H61C27.3106 122 0 94.6894 0 61Z"/>
</mask>
<path d="M0 61C0 27.3106 27.3106 0 61 0H1024C1057.69 0 1085 27.3106 1085 61C1085 94.6894 1057.69 122 1024 122H61C27.3106 122 0 94.6894 0 61Z" fill="#6B738F"/>
<path d="M0 0H1085H0ZM1085 61C1085 102.974 1050.97 137 1009 137H76C34.0264 137 0 102.974 0 61C0 86.4051 27.3106 107 61 107H1024C1057.69 107 1085 86.4051 1085 61ZM0 122V0V122ZM1085 0V122V0Z" fill="#9F7DFF" mask="url(#path-1-outside-1_763_1092)"/>
<mask id="path-3-outside-2_763_1092" maskUnits="userSpaceOnUse" x="45" y="19" width="569" height="87" fill="black">
<rect fill="white" x="45" y="19" width="569" height="87"/>
<path d="M56.72 95.36C56.24 94.24 55.8667 92.8267 55.6 91.12C55.3333 89.4133 55.1733 87.6533 55.12 85.84C55.0667 83.9733 55.12 82.1867 55.28 80.48C55.4933 78.7733 55.7867 77.36 56.16 76.24C56.96 75.92 57.7333 75.3867 58.48 74.64C59.28 73.84 59.9467 72.5867 60.48 70.88C61.0133 69.12 61.28 66.6667 61.28 63.52C61.28 60.1067 60.96 57.5467 60.32 55.84C59.7333 54.08 59.0133 52.9067 58.16 52.32C57.36 51.68 56.64 51.36 56 51.36C55.52 50.4 55.1733 49.0933 54.96 47.44C54.7467 45.7867 54.64 44.0267 54.64 42.16C54.6933 40.24 54.8533 38.4 55.12 36.64C55.3867 34.8267 55.7867 33.28 56.32 32C60.2667 32.16 63.8133 32.1867 66.96 32.08C70.16 31.9733 73.3333 31.8133 76.48 31.6C79.68 31.3867 83.1467 31.2 86.88 31.04C90.6667 30.8267 95.12 30.72 100.24 30.72C107.76 30.72 114.16 31.3867 119.44 32.72C124.773 34 128.853 36.2933 131.68 39.6C134.507 42.9067 135.893 47.6 135.84 53.68C135.84 56.7733 135.333 59.5733 134.32 62.08C133.36 64.5333 131.947 66.6133 130.08 68.32C131.147 70.4533 132.373 72.16 133.76 73.44C135.147 74.72 136.453 75.6533 137.68 76.24C138.053 77.36 138.293 78.7733 138.4 80.48C138.56 82.1867 138.613 83.9733 138.56 85.84C138.56 87.6533 138.427 89.4133 138.16 91.12C137.893 92.8267 137.547 94.24 137.12 95.36C135.947 95.2 134.613 95.0133 133.12 94.8C131.68 94.64 129.947 94.48 127.92 94.32C125.893 94.16 123.387 94.08 120.4 94.08C116.4 94.08 113.093 94.16 110.48 94.32C107.92 94.48 105.76 94.64 104 94.8C102.293 95.0133 100.747 95.2 99.36 95.36C99.9467 91.04 100.213 87.2533 100.16 84C100.16 80.7467 99.7067 77.8933 98.8 75.44C97.8933 72.9867 96.3467 70.8 94.16 68.88V76.24L97.04 76.32C97.52 78.1333 97.7867 80.24 97.84 82.64C97.9467 84.9867 97.8667 87.3067 97.6 89.6C97.3867 91.84 97.0133 93.7333 96.48 95.28C94.24 95.0667 91.3067 94.8 87.68 94.48C84.0533 94.16 80.1067 94.0267 75.84 94.08C72.1067 94.1333 68.5333 94.2933 65.12 94.56C61.7067 94.88 58.9067 95.1467 56.72 95.36ZM93.84 60.32H98.72V54.8H93.84V60.32ZM180.358 96.72C171.664 96.72 164.571 95.52 159.078 93.12C153.638 90.6667 149.638 87.1733 147.078 82.64C144.518 78.1067 143.238 72.64 143.238 66.24C143.238 58.88 144.598 52.96 147.318 48.48C150.091 44 154.384 40.7467 160.198 38.72C166.011 36.64 173.504 35.6 182.678 35.6C189.504 35.6 195.584 36.32 200.918 37.76C206.304 39.2 210.544 41.3333 213.638 44.16C216.731 46.9333 218.278 50.3733 218.278 54.48C218.278 55.9733 218.038 57.4933 217.558 59.04C217.131 60.5333 216.224 61.8933 214.838 63.12C213.451 64.3467 211.371 65.3333 208.598 66.08C205.824 66.8267 202.118 67.2 197.478 67.2C194.384 67.2 191.584 67.1733 189.078 67.12C186.624 67.0133 184.358 66.8533 182.278 66.64H178.278V72.56H182.198V69.36C193.504 68.8267 205.451 68.8267 218.038 69.36C218.038 75.28 216.758 80.2667 214.198 84.32C211.638 88.3733 207.611 91.4667 202.118 93.6C196.624 95.68 189.371 96.72 180.358 96.72ZM178.278 62.48H182.198V57.84H178.278V62.48ZM226.316 95.36C225.89 94.2933 225.543 92.9333 225.276 91.28C225.01 89.5733 224.85 87.7867 224.796 85.92C224.796 84.0533 224.85 82.2933 224.956 80.64C225.116 78.9333 225.383 77.5467 225.756 76.48C226.503 76.2133 227.223 75.7333 227.916 75.04C228.663 74.3467 229.276 73.2267 229.756 71.68C230.236 70.08 230.53 67.8133 230.636 64.88H225.436C225.17 63.3867 224.983 61.6267 224.876 59.6C224.77 57.5733 224.77 55.5733 224.876 53.6C224.983 51.5733 225.17 49.8133 225.436 48.32H236.796C234.45 48.0533 232.69 47.0933 231.516 45.44C230.343 43.7333 230.156 41.7333 230.956 39.44C232.023 36.2933 235.17 33.6267 240.396 31.44C245.676 29.2 252.983 28.08 262.316 28.08C269.676 28.08 275.57 28.7733 279.996 30.16C284.423 31.5467 287.623 33.6533 289.596 36.48C291.623 39.3067 292.636 42.88 292.636 47.2C292.636 50.4533 291.836 53.2533 290.236 55.6C288.69 57.9467 286.636 59.7333 284.076 60.96C281.516 62.1867 278.69 62.8 275.596 62.8C273.57 62.8 271.436 62.5333 269.196 62C266.956 61.4667 264.876 60.56 262.956 59.28L261.676 61.12C263.543 62.4 265.65 63.3867 267.996 64.08C270.396 64.7733 272.93 65.12 275.596 65.12C277.73 65.12 279.73 64.8533 281.596 64.32C283.516 63.7867 285.223 63.0667 286.716 62.16C287.196 63.6 287.49 65.2267 287.596 67.04C287.756 68.8 287.81 70.5067 287.756 72.16C287.703 73.76 287.543 75.04 287.276 76H264.956C265.223 77.0667 266.023 77.8133 267.356 78.24C268.69 78.6667 270.903 78.8 273.996 78.64C274.476 80.0267 274.77 81.76 274.876 83.84C274.983 85.92 274.903 88 274.636 90.08C274.423 92.16 274.023 93.92 273.436 95.36C270.983 95.0933 267.916 94.8267 264.236 94.56C260.556 94.2933 256.53 94.16 252.156 94.16C247.783 94.16 243.543 94.24 239.436 94.4C235.383 94.6133 231.01 94.9333 226.316 95.36ZM300.377 95.36C299.844 93.6533 299.444 91.6267 299.177 89.28C298.964 86.9333 298.91 84.5867 299.017 82.24C299.124 79.8933 299.39 77.9467 299.817 76.4C301.044 76.08 302.164 75.2533 303.177 73.92C304.19 72.5333 304.697 70.24 304.697 67.04C304.697 64.32 304.404 62.2133 303.817 60.72C303.284 59.1733 302.67 58.08 301.977 57.44C301.284 56.8 300.67 56.4533 300.137 56.4C299.604 54.64 299.23 52.56 299.017 50.16C298.857 47.7067 298.884 45.28 299.097 42.88C299.364 40.48 299.817 38.5067 300.457 36.96C302.964 37.28 305.79 37.5467 308.937 37.76C312.084 37.92 315.31 38 318.617 38C321.924 38 325.177 37.9733 328.377 37.92C331.577 37.8133 334.217 37.7067 336.297 37.6C335.764 38.1867 335.204 39.0667 334.617 40.24C334.03 41.36 333.497 42.5867 333.017 43.92C332.59 45.2533 332.27 46.5333 332.057 47.76C331.844 48.9333 331.817 49.84 331.977 50.48C332.884 47.92 334.297 45.52 336.217 43.28C338.137 41.04 340.617 39.2267 343.657 37.84C346.75 36.4 350.404 35.68 354.617 35.68C360.057 35.68 364.377 37.2 367.577 40.24C370.777 43.28 372.377 48.0533 372.377 54.56C372.377 60.8533 370.537 65.7867 366.857 69.36C363.23 72.9333 358.324 74.72 352.137 74.72C348.244 74.72 345.124 73.7867 342.777 71.92C340.484 70 339.364 67.28 339.417 63.76H337.097C337.044 66.7467 337.577 69.2267 338.697 71.2C339.87 73.1733 341.604 74.8533 343.897 76.24C344.27 77.36 344.51 78.7733 344.617 80.48C344.777 82.1867 344.83 84 344.777 85.92C344.724 87.7867 344.564 89.5733 344.297 91.28C344.03 92.9333 343.684 94.2933 343.257 95.36C341.497 95.2 339.257 95.0133 336.537 94.8C333.817 94.64 330.937 94.48 327.897 94.32C324.857 94.2133 321.95 94.16 319.177 94.16C315.177 94.16 311.577 94.2933 308.377 94.56C305.23 94.8267 302.564 95.0933 300.377 95.36ZM403.984 96.72C397.584 96.72 392.518 95.8933 388.784 94.24C385.104 92.5867 382.464 90.4267 380.864 87.76C379.264 85.0933 378.464 82.2133 378.464 79.12C378.464 74.4267 380.118 70.6133 383.424 67.68C386.731 64.7467 392.011 63.2533 399.264 63.2L416.224 63.04V58.8H411.824V60.96C406.384 61.1733 401.024 61.3867 395.744 61.6C390.464 61.8133 385.211 61.7333 379.984 61.36C378.651 53.04 378.784 44.9867 380.384 37.2C381.931 37.2 383.798 37.2267 385.984 37.28C388.224 37.3333 390.571 37.4133 393.024 37.52C395.531 37.5733 397.984 37.6267 400.384 37.68C402.784 37.7333 404.918 37.7867 406.784 37.84C406.091 39.44 405.691 41.04 405.584 42.64C405.531 44.24 405.771 45.7867 406.304 47.28C406.571 42.8533 408.251 39.7867 411.344 38.08C414.438 36.3733 418.811 35.52 424.464 35.52C431.771 35.52 437.371 36.5867 441.264 38.72C445.158 40.8 447.744 43.92 449.024 48.08C449.664 50.0533 449.931 52.1867 449.824 54.48C449.771 56.72 449.611 58.9067 449.344 61.04C449.078 63.1733 448.944 65.0933 448.944 66.8C448.944 70.0533 449.451 72.3733 450.464 73.76C451.531 75.0933 452.651 75.9733 453.824 76.4C454.304 77.9467 454.571 79.8933 454.624 82.24C454.731 84.5867 454.678 86.9333 454.464 89.28C454.251 91.6267 453.878 93.6533 453.344 95.36C450.998 95.8933 448.544 96.24 445.984 96.4C443.424 96.6133 441.344 96.72 439.744 96.72C435.691 96.72 432.518 96.24 430.224 95.28C427.931 94.32 426.784 92.56 426.784 90C426.784 89.0933 426.944 88.1333 427.264 87.12C427.638 86.1067 428.064 85.0133 428.544 83.84L426.464 82.8C425.504 85.1467 424.171 87.3867 422.464 89.52C420.811 91.6533 418.491 93.3867 415.504 94.72C412.571 96.0533 408.731 96.72 403.984 96.72ZM411.824 73.28H416.224V68.24H411.824V73.28ZM497.962 96.8C488.895 96.8 481.535 95.52 475.882 92.96C470.282 90.3467 466.175 86.72 463.562 82.08C461.002 77.3867 459.722 71.92 459.722 65.68C459.722 59.4933 460.949 54.1867 463.402 49.76C465.909 45.28 469.402 41.84 473.882 39.44C478.362 36.9867 483.589 35.76 489.562 35.76C495.375 35.76 499.882 36.6933 503.082 38.56C506.335 40.3733 508.042 43.8133 508.202 48.88C508.789 47.0133 509.002 45.1467 508.842 43.28C508.735 41.36 508.575 39.4933 508.362 37.68C510.122 37.68 512.122 37.6533 514.362 37.6C516.655 37.5467 519.002 37.4933 521.402 37.44C523.802 37.3333 526.069 37.2533 528.202 37.2C530.335 37.1467 532.149 37.12 533.642 37.12C533.962 38.56 534.202 40.4 534.362 42.64C534.575 44.8267 534.709 47.2267 534.762 49.84C534.815 52.4 534.762 54.9333 534.602 57.44C534.442 59.9467 534.202 62.1867 533.882 64.16C532.335 64.3733 530.362 64.56 527.962 64.72C525.562 64.8267 522.975 64.9067 520.202 64.96C517.429 65.0133 514.655 65.0133 511.882 64.96C509.109 64.9067 506.549 64.8267 504.202 64.72C501.909 64.56 500.069 64.3733 498.682 64.16L498.602 61.2H494.762V70.56H498.602V67.28C510.015 66.7467 521.935 66.7467 534.362 67.28C534.149 73.9467 532.789 79.4667 530.282 83.84C527.829 88.2133 523.989 91.4667 518.762 93.6C513.535 95.7333 506.602 96.8 497.962 96.8ZM573.446 96.72C565.5 96.72 559.393 95.68 555.126 93.6C550.86 91.4667 548.086 88.32 546.806 84.16C546.22 82.2933 545.926 80.24 545.926 78C545.98 75.76 546.14 73.2267 546.406 70.4C546.673 67.5733 546.833 64.4267 546.886 60.96H541.686C541.42 59.4667 541.233 57.7867 541.126 55.92C541.02 54.0533 541.02 52.1867 541.126 50.32C541.233 48.4 541.42 46.6933 541.686 45.2C543.073 44.08 544.406 42.9867 545.686 41.92C547.02 40.8 548.193 39.4933 549.206 38C550.22 36.5067 550.913 34.5867 551.286 32.24C553.206 32.5067 555.526 32.6933 558.246 32.8C561.02 32.9067 563.953 32.96 567.046 32.96C570.193 32.9067 573.26 32.8267 576.246 32.72C579.233 32.56 581.873 32.3733 584.166 32.16C584.486 33.1733 584.753 34.1867 584.966 35.2C585.18 36.2133 585.34 37.2 585.446 38.16H602.886C603.153 39.12 603.34 40.56 603.446 42.48C603.553 44.4 603.553 46.4267 603.446 48.56C603.393 50.64 603.206 52.4267 602.886 53.92L580.806 54V70.72H583.126L583.206 56.88C584.38 56.4533 585.82 56.1333 587.526 55.92C589.286 55.6533 591.126 55.52 593.046 55.52C594.966 55.52 596.806 55.6533 598.566 55.92C600.326 56.1333 601.82 56.4533 603.046 56.88C603.206 57.1467 603.42 58.0533 603.686 59.6C603.953 61.0933 604.166 62.9333 604.326 65.12C604.54 67.2533 604.646 69.4133 604.646 71.6C604.646 73.9467 604.38 76.32 603.846 78.72C603.366 81.12 602.486 83.4133 601.206 85.6C599.926 87.7333 598.113 89.6533 595.766 91.36C593.42 93.0133 590.406 94.32 586.726 95.28C583.1 96.24 578.673 96.72 573.446 96.72Z"/>
</mask>
<path d="M56.72 95.36C56.24 94.24 55.8667 92.8267 55.6 91.12C55.3333 89.4133 55.1733 87.6533 55.12 85.84C55.0667 83.9733 55.12 82.1867 55.28 80.48C55.4933 78.7733 55.7867 77.36 56.16 76.24C56.96 75.92 57.7333 75.3867 58.48 74.64C59.28 73.84 59.9467 72.5867 60.48 70.88C61.0133 69.12 61.28 66.6667 61.28 63.52C61.28 60.1067 60.96 57.5467 60.32 55.84C59.7333 54.08 59.0133 52.9067 58.16 52.32C57.36 51.68 56.64 51.36 56 51.36C55.52 50.4 55.1733 49.0933 54.96 47.44C54.7467 45.7867 54.64 44.0267 54.64 42.16C54.6933 40.24 54.8533 38.4 55.12 36.64C55.3867 34.8267 55.7867 33.28 56.32 32C60.2667 32.16 63.8133 32.1867 66.96 32.08C70.16 31.9733 73.3333 31.8133 76.48 31.6C79.68 31.3867 83.1467 31.2 86.88 31.04C90.6667 30.8267 95.12 30.72 100.24 30.72C107.76 30.72 114.16 31.3867 119.44 32.72C124.773 34 128.853 36.2933 131.68 39.6C134.507 42.9067 135.893 47.6 135.84 53.68C135.84 56.7733 135.333 59.5733 134.32 62.08C133.36 64.5333 131.947 66.6133 130.08 68.32C131.147 70.4533 132.373 72.16 133.76 73.44C135.147 74.72 136.453 75.6533 137.68 76.24C138.053 77.36 138.293 78.7733 138.4 80.48C138.56 82.1867 138.613 83.9733 138.56 85.84C138.56 87.6533 138.427 89.4133 138.16 91.12C137.893 92.8267 137.547 94.24 137.12 95.36C135.947 95.2 134.613 95.0133 133.12 94.8C131.68 94.64 129.947 94.48 127.92 94.32C125.893 94.16 123.387 94.08 120.4 94.08C116.4 94.08 113.093 94.16 110.48 94.32C107.92 94.48 105.76 94.64 104 94.8C102.293 95.0133 100.747 95.2 99.36 95.36C99.9467 91.04 100.213 87.2533 100.16 84C100.16 80.7467 99.7067 77.8933 98.8 75.44C97.8933 72.9867 96.3467 70.8 94.16 68.88V76.24L97.04 76.32C97.52 78.1333 97.7867 80.24 97.84 82.64C97.9467 84.9867 97.8667 87.3067 97.6 89.6C97.3867 91.84 97.0133 93.7333 96.48 95.28C94.24 95.0667 91.3067 94.8 87.68 94.48C84.0533 94.16 80.1067 94.0267 75.84 94.08C72.1067 94.1333 68.5333 94.2933 65.12 94.56C61.7067 94.88 58.9067 95.1467 56.72 95.36ZM93.84 60.32H98.72V54.8H93.84V60.32ZM180.358 96.72C171.664 96.72 164.571 95.52 159.078 93.12C153.638 90.6667 149.638 87.1733 147.078 82.64C144.518 78.1067 143.238 72.64 143.238 66.24C143.238 58.88 144.598 52.96 147.318 48.48C150.091 44 154.384 40.7467 160.198 38.72C166.011 36.64 173.504 35.6 182.678 35.6C189.504 35.6 195.584 36.32 200.918 37.76C206.304 39.2 210.544 41.3333 213.638 44.16C216.731 46.9333 218.278 50.3733 218.278 54.48C218.278 55.9733 218.038 57.4933 217.558 59.04C217.131 60.5333 216.224 61.8933 214.838 63.12C213.451 64.3467 211.371 65.3333 208.598 66.08C205.824 66.8267 202.118 67.2 197.478 67.2C194.384 67.2 191.584 67.1733 189.078 67.12C186.624 67.0133 184.358 66.8533 182.278 66.64H178.278V72.56H182.198V69.36C193.504 68.8267 205.451 68.8267 218.038 69.36C218.038 75.28 216.758 80.2667 214.198 84.32C211.638 88.3733 207.611 91.4667 202.118 93.6C196.624 95.68 189.371 96.72 180.358 96.72ZM178.278 62.48H182.198V57.84H178.278V62.48ZM226.316 95.36C225.89 94.2933 225.543 92.9333 225.276 91.28C225.01 89.5733 224.85 87.7867 224.796 85.92C224.796 84.0533 224.85 82.2933 224.956 80.64C225.116 78.9333 225.383 77.5467 225.756 76.48C226.503 76.2133 227.223 75.7333 227.916 75.04C228.663 74.3467 229.276 73.2267 229.756 71.68C230.236 70.08 230.53 67.8133 230.636 64.88H225.436C225.17 63.3867 224.983 61.6267 224.876 59.6C224.77 57.5733 224.77 55.5733 224.876 53.6C224.983 51.5733 225.17 49.8133 225.436 48.32H236.796C234.45 48.0533 232.69 47.0933 231.516 45.44C230.343 43.7333 230.156 41.7333 230.956 39.44C232.023 36.2933 235.17 33.6267 240.396 31.44C245.676 29.2 252.983 28.08 262.316 28.08C269.676 28.08 275.57 28.7733 279.996 30.16C284.423 31.5467 287.623 33.6533 289.596 36.48C291.623 39.3067 292.636 42.88 292.636 47.2C292.636 50.4533 291.836 53.2533 290.236 55.6C288.69 57.9467 286.636 59.7333 284.076 60.96C281.516 62.1867 278.69 62.8 275.596 62.8C273.57 62.8 271.436 62.5333 269.196 62C266.956 61.4667 264.876 60.56 262.956 59.28L261.676 61.12C263.543 62.4 265.65 63.3867 267.996 64.08C270.396 64.7733 272.93 65.12 275.596 65.12C277.73 65.12 279.73 64.8533 281.596 64.32C283.516 63.7867 285.223 63.0667 286.716 62.16C287.196 63.6 287.49 65.2267 287.596 67.04C287.756 68.8 287.81 70.5067 287.756 72.16C287.703 73.76 287.543 75.04 287.276 76H264.956C265.223 77.0667 266.023 77.8133 267.356 78.24C268.69 78.6667 270.903 78.8 273.996 78.64C274.476 80.0267 274.77 81.76 274.876 83.84C274.983 85.92 274.903 88 274.636 90.08C274.423 92.16 274.023 93.92 273.436 95.36C270.983 95.0933 267.916 94.8267 264.236 94.56C260.556 94.2933 256.53 94.16 252.156 94.16C247.783 94.16 243.543 94.24 239.436 94.4C235.383 94.6133 231.01 94.9333 226.316 95.36ZM300.377 95.36C299.844 93.6533 299.444 91.6267 299.177 89.28C298.964 86.9333 298.91 84.5867 299.017 82.24C299.124 79.8933 299.39 77.9467 299.817 76.4C301.044 76.08 302.164 75.2533 303.177 73.92C304.19 72.5333 304.697 70.24 304.697 67.04C304.697 64.32 304.404 62.2133 303.817 60.72C303.284 59.1733 302.67 58.08 301.977 57.44C301.284 56.8 300.67 56.4533 300.137 56.4C299.604 54.64 299.23 52.56 299.017 50.16C298.857 47.7067 298.884 45.28 299.097 42.88C299.364 40.48 299.817 38.5067 300.457 36.96C302.964 37.28 305.79 37.5467 308.937 37.76C312.084 37.92 315.31 38 318.617 38C321.924 38 325.177 37.9733 328.377 37.92C331.577 37.8133 334.217 37.7067 336.297 37.6C335.764 38.1867 335.204 39.0667 334.617 40.24C334.03 41.36 333.497 42.5867 333.017 43.92C332.59 45.2533 332.27 46.5333 332.057 47.76C331.844 48.9333 331.817 49.84 331.977 50.48C332.884 47.92 334.297 45.52 336.217 43.28C338.137 41.04 340.617 39.2267 343.657 37.84C346.75 36.4 350.404 35.68 354.617 35.68C360.057 35.68 364.377 37.2 367.577 40.24C370.777 43.28 372.377 48.0533 372.377 54.56C372.377 60.8533 370.537 65.7867 366.857 69.36C363.23 72.9333 358.324 74.72 352.137 74.72C348.244 74.72 345.124 73.7867 342.777 71.92C340.484 70 339.364 67.28 339.417 63.76H337.097C337.044 66.7467 337.577 69.2267 338.697 71.2C339.87 73.1733 341.604 74.8533 343.897 76.24C344.27 77.36 344.51 78.7733 344.617 80.48C344.777 82.1867 344.83 84 344.777 85.92C344.724 87.7867 344.564 89.5733 344.297 91.28C344.03 92.9333 343.684 94.2933 343.257 95.36C341.497 95.2 339.257 95.0133 336.537 94.8C333.817 94.64 330.937 94.48 327.897 94.32C324.857 94.2133 321.95 94.16 319.177 94.16C315.177 94.16 311.577 94.2933 308.377 94.56C305.23 94.8267 302.564 95.0933 300.377 95.36ZM403.984 96.72C397.584 96.72 392.518 95.8933 388.784 94.24C385.104 92.5867 382.464 90.4267 380.864 87.76C379.264 85.0933 378.464 82.2133 378.464 79.12C378.464 74.4267 380.118 70.6133 383.424 67.68C386.731 64.7467 392.011 63.2533 399.264 63.2L416.224 63.04V58.8H411.824V60.96C406.384 61.1733 401.024 61.3867 395.744 61.6C390.464 61.8133 385.211 61.7333 379.984 61.36C378.651 53.04 378.784 44.9867 380.384 37.2C381.931 37.2 383.798 37.2267 385.984 37.28C388.224 37.3333 390.571 37.4133 393.024 37.52C395.531 37.5733 397.984 37.6267 400.384 37.68C402.784 37.7333 404.918 37.7867 406.784 37.84C406.091 39.44 405.691 41.04 405.584 42.64C405.531 44.24 405.771 45.7867 406.304 47.28C406.571 42.8533 408.251 39.7867 411.344 38.08C414.438 36.3733 418.811 35.52 424.464 35.52C431.771 35.52 437.371 36.5867 441.264 38.72C445.158 40.8 447.744 43.92 449.024 48.08C449.664 50.0533 449.931 52.1867 449.824 54.48C449.771 56.72 449.611 58.9067 449.344 61.04C449.078 63.1733 448.944 65.0933 448.944 66.8C448.944 70.0533 449.451 72.3733 450.464 73.76C451.531 75.0933 452.651 75.9733 453.824 76.4C454.304 77.9467 454.571 79.8933 454.624 82.24C454.731 84.5867 454.678 86.9333 454.464 89.28C454.251 91.6267 453.878 93.6533 453.344 95.36C450.998 95.8933 448.544 96.24 445.984 96.4C443.424 96.6133 441.344 96.72 439.744 96.72C435.691 96.72 432.518 96.24 430.224 95.28C427.931 94.32 426.784 92.56 426.784 90C426.784 89.0933 426.944 88.1333 427.264 87.12C427.638 86.1067 428.064 85.0133 428.544 83.84L426.464 82.8C425.504 85.1467 424.171 87.3867 422.464 89.52C420.811 91.6533 418.491 93.3867 415.504 94.72C412.571 96.0533 408.731 96.72 403.984 96.72ZM411.824 73.28H416.224V68.24H411.824V73.28ZM497.962 96.8C488.895 96.8 481.535 95.52 475.882 92.96C470.282 90.3467 466.175 86.72 463.562 82.08C461.002 77.3867 459.722 71.92 459.722 65.68C459.722 59.4933 460.949 54.1867 463.402 49.76C465.909 45.28 469.402 41.84 473.882 39.44C478.362 36.9867 483.589 35.76 489.562 35.76C495.375 35.76 499.882 36.6933 503.082 38.56C506.335 40.3733 508.042 43.8133 508.202 48.88C508.789 47.0133 509.002 45.1467 508.842 43.28C508.735 41.36 508.575 39.4933 508.362 37.68C510.122 37.68 512.122 37.6533 514.362 37.6C516.655 37.5467 519.002 37.4933 521.402 37.44C523.802 37.3333 526.069 37.2533 528.202 37.2C530.335 37.1467 532.149 37.12 533.642 37.12C533.962 38.56 534.202 40.4 534.362 42.64C534.575 44.8267 534.709 47.2267 534.762 49.84C534.815 52.4 534.762 54.9333 534.602 57.44C534.442 59.9467 534.202 62.1867 533.882 64.16C532.335 64.3733 530.362 64.56 527.962 64.72C525.562 64.8267 522.975 64.9067 520.202 64.96C517.429 65.0133 514.655 65.0133 511.882 64.96C509.109 64.9067 506.549 64.8267 504.202 64.72C501.909 64.56 500.069 64.3733 498.682 64.16L498.602 61.2H494.762V70.56H498.602V67.28C510.015 66.7467 521.935 66.7467 534.362 67.28C534.149 73.9467 532.789 79.4667 530.282 83.84C527.829 88.2133 523.989 91.4667 518.762 93.6C513.535 95.7333 506.602 96.8 497.962 96.8ZM573.446 96.72C565.5 96.72 559.393 95.68 555.126 93.6C550.86 91.4667 548.086 88.32 546.806 84.16C546.22 82.2933 545.926 80.24 545.926 78C545.98 75.76 546.14 73.2267 546.406 70.4C546.673 67.5733 546.833 64.4267 546.886 60.96H541.686C541.42 59.4667 541.233 57.7867 541.126 55.92C541.02 54.0533 541.02 52.1867 541.126 50.32C541.233 48.4 541.42 46.6933 541.686 45.2C543.073 44.08 544.406 42.9867 545.686 41.92C547.02 40.8 548.193 39.4933 549.206 38C550.22 36.5067 550.913 34.5867 551.286 32.24C553.206 32.5067 555.526 32.6933 558.246 32.8C561.02 32.9067 563.953 32.96 567.046 32.96C570.193 32.9067 573.26 32.8267 576.246 32.72C579.233 32.56 581.873 32.3733 584.166 32.16C584.486 33.1733 584.753 34.1867 584.966 35.2C585.18 36.2133 585.34 37.2 585.446 38.16H602.886C603.153 39.12 603.34 40.56 603.446 42.48C603.553 44.4 603.553 46.4267 603.446 48.56C603.393 50.64 603.206 52.4267 602.886 53.92L580.806 54V70.72H583.126L583.206 56.88C584.38 56.4533 585.82 56.1333 587.526 55.92C589.286 55.6533 591.126 55.52 593.046 55.52C594.966 55.52 596.806 55.6533 598.566 55.92C600.326 56.1333 601.82 56.4533 603.046 56.88C603.206 57.1467 603.42 58.0533 603.686 59.6C603.953 61.0933 604.166 62.9333 604.326 65.12C604.54 67.2533 604.646 69.4133 604.646 71.6C604.646 73.9467 604.38 76.32 603.846 78.72C603.366 81.12 602.486 83.4133 601.206 85.6C599.926 87.7333 598.113 89.6533 595.766 91.36C593.42 93.0133 590.406 94.32 586.726 95.28C583.1 96.24 578.673 96.72 573.446 96.72Z" fill="#CCD7FF"/>
<path d="M56.72 95.36L48.4477 98.9053L51.0412 104.957L57.5939 104.317L56.72 95.36ZM55.6 91.12L64.4921 89.7306L64.4921 89.7306L55.6 91.12ZM55.12 85.84L46.1237 86.097L46.1239 86.1046L55.12 85.84ZM55.28 80.48L46.3495 79.3637L46.3323 79.5016L46.3193 79.6399L55.28 80.48ZM56.16 76.24L52.8175 67.8837L48.9418 69.434L47.6218 73.394L56.16 76.24ZM58.48 74.64L52.116 68.276L52.116 68.276L58.48 74.64ZM60.48 70.88L69.0703 73.5645L69.0819 73.5273L69.0932 73.4901L60.48 70.88ZM60.32 55.84L51.7819 58.686L51.8345 58.8441L51.893 59.0001L60.32 55.84ZM58.16 52.32L52.5377 59.3478L52.7925 59.5516L53.0612 59.7364L58.16 52.32ZM56 51.36L47.9502 55.3849L50.4377 60.36H56V51.36ZM54.96 47.44L46.034 48.5917L46.034 48.5917L54.96 47.44ZM54.64 42.16L45.6435 41.9101L45.64 42.035V42.16H54.64ZM55.12 36.64L64.0184 37.9882L64.0214 37.9689L64.0242 37.9494L55.12 36.64ZM56.32 32L56.6846 23.0074L50.4227 22.7535L48.0123 28.5385L56.32 32ZM66.96 32.08L66.6602 23.085L66.6551 23.0852L66.96 32.08ZM76.48 31.6L75.8813 22.6199L75.8712 22.6206L76.48 31.6ZM86.88 31.04L87.2654 40.0317L87.3258 40.0292L87.3862 40.0257L86.88 31.04ZM119.44 32.72L117.236 41.4461L117.288 41.4591L117.34 41.4715L119.44 32.72ZM131.68 39.6L138.521 33.752L138.521 33.752L131.68 39.6ZM135.84 53.68L126.84 53.6011L126.84 53.6405V53.68H135.84ZM134.32 62.08L125.976 58.7069L125.957 58.7536L125.939 58.8004L134.32 62.08ZM130.08 68.32L124.007 61.6777L118.99 66.2647L122.03 72.3449L130.08 68.32ZM133.76 73.44L127.655 80.0532L127.655 80.0532L133.76 73.44ZM137.68 76.24L146.218 73.3939L145.01 69.7693L141.563 68.1208L137.68 76.24ZM138.4 80.48L129.418 81.0414L129.426 81.1809L129.439 81.3201L138.4 80.48ZM138.56 85.84L129.564 85.5829L129.56 85.7114V85.84H138.56ZM138.16 91.12L129.268 89.7306L138.16 91.12ZM137.12 95.36L135.904 104.277L142.986 105.243L145.53 98.564L137.12 95.36ZM133.12 94.8L134.393 85.8905L134.254 85.8706L134.114 85.855L133.12 94.8ZM127.92 94.32L127.212 103.292L127.212 103.292L127.92 94.32ZM110.48 94.32L109.93 85.3368L109.919 85.3375L110.48 94.32ZM104 94.8L103.185 85.837L103.034 85.8507L102.884 85.8695L104 94.8ZM99.36 95.36L90.4419 94.1489L88.8829 105.629L100.392 104.301L99.36 95.36ZM100.16 84H91.16V84.0738L91.1612 84.1475L100.16 84ZM98.8 75.44L90.358 78.5598L90.3581 78.5599L98.8 75.44ZM94.16 68.88L100.098 62.117L85.16 49.0006V68.88H94.16ZM94.16 76.24H85.16V84.9935L93.9101 85.2365L94.16 76.24ZM97.04 76.32L105.74 74.017L104.018 67.5104L97.2899 67.3235L97.04 76.32ZM97.84 82.64L88.8422 82.8399L88.8445 82.9443L88.8493 83.0487L97.84 82.64ZM97.6 89.6L88.6602 88.5605L88.6494 88.6535L88.6405 88.7467L97.6 89.6ZM96.48 95.28L95.6267 104.239L102.679 104.911L104.988 98.2139L96.48 95.28ZM87.68 94.48L88.471 85.5148L88.471 85.5148L87.68 94.48ZM75.84 94.08L75.7275 85.0807L75.7195 85.0808L75.7114 85.0809L75.84 94.08ZM65.12 94.56L64.419 85.5873L64.3494 85.5928L64.2799 85.5993L65.12 94.56ZM93.84 60.32H84.84V69.32H93.84V60.32ZM98.72 60.32V69.32H107.72V60.32H98.72ZM98.72 54.8H107.72V45.8H98.72V54.8ZM93.84 54.8V45.8H84.84V54.8H93.84ZM64.9923 91.8147C64.9024 91.605 64.6869 90.9772 64.4921 89.7306L46.7079 92.5094C47.0464 94.6762 47.5776 96.875 48.4477 98.9053L64.9923 91.8147ZM64.4921 89.7306C64.2865 88.4144 64.1589 87.0307 64.1161 85.5754L46.1239 86.1046C46.1878 88.2759 46.3802 90.4123 46.7079 92.5094L64.4921 89.7306ZM64.1163 85.583C64.0725 84.0503 64.1178 82.6315 64.2407 81.3201L46.3193 79.6399C46.1222 81.7419 46.0608 83.8964 46.1237 86.097L64.1163 85.583ZM64.2105 81.5963C64.3804 80.237 64.5759 79.4528 64.6982 79.086L47.6218 73.394C46.9974 75.2672 46.6062 77.3097 46.3495 79.3637L64.2105 81.5963ZM59.5025 84.5963C61.6587 83.7338 63.4247 82.4232 64.844 81.004L52.116 68.276C52.042 68.3501 52.2613 68.1062 52.8175 67.8837L59.5025 84.5963ZM64.844 81.004C67.1011 78.7468 68.3297 75.9345 69.0703 73.5645L51.8897 68.1955C51.8214 68.414 51.7614 68.5776 51.7143 68.6937C51.6671 68.8103 51.638 68.8663 51.6341 68.8735C51.6301 68.881 51.6592 68.8249 51.7314 68.7239C51.8038 68.6225 51.9282 68.4639 52.116 68.276L64.844 81.004ZM69.0932 73.4901C70.0017 70.492 70.28 67.0181 70.28 63.52H52.28C52.28 66.3153 52.0249 67.748 51.8668 68.2699L69.0932 73.4901ZM70.28 63.52C70.28 59.8001 69.9657 55.9298 68.747 52.6799L51.893 59.0001C51.8873 58.9848 52.0039 59.3113 52.1095 60.1563C52.2112 60.9699 52.28 62.0752 52.28 63.52H70.28ZM68.8582 52.9939C68.0847 50.6735 66.5721 47.1815 63.2588 44.9036L53.0612 59.7364C52.1688 59.1228 51.7616 58.4978 51.6691 58.3471C51.5705 58.1865 51.6359 58.2482 51.7819 58.686L68.8582 52.9939ZM63.7823 45.2922C62.2809 44.0911 59.5923 42.36 56 42.36V60.36C54.8051 60.36 53.8964 60.0606 53.3647 59.8243C52.8466 59.594 52.5701 59.3737 52.5377 59.3478L63.7823 45.2922ZM64.0498 47.3351C64.1441 47.5235 64.1336 47.5576 64.0791 47.3521C64.0266 47.1542 63.9534 46.8109 63.886 46.2883L46.034 48.5917C46.3131 50.7549 46.8414 53.1673 47.9502 55.3849L64.0498 47.3351ZM63.886 46.2883C63.7274 45.0589 63.64 43.6864 63.64 42.16H45.64C45.64 44.3669 45.766 46.5144 46.034 48.5917L63.886 46.2883ZM63.6365 42.4099C63.6804 40.8291 63.811 39.3573 64.0184 37.9882L46.2216 35.2918C45.8957 37.4427 45.7062 39.6509 45.6435 41.9101L63.6365 42.4099ZM64.0242 37.9494C64.2148 36.6538 64.4568 35.8717 64.6277 35.4615L48.0123 28.5385C47.1165 30.6883 46.5586 32.9995 46.2158 35.3306L64.0242 37.9494ZM55.9554 40.9926C60.0719 41.1595 63.8476 41.1907 67.2649 41.0748L66.6551 23.0852C63.7791 23.1827 60.4614 23.1605 56.6846 23.0074L55.9554 40.9926ZM67.2598 41.075C70.5613 40.965 73.8377 40.7998 77.0888 40.5794L75.8712 22.6206C72.829 22.8269 69.7587 22.9817 66.6602 23.085L67.2598 41.075ZM77.0787 40.5801C80.1972 40.3722 83.5919 40.1892 87.2654 40.0317L86.4946 22.0482C82.7014 22.2108 79.1628 22.4012 75.8813 22.6199L77.0787 40.5801ZM87.3862 40.0257C90.9578 39.8245 95.2348 39.72 100.24 39.72V21.72C95.0052 21.72 90.3755 21.8288 86.3738 22.0542L87.3862 40.0257ZM100.24 39.72C107.277 39.72 112.891 40.3488 117.236 41.4461L121.644 23.9939C115.429 22.4245 108.243 21.72 100.24 21.72V39.72ZM117.34 41.4715C121.312 42.4248 123.536 43.9235 124.839 45.448L138.521 33.752C134.171 28.6631 128.235 25.5752 121.54 23.9685L117.34 41.4715ZM124.839 45.448C125.782 46.5509 126.882 48.8331 126.84 53.6011L144.84 53.7589C144.904 46.3669 143.232 39.2625 138.521 33.752L124.839 45.448ZM126.84 53.68C126.84 55.7824 126.498 57.4152 125.976 58.7069L142.664 65.4531C144.168 61.7315 144.84 57.7643 144.84 53.68H126.84ZM125.939 58.8004C125.459 60.0259 124.814 60.9396 124.007 61.6777L136.153 74.9623C139.079 72.2871 141.261 69.0408 142.701 65.3596L125.939 58.8004ZM122.03 72.3449C123.46 75.2055 125.289 77.8691 127.655 80.0532L139.865 66.8268C139.457 66.4509 138.833 65.7012 138.13 64.2951L122.03 72.3449ZM127.655 80.0532C129.467 81.7255 131.512 83.2666 133.797 84.3592L141.563 68.1208C141.394 68.0401 140.826 67.7145 139.865 66.8268L127.655 80.0532ZM129.142 79.0861C129.186 79.218 129.34 79.7975 129.418 81.0414L147.382 79.9186C147.247 77.7491 146.921 75.502 146.218 73.3939L129.142 79.0861ZM129.439 81.3201C129.562 82.6315 129.607 84.0503 129.564 85.5829L147.556 86.097C147.619 83.8964 147.558 81.7419 147.361 79.6399L129.439 81.3201ZM129.56 85.84C129.56 87.2111 129.459 88.5057 129.268 89.7306L147.052 92.5094C147.394 90.3209 147.56 88.0956 147.56 85.84H129.56ZM129.268 89.7306C129.06 91.0636 128.839 91.8168 128.71 92.156L145.53 98.564C146.255 96.6632 146.727 94.5897 147.052 92.5094L129.268 89.7306ZM138.336 86.4425C137.186 86.2857 135.872 86.1018 134.393 85.8905L131.847 103.71C133.355 103.925 134.707 104.114 135.904 104.277L138.336 86.4425ZM134.114 85.855C132.55 85.6812 130.716 85.5127 128.628 85.3479L127.212 103.292C129.178 103.447 130.81 103.599 132.126 103.745L134.114 85.855ZM128.628 85.3479C126.285 85.1629 123.525 85.08 120.4 85.08V103.08C123.249 103.08 125.502 103.157 127.212 103.292L128.628 85.3479ZM120.4 85.08C116.301 85.08 112.795 85.1614 109.93 85.3368L111.03 103.303C113.392 103.159 116.499 103.08 120.4 103.08V85.08ZM109.919 85.3375C107.308 85.5007 105.058 85.6667 103.185 85.837L104.815 103.763C106.462 103.613 108.532 103.459 111.041 103.302L109.919 85.3375ZM102.884 85.8695C101.199 86.0801 99.6812 86.2632 98.3284 86.4193L100.392 104.301C101.812 104.137 103.388 103.947 105.116 103.731L102.884 85.8695ZM108.278 96.5711C108.907 91.9418 109.222 87.683 109.159 83.8525L91.1612 84.1475C91.2051 86.8237 90.9865 90.1382 90.4419 94.1489L108.278 96.5711ZM109.16 84C109.16 79.9317 108.595 75.9824 107.242 72.3201L90.3581 78.5599C90.8179 79.8043 91.16 81.5616 91.16 84H109.16ZM107.242 72.3202C105.76 68.3106 103.28 64.9112 100.098 62.117L88.2218 75.643C89.4129 76.6888 90.0265 77.6627 90.358 78.5598L107.242 72.3202ZM85.16 68.88V76.24H103.16V68.88H85.16ZM93.9101 85.2365L96.7901 85.3165L97.2899 67.3235L94.4099 67.2435L93.9101 85.2365ZM88.3397 78.623C88.5955 79.5896 88.8005 80.9633 88.8422 82.8399L106.838 82.4401C106.773 79.5167 106.444 76.677 105.74 74.017L88.3397 78.623ZM88.8493 83.0487C88.9344 84.9205 88.8701 86.7561 88.6602 88.5605L106.54 90.6395C106.863 87.8573 106.959 85.0529 106.831 82.2313L88.8493 83.0487ZM88.6405 88.7467C88.4715 90.5221 88.2045 91.6707 87.9716 92.3461L104.988 98.2139C105.822 95.796 106.302 93.1579 106.559 90.4533L88.6405 88.7467ZM97.3333 86.3205C95.0639 86.1044 92.1075 85.8357 88.471 85.5148L86.889 103.445C90.5058 103.764 93.4161 104.029 95.6267 104.239L97.3333 86.3205ZM88.471 85.5148C84.4982 85.1643 80.246 85.0242 75.7275 85.0807L75.9525 103.079C79.9673 103.029 83.6085 103.156 86.889 103.445L88.471 85.5148ZM75.7114 85.0809C71.804 85.1367 68.039 85.3045 64.419 85.5873L65.821 103.533C69.0277 103.282 72.4093 103.13 75.9686 103.079L75.7114 85.0809ZM64.2799 85.5993C60.8608 85.9198 58.0484 86.1877 55.8461 86.4025L57.5939 104.317C59.7649 104.106 62.5525 103.84 65.9601 103.521L64.2799 85.5993ZM93.84 69.32H98.72V51.32H93.84V69.32ZM107.72 60.32V54.8H89.72V60.32H107.72ZM98.72 45.8H93.84V63.8H98.72V45.8ZM84.84 54.8V60.32H102.84V54.8H84.84ZM159.078 93.12L155.378 101.324L155.426 101.346L155.474 101.367L159.078 93.12ZM147.078 82.64L139.241 87.0655L139.241 87.0655L147.078 82.64ZM147.318 48.48L139.665 43.7428L139.645 43.7759L139.624 43.8092L147.318 48.48ZM160.198 38.72L163.16 47.2184L163.195 47.2063L163.229 47.1939L160.198 38.72ZM200.918 37.76L198.572 46.4489L198.582 46.4518L198.593 46.4547L200.918 37.76ZM213.638 44.16L207.566 50.8039L207.598 50.8327L207.63 50.8611L213.638 44.16ZM217.558 59.04L208.962 56.3724L208.932 56.4696L208.904 56.5675L217.558 59.04ZM214.838 63.12L208.874 56.379L208.874 56.379L214.838 63.12ZM208.598 66.08L206.258 57.3895L206.258 57.3895L208.598 66.08ZM189.078 67.12L188.687 76.1115L188.786 76.1158L188.886 76.118L189.078 67.12ZM182.278 66.64L183.196 57.687L182.738 57.64H182.278V66.64ZM178.278 66.64V57.64H169.278V66.64H178.278ZM178.278 72.56H169.278V81.56H178.278V72.56ZM182.198 72.56V81.56H191.198V72.56H182.198ZM182.198 69.36L181.773 60.37L173.198 60.7745V69.36H182.198ZM218.038 69.36H227.038V60.7333L218.419 60.3681L218.038 69.36ZM214.198 84.32L206.588 79.5141L206.588 79.5141L214.198 84.32ZM202.118 93.6L205.304 102.017L205.34 102.003L205.376 101.99L202.118 93.6ZM178.278 62.48H169.278V71.48H178.278V62.48ZM182.198 62.48V71.48H191.198V62.48H182.198ZM182.198 57.84H191.198V48.84H182.198V57.84ZM178.278 57.84V48.84H169.278V57.84H178.278ZM180.358 87.72C172.391 87.72 166.646 86.6053 162.681 84.8727L155.474 101.367C162.495 104.435 170.937 105.72 180.358 105.72V87.72ZM162.777 84.9157C158.818 83.13 156.399 80.8432 154.914 78.2145L139.241 87.0655C142.876 93.5035 148.457 98.2034 155.378 101.324L162.777 84.9157ZM154.914 78.2145C153.273 75.3085 152.238 71.4418 152.238 66.24H134.238C134.238 73.8382 135.762 80.9049 139.241 87.0655L154.914 78.2145ZM152.238 66.24C152.238 59.8923 153.424 55.7643 155.011 53.1508L139.624 43.8092C135.771 50.1557 134.238 57.8677 134.238 66.24H152.238ZM154.97 53.2172C156.48 50.7776 158.951 48.6857 163.16 47.2184L157.235 30.2216C149.817 32.8077 143.702 37.2224 139.665 43.7428L154.97 53.2172ZM163.229 47.1939C167.719 45.5875 174.084 44.6 182.678 44.6V26.6C172.924 26.6 164.302 27.6925 157.166 30.2461L163.229 47.1939ZM182.678 44.6C188.89 44.6 194.158 45.2572 198.572 46.4489L203.263 29.0711C197.01 27.3828 190.118 26.6 182.678 26.6V44.6ZM198.593 46.4547C203.027 47.64 205.833 49.2197 207.566 50.8039L219.709 37.5161C215.256 33.4469 209.581 30.76 203.242 29.0653L198.593 46.4547ZM207.63 50.8611C208.844 51.9501 209.278 52.9646 209.278 54.48H227.278C227.278 47.7821 224.617 41.9166 219.645 37.4589L207.63 50.8611ZM209.278 54.48C209.278 54.9958 209.196 55.6169 208.962 56.3724L226.153 61.7076C226.879 59.3697 227.278 56.9508 227.278 54.48H209.278ZM208.904 56.5675C208.93 56.4761 208.961 56.3941 208.994 56.3249C209.026 56.2561 209.054 56.2102 209.069 56.1877C209.099 56.1425 209.061 56.2135 208.874 56.379L220.801 69.861C223.223 67.7183 225.229 64.9501 226.211 61.5125L208.904 56.5675ZM208.874 56.379C208.946 56.3155 208.834 56.4333 208.38 56.6485C207.93 56.8618 207.245 57.1237 206.258 57.3895L210.937 74.7705C214.384 73.8425 217.956 72.3778 220.801 69.861L208.874 56.379ZM206.258 57.3895C204.568 57.8443 201.748 58.2 197.478 58.2V76.2C202.487 76.2 207.08 75.809 210.937 74.7705L206.258 57.3895ZM197.478 58.2C194.434 58.2 191.699 58.1737 189.269 58.122L188.886 76.118C191.469 76.1729 194.334 76.2 197.478 76.2V58.2ZM189.468 58.1285C187.162 58.0282 185.073 57.8795 183.196 57.687L181.359 75.593C183.642 75.8271 186.087 75.9985 188.687 76.1115L189.468 58.1285ZM182.278 57.64H178.278V75.64H182.278V57.64ZM169.278 66.64V72.56H187.278V66.64H169.278ZM178.278 81.56H182.198V63.56H178.278V81.56ZM191.198 72.56V69.36H173.198V72.56H191.198ZM182.622 78.35C193.632 77.8306 205.309 77.8287 217.656 78.3519L218.419 60.3681C205.593 59.8246 193.376 59.8227 181.773 60.37L182.622 78.35ZM209.038 69.36C209.038 73.9784 208.048 77.2032 206.588 79.5141L221.807 89.1259C225.467 83.3301 227.038 76.5816 227.038 69.36H209.038ZM206.588 79.5141C205.274 81.5943 202.976 83.6119 198.859 85.2104L205.376 101.99C212.246 99.3215 218.001 95.1524 221.807 89.1259L206.588 79.5141ZM198.931 85.1832C194.849 86.7286 188.802 87.72 180.358 87.72V105.72C189.94 105.72 198.399 104.631 205.304 102.017L198.931 85.1832ZM178.278 71.48H182.198V53.48H178.278V71.48ZM191.198 62.48V57.84H173.198V62.48H191.198ZM182.198 48.84H178.278V66.84H182.198V48.84ZM169.278 57.84V62.48H187.278V57.84H169.278ZM226.316 95.36L217.96 98.7025L220.451 104.93L227.131 104.323L226.316 95.36ZM225.276 91.28L216.384 92.6694L216.388 92.6913L216.391 92.7131L225.276 91.28ZM224.796 85.92H215.796V86.0485L215.8 86.177L224.796 85.92ZM224.956 80.64L215.996 79.7999L215.983 79.9301L215.975 80.0606L224.956 80.64ZM225.756 76.48L222.729 68.0043L218.681 69.45L217.262 73.5068L225.756 76.48ZM227.916 75.04L221.792 68.4449L221.67 68.5582L221.552 68.676L227.916 75.04ZM229.756 71.68L238.352 74.3476L238.364 74.3069L238.377 74.2661L229.756 71.68ZM230.636 64.88L239.63 65.2071L239.969 55.88H230.636V64.88ZM225.436 64.88L216.576 66.4621L217.901 73.88H225.436V64.88ZM224.876 59.6L215.889 60.073L215.889 60.073L224.876 59.6ZM224.876 53.6L233.863 54.0858L233.864 54.073L224.876 53.6ZM225.436 48.32V39.32H217.901L216.576 46.7379L225.436 48.32ZM236.796 48.32V57.32L237.812 39.3775L236.796 48.32ZM231.516 45.44L224.1 50.5388L224.138 50.594L224.177 50.6487L231.516 45.44ZM230.956 39.44L239.454 42.4043L239.467 42.3669L239.48 42.3294L230.956 39.44ZM240.396 31.44L243.87 39.7427L243.891 39.734L243.911 39.7252L240.396 31.44ZM289.596 36.48L282.217 41.6318L282.249 41.6782L282.282 41.7242L289.596 36.48ZM290.236 55.6L282.8 50.53L282.76 50.5883L282.722 50.6472L290.236 55.6ZM284.076 60.96L280.187 52.8437L280.187 52.8437L284.076 60.96ZM269.196 62L267.112 70.7553L267.112 70.7553L269.196 62ZM262.956 59.28L267.949 51.7915L260.607 46.8971L255.568 54.1404L262.956 59.28ZM261.676 61.12L254.288 55.9804L249.114 63.4184L256.586 68.5426L261.676 61.12ZM267.996 64.08L265.446 72.7112L265.472 72.7189L265.498 72.7264L267.996 64.08ZM281.596 64.32L279.187 55.6483L279.156 55.6572L279.124 55.6663L281.596 64.32ZM286.716 62.16L295.254 59.314L291.687 48.6129L282.045 54.4669L286.716 62.16ZM287.596 67.04L278.612 67.5685L278.62 67.7118L278.633 67.8548L287.596 67.04ZM287.756 72.16L296.751 72.4598L296.752 72.4502L287.756 72.16ZM287.276 76V85H294.117L295.948 78.4088L287.276 76ZM264.956 76V67H253.429L256.225 78.1828L264.956 76ZM273.996 78.64L282.501 75.696L280.288 69.3025L273.531 69.652L273.996 78.64ZM274.876 83.84L265.888 84.3009L265.888 84.3009L274.876 83.84ZM274.636 90.08L265.709 88.9355L265.695 89.0485L265.683 89.1617L274.636 90.08ZM273.436 95.36L272.464 104.307L279.211 105.041L281.771 98.7557L273.436 95.36ZM264.236 94.56L264.887 85.5835L264.887 85.5835L264.236 94.56ZM239.436 94.4L239.086 85.4068L239.025 85.4092L238.963 85.4124L239.436 94.4ZM234.673 92.0175C234.576 91.7755 234.366 91.1149 234.161 89.8469L216.391 92.7131C216.72 94.7517 217.203 96.8111 217.96 98.7025L234.673 92.0175ZM234.168 89.8906C233.965 88.5875 233.836 87.1806 233.793 85.663L215.8 86.177C215.863 88.3928 216.054 90.5591 216.384 92.6694L234.168 89.8906ZM233.796 85.92C233.796 84.2229 233.845 82.6576 233.938 81.2194L215.975 80.0606C215.854 81.9291 215.796 83.8838 215.796 85.92H233.796ZM233.917 81.4801C234.04 80.1678 234.209 79.5735 234.251 79.4532L217.262 73.5068C216.557 75.5198 216.193 77.6989 215.996 79.7999L233.917 81.4801ZM228.783 84.9557C231.046 84.1476 232.862 82.8217 234.28 81.404L221.552 68.676C221.583 68.645 221.96 68.279 222.729 68.0043L228.783 84.9557ZM234.04 81.6351C236.429 79.4171 237.654 76.5962 238.352 74.3476L221.161 69.0124C221.054 69.3568 220.996 69.4422 221.042 69.3572C221.088 69.2747 221.304 68.8979 221.792 68.4449L234.04 81.6351ZM238.377 74.2661C239.182 71.5802 239.513 68.4223 239.63 65.2071L221.642 64.5529C221.546 67.2044 221.29 68.5798 221.136 69.0939L238.377 74.2661ZM230.636 55.88H225.436V73.88H230.636V55.88ZM234.296 63.2979C234.113 62.2699 233.957 60.8973 233.864 59.127L215.889 60.073C216.009 62.3561 216.227 64.5035 216.576 66.4621L234.296 63.2979ZM233.864 59.127C233.774 57.4111 233.774 55.7313 233.863 54.0858L215.889 53.1142C215.765 55.4154 215.766 57.7355 215.889 60.073L233.864 59.127ZM233.864 54.073C233.957 52.3027 234.113 50.9301 234.296 49.9021L216.576 46.7379C216.227 48.6965 216.009 50.8439 215.889 53.127L233.864 54.073ZM225.436 57.32H236.796V39.32H225.436V57.32ZM237.812 39.3775C237.592 39.3525 237.721 39.3327 238.026 39.4989C238.176 39.5806 238.337 39.691 238.493 39.8301C238.649 39.9688 238.769 40.1093 238.856 40.2313L224.177 50.6487C227.08 54.7399 231.352 56.7592 235.78 57.2624L237.812 39.3775ZM238.933 40.3412C239.188 40.7126 239.403 41.2455 239.457 41.8236C239.506 42.3492 239.392 42.5823 239.454 42.4043L222.458 36.4756C220.9 40.944 221.008 46.0415 224.1 50.5388L238.933 40.3412ZM239.48 42.3294C239.376 42.6355 239.308 42.477 239.935 41.9461C240.597 41.3849 241.813 40.6031 243.87 39.7427L236.923 23.1373C230.917 25.6498 224.758 29.6913 222.433 36.5506L239.48 42.3294ZM243.911 39.7252C247.598 38.1612 253.526 37.08 262.316 37.08V19.08C252.44 19.08 243.755 20.2388 236.881 23.1548L243.911 39.7252ZM262.316 37.08C269.232 37.08 274.106 37.7461 277.306 38.7485L282.687 21.5715C277.033 19.8005 270.12 19.08 262.316 19.08V37.08ZM277.306 38.7485C280.485 39.7443 281.721 40.9216 282.217 41.6318L296.976 31.3282C293.525 26.3851 288.361 23.3491 282.687 21.5715L277.306 38.7485ZM282.282 41.7242C282.971 42.6858 283.636 44.3005 283.636 47.2H301.636C301.636 41.4595 300.274 35.9275 296.911 31.2358L282.282 41.7242ZM283.636 47.2C283.636 48.916 283.238 49.8873 282.8 50.53L297.672 60.67C300.434 56.6193 301.636 51.9906 301.636 47.2H283.636ZM282.722 50.6472C282.083 51.6155 281.29 52.3154 280.187 52.8437L287.965 69.0763C291.983 67.1512 295.296 64.2779 297.751 60.5528L282.722 50.6472ZM280.187 52.8437C278.947 53.4379 277.466 53.8 275.596 53.8V71.8C279.913 71.8 284.085 70.9354 287.965 69.0763L280.187 52.8437ZM275.596 53.8C274.359 53.8 272.929 53.6371 271.281 53.2447L267.112 70.7553C269.944 71.4296 272.78 71.8 275.596 71.8V53.8ZM271.281 53.2447C270.08 52.9588 268.984 52.4818 267.949 51.7915L257.964 66.7685C260.769 68.6382 263.833 69.9746 267.112 70.7553L271.281 53.2447ZM255.568 54.1404L254.288 55.9804L269.064 66.2596L270.344 64.4196L255.568 54.1404ZM256.586 68.5426C259.292 70.3976 262.268 71.7722 265.446 72.7112L270.546 55.4488C269.031 55.0012 267.794 54.4024 266.766 53.6974L256.586 68.5426ZM265.498 72.7264C268.763 73.6696 272.141 74.12 275.596 74.12V56.12C273.718 56.12 272.029 55.8771 270.494 55.4336L265.498 72.7264ZM275.596 74.12C278.484 74.12 281.323 73.7582 284.069 72.9737L279.124 55.6663C278.136 55.9484 276.975 56.12 275.596 56.12V74.12ZM284.005 72.9917C286.611 72.2678 289.097 71.2433 291.387 69.8531L282.045 54.4669C281.349 54.89 280.422 55.3055 279.187 55.6483L284.005 72.9917ZM278.178 65.006C278.365 65.5666 278.543 66.3944 278.612 67.5685L296.581 66.5115C296.436 64.0589 296.028 61.6334 295.254 59.314L278.178 65.006ZM278.633 67.8548C278.762 69.2722 278.802 70.6092 278.761 71.8698L296.752 72.4502C296.818 70.4042 296.75 68.3278 296.559 66.2252L278.633 67.8548ZM278.761 71.8602C278.742 72.4492 278.705 72.89 278.666 73.2037C278.625 73.5269 278.592 73.6374 278.605 73.5912L295.948 78.4088C296.485 76.4753 296.687 74.3986 296.751 72.4598L278.761 71.8602ZM287.276 67H264.956V85H287.276V67ZM256.225 78.1828C257.456 83.1085 261.239 85.7319 264.613 86.8118L270.099 69.6682C270.357 69.7507 271.094 70.0306 271.897 70.7805C272.773 71.5981 273.402 72.6742 273.688 73.8172L256.225 78.1828ZM264.613 86.8118C267.631 87.7773 271.278 87.7926 274.461 87.628L273.531 69.652C272.199 69.7209 271.227 69.7166 270.557 69.6763C269.818 69.6318 269.763 69.5604 270.099 69.6682L264.613 86.8118ZM265.491 81.584C265.605 81.9126 265.808 82.7437 265.888 84.3009L283.864 83.3791C283.731 80.7763 283.347 78.1408 282.501 75.696L265.491 81.584ZM265.888 84.3009C265.967 85.8414 265.908 87.3841 265.709 88.9355L283.563 91.2245C283.898 88.6159 283.999 85.9986 283.864 83.3791L265.888 84.3009ZM265.683 89.1617C265.529 90.6634 265.276 91.5356 265.101 91.9643L281.771 98.7557C282.77 96.3044 283.317 93.6566 283.589 90.9983L265.683 89.1617ZM274.409 86.4127C271.81 86.1302 268.627 85.8546 264.887 85.5835L263.586 103.536C267.205 103.799 270.156 104.056 272.464 104.307L274.409 86.4127ZM264.887 85.5835C260.955 85.2986 256.708 85.16 252.156 85.16V103.16C256.351 103.16 260.157 103.288 263.586 103.536L264.887 85.5835ZM252.156 85.16C247.673 85.16 243.316 85.242 239.086 85.4068L239.787 103.393C243.769 103.238 247.892 103.16 252.156 103.16V85.16ZM238.963 85.4124C234.779 85.6326 230.291 85.9616 225.501 86.397L227.131 104.323C231.728 103.905 235.986 103.594 239.909 103.388L238.963 85.4124ZM300.377 95.36L291.787 98.0445L294.023 105.202L301.466 104.294L300.377 95.36ZM299.177 89.28L290.214 90.0948L290.223 90.1956L290.234 90.2962L299.177 89.28ZM299.017 82.24L308.008 82.6487L308.008 82.6487L299.017 82.24ZM299.817 76.4L297.545 67.6914L292.522 69.0019L291.141 74.0066L299.817 76.4ZM303.177 73.92L310.342 79.3657L310.394 79.2984L310.443 79.2301L303.177 73.92ZM303.817 60.72L295.309 63.6539L295.371 63.8338L295.44 64.0109L303.817 60.72ZM301.977 57.44L308.081 50.8268L308.081 50.8268L301.977 57.44ZM300.137 56.4L291.524 59.0101L293.265 64.7577L299.241 65.3553L300.137 56.4ZM299.017 50.16L290.036 50.7457L290.043 50.8514L290.052 50.9569L299.017 50.16ZM299.097 42.88L290.152 41.8861L290.141 41.9845L290.132 42.0831L299.097 42.88ZM300.457 36.96L301.597 28.0324L294.771 27.1612L292.141 33.5188L300.457 36.96ZM308.937 37.76L308.328 46.7394L308.404 46.7445L308.48 46.7484L308.937 37.76ZM328.377 37.92L328.527 46.9187L328.602 46.9175L328.677 46.915L328.377 37.92ZM336.297 37.6L342.956 43.654L357.648 27.4932L335.836 28.6118L336.297 37.6ZM334.617 40.24L342.589 44.4161L342.629 44.3409L342.667 44.2649L334.617 40.24ZM333.017 43.92L324.549 40.8715L324.494 41.0233L324.445 41.177L333.017 43.92ZM332.057 47.76L340.912 49.37L340.918 49.336L340.924 49.3021L332.057 47.76ZM331.977 50.48L323.246 52.6628L330.489 81.6382L340.461 53.4846L331.977 50.48ZM336.217 43.28L343.05 49.1371L343.05 49.1371L336.217 43.28ZM343.657 37.84L347.392 46.0284L347.424 46.0139L347.455 45.9992L343.657 37.84ZM367.577 40.24L373.776 33.715L373.776 33.715L367.577 40.24ZM366.857 69.36L360.587 62.9031L360.564 62.926L360.54 62.9491L366.857 69.36ZM342.777 71.92L336.999 78.8208L337.086 78.8932L337.174 78.9634L342.777 71.92ZM339.417 63.76L348.416 63.8963L348.554 54.76H339.417V63.76ZM337.097 63.76V54.76H328.256L328.098 63.5993L337.097 63.76ZM338.697 71.2L330.87 75.6424L330.915 75.7215L330.961 75.7997L338.697 71.2ZM343.897 76.24L352.435 73.394L351.388 70.252L348.554 68.5384L343.897 76.24ZM344.617 80.48L335.634 81.0414L335.643 81.1809L335.656 81.3201L344.617 80.48ZM344.777 85.92L353.773 86.177L353.773 86.1699L344.777 85.92ZM344.297 91.28L353.182 92.7131L353.186 92.6912L353.189 92.6694L344.297 91.28ZM343.257 95.36L342.442 104.323L349.122 104.93L351.613 98.7025L343.257 95.36ZM336.537 94.8L337.241 85.8276L337.153 85.8207L337.065 85.8155L336.537 94.8ZM327.897 94.32L328.37 85.3324L328.291 85.3283L328.212 85.3255L327.897 94.32ZM308.377 94.56L307.629 85.5911L307.617 85.5921L308.377 94.56ZM308.967 92.6755C308.648 91.6534 308.341 90.2129 308.119 88.2638L290.234 90.2962C290.546 93.0404 291.039 95.6532 291.787 98.0445L308.967 92.6755ZM308.14 88.4652C307.963 86.524 307.92 84.5861 308.008 82.6487L290.026 81.8313C289.901 84.5872 289.964 87.3427 290.214 90.0948L308.14 88.4652ZM308.008 82.6487C308.096 80.694 308.306 79.4692 308.493 78.7934L291.141 74.0066C290.474 76.4241 290.151 79.0926 290.026 81.8313L308.008 82.6487ZM302.089 85.1086C305.812 84.1372 308.502 81.7878 310.342 79.3657L296.011 68.4742C295.826 68.7189 296.275 68.0228 297.545 67.6914L302.089 85.1086ZM310.443 79.2301C313.203 75.454 313.697 70.7268 313.697 67.04H295.697C295.697 68.2047 295.601 68.8916 295.529 69.2184C295.451 69.569 295.465 69.2193 295.91 68.6098L310.443 79.2301ZM313.697 67.04C313.697 63.8665 313.382 60.4539 312.194 57.4291L295.44 64.0109C295.406 63.9242 295.484 64.0973 295.563 64.6612C295.639 65.2085 295.697 65.987 295.697 67.04H313.697ZM312.325 57.7861C311.615 55.7278 310.399 52.9658 308.081 50.8268L295.872 64.0532C295.596 63.7983 295.409 63.5735 295.295 63.4227C295.181 63.2715 295.122 63.1698 295.108 63.1433C295.086 63.1042 295.167 63.2447 295.309 63.6539L312.325 57.7861ZM308.081 50.8268C306.923 49.7572 304.507 47.7921 301.032 47.4447L299.241 65.3553C297.94 65.2252 297.023 64.7921 296.568 64.5351C296.107 64.2743 295.875 64.0559 295.872 64.0532L308.081 50.8268ZM308.75 53.7899C308.441 52.7698 308.156 51.3259 307.982 49.3631L290.052 50.9569C290.304 53.7941 290.766 56.5102 291.524 59.0101L308.75 53.7899ZM307.998 49.5743C307.867 47.5722 307.89 45.6078 308.062 43.6769L290.132 42.0831C289.877 44.9522 289.847 47.8412 290.036 50.7457L307.998 49.5743ZM308.042 43.8739C308.253 41.9777 308.565 40.9041 308.773 40.4012L292.141 33.5188C291.069 36.1092 290.475 38.9823 290.152 41.8861L308.042 43.8739ZM299.317 45.8875C302.037 46.2348 305.045 46.5168 308.328 46.7394L309.546 28.7806C306.535 28.5765 303.89 28.3252 301.597 28.0324L299.317 45.8875ZM308.48 46.7484C311.786 46.9165 315.165 47 318.617 47V29C315.455 29 312.381 28.9235 309.394 28.7716L308.48 46.7484ZM318.617 47C321.972 47 325.275 46.9729 328.527 46.9187L328.227 28.9212C325.079 28.9737 321.875 29 318.617 29V47ZM328.677 46.915C331.905 46.8074 334.604 46.6986 336.758 46.5882L335.836 28.6118C333.83 28.7147 331.248 28.8193 328.077 28.925L328.677 46.915ZM329.637 31.546C328.307 33.0093 327.315 34.7186 326.567 36.2151L342.667 44.2649C342.855 43.888 342.992 43.6546 343.07 43.5319C343.155 43.3983 343.123 43.4703 342.956 43.654L329.637 31.546ZM326.644 36.0639C325.846 37.5885 325.152 39.1969 324.549 40.8715L341.485 46.9685C341.842 45.9764 342.215 45.1315 342.589 44.4161L326.644 36.0639ZM324.445 41.177C323.908 42.8559 323.482 44.5383 323.19 46.2179L340.924 49.3021C341.058 48.5284 341.273 47.6508 341.589 46.663L324.445 41.177ZM323.202 46.15C322.915 47.7266 322.617 50.1502 323.246 52.6628L340.708 48.2972C340.802 48.6725 340.841 48.9755 340.859 49.177C340.876 49.3804 340.875 49.5212 340.873 49.5846C340.87 49.6975 340.862 49.6419 340.912 49.37L323.202 46.15ZM340.461 53.4846C340.967 52.0558 341.789 50.6089 343.05 49.1371L329.384 37.4229C326.805 40.4311 324.801 43.7842 323.493 47.4754L340.461 53.4846ZM343.05 49.1371C344.013 48.014 345.384 46.9444 347.392 46.0284L339.922 29.6516C335.85 31.5089 332.261 34.066 329.384 37.4229L343.05 49.1371ZM347.455 45.9992C349.113 45.2273 351.415 44.68 354.617 44.68V26.68C349.392 26.68 344.387 27.5727 339.859 29.6808L347.455 45.9992ZM354.617 44.68C358.315 44.68 360.22 45.6645 361.378 46.765L373.776 33.715C368.534 28.7355 361.799 26.68 354.617 26.68V44.68ZM361.378 46.765C362.087 47.4389 363.377 49.3471 363.377 54.56H381.377C381.377 46.7596 379.466 39.1211 373.776 33.715L361.378 46.765ZM363.377 54.56C363.377 59.0099 362.14 61.3954 360.587 62.9031L373.127 75.8168C378.934 70.1779 381.377 62.6968 381.377 54.56H363.377ZM360.54 62.9491C358.947 64.5188 356.501 65.72 352.137 65.72V83.72C360.146 83.72 367.513 81.3478 373.174 75.7709L360.54 62.9491ZM352.137 65.72C349.666 65.72 348.712 65.1412 348.38 64.8766L337.174 78.9634C341.535 82.4321 346.822 83.72 352.137 83.72V65.72ZM348.554 65.0192C348.511 64.9832 348.511 64.9754 348.527 64.9969C348.543 65.0189 348.546 65.0311 348.539 65.0132C348.526 64.9821 348.404 64.6708 348.416 63.8963L330.418 63.6237C330.332 69.3197 332.249 74.8434 336.999 78.8208L348.554 65.0192ZM339.417 54.76H337.097V72.76H339.417V54.76ZM328.098 63.5993C328.025 67.7012 328.74 71.8908 330.87 75.6424L346.524 66.7576C346.413 66.5626 346.062 65.7921 346.095 63.9207L328.098 63.5993ZM330.961 75.7997C333.008 79.2418 335.894 81.9181 339.24 83.9416L348.554 68.5384C347.314 67.7886 346.733 67.1049 346.433 66.6003L330.961 75.7997ZM335.359 79.086C335.403 79.2179 335.557 79.7975 335.634 81.0414L353.599 79.9186C353.464 77.7491 353.138 75.5021 352.435 73.394L335.359 79.086ZM335.656 81.3201C335.778 82.6243 335.825 84.0712 335.78 85.6701L353.773 86.1699C353.836 83.9288 353.775 81.749 353.578 79.6399L335.656 81.3201ZM335.781 85.663C335.737 87.1806 335.608 88.5875 335.405 89.8906L353.189 92.6694C353.519 90.5591 353.71 88.3928 353.773 86.177L335.781 85.663ZM335.412 89.8469C335.207 91.1149 334.997 91.7755 334.901 92.0175L351.613 98.7025C352.37 96.8111 352.853 94.7517 353.182 92.7131L335.412 89.8469ZM344.072 86.397C342.261 86.2323 339.98 86.0424 337.241 85.8276L335.833 103.772C338.534 103.984 340.733 104.168 342.442 104.323L344.072 86.397ZM337.065 85.8155C334.325 85.6543 331.426 85.4933 328.37 85.3324L327.424 103.308C330.447 103.467 333.309 103.626 336.008 103.784L337.065 85.8155ZM328.212 85.3255C325.077 85.2155 322.065 85.16 319.177 85.16V103.16C321.835 103.16 324.637 103.211 327.581 103.314L328.212 85.3255ZM319.177 85.16C314.985 85.16 311.13 85.2994 307.629 85.5911L309.124 103.529C312.024 103.287 315.369 103.16 319.177 103.16V85.16ZM307.617 85.5921C304.403 85.8645 301.619 86.1418 299.287 86.4262L301.466 104.294C303.508 104.045 306.058 103.789 309.137 103.528L307.617 85.5921ZM388.784 94.24L385.096 102.45L385.118 102.459L385.14 102.469L388.784 94.24ZM380.864 87.76L388.582 83.1295L388.582 83.1295L380.864 87.76ZM383.424 67.68L377.452 60.9473L377.452 60.9473L383.424 67.68ZM399.264 63.2L399.331 72.1998L399.34 72.1997L399.349 72.1996L399.264 63.2ZM416.224 63.04L416.309 72.0396L425.224 71.9555V63.04H416.224ZM416.224 58.8H425.224V49.8H416.224V58.8ZM411.824 58.8V49.8H402.824V58.8H411.824ZM411.824 60.96L412.177 69.9531L420.824 69.614V60.96H411.824ZM395.744 61.6L395.381 52.6073L395.381 52.6073L395.744 61.6ZM379.984 61.36L371.098 62.7841L372.227 69.8288L379.343 70.3371L379.984 61.36ZM380.384 37.2V28.2H373.046L371.569 35.3885L380.384 37.2ZM385.984 37.28L385.765 46.2773L385.77 46.2774L385.984 37.28ZM393.024 37.52L392.633 46.5115L392.733 46.5158L392.833 46.518L393.024 37.52ZM400.384 37.68L400.584 28.6822L400.584 28.6822L400.384 37.68ZM406.784 37.84L415.042 41.4185L420.327 29.2233L407.041 28.8437L406.784 37.84ZM405.584 42.64L396.604 42.0413L396.594 42.1906L396.589 42.3402L405.584 42.64ZM406.304 47.28L397.829 50.307L415.288 47.8212L406.304 47.28ZM411.344 38.08L406.997 30.1998L406.997 30.1998L411.344 38.08ZM441.264 38.72L436.94 46.6128L436.981 46.6357L437.023 46.6582L441.264 38.72ZM449.024 48.08L440.422 50.7268L440.442 50.7918L440.463 50.8565L449.024 48.08ZM449.824 54.48L440.834 54.0619L440.829 54.1638L440.827 54.2658L449.824 54.48ZM449.344 61.04L440.414 59.9237L440.414 59.9237L449.344 61.04ZM450.464 73.76L443.198 79.0701L443.314 79.2288L443.437 79.3823L450.464 73.76ZM453.824 76.4L462.42 73.7324L461.096 69.4678L456.9 67.9419L453.824 76.4ZM454.624 82.24L445.627 82.4445L445.629 82.5466L445.634 82.6487L454.624 82.24ZM453.344 95.36L455.339 104.136L460.39 102.988L461.935 98.0445L453.344 95.36ZM445.984 96.4L445.423 87.4175L445.33 87.4233L445.237 87.4311L445.984 96.4ZM430.224 95.28L433.7 86.978L433.7 86.978L430.224 95.28ZM427.264 87.12L418.819 84.0087L418.746 84.2076L418.682 84.4098L427.264 87.12ZM428.544 83.84L436.874 87.2477L440.035 79.5228L432.569 75.7902L428.544 83.84ZM426.464 82.8L430.489 74.7502L421.809 70.41L418.134 79.3923L426.464 82.8ZM422.464 89.52L415.437 83.8978L415.393 83.952L415.351 84.0069L422.464 89.52ZM415.504 94.72L411.836 86.5018L411.808 86.5141L411.78 86.5267L415.504 94.72ZM411.824 73.28H402.824V82.28H411.824V73.28ZM416.224 73.28V82.28H425.224V73.28H416.224ZM416.224 68.24H425.224V59.24H416.224V68.24ZM411.824 68.24V59.24H402.824V68.24H411.824ZM403.984 87.72C398.204 87.72 394.548 86.9496 392.429 86.0109L385.14 102.469C390.487 104.837 396.965 105.72 403.984 105.72V87.72ZM392.473 86.0305C389.974 84.908 388.99 83.8104 388.582 83.1295L373.147 92.3905C375.938 97.043 380.235 100.265 385.096 102.45L392.473 86.0305ZM388.582 83.1295C387.816 81.8537 387.464 80.573 387.464 79.12H369.464C369.464 83.8537 370.712 88.3329 373.147 92.3905L388.582 83.1295ZM387.464 79.12C387.464 76.8206 388.146 75.5221 389.397 74.4127L377.452 60.9473C372.089 65.7046 369.464 72.0327 369.464 79.12H387.464ZM389.397 74.4127C390.309 73.6033 392.952 72.2467 399.331 72.1998L399.198 54.2002C391.071 54.26 383.153 55.89 377.452 60.9473L389.397 74.4127ZM399.349 72.1996L416.309 72.0396L416.139 54.0404L399.179 54.2004L399.349 72.1996ZM425.224 63.04V58.8H407.224V63.04H425.224ZM416.224 49.8H411.824V67.8H416.224V49.8ZM402.824 58.8V60.96H420.824V58.8H402.824ZM411.472 51.9669C406.028 52.1804 400.665 52.3939 395.381 52.6073L396.108 70.5927C401.384 70.3795 406.74 70.1663 412.177 69.9531L411.472 51.9669ZM395.381 52.6073C390.433 52.8073 385.515 52.7321 380.626 52.3829L379.343 70.3371C384.907 70.7345 390.496 70.8194 396.108 70.5927L395.381 52.6073ZM388.871 59.9359C387.699 52.6248 387.832 45.6701 389.2 39.0115L371.569 35.3885C369.737 44.3033 369.603 53.4552 371.098 62.7841L388.871 59.9359ZM380.384 46.2C381.835 46.2 383.624 46.2251 385.765 46.2773L386.204 28.2827C383.971 28.2282 382.027 28.2 380.384 28.2V46.2ZM385.77 46.2774C387.946 46.3293 390.233 46.4072 392.633 46.5115L393.415 28.5285C390.909 28.4195 388.503 28.3374 386.199 28.2825L385.77 46.2774ZM392.833 46.518C395.337 46.5712 397.787 46.6245 400.184 46.6778L400.584 28.6822C398.181 28.6288 395.725 28.5754 393.216 28.522L392.833 46.518ZM400.184 46.6778C402.57 46.7308 404.684 46.7837 406.527 46.8363L407.041 28.8437C405.151 28.7897 402.998 28.7359 400.584 28.6822L400.184 46.6778ZM398.526 34.2615C397.459 36.7236 396.785 39.3279 396.604 42.0413L414.564 43.2387C414.597 42.7521 414.723 42.1564 415.042 41.4185L398.526 34.2615ZM396.589 42.3402C396.499 45.0608 396.911 47.7369 397.829 50.307L414.78 44.253C414.631 43.8365 414.563 43.4192 414.579 42.9398L396.589 42.3402ZM415.288 47.8212C415.362 46.5893 415.603 46.0835 415.658 45.9841C415.682 45.9394 415.682 45.9502 415.653 45.979C415.625 46.0072 415.624 45.9977 415.692 45.9602L406.997 30.1998C400.499 33.7849 397.719 40.1313 397.321 46.7388L415.288 47.8212ZM415.692 45.9602C416.884 45.3024 419.511 44.52 424.464 44.52V26.52C418.111 26.52 411.991 27.4443 406.997 30.1998L415.692 45.9602ZM424.464 44.52C431.126 44.52 434.967 45.5319 436.94 46.6128L445.589 30.8272C439.775 27.6415 432.416 26.52 424.464 26.52V44.52ZM437.023 46.6582C438.855 47.6367 439.852 48.8728 440.422 50.7268L457.626 45.4332C455.637 38.9672 451.46 33.9633 445.505 30.7818L437.023 46.6582ZM440.463 50.8565C440.735 51.6953 440.896 52.7354 440.834 54.0619L458.815 54.8981C458.966 51.6379 458.593 48.4114 457.585 45.3035L440.463 50.8565ZM440.827 54.2658C440.78 56.2168 440.642 58.102 440.414 59.9237L458.275 62.1563C458.58 59.7113 458.762 57.2232 458.822 54.6942L440.827 54.2658ZM440.414 59.9237C440.112 62.337 439.944 64.6391 439.944 66.8H457.944C457.944 65.5476 458.043 64.0096 458.275 62.1563L440.414 59.9237ZM439.944 66.8C439.944 70.5004 440.426 75.2769 443.198 79.0701L457.731 68.4498C458.189 69.0765 458.199 69.4344 458.117 69.0597C458.042 68.7137 457.944 68.0002 457.944 66.8H439.944ZM443.437 79.3823C445.17 81.5491 447.552 83.6958 450.749 84.8581L456.9 67.9419C457.326 68.0967 457.579 68.2756 457.665 68.3431C457.743 68.4045 457.676 68.3678 457.492 68.1377L443.437 79.3823ZM445.229 79.0676C445.377 79.546 445.585 80.5939 445.627 82.4445L463.622 82.0355C463.557 79.1927 463.231 76.3474 462.42 73.7324L445.229 79.0676ZM445.634 82.6487C445.722 84.5861 445.678 86.524 445.501 88.4652L463.427 90.0948C463.678 87.3427 463.74 84.5872 463.615 81.8313L445.634 82.6487ZM445.501 88.4652C445.329 90.3647 445.048 91.7338 444.754 92.6755L461.935 98.0445C462.707 95.5729 463.173 92.8886 463.427 90.0948L445.501 88.4652ZM451.35 86.5838C449.504 87.0032 447.532 87.2857 445.423 87.4175L446.546 105.382C449.557 105.194 452.491 104.783 455.339 104.136L451.35 86.5838ZM445.237 87.4311C442.796 87.6345 440.992 87.72 439.744 87.72V105.72C441.696 105.72 444.052 105.592 446.732 105.369L445.237 87.4311ZM439.744 87.72C436.225 87.72 434.414 87.2773 433.7 86.978L426.749 103.582C430.621 105.203 435.157 105.72 439.744 105.72V87.72ZM433.7 86.978C433.905 87.0641 434.604 87.4349 435.185 88.3271C435.754 89.2005 435.784 89.92 435.784 90H417.784C417.784 92.64 418.388 95.5195 420.104 98.1529C421.832 100.805 424.25 102.536 426.749 103.582L433.7 86.978ZM435.784 90C435.784 90.1551 435.757 90.1137 435.847 89.8302L418.682 84.4098C418.132 86.1529 417.784 88.0315 417.784 90H435.784ZM435.709 90.2313C436.041 89.3327 436.428 88.3393 436.874 87.2477L420.214 80.4323C419.701 81.6874 419.235 82.8806 418.819 84.0087L435.709 90.2313ZM432.569 75.7902L430.489 74.7502L422.439 90.8498L424.519 91.8898L432.569 75.7902ZM418.134 79.3923C417.525 80.8831 416.647 82.3846 415.437 83.8978L429.492 95.1422C431.695 92.3887 433.484 89.4103 434.794 86.2077L418.134 79.3923ZM415.351 84.0069C414.779 84.7449 413.753 85.6457 411.836 86.5018L419.173 102.938C423.229 101.128 426.843 98.5618 429.578 95.0331L415.351 84.0069ZM411.78 86.5267C410.435 87.1381 408.003 87.72 403.984 87.72V105.72C409.459 105.72 414.707 104.969 419.229 102.913L411.78 86.5267ZM411.824 82.28H416.224V64.28H411.824V82.28ZM425.224 73.28V68.24H407.224V73.28H425.224ZM416.224 59.24H411.824V77.24H416.224V59.24ZM402.824 68.24V73.28H420.824V68.24H402.824ZM475.882 92.96L472.076 101.116L472.122 101.137L472.169 101.159L475.882 92.96ZM463.562 82.08L455.661 86.3897L455.69 86.4434L455.72 86.4966L463.562 82.08ZM463.402 49.76L455.548 45.3654L455.539 45.3813L455.53 45.3973L463.402 49.76ZM473.882 39.44L478.132 47.3733L478.168 47.3538L478.205 47.3339L473.882 39.44ZM503.082 38.56L498.547 46.334L498.623 46.3784L498.7 46.4213L503.082 38.56ZM508.202 48.88L499.206 49.1641L516.788 51.5784L508.202 48.88ZM508.842 43.28L499.856 43.7792L499.863 43.9141L499.875 44.0486L508.842 43.28ZM508.362 37.68V28.68H498.241L499.424 38.7316L508.362 37.68ZM514.362 37.6L514.153 28.6024L514.148 28.6025L514.362 37.6ZM521.402 37.44L521.602 46.4378L521.702 46.4356L521.801 46.4311L521.402 37.44ZM528.202 37.2L528.427 46.1972L528.427 46.1972L528.202 37.2ZM533.642 37.12L542.428 35.1676L540.861 28.12H533.642V37.12ZM534.362 42.64L525.385 43.2812L525.393 43.3977L525.404 43.5139L534.362 42.64ZM534.762 49.84L525.764 50.0236L525.764 50.0275L534.762 49.84ZM533.882 64.16L535.112 73.0756L541.701 72.1667L542.766 65.6006L533.882 64.16ZM527.962 64.72L528.361 73.7111L528.461 73.7067L528.561 73.7001L527.962 64.72ZM520.202 64.96L520.375 73.9583L520.375 73.9583L520.202 64.96ZM511.882 64.96L511.709 73.9583L511.709 73.9583L511.882 64.96ZM504.202 64.72L503.575 73.6982L503.684 73.7058L503.793 73.7107L504.202 64.72ZM498.682 64.16L489.685 64.4031L489.888 71.913L497.313 73.0553L498.682 64.16ZM498.602 61.2L507.599 60.9568L507.362 52.2H498.602V61.2ZM494.762 61.2V52.2H485.762V61.2H494.762ZM494.762 70.56H485.762V79.56H494.762V70.56ZM498.602 70.56V79.56H507.602V70.56H498.602ZM498.602 67.28L498.182 58.2898L489.602 58.6907V67.28H498.602ZM534.362 67.28L543.357 67.5678L543.642 58.67L534.748 58.2883L534.362 67.28ZM530.282 83.84L522.474 79.3645L522.453 79.4005L522.433 79.4367L530.282 83.84ZM518.762 93.6L522.163 101.933L518.762 93.6ZM497.962 87.8C489.633 87.8 483.672 86.6078 479.594 84.7614L472.169 101.159C479.399 104.432 488.157 105.8 497.962 105.8V87.8ZM479.688 84.8044C475.508 82.8538 472.953 80.4143 471.404 77.6634L455.72 86.4966C459.397 93.0257 465.056 97.8395 472.076 101.116L479.688 84.8044ZM471.463 77.7703C469.736 74.6046 468.722 70.6671 468.722 65.68H450.722C450.722 73.1729 452.268 80.1687 455.661 86.3897L471.463 77.7703ZM468.722 65.68C468.722 60.683 469.708 56.9479 471.274 54.1227L455.53 45.3973C452.189 51.4254 450.722 58.3036 450.722 65.68H468.722ZM471.256 54.1546C472.933 51.158 475.183 48.9533 478.132 47.3733L469.632 31.5067C463.621 34.7267 458.884 39.402 455.548 45.3654L471.256 54.1546ZM478.205 47.3339C481.151 45.7205 484.842 44.76 489.562 44.76V26.76C482.335 26.76 475.573 28.2528 469.559 31.5461L478.205 47.3339ZM489.562 44.76C494.607 44.76 497.294 45.6033 498.547 46.334L507.617 30.786C502.469 27.7834 496.143 26.76 489.562 26.76V44.76ZM498.7 46.4213C498.736 46.4414 498.718 46.4356 498.688 46.4036C498.659 46.3735 498.684 46.3869 498.74 46.4999C498.866 46.7549 499.155 47.5278 499.206 49.1641L517.197 48.5959C516.978 41.6485 514.439 34.5869 507.464 30.6987L498.7 46.4213ZM516.788 51.5784C517.711 48.6426 518.074 45.5992 517.809 42.5114L499.875 44.0486C499.93 44.6941 499.867 45.3841 499.616 46.1816L516.788 51.5784ZM517.828 42.7808C517.712 40.6859 517.536 38.6347 517.3 36.6284L499.424 38.7316C499.614 40.3519 499.759 42.0341 499.856 43.7792L517.828 42.7808ZM508.362 46.68C510.209 46.68 512.283 46.652 514.576 46.5974L514.148 28.6025C511.961 28.6546 510.034 28.68 508.362 28.68V46.68ZM514.571 46.5976C516.861 46.5443 519.205 46.491 521.602 46.4378L521.202 28.4422C518.799 28.4956 516.449 28.549 514.153 28.6024L514.571 46.5976ZM521.801 46.4311C524.15 46.3267 526.358 46.2489 528.427 46.1972L527.977 28.2028C525.779 28.2578 523.453 28.3399 521.002 28.4489L521.801 46.4311ZM528.427 46.1972C530.514 46.145 532.248 46.12 533.642 46.12V28.12C532.049 28.12 530.156 28.1483 527.977 28.2028L528.427 46.1972ZM524.856 39.0724C525.044 39.9197 525.242 41.2799 525.385 43.2812L543.339 41.9988C543.162 39.5201 542.879 37.2003 542.428 35.1676L524.856 39.0724ZM525.404 43.5139C525.592 45.433 525.714 47.5991 525.764 50.0236L543.76 49.6564C543.703 46.8542 543.559 44.2203 543.319 41.7661L525.404 43.5139ZM525.764 50.0275C525.812 52.3387 525.764 54.6181 525.62 56.8667L543.584 58.0133C543.76 55.2485 543.818 52.4613 543.76 49.6525L525.764 50.0275ZM525.62 56.8667C525.474 59.1527 525.261 61.0951 524.998 62.7194L542.766 65.6006C543.142 63.2782 543.41 60.7406 543.584 58.0133L525.62 56.8667ZM532.652 55.2444C531.395 55.4178 529.652 55.5874 527.363 55.7399L528.561 73.7001C531.072 73.5326 533.276 73.3288 535.112 73.0756L532.652 55.2444ZM527.562 55.7289C525.248 55.8317 522.738 55.9096 520.029 55.9617L520.375 73.9583C523.213 73.9038 525.876 73.8216 528.361 73.7111L527.562 55.7289ZM520.029 55.9617C517.371 56.0128 514.713 56.0128 512.055 55.9617L511.709 73.9583C514.598 74.0139 517.486 74.0139 520.375 73.9583L520.029 55.9617ZM512.055 55.9617C509.347 55.9096 506.866 55.8318 504.611 55.7293L503.793 73.7107C506.231 73.8215 508.87 73.9038 511.709 73.9583L512.055 55.9617ZM504.828 55.7418C502.648 55.5897 501.086 55.424 500.05 55.2647L497.313 73.0553C499.051 73.3227 501.169 73.5303 503.575 73.6982L504.828 55.7418ZM507.679 63.9168L507.599 60.9568L489.605 61.4431L489.685 64.4031L507.679 63.9168ZM498.602 52.2H494.762V70.2H498.602V52.2ZM485.762 61.2V70.56H503.762V61.2H485.762ZM494.762 79.56H498.602V61.56H494.762V79.56ZM507.602 70.56V67.28H489.602V70.56H507.602ZM499.022 76.2702C510.144 75.7504 521.795 75.7489 533.976 76.2717L534.748 58.2883C522.076 57.7444 509.886 57.7429 498.182 58.2898L499.022 76.2702ZM525.366 66.9921C525.186 72.6449 524.05 76.6148 522.474 79.3645L538.09 88.3155C541.528 82.3185 543.111 75.2484 543.357 67.5678L525.366 66.9921ZM522.433 79.4367C521.1 81.8127 518.953 83.801 515.361 85.2674L522.163 101.933C529.024 99.1324 534.557 94.614 538.131 88.2433L522.433 79.4367ZM515.361 85.2674C511.63 86.79 505.991 87.8 497.962 87.8V105.8C507.213 105.8 515.44 104.677 522.163 101.933L515.361 85.2674ZM555.126 93.6L551.101 101.65L551.142 101.67L551.182 101.69L555.126 93.6ZM546.806 84.16L555.408 81.5132L555.4 81.4874L555.392 81.4616L546.806 84.16ZM545.926 78L536.929 77.7858L536.926 77.8929V78H545.926ZM546.886 60.96L555.885 61.0984L556.026 51.96H546.886V60.96ZM541.686 60.96L532.826 62.5421L534.151 69.96H541.686V60.96ZM541.126 55.92L532.141 56.4334L532.141 56.4334L541.126 55.92ZM541.126 50.32L550.112 50.8334L550.112 50.8263L550.112 50.8192L541.126 50.32ZM541.686 45.2L536.031 38.1985L533.417 40.3099L532.826 43.6179L541.686 45.2ZM545.686 41.92L551.448 48.834L551.461 48.8227L551.475 48.8113L545.686 41.92ZM551.286 32.24L552.524 23.3256L543.784 22.1117L542.398 30.826L551.286 32.24ZM558.246 32.8L557.894 41.7931L557.9 41.7933L558.246 32.8ZM567.046 32.96V41.96H567.123L567.199 41.9587L567.046 32.96ZM576.246 32.72L576.567 41.7143L576.648 41.7114L576.728 41.7071L576.246 32.72ZM584.166 32.16L592.749 29.4498L590.562 22.5262L583.333 23.1987L584.166 32.16ZM585.446 38.16L576.501 39.1539L577.391 47.16H585.446V38.16ZM602.886 38.16L611.558 35.7512L609.727 29.16H602.886V38.16ZM603.446 42.48L612.432 41.9808L612.432 41.9808L603.446 42.48ZM603.446 48.56L594.457 48.1106L594.452 48.2199L594.449 48.3293L603.446 48.56ZM602.886 53.92L602.919 62.9199L610.168 62.8937L611.686 55.8058L602.886 53.92ZM580.806 54L580.774 45.0001L571.806 45.0326V54H580.806ZM580.806 70.72H571.806V79.72H580.806V70.72ZM583.126 70.72V79.72H592.074L592.126 70.772L583.126 70.72ZM583.206 56.88L580.131 48.4219L574.243 50.5629L574.206 56.828L583.206 56.88ZM587.526 55.92L588.643 64.8505L588.759 64.836L588.875 64.8184L587.526 55.92ZM598.566 55.92L597.218 64.8184L597.35 64.8385L597.483 64.8546L598.566 55.92ZM603.046 56.88L610.764 52.2496L609.085 49.4515L606.003 48.3795L603.046 56.88ZM603.686 59.6L594.817 61.1292L594.822 61.1557L594.826 61.1821L603.686 59.6ZM604.326 65.12L595.35 65.7768L595.359 65.8963L595.371 66.0155L604.326 65.12ZM603.846 78.72L595.061 76.7676L595.04 76.8611L595.021 76.955L603.846 78.72ZM601.206 85.6L608.924 90.2305L608.949 90.1887L608.973 90.1466L601.206 85.6ZM595.766 91.36L600.95 98.7173L601.005 98.6784L601.06 98.6386L595.766 91.36ZM586.726 95.28L584.454 86.5714L584.439 86.5755L584.423 86.5797L586.726 95.28ZM573.446 87.72C566.061 87.72 561.546 86.7173 559.07 85.5101L551.182 101.69C557.24 104.643 564.938 105.72 573.446 105.72V87.72ZM559.151 85.5502C556.85 84.3998 555.891 83.0836 555.408 81.5132L538.204 86.8068C540.281 93.5564 544.869 98.5336 551.101 101.65L559.151 85.5502ZM555.392 81.4616C555.116 80.584 554.926 79.4547 554.926 78H536.926C536.926 81.0253 537.323 84.0027 538.22 86.8584L555.392 81.4616ZM554.924 78.2142C554.971 76.2317 555.115 73.9145 555.366 71.2453L537.446 69.5547C537.165 72.5388 536.988 75.2883 536.929 77.7858L554.924 78.2142ZM555.366 71.2453C555.66 68.1391 555.829 64.7517 555.885 61.0984L537.887 60.8216C537.837 64.1016 537.686 67.0076 537.446 69.5547L555.366 71.2453ZM546.886 51.96H541.686V69.96H546.886V51.96ZM550.546 59.3779C550.355 58.3079 550.202 56.9936 550.112 55.4066L532.141 56.4334C532.264 58.5798 532.484 60.6254 532.826 62.5421L550.546 59.3779ZM550.112 55.4066C550.024 53.8819 550.024 52.3581 550.112 50.8334L532.141 49.8066C532.015 52.0152 532.015 54.2248 532.141 56.4334L550.112 55.4066ZM550.112 50.8192C550.204 49.1714 550.358 47.8376 550.546 46.7821L532.826 43.6179C532.482 45.549 532.262 47.6286 532.14 49.8208L550.112 50.8192ZM547.341 52.2015C548.761 51.0546 550.13 49.932 551.448 48.834L539.925 35.006C538.682 36.0413 537.385 37.1054 536.031 38.1985L547.341 52.2015ZM551.475 48.8113C553.466 47.1389 555.192 45.2078 556.654 43.0535L541.759 32.9465C541.194 33.7788 540.573 34.4611 539.898 35.0287L551.475 48.8113ZM556.654 43.0535C558.604 40.1789 559.656 36.91 560.174 33.654L542.398 30.826C542.169 32.2633 541.835 32.8344 541.759 32.9465L556.654 43.0535ZM550.048 41.1544C552.352 41.4745 554.986 41.679 557.894 41.7931L558.599 23.8069C556.067 23.7076 554.06 23.5389 552.524 23.3256L550.048 41.1544ZM557.9 41.7933C560.801 41.9049 563.85 41.96 567.046 41.96V23.96C564.055 23.96 561.238 23.9084 558.592 23.8066L557.9 41.7933ZM567.199 41.9587C570.399 41.9045 573.522 41.823 576.567 41.7143L575.925 23.7257C572.997 23.8303 569.987 23.9089 566.894 23.9613L567.199 41.9587ZM576.728 41.7071C579.799 41.5426 582.561 41.3482 585 41.1213L583.333 23.1987C581.185 23.3985 578.666 23.5774 575.765 23.7329L576.728 41.7071ZM575.584 34.8702C575.817 35.6093 576.008 36.3371 576.159 37.0541L593.773 33.3459C593.497 32.0363 593.155 30.7373 592.749 29.4498L575.584 34.8702ZM576.159 37.0541C576.317 37.8033 576.429 38.5025 576.501 39.1539L594.391 37.1661C594.25 35.8975 594.042 34.6234 593.773 33.3459L576.159 37.0541ZM585.446 47.16H602.886V29.16H585.446V47.16ZM594.215 40.5688C594.195 40.4989 594.24 40.6471 594.301 41.117C594.359 41.5618 594.415 42.1734 594.46 42.9792L612.432 41.9808C612.316 39.8938 612.091 37.6702 611.558 35.7512L594.215 40.5688ZM594.46 42.9792C594.547 44.5509 594.55 46.2592 594.457 48.1106L612.435 49.0094C612.556 46.5942 612.558 44.2491 612.432 41.9808L594.46 42.9792ZM594.449 48.3293C594.405 50.0377 594.256 51.2405 594.086 52.0342L611.686 55.8058C612.156 53.6128 612.38 51.2423 612.443 48.7907L594.449 48.3293ZM602.854 44.9201L580.774 45.0001L580.839 62.9999L602.919 62.9199L602.854 44.9201ZM571.806 54V70.72H589.806V54H571.806ZM580.806 79.72H583.126V61.72H580.806V79.72ZM592.126 70.772L592.206 56.932L574.206 56.828L574.126 70.668L592.126 70.772ZM586.282 65.3381C586.635 65.2098 587.373 65.0092 588.643 64.8505L586.41 46.9895C584.266 47.2575 582.124 47.6969 580.131 48.4219L586.282 65.3381ZM588.875 64.8184C590.155 64.6244 591.543 64.52 593.046 64.52V46.52C590.71 46.52 588.417 46.6822 586.178 47.0216L588.875 64.8184ZM593.046 64.52C594.55 64.52 595.937 64.6244 597.218 64.8184L599.915 47.0216C597.675 46.6822 595.383 46.52 593.046 46.52V64.52ZM597.483 64.8546C598.819 65.0165 599.645 65.2257 600.09 65.3805L606.003 48.3795C603.995 47.6809 601.833 47.2501 599.649 46.9854L597.483 64.8546ZM595.329 61.5104C595.168 61.242 595.048 61.0092 594.966 60.8371C594.881 60.6615 594.817 60.5113 594.771 60.3974C594.681 60.1764 594.625 60.0092 594.6 59.9288C594.572 59.8413 594.558 59.7874 594.555 59.7786C594.552 59.7675 594.556 59.78 594.565 59.8213C594.586 59.9074 594.619 60.058 594.664 60.2881C594.708 60.5144 594.759 60.793 594.817 61.1292L612.555 58.0708C612.409 57.2218 612.254 56.4068 612.087 55.6987C612.005 55.3484 611.895 54.9186 611.753 54.4712C611.658 54.1735 611.362 53.2466 610.764 52.2496L595.329 61.5104ZM594.826 61.1821C595.02 62.2676 595.204 63.7768 595.35 65.7768L613.302 64.4632C613.129 62.0898 612.886 59.919 612.546 58.0179L594.826 61.1821ZM595.371 66.0155C595.554 67.8454 595.646 69.7065 595.646 71.6H613.646C613.646 69.1202 613.525 66.6612 613.282 64.2245L595.371 66.0155ZM595.646 71.6C595.646 73.2595 595.458 74.9782 595.061 76.7676L612.632 80.6724C613.301 77.6618 613.646 74.6338 613.646 71.6H595.646ZM595.021 76.955C594.744 78.3411 594.233 79.698 593.439 81.0534L608.973 90.1466C610.74 87.1286 611.989 83.8988 612.671 80.485L595.021 76.955ZM593.489 80.9695C592.925 81.9086 592.002 82.9688 590.473 84.0814L601.06 98.6386C604.223 96.3378 606.927 93.5581 608.924 90.2305L593.489 80.9695ZM590.583 84.0027C589.353 84.8693 587.41 85.8003 584.454 86.5714L588.998 103.989C593.402 102.84 597.487 101.157 600.95 98.7173L590.583 84.0027ZM584.423 86.5797C581.778 87.28 578.175 87.72 573.446 87.72V105.72C579.17 105.72 584.422 105.2 589.029 103.98L584.423 86.5797Z" fill="#4A5168" mask="url(#path-3-outside-2_763_1092)"/>
<rect x="704" y="31" width="59" height="59" fill="#4A5168"/>
<rect x="790" y="31" width="59" height="59" fill="#909ABD"/>
<rect x="876" y="31" width="59" height="59" fill="#E4EAFF"/>
<rect x="962" y="31" width="59" height="59" fill="#9F7DFF"/>
</svg>
