<svg width="1085" height="137" viewBox="0 0 1085 137" fill="none" xmlns="http://www.w3.org/2000/svg">
<mask id="path-1-outside-1_875_863" maskUnits="userSpaceOnUse" x="0" y="0" width="1085" height="137" fill="black">
<rect fill="white" width="1085" height="137"/>
<path d="M0 61C0 27.3106 27.3106 0 61 0H1024C1057.69 0 1085 27.3106 1085 61V61C1085 94.6894 1057.69 122 1024 122H61C27.3106 122 0 94.6894 0 61V61Z"/>
</mask>
<path d="M0 61C0 27.3106 27.3106 0 61 0H1024C1057.69 0 1085 27.3106 1085 61V61C1085 94.6894 1057.69 122 1024 122H61C27.3106 122 0 94.6894 0 61V61Z" fill="#1E5B73"/>
<path d="M0 0H1085H0ZM1085 61C1085 102.974 1050.97 137 1009 137H76C34.0264 137 0 102.974 0 61C0 86.4051 27.3106 107 61 107H1024C1057.69 107 1085 86.4051 1085 61ZM0 122V0V122ZM1085 0V122V0Z" fill="#7EFFBC" mask="url(#path-1-outside-1_875_863)"/>
<mask id="path-3-outside-2_875_863" maskUnits="userSpaceOnUse" x="40" y="20" width="506" height="79" fill="black">
<rect fill="white" x="40" y="20" width="506" height="79"/>
<path d="M87.9639 51.4023C88.4424 48.8275 88.6816 46.9476 88.6816 45.7627C88.6816 44.555 88.5335 43.6208 88.2373 42.96C87.9639 42.2764 87.4967 41.7409 86.8359 41.3535C85.6966 40.6699 83.5319 40.3281 80.3418 40.3281H74.5654V79.8057C74.5654 81.1273 74.6452 82.1641 74.8047 82.916C74.9642 83.6452 75.3516 84.2035 75.9668 84.5908C76.582 84.9782 77.4935 85.263 78.7012 85.4453C79.9316 85.6276 81.6064 85.8213 83.7256 86.0264V89H58.7744V86.0264C62.8076 85.639 65.1888 85.2061 65.918 84.7275C66.6699 84.249 67.137 83.6452 67.3193 82.916C67.5244 82.1641 67.627 81.1273 67.627 79.8057V40.3281H61.0645C56.9629 40.3281 54.0007 42.3333 52.1777 46.3438C51.6081 47.5742 51.0384 48.8958 50.4688 50.3086L50.0586 51.3682H46.709L50.5371 36.7051H94.834L91.2451 51.4023H87.9639ZM114.444 54.8203C116.495 50.7871 120.289 47.3691 125.826 44.5664C129.791 46.6855 132.799 48.9984 134.85 51.5049C138.199 55.6064 140.227 61.5879 140.934 69.4492C141.161 72.2064 141.275 74.861 141.275 77.4131C141.275 79.9652 141.31 81.6969 141.378 82.6084C141.469 83.5199 141.663 84.2035 141.959 84.6592C142.255 85.1149 142.677 85.4225 143.224 85.582C143.793 85.7188 144.352 85.8327 144.898 85.9238C145.468 86.015 145.867 86.0719 146.095 86.0947C146.345 86.0947 146.585 86.1175 146.812 86.1631V89H128.253V86.1631C129.552 86.0036 130.589 85.8555 131.363 85.7188C132.138 85.5592 132.73 85.2744 133.141 84.8643C133.801 84.2035 134.132 82.3691 134.132 79.3613V75.3623C134.132 70.1898 134.007 66.5895 133.756 64.5615C133.505 62.5107 133.186 60.8359 132.799 59.5371C132.434 58.2383 131.933 57.0078 131.295 55.8457C130.087 53.681 128.162 51.5277 125.519 49.3857C122.123 51.4593 119.605 53.5898 117.965 55.7773C115.618 58.9219 114.444 62.807 114.444 67.4326V79.0195C114.444 80.5918 114.49 81.8223 114.581 82.7109C114.672 83.5768 114.911 84.2376 115.299 84.6934C115.709 85.1491 116.301 85.4681 117.076 85.6504C117.874 85.8099 118.967 85.9808 120.357 86.1631V89H101.593V86.1973L101.661 86.1631C103.006 86.0036 104.065 85.8441 104.84 85.6846C105.615 85.5023 106.196 85.2061 106.583 84.7959C107.175 84.1579 107.472 82.5856 107.472 80.0791V38.6533C107.472 36.124 107.198 34.6087 106.651 34.1074C106.127 33.6061 105.478 33.2871 104.703 33.1504C103.928 32.9909 102.892 32.8542 101.593 32.7402V29.8691H120.357V32.7402C119.081 32.877 118.056 33.0137 117.281 33.1504C116.507 33.2871 115.914 33.5378 115.504 33.9023C114.798 34.4948 114.444 36.0785 114.444 38.6533V54.8203ZM153.674 34.0732L159.895 27.9551L165.979 34.0732L159.895 40.2598L153.674 34.0732ZM150.837 86.1631L152.033 85.9922C153.013 85.8555 153.811 85.7188 154.426 85.582C155.041 85.4225 155.52 85.1491 155.861 84.7617C156.454 84.0553 156.75 82.4375 156.75 79.9082V56.7344C156.75 54.1367 156.477 52.5758 155.93 52.0518C155.383 51.5049 154.722 51.1631 153.947 51.0264C153.173 50.8896 152.136 50.7643 150.837 50.6504V47.7109H169.533V50.6504C168.234 50.7871 167.198 50.9238 166.423 51.0605C165.648 51.1973 165.056 51.4593 164.646 51.8467C163.985 52.4619 163.654 54.0911 163.654 56.7344V79.9082C163.654 82.5059 163.859 84.0439 164.27 84.5225C164.68 85.001 165.181 85.32 165.773 85.4795C166.389 85.639 167.198 85.7985 168.2 85.958L169.533 86.1631V89H150.837V86.1631ZM197.996 58.4434C198.862 57.099 199.295 55.8913 199.295 54.8203C199.295 53.7266 198.646 52.7695 197.347 51.9492C196.071 51.1061 194.544 50.6846 192.767 50.6846C190.989 50.6846 189.622 50.8441 188.665 51.1631C187.708 51.4821 186.899 51.9264 186.238 52.4961C184.939 53.6126 184.29 55.1051 184.29 56.9736C184.29 59.2295 186.181 61.3145 189.964 63.2285C191.058 63.7982 191.98 64.2539 192.732 64.5957C198.497 67.1934 202.155 69.1188 203.704 70.3721C205.254 71.6025 206.37 72.7874 207.054 73.9268C207.76 75.0661 208.113 76.4788 208.113 78.165C208.113 79.8512 207.646 81.4349 206.712 82.916C205.778 84.3971 204.536 85.6504 202.986 86.6758C199.842 88.7721 196.059 89.8203 191.639 89.8203C187.514 89.8203 183.914 88.9772 180.838 87.291C177.465 85.4909 175.825 83.2008 175.916 80.4209C175.962 78.7803 176.668 77.3105 178.035 76.0117C179.266 74.8496 180.735 74.0749 182.444 73.6875L183.948 75.4307C183.082 76.5016 182.649 77.9372 182.649 79.7373C182.649 81.3096 183.47 82.7109 185.11 83.9414C186.933 85.3314 189.257 86.0264 192.083 86.0264C194.931 86.0264 197.164 85.3883 198.782 84.1123C200.423 82.8363 201.243 81.1273 201.243 78.9854C201.243 76.4788 199.147 74.2686 194.954 72.3545C193.701 71.7848 192.675 71.3405 191.878 71.0215C191.08 70.6797 190.579 70.4632 190.374 70.3721C190.169 70.2809 189.599 70.0303 188.665 69.6201C187.754 69.1872 186.557 68.5492 185.076 67.7061C183.618 66.863 182.33 65.9401 181.214 64.9375C178.821 62.8184 177.625 60.4258 177.625 57.7598C177.625 54.4557 179.083 51.8125 182 49.8301C184.78 47.9616 188.471 47.0273 193.074 47.0273C196.629 47.0273 199.557 47.7337 201.858 49.1465C204.183 50.5592 205.345 52.3138 205.345 54.4102C205.345 55.7318 204.718 56.9395 203.465 58.0332C202.371 58.9674 201.198 59.5713 199.944 59.8447L197.996 58.4434ZM256.392 86.8809C259.673 83.0527 262.008 79.5664 263.398 76.4219C265.29 72.1608 266.304 65.6211 266.44 56.8027C266.486 53.8633 266.509 51.0833 266.509 48.4629C266.509 45.8197 266.463 44.0765 266.372 43.2334C266.281 42.3675 266.064 41.6953 265.723 41.2168C265.107 40.4193 263.604 39.9066 261.211 39.6787V36.7051H279.087V39.6787C277.856 39.8382 276.877 40.0205 276.147 40.2256C275.441 40.4307 274.906 40.7725 274.541 41.251C273.994 42.0029 273.721 44.1107 273.721 47.5742C273.721 51.015 273.743 54.2734 273.789 57.3496C273.857 60.403 274.006 63.1146 274.233 65.4844C274.461 67.8542 274.792 69.9619 275.225 71.8076C275.658 73.6305 276.25 75.3509 277.002 76.9688C278.324 79.7943 280.614 83.0983 283.872 86.8809C286.971 82.9616 289.147 79.4183 290.4 76.251C292.132 71.8532 293.032 65.1312 293.101 56.085C293.123 53.0316 293.135 50.2288 293.135 47.6768C293.135 45.1019 293.101 43.4613 293.032 42.7549C292.964 42.0485 292.759 41.4902 292.417 41.0801C291.825 40.3737 290.286 39.9066 287.803 39.6787V36.7051H305.269V39.6787C302.899 39.861 301.452 40.3395 300.928 41.1143C300.495 41.7751 300.278 43.9398 300.278 47.6084C300.278 51.2542 300.164 54.8659 299.937 58.4434C299.709 62.0208 299.333 65.2451 298.809 68.1162C298.285 70.9645 297.601 73.5166 296.758 75.7725C295.938 78.0055 294.912 80.0449 293.682 81.8906C291.449 85.3086 288.179 88.5898 283.872 91.7344C276.968 85.696 272.399 79.1676 270.166 72.1494C267.568 79.7601 262.977 86.2884 256.392 91.7344C252.017 88.4987 248.747 85.2174 246.582 81.8906C243.05 76.5358 240.954 68.7201 240.293 58.4434C240.065 54.8659 239.951 51.6188 239.951 48.7021C239.951 45.7627 239.917 43.8942 239.849 43.0967C239.78 42.2992 239.587 41.6725 239.268 41.2168C238.743 40.5104 237.319 39.9977 234.995 39.6787V36.7051H252.495V39.6787C250.011 39.9066 248.451 40.3737 247.812 41.0801C247.471 41.4902 247.266 42.0485 247.197 42.7549C247.129 43.4613 247.095 45.1019 247.095 47.6768C247.095 50.2288 247.106 53.0316 247.129 56.085C247.152 59.1383 247.243 61.8727 247.402 64.2881C247.585 66.7035 247.858 68.8682 248.223 70.7822C248.61 72.6963 249.146 74.5192 249.829 76.251C251.06 79.3499 253.247 82.8932 256.392 86.8809ZM343.678 83.9072C340.556 87.7581 335.873 89.6836 329.63 89.6836C323.614 89.6836 318.909 87.7354 315.514 83.8389C312.255 80.0791 310.626 75.1117 310.626 68.9365C310.626 62.5791 312.438 57.3268 316.061 53.1797C319.661 49.0781 324.275 47.0273 329.903 47.0273C334.21 47.0273 337.571 47.9388 339.986 49.7617C342.288 51.4707 343.438 53.8177 343.438 56.8027C343.438 60.6536 341.57 63.9007 337.833 66.5439C333.481 69.6201 326.896 71.1924 318.077 71.2607C318.875 80.5804 323.09 85.2402 330.724 85.2402C335.509 85.2402 339.177 84.1465 341.729 81.959L343.678 83.9072ZM317.975 67.6035C326.087 67.444 331.578 65.5186 334.449 61.8271C335.497 60.46 336.021 58.7624 336.021 56.7344C336.021 54.0911 334.882 52.2682 332.604 51.2656C331.715 50.8783 330.61 50.6846 329.288 50.6846C327.966 50.6846 326.793 50.9238 325.768 51.4023C324.742 51.8581 323.819 52.4961 322.999 53.3164C322.179 54.1139 321.461 55.0596 320.846 56.1533C320.23 57.2243 319.718 58.3864 319.308 59.6396C318.465 62.2145 318.02 64.8691 317.975 67.6035ZM350.505 86.1631C353.125 85.9352 354.709 85.5479 355.256 85.001C355.803 84.4313 356.133 83.8161 356.247 83.1553C356.361 82.4717 356.418 81.583 356.418 80.4893V38.585C356.418 36.3975 356.008 34.9961 355.188 34.3809C354.641 33.9707 353.08 33.6403 350.505 33.3896V30.5527H369.27V33.3896C366.717 33.6403 365.191 33.9479 364.689 34.3125C363.824 34.9277 363.391 36.3519 363.391 38.585V51.2314C365.487 48.9984 368.29 47.5173 371.799 46.7881C372.915 46.5602 374.203 46.4463 375.661 46.4463C377.142 46.4463 378.669 46.7311 380.241 47.3008C381.813 47.8477 383.238 48.611 384.514 49.5908C385.79 50.5706 386.918 51.7327 387.897 53.0771C388.877 54.3988 389.686 55.8457 390.324 57.418C391.669 60.6764 392.341 64.1286 392.341 67.7744C392.341 73.6989 390.712 78.7917 387.453 83.0527C385.22 85.9466 382.372 87.9746 378.908 89.1367C377.154 89.7292 375.467 90.0254 373.85 90.0254C371.753 90.0254 369.566 89.9115 367.287 89.6836C363.026 89.2279 360.394 89 359.392 89H350.505V86.1631ZM363.391 78.9854C363.391 81.1501 364.006 82.8021 365.236 83.9414C366.831 85.3542 369.52 86.0605 373.303 86.0605C377.085 86.0605 379.979 84.2148 381.984 80.5234C383.762 77.3333 384.65 73.0837 384.65 67.7744C384.65 60.0726 382.941 54.8203 379.523 52.0176C378.247 50.9694 376.766 50.4453 375.08 50.4453C373.394 50.4453 371.867 50.696 370.5 51.1973C369.133 51.6986 367.925 52.3822 366.877 53.248C364.553 55.1393 363.391 57.3838 363.391 59.9814V78.9854ZM420.428 58.4434C421.294 57.099 421.727 55.8913 421.727 54.8203C421.727 53.7266 421.077 52.7695 419.778 51.9492C418.502 51.1061 416.976 50.6846 415.198 50.6846C413.421 50.6846 412.054 50.8441 411.097 51.1631C410.14 51.4821 409.331 51.9264 408.67 52.4961C407.371 53.6126 406.722 55.1051 406.722 56.9736C406.722 59.2295 408.613 61.3145 412.396 63.2285C413.489 63.7982 414.412 64.2539 415.164 64.5957C420.929 67.1934 424.586 69.1188 426.136 70.3721C427.685 71.6025 428.802 72.7874 429.485 73.9268C430.192 75.0661 430.545 76.4788 430.545 78.165C430.545 79.8512 430.078 81.4349 429.144 82.916C428.209 84.3971 426.967 85.6504 425.418 86.6758C422.273 88.7721 418.491 89.8203 414.07 89.8203C409.946 89.8203 406.346 88.9772 403.27 87.291C399.897 85.4909 398.257 83.2008 398.348 80.4209C398.393 78.7803 399.1 77.3105 400.467 76.0117C401.697 74.8496 403.167 74.0749 404.876 73.6875L406.38 75.4307C405.514 76.5016 405.081 77.9372 405.081 79.7373C405.081 81.3096 405.901 82.7109 407.542 83.9414C409.365 85.3314 411.689 86.0264 414.515 86.0264C417.363 86.0264 419.596 85.3883 421.214 84.1123C422.854 82.8363 423.675 81.1273 423.675 78.9854C423.675 76.4788 421.578 74.2686 417.386 72.3545C416.132 71.7848 415.107 71.3405 414.31 71.0215C413.512 70.6797 413.011 70.4632 412.806 70.3721C412.601 70.2809 412.031 70.0303 411.097 69.6201C410.185 69.1872 408.989 68.5492 407.508 67.7061C406.049 66.863 404.762 65.9401 403.646 64.9375C401.253 62.8184 400.057 60.4258 400.057 57.7598C400.057 54.4557 401.515 51.8125 404.432 49.8301C407.212 47.9616 410.903 47.0273 415.506 47.0273C419.061 47.0273 421.989 47.7337 424.29 49.1465C426.614 50.5592 427.776 52.3138 427.776 54.4102C427.776 55.7318 427.15 56.9395 425.896 58.0332C424.803 58.9674 423.629 59.5713 422.376 59.8447L420.428 58.4434ZM438.021 34.0732L444.242 27.9551L450.326 34.0732L444.242 40.2598L438.021 34.0732ZM435.185 86.1631L436.381 85.9922C437.361 85.8555 438.158 85.7188 438.773 85.582C439.389 85.4225 439.867 85.1491 440.209 84.7617C440.801 84.0553 441.098 82.4375 441.098 79.9082V56.7344C441.098 54.1367 440.824 52.5758 440.277 52.0518C439.73 51.5049 439.07 51.1631 438.295 51.0264C437.52 50.8896 436.483 50.7643 435.185 50.6504V47.7109H453.881V50.6504C452.582 50.7871 451.545 50.9238 450.771 51.0605C449.996 51.1973 449.403 51.4593 448.993 51.8467C448.332 52.4619 448.002 54.0911 448.002 56.7344V79.9082C448.002 82.5059 448.207 84.0439 448.617 84.5225C449.027 85.001 449.529 85.32 450.121 85.4795C450.736 85.639 451.545 85.7985 452.548 85.958L453.881 86.1631V89H435.185V86.1631ZM459.956 86.1631C460.981 85.9352 461.79 85.7415 462.383 85.582C462.998 85.3997 463.454 85.1035 463.75 84.6934C464.251 84.0326 464.502 82.3236 464.502 79.5664V51.8809H458.657V48.7363C461.984 48.2578 463.898 47.7679 464.399 47.2666H464.365C464.867 46.583 465.311 45.0563 465.698 42.6865C466.086 40.3167 466.325 38.5736 466.416 37.457L471.372 35.4062V47.7109H483.745V51.8809H471.372V79.4639C471.372 81.583 471.52 82.9388 471.816 83.5312C472.135 84.1009 472.523 84.5225 472.979 84.7959C473.434 85.0693 474.049 85.2744 474.824 85.4111C476.077 85.639 478.368 85.7757 481.694 85.8213V89H459.956V86.1631ZM519.283 83.9072C516.161 87.7581 511.479 89.6836 505.235 89.6836C499.22 89.6836 494.514 87.7354 491.119 83.8389C487.861 80.0791 486.231 75.1117 486.231 68.9365C486.231 62.5791 488.043 57.3268 491.666 53.1797C495.266 49.0781 499.881 47.0273 505.509 47.0273C509.815 47.0273 513.176 47.9388 515.592 49.7617C517.893 51.4707 519.044 53.8177 519.044 56.8027C519.044 60.6536 517.175 63.9007 513.438 66.5439C509.086 69.6201 502.501 71.1924 493.683 71.2607C494.48 80.5804 498.696 85.2402 506.329 85.2402C511.114 85.2402 514.783 84.1465 517.335 81.959L519.283 83.9072ZM493.58 67.6035C501.692 67.444 507.184 65.5186 510.055 61.8271C511.103 60.46 511.627 58.7624 511.627 56.7344C511.627 54.0911 510.488 52.2682 508.209 51.2656C507.32 50.8783 506.215 50.6846 504.894 50.6846C503.572 50.6846 502.398 50.9238 501.373 51.4023C500.348 51.8581 499.425 52.4961 498.604 53.3164C497.784 54.1139 497.066 55.0596 496.451 56.1533C495.836 57.2243 495.323 58.3864 494.913 59.6396C494.07 62.2145 493.626 64.8691 493.58 67.6035ZM530.144 75.0205C529.961 61.098 528.913 50.0238 526.999 41.7979C526.566 39.9294 526.065 38.266 525.495 36.8076L531.75 30.6895L537.834 36.8076C536.011 41.6839 534.735 49.5111 534.006 60.2891C533.664 65.0514 533.47 69.9619 533.425 75.0205H530.144ZM531.921 78.6777L538.005 84.7959L531.921 90.9824L525.7 84.7959L531.921 78.6777Z"/>
</mask>
<path d="M87.9639 51.4023C88.4424 48.8275 88.6816 46.9476 88.6816 45.7627C88.6816 44.555 88.5335 43.6208 88.2373 42.96C87.9639 42.2764 87.4967 41.7409 86.8359 41.3535C85.6966 40.6699 83.5319 40.3281 80.3418 40.3281H74.5654V79.8057C74.5654 81.1273 74.6452 82.1641 74.8047 82.916C74.9642 83.6452 75.3516 84.2035 75.9668 84.5908C76.582 84.9782 77.4935 85.263 78.7012 85.4453C79.9316 85.6276 81.6064 85.8213 83.7256 86.0264V89H58.7744V86.0264C62.8076 85.639 65.1888 85.2061 65.918 84.7275C66.6699 84.249 67.137 83.6452 67.3193 82.916C67.5244 82.1641 67.627 81.1273 67.627 79.8057V40.3281H61.0645C56.9629 40.3281 54.0007 42.3333 52.1777 46.3438C51.6081 47.5742 51.0384 48.8958 50.4688 50.3086L50.0586 51.3682H46.709L50.5371 36.7051H94.834L91.2451 51.4023H87.9639ZM114.444 54.8203C116.495 50.7871 120.289 47.3691 125.826 44.5664C129.791 46.6855 132.799 48.9984 134.85 51.5049C138.199 55.6064 140.227 61.5879 140.934 69.4492C141.161 72.2064 141.275 74.861 141.275 77.4131C141.275 79.9652 141.31 81.6969 141.378 82.6084C141.469 83.5199 141.663 84.2035 141.959 84.6592C142.255 85.1149 142.677 85.4225 143.224 85.582C143.793 85.7188 144.352 85.8327 144.898 85.9238C145.468 86.015 145.867 86.0719 146.095 86.0947C146.345 86.0947 146.585 86.1175 146.812 86.1631V89H128.253V86.1631C129.552 86.0036 130.589 85.8555 131.363 85.7188C132.138 85.5592 132.73 85.2744 133.141 84.8643C133.801 84.2035 134.132 82.3691 134.132 79.3613V75.3623C134.132 70.1898 134.007 66.5895 133.756 64.5615C133.505 62.5107 133.186 60.8359 132.799 59.5371C132.434 58.2383 131.933 57.0078 131.295 55.8457C130.087 53.681 128.162 51.5277 125.519 49.3857C122.123 51.4593 119.605 53.5898 117.965 55.7773C115.618 58.9219 114.444 62.807 114.444 67.4326V79.0195C114.444 80.5918 114.49 81.8223 114.581 82.7109C114.672 83.5768 114.911 84.2376 115.299 84.6934C115.709 85.1491 116.301 85.4681 117.076 85.6504C117.874 85.8099 118.967 85.9808 120.357 86.1631V89H101.593V86.1973L101.661 86.1631C103.006 86.0036 104.065 85.8441 104.84 85.6846C105.615 85.5023 106.196 85.2061 106.583 84.7959C107.175 84.1579 107.472 82.5856 107.472 80.0791V38.6533C107.472 36.124 107.198 34.6087 106.651 34.1074C106.127 33.6061 105.478 33.2871 104.703 33.1504C103.928 32.9909 102.892 32.8542 101.593 32.7402V29.8691H120.357V32.7402C119.081 32.877 118.056 33.0137 117.281 33.1504C116.507 33.2871 115.914 33.5378 115.504 33.9023C114.798 34.4948 114.444 36.0785 114.444 38.6533V54.8203ZM153.674 34.0732L159.895 27.9551L165.979 34.0732L159.895 40.2598L153.674 34.0732ZM150.837 86.1631L152.033 85.9922C153.013 85.8555 153.811 85.7188 154.426 85.582C155.041 85.4225 155.52 85.1491 155.861 84.7617C156.454 84.0553 156.75 82.4375 156.75 79.9082V56.7344C156.75 54.1367 156.477 52.5758 155.93 52.0518C155.383 51.5049 154.722 51.1631 153.947 51.0264C153.173 50.8896 152.136 50.7643 150.837 50.6504V47.7109H169.533V50.6504C168.234 50.7871 167.198 50.9238 166.423 51.0605C165.648 51.1973 165.056 51.4593 164.646 51.8467C163.985 52.4619 163.654 54.0911 163.654 56.7344V79.9082C163.654 82.5059 163.859 84.0439 164.27 84.5225C164.68 85.001 165.181 85.32 165.773 85.4795C166.389 85.639 167.198 85.7985 168.2 85.958L169.533 86.1631V89H150.837V86.1631ZM197.996 58.4434C198.862 57.099 199.295 55.8913 199.295 54.8203C199.295 53.7266 198.646 52.7695 197.347 51.9492C196.071 51.1061 194.544 50.6846 192.767 50.6846C190.989 50.6846 189.622 50.8441 188.665 51.1631C187.708 51.4821 186.899 51.9264 186.238 52.4961C184.939 53.6126 184.29 55.1051 184.29 56.9736C184.29 59.2295 186.181 61.3145 189.964 63.2285C191.058 63.7982 191.98 64.2539 192.732 64.5957C198.497 67.1934 202.155 69.1188 203.704 70.3721C205.254 71.6025 206.37 72.7874 207.054 73.9268C207.76 75.0661 208.113 76.4788 208.113 78.165C208.113 79.8512 207.646 81.4349 206.712 82.916C205.778 84.3971 204.536 85.6504 202.986 86.6758C199.842 88.7721 196.059 89.8203 191.639 89.8203C187.514 89.8203 183.914 88.9772 180.838 87.291C177.465 85.4909 175.825 83.2008 175.916 80.4209C175.962 78.7803 176.668 77.3105 178.035 76.0117C179.266 74.8496 180.735 74.0749 182.444 73.6875L183.948 75.4307C183.082 76.5016 182.649 77.9372 182.649 79.7373C182.649 81.3096 183.47 82.7109 185.11 83.9414C186.933 85.3314 189.257 86.0264 192.083 86.0264C194.931 86.0264 197.164 85.3883 198.782 84.1123C200.423 82.8363 201.243 81.1273 201.243 78.9854C201.243 76.4788 199.147 74.2686 194.954 72.3545C193.701 71.7848 192.675 71.3405 191.878 71.0215C191.08 70.6797 190.579 70.4632 190.374 70.3721C190.169 70.2809 189.599 70.0303 188.665 69.6201C187.754 69.1872 186.557 68.5492 185.076 67.7061C183.618 66.863 182.33 65.9401 181.214 64.9375C178.821 62.8184 177.625 60.4258 177.625 57.7598C177.625 54.4557 179.083 51.8125 182 49.8301C184.78 47.9616 188.471 47.0273 193.074 47.0273C196.629 47.0273 199.557 47.7337 201.858 49.1465C204.183 50.5592 205.345 52.3138 205.345 54.4102C205.345 55.7318 204.718 56.9395 203.465 58.0332C202.371 58.9674 201.198 59.5713 199.944 59.8447L197.996 58.4434ZM256.392 86.8809C259.673 83.0527 262.008 79.5664 263.398 76.4219C265.29 72.1608 266.304 65.6211 266.44 56.8027C266.486 53.8633 266.509 51.0833 266.509 48.4629C266.509 45.8197 266.463 44.0765 266.372 43.2334C266.281 42.3675 266.064 41.6953 265.723 41.2168C265.107 40.4193 263.604 39.9066 261.211 39.6787V36.7051H279.087V39.6787C277.856 39.8382 276.877 40.0205 276.147 40.2256C275.441 40.4307 274.906 40.7725 274.541 41.251C273.994 42.0029 273.721 44.1107 273.721 47.5742C273.721 51.015 273.743 54.2734 273.789 57.3496C273.857 60.403 274.006 63.1146 274.233 65.4844C274.461 67.8542 274.792 69.9619 275.225 71.8076C275.658 73.6305 276.25 75.3509 277.002 76.9688C278.324 79.7943 280.614 83.0983 283.872 86.8809C286.971 82.9616 289.147 79.4183 290.4 76.251C292.132 71.8532 293.032 65.1312 293.101 56.085C293.123 53.0316 293.135 50.2288 293.135 47.6768C293.135 45.1019 293.101 43.4613 293.032 42.7549C292.964 42.0485 292.759 41.4902 292.417 41.0801C291.825 40.3737 290.286 39.9066 287.803 39.6787V36.7051H305.269V39.6787C302.899 39.861 301.452 40.3395 300.928 41.1143C300.495 41.7751 300.278 43.9398 300.278 47.6084C300.278 51.2542 300.164 54.8659 299.937 58.4434C299.709 62.0208 299.333 65.2451 298.809 68.1162C298.285 70.9645 297.601 73.5166 296.758 75.7725C295.938 78.0055 294.912 80.0449 293.682 81.8906C291.449 85.3086 288.179 88.5898 283.872 91.7344C276.968 85.696 272.399 79.1676 270.166 72.1494C267.568 79.7601 262.977 86.2884 256.392 91.7344C252.017 88.4987 248.747 85.2174 246.582 81.8906C243.05 76.5358 240.954 68.7201 240.293 58.4434C240.065 54.8659 239.951 51.6188 239.951 48.7021C239.951 45.7627 239.917 43.8942 239.849 43.0967C239.78 42.2992 239.587 41.6725 239.268 41.2168C238.743 40.5104 237.319 39.9977 234.995 39.6787V36.7051H252.495V39.6787C250.011 39.9066 248.451 40.3737 247.812 41.0801C247.471 41.4902 247.266 42.0485 247.197 42.7549C247.129 43.4613 247.095 45.1019 247.095 47.6768C247.095 50.2288 247.106 53.0316 247.129 56.085C247.152 59.1383 247.243 61.8727 247.402 64.2881C247.585 66.7035 247.858 68.8682 248.223 70.7822C248.61 72.6963 249.146 74.5192 249.829 76.251C251.06 79.3499 253.247 82.8932 256.392 86.8809ZM343.678 83.9072C340.556 87.7581 335.873 89.6836 329.63 89.6836C323.614 89.6836 318.909 87.7354 315.514 83.8389C312.255 80.0791 310.626 75.1117 310.626 68.9365C310.626 62.5791 312.438 57.3268 316.061 53.1797C319.661 49.0781 324.275 47.0273 329.903 47.0273C334.21 47.0273 337.571 47.9388 339.986 49.7617C342.288 51.4707 343.438 53.8177 343.438 56.8027C343.438 60.6536 341.57 63.9007 337.833 66.5439C333.481 69.6201 326.896 71.1924 318.077 71.2607C318.875 80.5804 323.09 85.2402 330.724 85.2402C335.509 85.2402 339.177 84.1465 341.729 81.959L343.678 83.9072ZM317.975 67.6035C326.087 67.444 331.578 65.5186 334.449 61.8271C335.497 60.46 336.021 58.7624 336.021 56.7344C336.021 54.0911 334.882 52.2682 332.604 51.2656C331.715 50.8783 330.61 50.6846 329.288 50.6846C327.966 50.6846 326.793 50.9238 325.768 51.4023C324.742 51.8581 323.819 52.4961 322.999 53.3164C322.179 54.1139 321.461 55.0596 320.846 56.1533C320.23 57.2243 319.718 58.3864 319.308 59.6396C318.465 62.2145 318.02 64.8691 317.975 67.6035ZM350.505 86.1631C353.125 85.9352 354.709 85.5479 355.256 85.001C355.803 84.4313 356.133 83.8161 356.247 83.1553C356.361 82.4717 356.418 81.583 356.418 80.4893V38.585C356.418 36.3975 356.008 34.9961 355.188 34.3809C354.641 33.9707 353.08 33.6403 350.505 33.3896V30.5527H369.27V33.3896C366.717 33.6403 365.191 33.9479 364.689 34.3125C363.824 34.9277 363.391 36.3519 363.391 38.585V51.2314C365.487 48.9984 368.29 47.5173 371.799 46.7881C372.915 46.5602 374.203 46.4463 375.661 46.4463C377.142 46.4463 378.669 46.7311 380.241 47.3008C381.813 47.8477 383.238 48.611 384.514 49.5908C385.79 50.5706 386.918 51.7327 387.897 53.0771C388.877 54.3988 389.686 55.8457 390.324 57.418C391.669 60.6764 392.341 64.1286 392.341 67.7744C392.341 73.6989 390.712 78.7917 387.453 83.0527C385.22 85.9466 382.372 87.9746 378.908 89.1367C377.154 89.7292 375.467 90.0254 373.85 90.0254C371.753 90.0254 369.566 89.9115 367.287 89.6836C363.026 89.2279 360.394 89 359.392 89H350.505V86.1631ZM363.391 78.9854C363.391 81.1501 364.006 82.8021 365.236 83.9414C366.831 85.3542 369.52 86.0605 373.303 86.0605C377.085 86.0605 379.979 84.2148 381.984 80.5234C383.762 77.3333 384.65 73.0837 384.65 67.7744C384.65 60.0726 382.941 54.8203 379.523 52.0176C378.247 50.9694 376.766 50.4453 375.08 50.4453C373.394 50.4453 371.867 50.696 370.5 51.1973C369.133 51.6986 367.925 52.3822 366.877 53.248C364.553 55.1393 363.391 57.3838 363.391 59.9814V78.9854ZM420.428 58.4434C421.294 57.099 421.727 55.8913 421.727 54.8203C421.727 53.7266 421.077 52.7695 419.778 51.9492C418.502 51.1061 416.976 50.6846 415.198 50.6846C413.421 50.6846 412.054 50.8441 411.097 51.1631C410.14 51.4821 409.331 51.9264 408.67 52.4961C407.371 53.6126 406.722 55.1051 406.722 56.9736C406.722 59.2295 408.613 61.3145 412.396 63.2285C413.489 63.7982 414.412 64.2539 415.164 64.5957C420.929 67.1934 424.586 69.1188 426.136 70.3721C427.685 71.6025 428.802 72.7874 429.485 73.9268C430.192 75.0661 430.545 76.4788 430.545 78.165C430.545 79.8512 430.078 81.4349 429.144 82.916C428.209 84.3971 426.967 85.6504 425.418 86.6758C422.273 88.7721 418.491 89.8203 414.07 89.8203C409.946 89.8203 406.346 88.9772 403.27 87.291C399.897 85.4909 398.257 83.2008 398.348 80.4209C398.393 78.7803 399.1 77.3105 400.467 76.0117C401.697 74.8496 403.167 74.0749 404.876 73.6875L406.38 75.4307C405.514 76.5016 405.081 77.9372 405.081 79.7373C405.081 81.3096 405.901 82.7109 407.542 83.9414C409.365 85.3314 411.689 86.0264 414.515 86.0264C417.363 86.0264 419.596 85.3883 421.214 84.1123C422.854 82.8363 423.675 81.1273 423.675 78.9854C423.675 76.4788 421.578 74.2686 417.386 72.3545C416.132 71.7848 415.107 71.3405 414.31 71.0215C413.512 70.6797 413.011 70.4632 412.806 70.3721C412.601 70.2809 412.031 70.0303 411.097 69.6201C410.185 69.1872 408.989 68.5492 407.508 67.7061C406.049 66.863 404.762 65.9401 403.646 64.9375C401.253 62.8184 400.057 60.4258 400.057 57.7598C400.057 54.4557 401.515 51.8125 404.432 49.8301C407.212 47.9616 410.903 47.0273 415.506 47.0273C419.061 47.0273 421.989 47.7337 424.29 49.1465C426.614 50.5592 427.776 52.3138 427.776 54.4102C427.776 55.7318 427.15 56.9395 425.896 58.0332C424.803 58.9674 423.629 59.5713 422.376 59.8447L420.428 58.4434ZM438.021 34.0732L444.242 27.9551L450.326 34.0732L444.242 40.2598L438.021 34.0732ZM435.185 86.1631L436.381 85.9922C437.361 85.8555 438.158 85.7188 438.773 85.582C439.389 85.4225 439.867 85.1491 440.209 84.7617C440.801 84.0553 441.098 82.4375 441.098 79.9082V56.7344C441.098 54.1367 440.824 52.5758 440.277 52.0518C439.73 51.5049 439.07 51.1631 438.295 51.0264C437.52 50.8896 436.483 50.7643 435.185 50.6504V47.7109H453.881V50.6504C452.582 50.7871 451.545 50.9238 450.771 51.0605C449.996 51.1973 449.403 51.4593 448.993 51.8467C448.332 52.4619 448.002 54.0911 448.002 56.7344V79.9082C448.002 82.5059 448.207 84.0439 448.617 84.5225C449.027 85.001 449.529 85.32 450.121 85.4795C450.736 85.639 451.545 85.7985 452.548 85.958L453.881 86.1631V89H435.185V86.1631ZM459.956 86.1631C460.981 85.9352 461.79 85.7415 462.383 85.582C462.998 85.3997 463.454 85.1035 463.75 84.6934C464.251 84.0326 464.502 82.3236 464.502 79.5664V51.8809H458.657V48.7363C461.984 48.2578 463.898 47.7679 464.399 47.2666H464.365C464.867 46.583 465.311 45.0563 465.698 42.6865C466.086 40.3167 466.325 38.5736 466.416 37.457L471.372 35.4062V47.7109H483.745V51.8809H471.372V79.4639C471.372 81.583 471.52 82.9388 471.816 83.5312C472.135 84.1009 472.523 84.5225 472.979 84.7959C473.434 85.0693 474.049 85.2744 474.824 85.4111C476.077 85.639 478.368 85.7757 481.694 85.8213V89H459.956V86.1631ZM519.283 83.9072C516.161 87.7581 511.479 89.6836 505.235 89.6836C499.22 89.6836 494.514 87.7354 491.119 83.8389C487.861 80.0791 486.231 75.1117 486.231 68.9365C486.231 62.5791 488.043 57.3268 491.666 53.1797C495.266 49.0781 499.881 47.0273 505.509 47.0273C509.815 47.0273 513.176 47.9388 515.592 49.7617C517.893 51.4707 519.044 53.8177 519.044 56.8027C519.044 60.6536 517.175 63.9007 513.438 66.5439C509.086 69.6201 502.501 71.1924 493.683 71.2607C494.48 80.5804 498.696 85.2402 506.329 85.2402C511.114 85.2402 514.783 84.1465 517.335 81.959L519.283 83.9072ZM493.58 67.6035C501.692 67.444 507.184 65.5186 510.055 61.8271C511.103 60.46 511.627 58.7624 511.627 56.7344C511.627 54.0911 510.488 52.2682 508.209 51.2656C507.32 50.8783 506.215 50.6846 504.894 50.6846C503.572 50.6846 502.398 50.9238 501.373 51.4023C500.348 51.8581 499.425 52.4961 498.604 53.3164C497.784 54.1139 497.066 55.0596 496.451 56.1533C495.836 57.2243 495.323 58.3864 494.913 59.6396C494.07 62.2145 493.626 64.8691 493.58 67.6035ZM530.144 75.0205C529.961 61.098 528.913 50.0238 526.999 41.7979C526.566 39.9294 526.065 38.266 525.495 36.8076L531.75 30.6895L537.834 36.8076C536.011 41.6839 534.735 49.5111 534.006 60.2891C533.664 65.0514 533.47 69.9619 533.425 75.0205H530.144ZM531.921 78.6777L538.005 84.7959L531.921 90.9824L525.7 84.7959L531.921 78.6777Z" fill="#FFFFC5"/>
<path d="M87.9639 51.4023L83.048 50.4888L81.9491 56.4023H87.9639V51.4023ZM88.2373 42.96L83.5949 44.8169L83.6329 44.9119L83.6748 45.0052L88.2373 42.96ZM86.8359 41.3535L84.2635 45.641L84.2853 45.6541L84.3073 45.667L86.8359 41.3535ZM74.5654 40.3281V35.3281H69.5654V40.3281H74.5654ZM74.8047 82.916L69.9135 83.9535L69.9168 83.969L69.9202 83.9845L74.8047 82.916ZM75.9668 84.5908L73.3027 88.822L75.9668 84.5908ZM78.7012 85.4453L77.9549 90.3893L77.9684 90.3913L78.7012 85.4453ZM83.7256 86.0264H88.7256V81.4869L84.2072 81.0496L83.7256 86.0264ZM83.7256 89V94H88.7256V89H83.7256ZM58.7744 89H53.7744V94H58.7744V89ZM58.7744 86.0264L58.2964 81.0493L53.7744 81.4836V86.0264H58.7744ZM65.918 84.7275L63.2336 80.5092L63.204 80.5281L63.1747 80.5473L65.918 84.7275ZM67.3193 82.916L62.4955 81.6004L62.4815 81.6517L62.4686 81.7033L67.3193 82.916ZM67.627 40.3281H72.627V35.3281H67.627V40.3281ZM52.1777 46.3438L56.7151 48.4444L56.7224 48.4286L56.7296 48.4128L52.1777 46.3438ZM50.4688 50.3086L45.8315 48.4388L45.8185 48.4711L45.8059 48.5036L50.4688 50.3086ZM50.0586 51.3682V56.3682H53.4846L54.7214 53.1731L50.0586 51.3682ZM46.709 51.3682L41.8711 50.1051L40.236 56.3682H46.709V51.3682ZM50.5371 36.7051V31.7051H46.6749L45.6993 35.4421L50.5371 36.7051ZM94.834 36.7051L99.6913 37.8912L101.202 31.7051H94.834V36.7051ZM91.2451 51.4023V56.4023H95.1711L96.1024 52.5884L91.2451 51.4023ZM92.8797 52.3159C93.3637 49.7113 93.6816 47.4427 93.6816 45.7627H83.6816C83.6816 46.4525 83.521 47.9437 83.048 50.4888L92.8797 52.3159ZM93.6816 45.7627C93.6816 44.26 93.5149 42.5097 92.7999 40.9147L83.6748 45.0052C83.5972 44.8322 83.6074 44.7826 83.6322 44.9392C83.6558 45.0879 83.6816 45.3531 83.6816 45.7627H93.6816ZM92.8797 41.103C92.1764 39.3447 90.9415 37.9645 89.3645 37.04L84.3073 45.667C84.2082 45.6089 84.0621 45.5022 83.914 45.3325C83.7644 45.161 83.6595 44.9785 83.5949 44.8169L92.8797 41.103ZM89.4084 37.0661C88.0454 36.2483 86.4957 35.8601 85.1377 35.6457C83.7102 35.4203 82.0916 35.3281 80.3418 35.3281V45.3281C81.7821 45.3281 82.8409 45.4069 83.5781 45.5233C84.3849 45.6507 84.4871 45.7752 84.2635 45.641L89.4084 37.0661ZM80.3418 35.3281H74.5654V45.3281H80.3418V35.3281ZM69.5654 40.3281V79.8057H79.5654V40.3281H69.5654ZM69.5654 79.8057C69.5654 81.2655 69.6482 82.7027 69.9135 83.9535L79.6959 81.8785C79.6422 81.6255 79.5654 80.9891 79.5654 79.8057H69.5654ZM69.9202 83.9845C70.3575 85.9837 71.5199 87.6995 73.3027 88.822L78.6309 80.3597C78.8522 80.499 79.1067 80.7198 79.3228 81.0312C79.5372 81.3402 79.643 81.6362 79.6892 81.8475L69.9202 83.9845ZM73.3027 88.822C74.7678 89.7444 76.4675 90.1648 77.9549 90.3893L79.4474 80.5013C79.0301 80.4383 78.759 80.3713 78.6032 80.3226C78.4392 80.2713 78.479 80.2641 78.6309 80.3597L73.3027 88.822ZM77.9684 90.3913C79.3204 90.5916 81.0907 90.7947 83.244 91.0031L84.2072 81.0496C82.1222 80.8478 80.5429 80.6636 79.4339 80.4993L77.9684 90.3913ZM78.7256 86.0264V89H88.7256V86.0264H78.7256ZM83.7256 84H58.7744V94H83.7256V84ZM63.7744 89V86.0264H53.7744V89H63.7744ZM59.2524 91.0035C61.3293 90.804 63.0903 90.5831 64.4796 90.3305C65.1723 90.2045 65.8502 90.057 66.4674 89.8761C66.9977 89.7207 67.8522 89.4387 68.6613 88.9078L63.1747 80.5473C63.6191 80.2556 63.9026 80.2072 63.6553 80.2797C63.4949 80.3266 63.1887 80.4012 62.6908 80.4918C61.699 80.6721 60.2528 80.8614 58.2964 81.0493L59.2524 91.0035ZM68.6023 88.9458C70.2207 87.916 71.6207 86.3262 72.17 84.1287L62.4686 81.7033C62.5479 81.3863 62.6948 81.0926 62.8775 80.8564C63.051 80.6321 63.2023 80.5291 63.2336 80.5092L68.6023 88.9458ZM72.1432 84.2316C72.5184 82.8557 72.627 81.3094 72.627 79.8057H62.627C62.627 80.9451 62.5304 81.4724 62.4955 81.6004L72.1432 84.2316ZM72.627 79.8057V40.3281H62.627V79.8057H72.627ZM67.627 35.3281H61.0645V45.3281H67.627V35.3281ZM61.0645 35.3281C58.1655 35.3281 55.3891 36.0497 52.9638 37.6915C50.5612 39.3179 48.8304 41.6248 47.6259 44.2747L56.7296 48.4128C57.348 47.0522 58.0098 46.3514 58.5694 45.9726C59.1064 45.6091 59.8618 45.3281 61.0645 45.3281V35.3281ZM47.6404 44.2431C47.0315 45.5583 46.4288 46.9575 45.8315 48.4388L55.106 52.1784C55.648 50.8341 56.1846 49.5902 56.7151 48.4444L47.6404 44.2431ZM45.8059 48.5036L45.3958 49.5632L54.7214 53.1731L55.1316 52.1136L45.8059 48.5036ZM50.0586 46.3682H46.709V56.3682H50.0586V46.3682ZM51.5468 52.6312L55.375 37.9681L45.6993 35.4421L41.8711 50.1051L51.5468 52.6312ZM50.5371 41.7051H94.834V31.7051H50.5371V41.7051ZM89.9767 35.519L86.3878 50.2163L96.1024 52.5884L99.6913 37.8912L89.9767 35.519ZM91.2451 46.4023H87.9639V56.4023H91.2451V46.4023ZM114.444 54.8203H109.444L118.901 57.0865L114.444 54.8203ZM125.826 44.5664L128.183 40.1567L125.889 38.9306L123.568 40.1053L125.826 44.5664ZM134.85 51.5049L138.722 48.3422L138.719 48.3387L134.85 51.5049ZM140.934 69.4492L145.917 69.0374L145.915 69.0196L145.914 69.0017L140.934 69.4492ZM141.378 82.6084L136.392 82.9823L136.397 83.0442L136.403 83.1059L141.378 82.6084ZM141.959 84.6592L137.767 87.3841L141.959 84.6592ZM143.224 85.582L141.824 90.382L141.939 90.4158L142.057 90.444L143.224 85.582ZM144.898 85.9238L144.076 90.8558L144.092 90.8585L144.108 90.861L144.898 85.9238ZM146.095 86.0947L145.597 91.0699L145.845 91.0947H146.095V86.0947ZM146.812 86.1631H151.812V82.0641L147.793 81.2602L146.812 86.1631ZM146.812 89V94H151.812V89H146.812ZM128.253 89H123.253V94H128.253V89ZM128.253 86.1631L127.643 81.2004L123.253 81.7396V86.1631H128.253ZM131.363 85.7188L132.232 90.6427L132.302 90.6303L132.372 90.616L131.363 85.7188ZM133.141 84.8643L136.676 88.3998L133.141 84.8643ZM133.756 64.5615L128.793 65.1681L128.794 65.1748L133.756 64.5615ZM132.799 59.5371L127.985 60.8884L127.996 60.9274L128.007 60.9661L132.799 59.5371ZM131.295 55.8457L135.678 53.4394L135.67 53.4245L135.661 53.4097L131.295 55.8457ZM125.519 49.3857L128.666 45.5011L125.924 43.2791L122.912 45.1186L125.519 49.3857ZM117.965 55.7773L113.965 52.7773L113.958 52.7866L117.965 55.7773ZM114.581 82.7109L109.607 83.2211L109.609 83.2344L114.581 82.7109ZM115.299 84.6934L111.489 87.9316L111.535 87.9856L111.582 88.0382L115.299 84.6934ZM117.076 85.6504L115.931 90.5175L116.013 90.5368L116.096 90.5533L117.076 85.6504ZM120.357 86.1631H125.357V81.776L121.008 81.2055L120.357 86.1631ZM120.357 89V94H125.357V89H120.357ZM101.593 89H96.5928V94H101.593V89ZM101.593 86.1973L99.3567 81.7251L96.5928 83.1071V86.1973H101.593ZM101.661 86.1631L101.072 81.1979L100.206 81.3007L99.4251 81.6909L101.661 86.1631ZM104.84 85.6846L105.848 90.5819L105.917 90.5677L105.985 90.5517L104.84 85.6846ZM106.583 84.7959L110.218 88.229L110.233 88.2136L110.247 88.1982L106.583 84.7959ZM106.651 34.1074L103.195 37.7206L103.234 37.7573L103.273 37.7932L106.651 34.1074ZM104.703 33.1504L103.695 38.0477L103.764 38.062L103.834 38.0743L104.703 33.1504ZM101.593 32.7402H96.5928V37.3208L101.156 37.7211L101.593 32.7402ZM101.593 29.8691V24.8691H96.5928V29.8691H101.593ZM120.357 29.8691H125.357V24.8691H120.357V29.8691ZM120.357 32.7402L120.89 37.7118L125.357 37.2331V32.7402H120.357ZM115.504 33.9023L118.717 37.7333L118.772 37.6871L118.826 37.6394L115.504 33.9023ZM118.901 57.0865C120.321 54.2946 123.149 51.5253 128.084 49.0275L123.568 40.1053C117.429 43.2129 112.669 47.2796 109.987 52.5541L118.901 57.0865ZM123.469 48.9761C127.063 50.8969 129.475 52.8315 130.98 54.6711L138.719 48.3387C136.123 45.1652 132.519 42.4742 128.183 40.1567L123.469 48.9761ZM130.977 54.6676C133.455 57.7014 135.295 62.5708 135.954 69.8967L145.914 69.0017C145.159 60.605 142.944 53.5115 138.722 48.3422L130.977 54.6676ZM135.951 69.861C136.168 72.4925 136.275 75.0093 136.275 77.4131H146.275C146.275 74.7127 146.155 71.9203 145.917 69.0374L135.951 69.861ZM136.275 77.4131C136.275 79.944 136.307 81.8566 136.392 82.9823L146.364 82.2344C146.312 81.5373 146.275 79.9863 146.275 77.4131H136.275ZM136.403 83.1059C136.526 84.3354 136.834 85.9485 137.767 87.3841L146.151 81.9342C146.252 82.0889 146.314 82.2167 146.349 82.2995C146.385 82.3824 146.4 82.4334 146.402 82.4417C146.405 82.4504 146.398 82.4287 146.388 82.3703C146.377 82.3124 146.365 82.2271 146.353 82.1109L136.403 83.1059ZM137.767 87.3841C138.749 88.8948 140.188 89.9049 141.824 90.382L144.624 80.782C144.855 80.8496 145.147 80.9752 145.445 81.1927C145.746 81.4124 145.982 81.6735 146.151 81.9342L137.767 87.3841ZM142.057 90.444C142.734 90.6065 143.408 90.7443 144.076 90.8558L145.72 80.9919C145.296 80.9211 144.852 80.831 144.39 80.7201L142.057 90.444ZM144.108 90.861C144.673 90.9514 145.205 91.0307 145.597 91.0699L146.592 81.1195C146.593 81.1196 146.572 81.1175 146.523 81.1112C146.476 81.1052 146.413 81.0967 146.332 81.0852C146.169 81.0619 145.956 81.0295 145.688 80.9866L144.108 90.861ZM146.095 91.0947C146.042 91.0947 145.951 91.0898 145.832 91.066L147.793 81.2602C147.218 81.1452 146.649 81.0947 146.095 81.0947V91.0947ZM141.812 86.1631V89H151.812V86.1631H141.812ZM146.812 84H128.253V94H146.812V84ZM133.253 89V86.1631H123.253V89H133.253ZM128.862 91.1258C130.199 90.9616 131.334 90.8012 132.232 90.6427L130.494 80.7948C129.843 80.9097 128.904 81.0455 127.643 81.2004L128.862 91.1258ZM132.372 90.616C133.766 90.329 135.366 89.7104 136.676 88.3998L129.605 81.3287C130.095 80.8384 130.51 80.7895 130.355 80.8215L132.372 90.616ZM136.676 88.3998C138.154 86.9217 138.608 84.9708 138.805 83.8793C139.045 82.5477 139.132 81.0056 139.132 79.3613H129.132C129.132 80.7249 129.054 81.6039 128.963 82.1066C128.919 82.3532 128.891 82.394 128.928 82.3026C128.954 82.2363 129.127 81.8071 129.605 81.3287L136.676 88.3998ZM139.132 79.3613V75.3623H129.132V79.3613H139.132ZM139.132 75.3623C139.132 70.2016 139.011 66.3182 138.718 63.9482L128.794 65.1748C129.002 66.8608 129.132 70.1779 129.132 75.3623H139.132ZM138.719 63.9549C138.45 61.754 138.088 59.7764 137.59 58.1081L128.007 60.9661C128.285 61.8955 128.56 63.2675 128.793 65.1681L138.719 63.9549ZM137.613 58.1858C137.147 56.5265 136.502 54.9415 135.678 53.4394L126.912 58.252C127.363 59.0742 127.721 59.95 127.985 60.8884L137.613 58.1858ZM135.661 53.4097C134.051 50.5236 131.632 47.9044 128.666 45.5011L122.371 53.2704C124.691 55.1509 126.123 56.8384 126.928 58.2817L135.661 53.4097ZM122.912 45.1186C119.201 47.3851 116.117 49.9079 113.965 52.7773L121.965 58.7773C123.094 57.2718 125.045 55.5335 128.125 53.6529L122.912 45.1186ZM113.958 52.7866C110.856 56.9421 109.444 61.9283 109.444 67.4326H119.444C119.444 63.6856 120.379 60.9017 121.972 58.768L113.958 52.7866ZM109.444 67.4326V79.0195H119.444V67.4326H109.444ZM109.444 79.0195C109.444 80.6552 109.49 82.0823 109.607 83.2211L119.555 82.2008C119.489 81.5623 119.444 80.5284 119.444 79.0195H109.444ZM109.609 83.2344C109.759 84.6674 110.215 86.4324 111.489 87.9316L119.109 81.4551C119.362 81.7539 119.481 82.0192 119.53 82.1538C119.576 82.2816 119.566 82.3095 119.554 82.1875L109.609 83.2344ZM111.582 88.0382C112.852 89.4486 114.458 90.1709 115.931 90.5175L118.221 80.7833C118.145 80.7653 118.566 80.8495 119.015 81.3485L111.582 88.0382ZM116.096 90.5533C117.053 90.7448 118.273 90.9326 119.707 91.1206L121.008 81.2055C119.662 81.029 118.694 80.875 118.057 80.7475L116.096 90.5533ZM115.357 86.1631V89H125.357V86.1631H115.357ZM120.357 84H101.593V94H120.357V84ZM106.593 89V86.1973H96.5928V89H106.593ZM103.829 90.6694L103.897 90.6352L99.4251 81.6909L99.3567 81.7251L103.829 90.6694ZM102.25 91.1283C103.652 90.962 104.871 90.783 105.848 90.5819L103.832 80.7873C103.259 80.9052 102.359 81.0452 101.072 81.1979L102.25 91.1283ZM105.985 90.5517C107.337 90.2336 108.936 89.5868 110.218 88.229L102.948 81.3628C103.456 80.8253 103.892 80.771 103.695 80.8175L105.985 90.5517ZM110.247 88.1982C111.527 86.8198 111.965 85.1126 112.163 84.0639C112.391 82.8519 112.472 81.4897 112.472 80.0791H102.472C102.472 81.175 102.404 81.8522 102.336 82.2124C102.303 82.3859 102.288 82.3871 102.333 82.277C102.371 82.1806 102.528 81.8143 102.919 81.3936L110.247 88.1982ZM112.472 80.0791V38.6533H102.472V80.0791H112.472ZM112.472 38.6533C112.472 37.2543 112.399 35.9085 112.187 34.732C112.028 33.85 111.611 31.8708 110.03 30.4217L103.273 37.7932C102.958 37.5049 102.75 37.2245 102.621 37.0201C102.491 36.8154 102.416 36.6502 102.379 36.5575C102.309 36.3869 102.316 36.3419 102.346 36.5078C102.373 36.658 102.406 36.9088 102.432 37.2837C102.457 37.6536 102.472 38.1073 102.472 38.6533H112.472ZM110.107 30.4942C108.809 29.2519 107.234 28.5197 105.572 28.2265L103.834 38.0743C103.798 38.068 103.7 38.0452 103.567 37.98C103.431 37.9132 103.302 37.823 103.195 37.7206L110.107 30.4942ZM105.711 28.2531C104.667 28.038 103.415 27.8809 102.03 27.7594L101.156 37.7211C102.368 37.8275 103.19 37.9437 103.695 38.0477L105.711 28.2531ZM106.593 32.7402V29.8691H96.5928V32.7402H106.593ZM101.593 34.8691H120.357V24.8691H101.593V34.8691ZM115.357 29.8691V32.7402H125.357V29.8691H115.357ZM119.825 27.7687C118.497 27.911 117.346 28.0618 116.412 28.2265L118.15 38.0743C118.766 37.9656 119.666 37.8429 120.89 37.7118L119.825 27.7687ZM116.412 28.2265C115.1 28.458 113.522 28.9743 112.182 30.1653L118.826 37.6394C118.56 37.8756 118.326 37.9944 118.204 38.0458C118.087 38.0953 118.055 38.0912 118.15 38.0743L116.412 28.2265ZM112.291 30.0714C110.663 31.4363 110.083 33.3077 109.829 34.4461C109.54 35.7402 109.444 37.1864 109.444 38.6533H119.444C119.444 38.1197 119.463 37.6823 119.493 37.3312C119.523 36.9754 119.561 36.7479 119.589 36.6228C119.62 36.4874 119.621 36.5472 119.536 36.7214C119.453 36.8924 119.219 37.3126 118.717 37.7333L112.291 30.0714ZM109.444 38.6533V54.8203H119.444V38.6533H109.444ZM153.674 34.0732L150.168 30.5085L146.563 34.0535L150.148 37.6185L153.674 34.0732ZM159.895 27.9551L163.44 24.4295L159.934 20.9035L156.388 24.3903L159.895 27.9551ZM165.979 34.0732L169.543 37.5791L173.01 34.0537L169.524 30.5476L165.979 34.0732ZM159.895 40.2598L156.369 43.805L159.934 47.3506L163.459 43.7656L159.895 40.2598ZM150.837 86.1631L150.13 81.2133L145.837 81.8266V86.1631H150.837ZM152.033 85.9922L151.342 81.0402L151.334 81.0413L151.326 81.0424L152.033 85.9922ZM154.426 85.582L155.51 90.463L155.596 90.444L155.681 90.422L154.426 85.582ZM155.861 84.7617L159.611 88.0698L159.652 88.0228L159.692 87.9748L155.861 84.7617ZM155.93 52.0518L152.394 55.5873L152.432 55.6249L152.47 55.6617L155.93 52.0518ZM150.837 50.6504H145.837V55.231L150.4 55.6313L150.837 50.6504ZM150.837 47.7109V42.7109H145.837V47.7109H150.837ZM169.533 47.7109H174.533V42.7109H169.533V47.7109ZM169.533 50.6504L170.057 55.6229L174.533 55.1517V50.6504H169.533ZM164.646 51.8467L168.053 55.5061L168.066 55.494L168.079 55.4817L164.646 51.8467ZM165.773 85.4795L164.474 90.3076L164.496 90.3136L164.519 90.3195L165.773 85.4795ZM168.2 85.958L167.415 90.8959L167.427 90.8979L167.44 90.8999L168.2 85.958ZM169.533 86.1631H174.533V81.8735L170.293 81.2212L169.533 86.1631ZM169.533 89V94H174.533V89H169.533ZM150.837 89H145.837V94H150.837V89ZM157.18 37.638L163.401 31.5199L156.388 24.3903L150.168 30.5085L157.18 37.638ZM156.349 31.4807L162.433 37.5989L169.524 30.5476L163.44 24.4295L156.349 31.4807ZM162.414 30.5674L156.33 36.7539L163.459 43.7656L169.543 37.5791L162.414 30.5674ZM163.42 36.7145L157.2 30.528L150.148 37.6185L156.369 43.805L163.42 36.7145ZM151.544 91.1128L152.74 90.9419L151.326 81.0424L150.13 81.2133L151.544 91.1128ZM152.724 90.9442C153.771 90.7981 154.714 90.64 155.51 90.463L153.341 80.7011C152.908 80.7975 152.255 80.9128 151.342 81.0402L152.724 90.9442ZM155.681 90.422C157.037 90.0703 158.47 89.3619 159.611 88.0698L152.112 81.4536C152.569 80.9363 153.045 80.7748 153.171 80.742L155.681 90.422ZM159.692 87.9748C160.828 86.6209 161.247 85.0057 161.446 83.9191C161.669 82.6998 161.75 81.3325 161.75 79.9082H151.75C151.75 81.0132 151.683 81.7195 151.61 82.118C151.574 82.3106 151.553 82.3461 151.58 82.2753C151.603 82.2161 151.721 81.9176 152.03 81.5487L159.692 87.9748ZM161.75 79.9082V56.7344H151.75V79.9082H161.75ZM161.75 56.7344C161.75 55.3043 161.678 53.94 161.47 52.7527C161.313 51.8581 160.911 49.9 159.389 48.4418L152.47 55.6617C152.17 55.3739 151.974 55.0987 151.855 54.9035C151.735 54.7075 151.668 54.5524 151.636 54.4698C151.576 54.3189 151.588 54.2947 151.62 54.4783C151.685 54.8519 151.75 55.5668 151.75 56.7344H161.75ZM159.465 48.5162C158.18 47.2307 156.583 46.4142 154.816 46.1024L153.078 55.9503C152.997 55.9359 152.87 55.9007 152.727 55.8263C152.582 55.7517 152.47 55.6631 152.394 55.5873L159.465 48.5162ZM154.816 46.1024C153.836 45.9295 152.637 45.7891 151.274 45.6695L150.4 55.6313C151.635 55.7396 152.509 55.8498 153.078 55.9503L154.816 46.1024ZM155.837 50.6504V47.7109H145.837V50.6504H155.837ZM150.837 52.7109H169.533V42.7109H150.837V52.7109ZM164.533 47.7109V50.6504H174.533V47.7109H164.533ZM169.01 45.6779C167.66 45.82 166.493 45.9709 165.554 46.1366L167.292 55.9845C167.902 55.8768 168.809 55.7543 170.057 55.6229L169.01 45.6779ZM165.554 46.1366C164.183 46.3786 162.562 46.9371 161.212 48.2116L168.079 55.4817C167.549 55.9815 167.114 56.0159 167.292 55.9845L165.554 46.1366ZM161.238 48.1872C159.731 49.5904 159.223 51.4439 159.002 52.5363C158.743 53.811 158.654 55.2496 158.654 56.7344H168.654C168.654 55.5759 168.73 54.8783 168.802 54.5238C168.837 54.3539 168.848 54.3768 168.786 54.5181C168.728 54.6483 168.527 55.0643 168.053 55.5061L161.238 48.1872ZM158.654 56.7344V79.9082H168.654V56.7344H158.654ZM158.654 79.9082C158.654 81.3022 158.707 82.5859 158.852 83.6708C158.924 84.2121 159.034 84.8204 159.218 85.4239C159.379 85.9503 159.718 86.8952 160.473 87.7764L168.066 81.2685C168.367 81.6199 168.54 81.9362 168.628 82.1196C168.72 82.3104 168.766 82.4504 168.783 82.5059C168.813 82.6052 168.795 82.577 168.764 82.3492C168.704 81.896 168.654 81.1119 168.654 79.9082H158.654ZM160.473 87.7764C161.519 88.9968 162.882 89.879 164.474 90.3076L167.073 80.6514C167.251 80.6992 167.446 80.7807 167.638 80.9023C167.828 81.0233 167.969 81.156 168.066 81.2685L160.473 87.7764ZM164.519 90.3195C165.352 90.5355 166.335 90.7242 167.415 90.8959L168.986 81.0201C168.06 80.8728 167.426 80.7425 167.028 80.6395L164.519 90.3195ZM167.44 90.8999L168.773 91.1049L170.293 81.2212L168.96 81.0161L167.44 90.8999ZM164.533 86.1631V89H174.533V86.1631H164.533ZM169.533 84H150.837V94H169.533V84ZM155.837 89V86.1631H145.837V89H155.837ZM197.996 58.4434L193.793 55.736L191.221 59.729L195.076 62.5024L197.996 58.4434ZM197.347 51.9492L194.59 56.1209L194.633 56.1492L194.677 56.1767L197.347 51.9492ZM186.238 52.4961L189.498 56.2877L189.503 56.2831L186.238 52.4961ZM189.964 63.2285L192.274 58.7939L192.248 58.7804L192.221 58.7672L189.964 63.2285ZM192.732 64.5957L190.663 69.1475L190.671 69.1509L190.678 69.1543L192.732 64.5957ZM203.704 70.3721L200.56 74.2596L200.577 74.2737L200.595 74.2876L203.704 70.3721ZM207.054 73.9268L202.766 76.4992L202.785 76.5305L202.804 76.5615L207.054 73.9268ZM202.986 86.6758L200.227 82.5061L200.22 82.5108L200.213 82.5155L202.986 86.6758ZM180.838 87.291L183.241 82.9065L183.217 82.8932L183.192 82.8801L180.838 87.291ZM175.916 80.4209L180.913 80.5847L180.914 80.5722L180.914 80.5597L175.916 80.4209ZM178.035 76.0117L174.602 72.3767L174.597 72.3817L174.591 72.3867L178.035 76.0117ZM182.444 73.6875L186.23 70.4213L184.268 68.1473L181.339 68.8112L182.444 73.6875ZM183.948 75.4307L187.836 78.5743L190.462 75.3266L187.734 72.1645L183.948 75.4307ZM185.11 83.9414L188.142 79.9654L188.126 79.9533L188.11 79.9414L185.11 83.9414ZM198.782 84.1123L195.713 80.1655L195.699 80.176L195.686 80.1865L198.782 84.1123ZM194.954 72.3545L197.031 67.806L197.023 67.8027L194.954 72.3545ZM191.878 71.0215L189.908 75.6172L189.964 75.6412L190.021 75.6639L191.878 71.0215ZM188.665 69.6201L186.52 74.1365L186.587 74.1684L186.655 74.1983L188.665 69.6201ZM185.076 67.7061L182.574 72.0347L182.588 72.0431L182.603 72.0514L185.076 67.7061ZM181.214 64.9375L184.554 61.2173L184.542 61.2059L184.529 61.1946L181.214 64.9375ZM182 49.8301L179.211 45.6803L179.2 45.6876L179.189 45.6948L182 49.8301ZM201.858 49.1465L199.243 53.4077L199.252 53.4134L199.261 53.4191L201.858 49.1465ZM203.465 58.0332L206.712 61.8351L206.732 61.8178L206.753 61.8003L203.465 58.0332ZM199.944 59.8447L197.025 63.9037L198.833 65.2047L201.01 64.7298L199.944 59.8447ZM202.2 61.1507C203.345 59.372 204.295 57.2153 204.295 54.8203H194.295C194.295 54.6795 194.323 54.6753 194.264 54.842C194.202 55.0128 194.068 55.3088 193.793 55.736L202.2 61.1507ZM204.295 54.8203C204.295 51.3672 202.122 49.0514 200.017 47.7218L194.677 56.1767C194.926 56.3339 194.837 56.3344 194.67 56.0897C194.582 55.959 194.482 55.7729 194.406 55.5351C194.33 55.2949 194.295 55.0502 194.295 54.8203H204.295ZM200.103 47.7775C197.883 46.311 195.361 45.6846 192.767 45.6846V55.6846C193.727 55.6846 194.258 55.9013 194.59 56.1209L200.103 47.7775ZM192.767 45.6846C190.796 45.6846 188.798 45.8484 187.084 46.4197L190.246 55.9065C190.446 55.8398 191.183 55.6846 192.767 55.6846V45.6846ZM187.084 46.4197C185.604 46.9129 184.199 47.6528 182.974 48.709L189.503 56.2831C189.599 56.2001 189.812 56.0513 190.246 55.9065L187.084 46.4197ZM182.979 48.7045C180.466 50.8643 179.29 53.7976 179.29 56.9736H189.29C189.29 56.6248 189.349 56.4782 189.362 56.4478C189.37 56.4288 189.389 56.381 189.498 56.2877L182.979 48.7045ZM179.29 56.9736C179.29 62.3399 183.725 65.6751 187.706 67.6898L192.221 58.7672C190.627 57.9603 189.794 57.2914 189.412 56.8699C189.085 56.5099 189.29 56.5725 189.29 56.9736H179.29ZM187.654 67.6631C188.793 68.256 189.801 68.7556 190.663 69.1475L194.801 60.0439C194.16 59.7522 193.323 59.3403 192.274 58.7939L187.654 67.6631ZM190.678 69.1543C196.571 71.8093 199.603 73.4856 200.56 74.2596L206.848 66.4845C204.706 64.752 200.424 62.5774 194.786 60.0371L190.678 69.1543ZM200.595 74.2876C201.882 75.3098 202.504 76.0615 202.766 76.4992L211.341 71.3543C210.237 69.5133 208.625 67.8953 206.814 66.4565L200.595 74.2876ZM202.804 76.5615C202.908 76.7289 203.113 77.1716 203.113 78.165H213.113C213.113 75.7861 212.612 73.4032 211.303 71.2921L202.804 76.5615ZM203.113 78.165C203.113 78.8696 202.934 79.5336 202.483 80.2485L210.941 85.5835C212.358 83.3362 213.113 80.8329 213.113 78.165H203.113ZM202.483 80.2485C201.949 81.0943 201.222 81.8474 200.227 82.5061L205.746 90.8454C207.849 89.4534 209.606 87.7 210.941 85.5835L202.483 80.2485ZM200.213 82.5155C198.021 83.9764 195.243 84.8203 191.639 84.8203V94.8203C196.875 94.8203 201.662 93.5678 205.76 90.836L200.213 82.5155ZM191.639 84.8203C188.206 84.8203 185.461 84.1233 183.241 82.9065L178.435 91.6755C182.367 93.8312 186.822 94.8203 191.639 94.8203V84.8203ZM183.192 82.8801C181.954 82.2191 181.385 81.6503 181.143 81.3115C180.954 81.0487 180.904 80.8596 180.913 80.5847L170.919 80.2571C170.742 85.6469 174.16 89.3943 178.483 91.702L183.192 82.8801ZM180.914 80.5597C180.917 80.4402 180.916 80.1718 181.479 79.6367L174.591 72.3867C172.42 74.4492 171.006 77.1204 170.918 80.2821L180.914 80.5597ZM181.468 79.6468C182.024 79.1217 182.681 78.7606 183.55 78.5638L181.339 68.8112C178.789 69.3891 176.507 70.5775 174.602 72.3767L181.468 79.6468ZM178.659 76.9537L180.162 78.6968L187.734 72.1645L186.23 70.4213L178.659 76.9537ZM180.06 72.2871C178.28 74.4892 177.649 77.1476 177.649 79.7373H187.649C187.649 79.2316 187.711 78.921 187.761 78.7543C187.786 78.6728 187.808 78.6253 187.819 78.6027C187.825 78.5909 187.83 78.5838 187.832 78.5801C187.835 78.5764 187.836 78.5748 187.836 78.5743L180.06 72.2871ZM177.649 79.7373C177.649 83.3421 179.63 86.0808 182.11 87.9414L188.11 79.9414C187.687 79.6241 187.578 79.439 187.58 79.4416C187.583 79.4466 187.604 79.486 187.623 79.5548C187.642 79.6246 187.649 79.6899 187.649 79.7373H177.649ZM182.079 87.9174C184.959 90.1138 188.422 91.0264 192.083 91.0264V81.0264C190.093 81.0264 188.907 80.5489 188.142 79.9654L182.079 87.9174ZM192.083 91.0264C195.631 91.0264 199.095 90.2334 201.879 88.0381L195.686 80.1865C195.233 80.5433 194.232 81.0264 192.083 81.0264V91.0264ZM201.852 88.0591C204.753 85.8025 206.243 82.6152 206.243 78.9854H196.243C196.243 79.6393 196.092 79.87 195.713 80.1655L201.852 88.0591ZM206.243 78.9854C206.243 73.2589 201.462 69.8292 197.031 67.8061L192.878 76.9029C194.66 77.7167 195.602 78.4239 196.043 78.8886C196.411 79.2763 196.243 79.2769 196.243 78.9854H206.243ZM197.023 67.8027C195.736 67.2176 194.633 66.7384 193.735 66.3791L190.021 75.6639C190.718 75.9426 191.666 76.352 192.885 76.9063L197.023 67.8027ZM193.848 66.4258C193.039 66.0794 192.573 65.8776 192.405 65.803L188.343 74.9411C188.586 75.0488 189.122 75.28 189.908 75.6172L193.848 66.4258ZM192.405 65.803C192.187 65.7061 191.604 65.45 190.675 65.0419L186.655 74.1983C187.594 74.6106 188.151 74.8557 188.343 74.9411L192.405 65.803ZM190.81 65.1037C190.06 64.7474 188.986 64.1781 187.55 63.3607L182.603 72.0514C184.129 72.9202 185.447 73.6269 186.52 74.1365L190.81 65.1037ZM187.579 63.3774C186.384 62.6868 185.384 61.9624 184.554 61.2173L177.873 68.6577C179.276 69.9178 180.852 71.0391 182.574 72.0347L187.579 63.3774ZM184.529 61.1946C182.975 59.8184 182.625 58.7106 182.625 57.7598H172.625C172.625 62.141 174.667 65.8184 177.899 68.6804L184.529 61.1946ZM182.625 57.7598C182.625 56.2396 183.154 55.0912 184.811 53.9653L179.189 45.6948C175.013 48.5338 172.625 52.6718 172.625 57.7598H182.625ZM184.789 53.9798C186.489 52.8375 189.104 52.0273 193.074 52.0273V42.0273C187.839 42.0273 183.071 43.0857 179.211 45.6803L184.789 53.9798ZM193.074 52.0273C195.991 52.0273 197.94 52.6082 199.243 53.4077L204.474 44.8853C201.174 42.8593 197.267 42.0273 193.074 42.0273V52.0273ZM199.261 53.4191C199.972 53.8509 200.23 54.1709 200.305 54.283C200.323 54.3107 200.332 54.3284 200.336 54.3364C200.338 54.3406 200.339 54.3433 200.339 54.3446C200.34 54.3459 200.34 54.3464 200.34 54.3465C200.34 54.3466 200.34 54.347 200.34 54.3479C200.341 54.3489 200.341 54.3511 200.342 54.355C200.343 54.3622 200.345 54.3798 200.345 54.4102H210.345C210.345 50.0482 207.766 46.8864 204.455 44.8739L199.261 53.4191ZM200.345 54.4102C200.345 54.3412 200.353 54.2605 200.374 54.1776C200.394 54.0954 200.42 54.0361 200.437 54.0043C200.468 53.9437 200.434 54.042 200.177 54.2661L206.753 61.8003C208.791 60.0217 210.345 57.5347 210.345 54.4102H200.345ZM200.217 54.2313C199.673 54.6962 199.233 54.8824 198.879 54.9596L201.01 64.7298C203.163 64.2602 205.069 63.2387 206.712 61.8351L200.217 54.2313ZM202.864 55.7857L200.916 54.3843L195.076 62.5024L197.025 63.9037L202.864 55.7857ZM256.392 86.8809L252.465 89.9769L256.231 94.7516L260.188 90.1348L256.392 86.8809ZM263.398 76.4219L258.828 74.3934L258.825 74.4004L263.398 76.4219ZM266.44 56.8027L261.441 56.7252L266.44 56.8027ZM266.372 43.2334L261.4 43.7568L261.401 43.7708L266.372 43.2334ZM265.723 41.2168L269.791 38.3106L269.738 38.2357L269.682 38.1628L265.723 41.2168ZM261.211 39.6787H256.211V44.2251L260.737 44.6562L261.211 39.6787ZM261.211 36.7051V31.7051H256.211V36.7051H261.211ZM279.087 36.7051H284.087V31.7051H279.087V36.7051ZM279.087 39.6787L279.73 44.6372L284.087 44.0724V39.6787H279.087ZM276.147 40.2256L274.794 35.4123L274.774 35.418L274.753 35.4239L276.147 40.2256ZM274.541 41.251L270.564 38.2208L270.53 38.2651L270.497 38.3101L274.541 41.251ZM273.789 57.3496L268.79 57.4237L268.79 57.4426L268.79 57.4615L273.789 57.3496ZM275.225 71.8076L270.357 72.9495L270.36 72.963L275.225 71.8076ZM277.002 76.9688L272.468 79.0762L272.473 79.0872L277.002 76.9688ZM283.872 86.8809L280.084 90.1442L284.037 94.7334L287.794 89.982L283.872 86.8809ZM290.4 76.251L295.05 78.0906L295.053 78.083L290.4 76.251ZM293.101 56.085L298.1 56.1227L298.1 56.1223L293.101 56.085ZM292.417 41.0801L296.258 37.8792L296.253 37.8731L296.248 37.867L292.417 41.0801ZM287.803 39.6787H282.803V44.241L287.346 44.6578L287.803 39.6787ZM287.803 36.7051V31.7051H282.803V36.7051H287.803ZM305.269 36.7051H310.269V31.7051H305.269V36.7051ZM305.269 39.6787L305.652 44.664L310.269 44.3089V39.6787H305.269ZM300.928 41.1143L296.786 38.3127L296.766 38.3433L296.745 38.3741L300.928 41.1143ZM299.937 58.4434L294.947 58.1255L299.937 58.4434ZM298.809 68.1162L303.726 69.021L303.727 69.0141L298.809 68.1162ZM296.758 75.7725L292.074 74.022L292.069 74.0352L292.064 74.0484L296.758 75.7725ZM293.682 81.8906L289.521 79.1171L289.509 79.1364L289.496 79.1559L293.682 81.8906ZM283.872 91.7344L280.58 95.498L283.591 98.1308L286.821 95.7725L283.872 91.7344ZM270.166 72.1494L274.931 70.6334L270.333 56.1824L265.434 70.5343L270.166 72.1494ZM256.392 91.7344L253.418 95.7544L256.564 98.0804L259.578 95.5875L256.392 91.7344ZM246.582 81.8906L250.773 79.1637L250.764 79.1506L250.756 79.1377L246.582 81.8906ZM240.293 58.4434L235.303 58.7612L235.303 58.7642L240.293 58.4434ZM239.268 41.2168L243.364 38.3495L243.324 38.293L243.283 38.2376L239.268 41.2168ZM234.995 39.6787H229.995V44.0393L234.315 44.6323L234.995 39.6787ZM234.995 36.7051V31.7051H229.995V36.7051H234.995ZM252.495 36.7051H257.495V31.7051H252.495V36.7051ZM252.495 39.6787L252.952 44.6578L257.495 44.241V39.6787H252.495ZM247.812 41.0801L244.102 37.7286L244.035 37.8026L243.971 37.8792L247.812 41.0801ZM247.402 64.2881L242.413 64.6176L242.415 64.641L242.417 64.6644L247.402 64.2881ZM248.223 70.7822L243.311 71.7178L243.316 71.7459L243.322 71.774L248.223 70.7822ZM249.829 76.251L245.178 78.0868L245.182 78.0961L249.829 76.251ZM260.188 90.1348C263.653 86.0919 266.316 82.1898 267.972 78.4433L258.825 74.4004C257.701 76.943 255.692 80.0136 252.595 83.6269L260.188 90.1348ZM267.969 78.4503C270.279 73.2443 271.3 65.8785 271.44 56.8802L261.441 56.7252C261.307 65.3636 260.3 71.0773 258.828 74.3935L267.969 78.4503ZM271.44 56.8802C271.486 53.918 271.509 51.1121 271.509 48.4629H261.509C261.509 51.0546 261.486 53.8086 261.441 56.7252L271.44 56.8802ZM271.509 48.4629C271.509 45.8726 271.468 43.8542 271.343 42.696L261.401 43.7708C261.458 44.2988 261.509 45.7667 261.509 48.4629H271.509ZM271.345 42.71C271.203 41.3686 270.82 39.7504 269.791 38.3106L261.654 44.123C261.472 43.8683 261.401 43.6717 261.382 43.6125C261.364 43.555 261.382 43.5909 261.4 43.7568L271.345 42.71ZM269.682 38.1628C268.52 36.6566 266.935 35.9067 265.747 35.5016C264.489 35.0729 263.093 34.8353 261.685 34.7012L260.737 44.6562C261.212 44.7014 261.598 44.7567 261.905 44.8151C262.216 44.8741 262.413 44.9301 262.52 44.9667C262.632 45.005 262.593 45.004 262.465 44.9248C262.335 44.8445 262.053 44.6456 261.764 44.2708L269.682 38.1628ZM266.211 39.6787V36.7051H256.211V39.6787H266.211ZM261.211 41.7051H279.087V31.7051H261.211V41.7051ZM274.087 36.7051V39.6787H284.087V36.7051H274.087ZM278.444 34.7202C277.104 34.8939 275.856 35.1137 274.794 35.4123L277.501 45.0388C277.898 44.9273 278.609 44.7825 279.73 44.6372L278.444 34.7202ZM274.753 35.4239C273.252 35.8597 271.711 36.7151 270.564 38.2208L278.518 44.2812C278.325 44.535 278.106 44.723 277.906 44.8504C277.715 44.9727 277.576 45.0174 277.542 45.0273L274.753 35.4239ZM270.497 38.3101C269.408 39.8084 269.107 41.6787 268.967 42.7525C268.791 44.1099 268.721 45.743 268.721 47.5742H278.721C278.721 45.9419 278.787 44.7894 278.884 44.039C278.933 43.6647 278.977 43.4864 278.988 43.4478C279.015 43.3563 278.935 43.7105 278.585 44.1918L270.497 38.3101ZM268.721 47.5742C268.721 51.0368 268.744 54.3201 268.79 57.4237L278.789 57.2755C278.743 54.2267 278.721 50.9931 278.721 47.5742H268.721ZM268.79 57.4615C268.861 60.6051 269.014 63.4429 269.256 65.9629L279.21 65.0058C278.997 62.7863 278.854 60.2009 278.788 57.2377L268.79 57.4615ZM269.256 65.9629C269.501 68.5023 269.862 70.8385 270.357 72.9495L280.092 70.6658C279.722 69.0853 279.422 67.206 279.21 65.0058L269.256 65.9629ZM270.36 72.963C270.867 75.0972 271.567 77.138 272.468 79.0762L281.536 74.8613C280.933 73.5638 280.448 72.1639 280.089 70.6523L270.36 72.963ZM272.473 79.0872C274.068 82.4977 276.683 86.1963 280.084 90.1442L287.66 83.6175C284.544 80.0003 282.579 77.0909 281.531 74.8503L272.473 79.0872ZM287.794 89.982C291.068 85.8411 293.554 81.8696 295.05 78.0906L285.751 74.4113C284.74 76.967 282.874 80.0821 279.95 83.7797L287.794 89.982ZM295.053 78.083C297.132 72.8038 298.031 65.3268 298.1 56.1227L288.101 56.0472C288.034 64.9356 287.133 70.9025 285.748 74.419L295.053 78.083ZM298.1 56.1223C298.123 53.0588 298.135 50.2434 298.135 47.6768H288.135C288.135 50.2143 288.123 53.0044 288.101 56.0476L298.1 56.1223ZM298.135 47.6768C298.135 45.1759 298.105 43.2701 298.009 42.2733L288.055 43.2365C288.096 43.6524 288.135 45.0279 288.135 47.6768H298.135ZM298.009 42.2733C297.875 40.8907 297.424 39.278 296.258 37.8792L288.576 44.281C288.094 43.7025 288.053 43.2063 288.055 43.2365L298.009 42.2733ZM296.248 37.867C295.018 36.4003 293.363 35.7469 292.272 35.4157C291.052 35.0453 289.676 34.8296 288.26 34.6996L287.346 44.6578C288.413 44.7557 289.048 44.8875 289.366 44.9842C289.517 45.03 289.501 45.0396 289.383 44.9747C289.272 44.9134 288.939 44.714 288.586 44.2931L296.248 37.867ZM292.803 39.6787V36.7051H282.803V39.6787H292.803ZM287.803 41.7051H305.269V31.7051H287.803V41.7051ZM300.269 36.7051V39.6787H310.269V36.7051H300.269ZM304.885 34.6934C303.494 34.8004 302.095 35.0108 300.836 35.4272C299.672 35.812 297.95 36.5932 296.786 38.3127L305.069 43.9158C304.733 44.412 304.369 44.6856 304.177 44.8081C303.988 44.9278 303.894 44.9486 303.976 44.9215C304.051 44.8967 304.222 44.8489 304.517 44.7977C304.809 44.7472 305.183 44.7001 305.652 44.664L304.885 34.6934ZM296.745 38.3741C296.146 39.2885 295.893 40.2404 295.771 40.7719C295.625 41.4043 295.531 42.0778 295.465 42.7359C295.333 44.0574 295.278 45.7039 295.278 47.6084H305.278C305.278 45.8443 305.332 44.5741 305.416 43.7309C305.458 43.3066 305.5 43.0858 305.517 43.0118C305.557 42.8369 305.493 43.2704 305.11 43.8544L296.745 38.3741ZM295.278 47.6084C295.278 51.15 295.168 54.6556 294.947 58.1255L304.926 58.7612C305.161 55.0761 305.278 51.3585 305.278 47.6084H295.278ZM294.947 58.1255C294.728 61.5505 294.372 64.5764 293.89 67.2183L303.727 69.0141C304.293 65.9138 304.689 62.4912 304.926 58.7612L294.947 58.1255ZM293.891 67.2114C293.41 69.8273 292.797 72.0891 292.074 74.022L301.441 77.5229C302.405 74.9441 303.159 72.1017 303.726 69.021L293.891 67.2114ZM292.064 74.0484C291.37 75.9384 290.518 77.6218 289.521 79.1171L297.842 84.6641C299.306 82.4681 300.505 80.0726 301.451 77.4965L292.064 74.0484ZM289.496 79.1559C287.677 81.9398 284.884 84.8046 280.924 87.6962L286.821 95.7725C291.473 92.3751 295.22 88.6774 297.867 84.6254L289.496 79.1559ZM287.164 87.9707C280.779 82.3866 276.827 76.592 274.931 70.6334L265.401 73.6654C267.972 81.7433 273.157 89.0053 280.58 95.498L287.164 87.9707ZM265.434 70.5343C263.154 77.2151 259.125 82.9857 253.205 87.8813L259.578 95.5875C266.829 89.5911 271.983 82.3051 274.898 73.7645L265.434 70.5343ZM259.365 87.7144C255.304 84.711 252.516 81.8425 250.773 79.1637L242.391 84.6176C244.977 88.5924 248.729 92.2864 253.418 95.7544L259.365 87.7144ZM250.756 79.1377C247.909 74.8221 245.918 68.0042 245.283 58.1225L235.303 58.7642C235.989 69.4359 238.191 78.2495 242.408 84.6436L250.756 79.1377ZM245.283 58.1255C245.06 54.631 244.951 51.4921 244.951 48.7021H234.951C234.951 51.7455 235.07 55.1008 235.303 58.7612L245.283 58.1255ZM244.951 48.7021C244.951 45.83 244.921 43.7253 244.83 42.6697L234.867 43.5237C234.913 44.0631 234.951 45.6953 234.951 48.7021H244.951ZM244.83 42.6697C244.718 41.3572 244.362 39.7752 243.364 38.3495L235.171 44.0841C234.985 43.8183 234.905 43.6015 234.875 43.5051C234.846 43.4119 234.857 43.4062 234.867 43.5237L244.83 42.6697ZM243.283 38.2376C242.147 36.7058 240.547 35.975 239.5 35.5981C238.332 35.1777 237.016 34.9093 235.675 34.7252L234.315 44.6323C234.789 44.6973 235.177 44.7668 235.486 44.8356C235.8 44.9051 236.001 44.9666 236.113 45.0069C236.233 45.05 236.19 45.0471 236.054 44.9619C235.922 44.8796 235.588 44.6482 235.252 44.196L243.283 38.2376ZM239.995 39.6787V36.7051H229.995V39.6787H239.995ZM234.995 41.7051H252.495V31.7051H234.995V41.7051ZM247.495 36.7051V39.6787H257.495V36.7051H247.495ZM252.038 34.6996C250.62 34.8297 249.248 35.0449 248.028 35.4099C246.92 35.7413 245.329 36.3699 244.102 37.7286L251.523 44.4315C251.196 44.7935 250.904 44.9603 250.818 45.0063C250.726 45.0555 250.732 45.0387 250.895 44.99C251.237 44.8878 251.887 44.7555 252.952 44.6578L252.038 34.6996ZM243.971 37.8792C242.806 39.278 242.354 40.8907 242.221 42.2733L252.174 43.2365C252.177 43.2063 252.136 43.7025 251.654 44.281L243.971 37.8792ZM242.221 42.2733C242.124 43.2701 242.095 45.1759 242.095 47.6768H252.095C252.095 45.0279 252.134 43.6524 252.174 43.2365L242.221 42.2733ZM242.095 47.6768C242.095 50.2434 242.106 53.0588 242.129 56.1223L252.129 56.0476C252.106 53.0044 252.095 50.2143 252.095 47.6768H242.095ZM242.129 56.1223C242.152 59.2493 242.246 62.0837 242.413 64.6176L252.391 63.9586C252.24 61.6617 252.151 59.0274 252.129 56.0476L242.129 56.1223ZM242.417 64.6644C242.61 67.2244 242.904 69.5808 243.311 71.7178L253.134 69.8467C252.812 68.1555 252.56 66.1825 252.388 63.9118L242.417 64.6644ZM243.322 71.774C243.765 73.9622 244.382 76.0686 245.178 78.0868L254.48 74.4151C253.909 72.9698 253.455 71.4303 253.123 69.7904L243.322 71.774ZM245.182 78.0961C246.658 81.8144 249.161 85.7859 252.465 89.9769L260.318 83.7848C257.334 80.0006 255.461 76.8854 254.476 74.4058L245.182 78.0961ZM343.678 83.9072L347.562 87.0559L350.398 83.5568L347.213 80.3717L343.678 83.9072ZM315.514 83.8389L311.735 87.1135L311.744 87.1236L315.514 83.8389ZM316.061 53.1797L312.303 49.8812L312.295 49.8901L316.061 53.1797ZM339.986 49.7617L336.974 53.7527L336.99 53.7644L337.005 53.776L339.986 49.7617ZM337.833 66.5439L340.719 70.627L340.72 70.626L337.833 66.5439ZM318.077 71.2607L318.038 66.2609L312.635 66.3028L313.095 71.6871L318.077 71.2607ZM341.729 81.959L345.265 78.4235L341.991 75.1494L338.476 78.1627L341.729 81.959ZM317.975 67.6035L312.975 67.5202L312.889 72.7045L318.073 72.6025L317.975 67.6035ZM334.449 61.8271L338.396 64.8969L338.407 64.8831L338.417 64.8693L334.449 61.8271ZM332.604 51.2656L334.617 46.689L334.609 46.6856L334.601 46.6821L332.604 51.2656ZM325.768 51.4023L327.798 55.9714L327.84 55.9527L327.882 55.9333L325.768 51.4023ZM322.999 53.3164L326.484 56.9014L326.51 56.8768L326.535 56.8519L322.999 53.3164ZM320.846 56.1533L325.181 58.6439L325.192 58.6243L325.204 58.6046L320.846 56.1533ZM319.308 59.6396L324.059 61.1955L324.06 61.1948L319.308 59.6396ZM339.794 80.7586C337.861 83.1428 334.793 84.6836 329.63 84.6836V94.6836C336.954 94.6836 343.251 92.3735 347.562 87.0559L339.794 80.7586ZM329.63 84.6836C324.798 84.6836 321.569 83.1778 319.283 80.5542L311.744 87.1236C316.248 92.2929 322.431 94.6836 329.63 94.6836V84.6836ZM319.292 80.5642C316.998 77.9176 315.626 74.2094 315.626 68.9365H305.626C305.626 76.0139 307.512 82.2406 311.735 87.1135L319.292 80.5642ZM315.626 68.9365C315.626 63.5905 317.12 59.5663 319.826 56.4693L312.295 49.8901C307.755 55.0874 305.626 61.5677 305.626 68.9365H315.626ZM319.818 56.4781C322.436 53.4961 325.663 52.0273 329.903 52.0273V42.0273C322.887 42.0273 316.886 44.6601 312.303 49.8813L319.818 56.4781ZM329.903 52.0273C333.569 52.0273 335.726 52.8104 336.974 53.7527L342.998 45.7708C339.416 43.0672 334.85 42.0273 329.903 42.0273V52.0273ZM337.005 53.776C337.976 54.4969 338.438 55.3231 338.438 56.8027H348.438C348.438 52.3123 346.599 48.4445 342.967 45.7475L337.005 53.776ZM338.438 56.8027C338.438 58.7106 337.643 60.5543 334.946 62.4619L340.72 70.626C345.497 67.2471 348.438 62.5967 348.438 56.8027H338.438ZM334.947 62.4609C331.814 64.6756 326.441 66.1958 318.038 66.2609L318.116 76.2606C327.35 76.189 335.148 74.5647 340.719 70.627L334.947 62.4609ZM313.095 71.6871C313.544 76.9278 315.007 81.6486 318.129 85.0997C321.385 88.6988 325.823 90.2402 330.724 90.2402V80.2402C327.991 80.2402 326.504 79.4518 325.545 78.391C324.451 77.1823 323.408 74.9133 323.059 70.8344L313.095 71.6871ZM330.724 90.2402C336.204 90.2402 341.207 88.9919 344.983 85.7553L338.476 78.1627C337.147 79.301 334.814 80.2402 330.724 80.2402V90.2402ZM338.194 85.4945L340.142 87.4428L347.213 80.3717L345.265 78.4235L338.194 85.4945ZM318.073 72.6025C326.629 72.4343 334.099 70.421 338.396 64.8969L330.502 58.7574C329.057 60.6161 325.545 62.4537 317.876 62.6045L318.073 72.6025ZM338.417 64.8693C340.248 62.4813 341.021 59.6602 341.021 56.7344H331.021C331.021 57.8646 330.747 58.4386 330.481 58.785L338.417 64.8693ZM341.021 56.7344C341.021 54.6909 340.576 52.6056 339.407 50.7348C338.225 48.8437 336.526 47.5289 334.617 46.689L330.59 55.8422C330.788 55.9295 330.882 55.9992 330.913 56.0251C330.94 56.0471 330.936 56.0485 330.927 56.0348C330.897 55.9869 331.021 56.1346 331.021 56.7344H341.021ZM334.601 46.6821C332.898 45.9396 331.062 45.6846 329.288 45.6846V55.6846C330.157 55.6846 330.532 55.8169 330.606 55.8491L334.601 46.6821ZM329.288 45.6846C327.358 45.6846 325.443 46.0362 323.653 46.8714L327.882 55.9333C328.143 55.8114 328.575 55.6846 329.288 55.6846V45.6846ZM323.737 46.8333C322.132 47.5467 320.703 48.5416 319.463 49.7809L326.535 56.8519C326.936 56.4506 327.353 56.1694 327.798 55.9714L323.737 46.8333ZM319.514 49.7314C318.318 50.8937 317.315 52.2306 316.488 53.702L325.204 58.6046C325.606 57.8885 326.039 57.3342 326.484 56.9014L319.514 49.7314ZM316.51 53.6627C315.713 55.0497 315.065 56.5278 314.556 58.0845L324.06 61.1948C324.37 60.245 324.748 59.3989 325.181 58.6439L316.51 53.6627ZM314.556 58.0838C313.556 61.1388 313.029 64.2901 312.975 67.5202L322.974 67.6868C323.011 65.4482 323.374 63.2902 324.059 61.1955L314.556 58.0838ZM350.505 86.1631L350.072 81.1819L345.505 81.579V86.1631H350.505ZM355.256 85.001L358.791 88.5365L358.827 88.5004L358.863 88.4636L355.256 85.001ZM356.247 83.1553L361.174 84.0048L361.177 83.991L361.179 83.9773L356.247 83.1553ZM350.505 33.3896H345.505V37.9266L350.02 38.3661L350.505 33.3896ZM350.505 30.5527V25.5527H345.505V30.5527H350.505ZM369.27 30.5527H374.27V25.5527H369.27V30.5527ZM369.27 33.3896L369.758 38.3657L374.27 37.9226V33.3896H369.27ZM364.689 34.3125L367.585 38.3884L367.608 38.3724L367.63 38.3562L364.689 34.3125ZM363.391 51.2314H358.391V63.8628L367.036 54.6536L363.391 51.2314ZM371.799 46.7881L370.799 41.8891L370.79 41.8908L370.782 41.8927L371.799 46.7881ZM380.241 47.3008L378.538 52.0017L378.568 52.0127L378.599 52.0233L380.241 47.3008ZM387.897 53.0771L383.857 56.0221L383.869 56.0386L383.881 56.0549L387.897 53.0771ZM390.324 57.418L385.691 59.2981L385.697 59.3115L385.702 59.325L390.324 57.418ZM387.453 83.0527L391.412 86.1073L391.418 86.0987L391.425 86.09L387.453 83.0527ZM378.908 89.1367L377.318 84.3964L377.309 84.3995L378.908 89.1367ZM367.287 89.6836L366.755 94.6552L366.772 94.6571L366.79 94.6588L367.287 89.6836ZM350.505 89H345.505V94H350.505V89ZM365.236 83.9414L361.839 87.6102L361.88 87.6477L361.921 87.6843L365.236 83.9414ZM381.984 80.5234L377.617 78.0899L377.604 78.1133L377.591 78.1368L381.984 80.5234ZM379.523 52.0176L376.35 55.8812L376.353 55.8839L379.523 52.0176ZM366.877 53.248L370.033 57.1263L370.047 57.1146L370.061 57.1029L366.877 53.248ZM350.938 91.1443C352.369 91.0199 353.703 90.8381 354.846 90.5585C355.741 90.3397 357.472 89.8562 358.791 88.5365L351.72 81.4654C352.187 80.999 352.599 80.8216 352.643 80.8021C352.723 80.767 352.687 80.7917 352.47 80.8448C352.029 80.9526 351.262 81.0784 350.072 81.1819L350.938 91.1443ZM358.863 88.4636C359.975 87.3049 360.863 85.8135 361.174 84.0048L351.32 82.3057C351.358 82.0842 351.43 81.8932 351.509 81.7467C351.585 81.6058 351.648 81.5392 351.649 81.5383L358.863 88.4636ZM361.179 83.9773C361.356 82.9133 361.418 81.7203 361.418 80.4893H351.418C351.418 81.4457 351.366 82.0301 351.315 82.3333L361.179 83.9773ZM361.418 80.4893V38.585H351.418V80.4893H361.418ZM361.418 38.585C361.418 37.2274 361.296 35.812 360.909 34.4888C360.525 33.1775 359.76 31.5602 358.188 30.3809L352.188 38.3809C351.814 38.1008 351.585 37.8021 351.458 37.594C351.336 37.3952 351.305 37.274 351.312 37.2978C351.318 37.3194 351.347 37.4306 351.373 37.6595C351.399 37.8852 351.418 38.1897 351.418 38.585H361.418ZM358.188 30.3809C356.947 29.4505 355.429 29.1004 354.642 28.9338C353.604 28.714 352.363 28.5469 350.989 28.4132L350.02 38.3661C351.221 38.483 352.049 38.6065 352.571 38.717C352.832 38.7722 352.935 38.8074 352.93 38.8055C352.923 38.8031 352.854 38.7789 352.744 38.7251C352.639 38.6742 352.435 38.5666 352.188 38.3809L358.188 30.3809ZM355.505 33.3896V30.5527H345.505V33.3896H355.505ZM350.505 35.5527H369.27V25.5527H350.505V35.5527ZM364.27 30.5527V33.3896H374.27V30.5527H364.27ZM368.781 28.4136C367.429 28.5463 366.222 28.7055 365.223 28.9069C364.724 29.0074 364.195 29.1345 363.685 29.3037C363.241 29.4506 362.486 29.7323 361.749 30.2688L367.63 38.3562C367.356 38.5555 367.131 38.6673 367.024 38.7167C366.908 38.7703 366.836 38.794 366.831 38.7958C366.827 38.7969 366.934 38.7631 367.198 38.7098C367.726 38.6035 368.558 38.4836 369.758 38.3657L368.781 28.4136ZM361.793 30.2366C360.159 31.3981 359.343 33.0329 358.931 34.3878C358.519 35.7438 358.391 37.196 358.391 38.585H368.391C368.391 38.1834 368.41 37.8759 368.437 37.6496C368.464 37.4202 368.494 37.3124 368.499 37.2963C368.52 37.227 368.354 37.8421 367.585 38.3884L361.793 30.2366ZM358.391 38.585V51.2314H368.391V38.585H358.391ZM367.036 54.6536C368.315 53.2915 370.137 52.2401 372.816 51.6835L370.782 41.8927C366.442 42.7944 362.659 44.7053 359.745 47.8093L367.036 54.6536ZM372.799 51.6871C373.51 51.542 374.45 51.4463 375.661 51.4463V41.4463C373.955 41.4463 372.321 41.5785 370.799 41.8891L372.799 51.6871ZM375.661 51.4463C376.492 51.4463 377.442 51.6046 378.538 52.0017L381.944 42.5998C379.896 41.8576 377.793 41.4463 375.661 41.4463V51.4463ZM378.599 52.0233C379.684 52.4007 380.631 52.9136 381.469 53.5566L387.559 45.6251C385.844 44.3084 383.943 43.2947 381.884 42.5783L378.599 52.0233ZM381.469 53.5566C382.353 54.2356 383.149 55.0505 383.857 56.0221L391.938 50.1322C390.687 48.415 389.227 46.9057 387.559 45.6251L381.469 53.5566ZM383.881 56.0549C384.602 57.0276 385.207 58.1039 385.691 59.2981L394.957 55.5379C394.166 53.5875 393.153 51.7699 391.914 50.0994L383.881 56.0549ZM385.702 59.325C386.788 61.9578 387.341 64.7599 387.341 67.7744H397.341C397.341 63.4972 396.549 59.3951 394.946 55.511L385.702 59.325ZM387.341 67.7744C387.341 72.7222 386.003 76.7181 383.481 80.0155L391.425 86.09C395.42 80.8652 397.341 74.6756 397.341 67.7744H387.341ZM383.495 79.9982C381.866 82.1085 379.842 83.5495 377.318 84.3964L380.499 93.877C384.902 92.3997 388.574 89.7847 391.412 86.1073L383.495 79.9982ZM377.309 84.3995C375.996 84.8427 374.851 85.0254 373.85 85.0254V95.0254C376.084 95.0254 378.311 94.6157 380.508 93.8739L377.309 84.3995ZM373.85 85.0254C371.934 85.0254 369.913 84.9212 367.785 84.7084L366.79 94.6588C369.219 94.9017 371.573 95.0254 373.85 95.0254V85.0254ZM367.819 84.7119C363.669 84.2681 360.724 84 359.392 84V94C360.064 94 362.383 94.1876 366.755 94.6552L367.819 84.7119ZM359.392 84H350.505V94H359.392V84ZM355.505 89V86.1631H345.505V89H355.505ZM358.391 78.9854C358.391 82.1143 359.31 85.2682 361.839 87.6102L368.633 80.2726C368.622 80.2619 368.587 80.2343 368.538 80.1029C368.479 79.9462 368.391 79.6032 368.391 78.9854H358.391ZM361.921 87.6843C364.914 90.3356 369.154 91.0605 373.303 91.0605V81.0605C369.886 81.0605 368.748 80.3727 368.552 80.1985L361.921 87.6843ZM373.303 91.0605C376.046 91.0605 378.668 90.3786 380.999 88.8918C383.303 87.4222 385.061 85.3348 386.378 82.9101L377.591 78.1368C376.903 79.4035 376.211 80.0846 375.621 80.4607C375.059 80.8197 374.342 81.0605 373.303 81.0605V91.0605ZM386.352 82.9569C388.69 78.7607 389.65 73.5743 389.65 67.7744H379.65C379.65 72.593 378.833 75.906 377.617 78.0899L386.352 82.9569ZM389.65 67.7744C389.65 59.6384 387.897 52.4178 382.694 48.1512L376.353 55.8839C377.986 57.2228 379.65 60.5068 379.65 67.7744H389.65ZM382.697 48.1539C380.506 46.3543 377.897 45.4453 375.08 45.4453V55.4453C375.635 55.4453 375.989 55.5845 376.35 55.8812L382.697 48.1539ZM375.08 45.4453C372.898 45.4453 370.777 45.7702 368.779 46.5029L372.221 55.8916C372.958 55.6217 373.89 55.4453 375.08 55.4453V45.4453ZM368.779 46.5029C366.918 47.1852 365.207 48.1418 363.693 49.3932L370.061 57.1029C370.643 56.6225 371.348 56.2119 372.221 55.8916L368.779 46.5029ZM363.721 49.3698C360.431 52.0471 358.391 55.6382 358.391 59.9814H368.391C368.391 59.1293 368.674 58.2316 370.033 57.1263L363.721 49.3698ZM358.391 59.9814V78.9854H368.391V59.9814H358.391ZM420.428 58.4434L416.224 55.736L413.652 59.729L417.508 62.5024L420.428 58.4434ZM419.778 51.9492L417.022 56.1209L417.065 56.1492L417.108 56.1767L419.778 51.9492ZM408.67 52.4961L411.929 56.2877L411.935 56.2831L408.67 52.4961ZM412.396 63.2285L414.705 58.7939L414.679 58.7804L414.653 58.7672L412.396 63.2285ZM415.164 64.5957L413.095 69.1475L413.103 69.1509L413.11 69.1543L415.164 64.5957ZM426.136 70.3721L422.991 74.2596L423.009 74.2737L423.026 74.2876L426.136 70.3721ZM429.485 73.9268L425.198 76.4992L425.217 76.5305L425.236 76.5615L429.485 73.9268ZM425.418 86.6758L422.659 82.5061L422.652 82.5108L422.644 82.5155L425.418 86.6758ZM403.27 87.291L405.673 82.9065L405.649 82.8932L405.624 82.8801L403.27 87.291ZM398.348 80.4209L403.345 80.5847L403.345 80.5722L403.346 80.5597L398.348 80.4209ZM400.467 76.0117L397.034 72.3767L397.028 72.3817L397.023 72.3867L400.467 76.0117ZM404.876 73.6875L408.662 70.4213L406.7 68.1473L403.771 68.8112L404.876 73.6875ZM406.38 75.4307L410.268 78.5743L412.894 75.3266L410.166 72.1645L406.38 75.4307ZM407.542 83.9414L410.574 79.9654L410.558 79.9533L410.542 79.9414L407.542 83.9414ZM421.214 84.1123L418.144 80.1655L418.131 80.176L418.117 80.1865L421.214 84.1123ZM417.386 72.3545L419.462 67.806L419.455 67.8027L417.386 72.3545ZM414.31 71.0215L412.34 75.6172L412.396 75.6412L412.453 75.6639L414.31 71.0215ZM411.097 69.6201L408.951 74.1365L409.019 74.1684L409.087 74.1983L411.097 69.6201ZM407.508 67.7061L405.005 72.0347L405.02 72.0431L405.034 72.0514L407.508 67.7061ZM403.646 64.9375L406.986 61.2173L406.973 61.2059L406.961 61.1946L403.646 64.9375ZM404.432 49.8301L401.642 45.6803L401.632 45.6876L401.621 45.6948L404.432 49.8301ZM424.29 49.1465L421.674 53.4077L421.684 53.4134L421.693 53.4191L424.29 49.1465ZM425.896 58.0332L429.144 61.8351L429.164 61.8178L429.184 61.8003L425.896 58.0332ZM422.376 59.8447L419.456 63.9037L421.265 65.2047L423.442 64.7298L422.376 59.8447ZM424.631 61.1507C425.777 59.372 426.727 57.2153 426.727 54.8203H416.727C416.727 54.6795 416.755 54.6753 416.695 54.842C416.634 55.0128 416.499 55.3088 416.224 55.736L424.631 61.1507ZM426.727 54.8203C426.727 51.3672 424.554 49.0514 422.448 47.7218L417.108 56.1767C417.357 56.3339 417.268 56.3344 417.102 56.0897C417.013 55.959 416.913 55.7729 416.838 55.5351C416.762 55.2949 416.727 55.0502 416.727 54.8203H426.727ZM422.535 47.7775C420.315 46.311 417.793 45.6846 415.198 45.6846V55.6846C416.158 55.6846 416.69 55.9013 417.022 56.1209L422.535 47.7775ZM415.198 45.6846C413.227 45.6846 411.229 45.8484 409.516 46.4197L412.678 55.9065C412.878 55.8398 413.615 55.6846 415.198 55.6846V45.6846ZM409.516 46.4197C408.036 46.9129 406.63 47.6528 405.405 48.709L411.935 56.2831C412.031 56.2001 412.243 56.0513 412.678 55.9065L409.516 46.4197ZM405.41 48.7045C402.898 50.8643 401.722 53.7976 401.722 56.9736H411.722C411.722 56.6248 411.78 56.4782 411.794 56.4478C411.802 56.4288 411.821 56.381 411.929 56.2877L405.41 48.7045ZM401.722 56.9736C401.722 62.3399 406.157 65.6751 410.138 67.6898L414.653 58.7672C413.059 57.9603 412.226 57.2914 411.843 56.8699C411.517 56.5099 411.722 56.5725 411.722 56.9736H401.722ZM410.086 67.6631C411.224 68.256 412.233 68.7556 413.095 69.1475L417.233 60.0439C416.591 59.7522 415.754 59.3403 414.705 58.7939L410.086 67.6631ZM413.11 69.1543C419.002 71.8093 422.034 73.4856 422.991 74.2596L429.28 66.4845C427.138 64.752 422.856 62.5774 417.218 60.0371L413.11 69.1543ZM423.026 74.2876C424.313 75.3098 424.935 76.0615 425.198 76.4992L433.773 71.3543C432.668 69.5133 431.057 67.8953 429.245 66.4565L423.026 74.2876ZM425.236 76.5615C425.34 76.7289 425.545 77.1716 425.545 78.165H435.545C435.545 75.7861 435.044 73.4032 433.735 71.2921L425.236 76.5615ZM425.545 78.165C425.545 78.8696 425.366 79.5336 424.915 80.2485L433.373 85.5835C434.79 83.3362 435.545 80.8329 435.545 78.165H425.545ZM424.915 80.2485C424.381 81.0943 423.654 81.8474 422.659 82.5061L428.177 90.8454C430.281 89.4534 432.038 87.7 433.373 85.5835L424.915 80.2485ZM422.644 82.5155C420.453 83.9764 417.675 84.8203 414.07 84.8203V94.8203C419.307 94.8203 424.094 93.5678 428.191 90.836L422.644 82.5155ZM414.07 84.8203C410.638 84.8203 407.893 84.1233 405.673 82.9065L400.866 91.6755C404.799 93.8312 409.254 94.8203 414.07 94.8203V84.8203ZM405.624 82.8801C404.386 82.2191 403.817 81.6503 403.574 81.3115C403.386 81.0487 403.336 80.8596 403.345 80.5847L393.35 80.2571C393.174 85.6469 396.592 89.3943 400.915 91.702L405.624 82.8801ZM403.346 80.5597C403.349 80.4402 403.347 80.1718 403.911 79.6367L397.023 72.3867C394.852 74.4492 393.437 77.1204 393.35 80.2821L403.346 80.5597ZM403.9 79.6468C404.456 79.1217 405.113 78.7606 405.981 78.5638L403.771 68.8112C401.221 69.3891 398.939 70.5775 397.034 72.3767L403.9 79.6468ZM401.09 76.9537L402.594 78.6968L410.166 72.1645L408.662 70.4213L401.09 76.9537ZM402.492 72.2871C400.711 74.4892 400.081 77.1476 400.081 79.7373H410.081C410.081 79.2316 410.143 78.921 410.193 78.7543C410.217 78.6728 410.239 78.6253 410.251 78.6027C410.257 78.5909 410.262 78.5838 410.264 78.5801C410.266 78.5764 410.268 78.5748 410.268 78.5743L402.492 72.2871ZM400.081 79.7373C400.081 83.3421 402.061 86.0808 404.542 87.9414L410.542 79.9414C410.119 79.6241 410.01 79.439 410.011 79.4416C410.014 79.4466 410.036 79.486 410.055 79.5548C410.074 79.6246 410.081 79.6899 410.081 79.7373H400.081ZM404.51 87.9174C407.391 90.1138 410.854 91.0264 414.515 91.0264V81.0264C412.524 81.0264 411.339 80.5489 410.574 79.9654L404.51 87.9174ZM414.515 91.0264C418.063 91.0264 421.527 90.2334 424.31 88.0381L418.117 80.1865C417.665 80.5433 416.663 81.0264 414.515 81.0264V91.0264ZM424.284 88.0591C427.185 85.8025 428.675 82.6152 428.675 78.9854H418.675C418.675 79.6393 418.524 79.87 418.144 80.1655L424.284 88.0591ZM428.675 78.9854C428.675 73.2589 423.894 69.8292 419.462 67.8061L415.309 76.9029C417.092 77.7167 418.034 78.4239 418.475 78.8886C418.842 79.2763 418.675 79.2769 418.675 78.9854H428.675ZM419.455 67.8027C418.168 67.2176 417.065 66.7384 416.167 66.3791L412.453 75.6639C413.15 75.9426 414.097 76.352 415.317 76.9063L419.455 67.8027ZM416.279 66.4258C415.471 66.0794 415.004 65.8776 414.836 65.803L410.775 74.9411C411.017 75.0488 411.553 75.28 412.34 75.6172L416.279 66.4258ZM414.836 65.803C414.618 65.7061 414.036 65.45 413.107 65.0419L409.087 74.1983C410.026 74.6106 410.583 74.8557 410.775 74.9411L414.836 65.803ZM413.242 65.1037C412.492 64.7474 411.417 64.1781 409.981 63.3607L405.034 72.0514C406.561 72.9202 407.879 73.6269 408.951 74.1365L413.242 65.1037ZM410.01 63.3774C408.816 62.6868 407.816 61.9624 406.986 61.2173L400.305 68.6577C401.708 69.9178 403.283 71.0391 405.005 72.0347L410.01 63.3774ZM406.961 61.1946C405.407 59.8184 405.057 58.7106 405.057 57.7598H395.057C395.057 62.141 397.099 65.8184 400.33 68.6804L406.961 61.1946ZM405.057 57.7598C405.057 56.2396 405.586 55.0912 407.242 53.9653L401.621 45.6948C397.444 48.5338 395.057 52.6718 395.057 57.7598H405.057ZM407.221 53.9798C408.92 52.8375 411.536 52.0273 415.506 52.0273V42.0273C410.27 42.0273 405.503 43.0857 401.642 45.6803L407.221 53.9798ZM415.506 52.0273C418.422 52.0273 420.372 52.6082 421.674 53.4077L426.906 44.8853C423.605 42.8593 419.699 42.0273 415.506 42.0273V52.0273ZM421.693 53.4191C422.403 53.8509 422.662 54.1709 422.736 54.283C422.755 54.3107 422.764 54.3284 422.767 54.3364C422.769 54.3406 422.771 54.3433 422.771 54.3446C422.771 54.3459 422.772 54.3464 422.772 54.3465C422.772 54.3466 422.772 54.347 422.772 54.3479C422.772 54.3489 422.773 54.3511 422.773 54.355C422.774 54.3622 422.776 54.3798 422.776 54.4102H432.776C432.776 50.0482 430.198 46.8864 426.887 44.8739L421.693 53.4191ZM422.776 54.4102C422.776 54.3412 422.785 54.2605 422.806 54.1776C422.826 54.0954 422.852 54.0361 422.868 54.0043C422.9 53.9437 422.866 54.042 422.609 54.2661L429.184 61.8003C431.222 60.0217 432.776 57.5347 432.776 54.4102H422.776ZM422.649 54.2313C422.105 54.6962 421.664 54.8824 421.31 54.9596L423.442 64.7298C425.594 64.2602 427.501 63.2387 429.144 61.8351L422.649 54.2313ZM425.296 55.7857L423.347 54.3843L417.508 62.5024L419.456 63.9037L425.296 55.7857ZM438.021 34.0732L434.515 30.5085L430.911 34.0535L434.496 37.6185L438.021 34.0732ZM444.242 27.9551L447.788 24.4295L444.281 20.9035L440.736 24.3903L444.242 27.9551ZM450.326 34.0732L453.891 37.5791L457.358 34.0537L453.872 30.5476L450.326 34.0732ZM444.242 40.2598L440.716 43.805L444.282 47.3506L447.807 43.7656L444.242 40.2598ZM435.185 86.1631L434.477 81.2133L430.185 81.8266V86.1631H435.185ZM436.381 85.9922L435.69 81.0402L435.682 81.0413L435.674 81.0424L436.381 85.9922ZM438.773 85.582L439.858 90.463L439.944 90.444L440.028 90.422L438.773 85.582ZM440.209 84.7617L443.958 88.0698L444 88.0228L444.04 87.9748L440.209 84.7617ZM440.277 52.0518L436.742 55.5873L436.779 55.6249L436.818 55.6617L440.277 52.0518ZM435.185 50.6504H430.185V55.231L434.748 55.6313L435.185 50.6504ZM435.185 47.7109V42.7109H430.185V47.7109H435.185ZM453.881 47.7109H458.881V42.7109H453.881V47.7109ZM453.881 50.6504L454.404 55.6229L458.881 55.1517V50.6504H453.881ZM448.993 51.8467L452.4 55.5061L452.413 55.494L452.426 55.4817L448.993 51.8467ZM450.121 85.4795L448.821 90.3076L448.844 90.3136L448.866 90.3195L450.121 85.4795ZM452.548 85.958L451.762 90.8959L451.775 90.8979L451.788 90.8999L452.548 85.958ZM453.881 86.1631H458.881V81.8735L454.641 81.2212L453.881 86.1631ZM453.881 89V94H458.881V89H453.881ZM435.185 89H430.185V94H435.185V89ZM441.528 37.638L447.748 31.5199L440.736 24.3903L434.515 30.5085L441.528 37.638ZM440.697 31.4807L446.781 37.5989L453.872 30.5476L447.788 24.4295L440.697 31.4807ZM446.761 30.5674L440.677 36.7539L447.807 43.7656L453.891 37.5791L446.761 30.5674ZM447.768 36.7145L441.547 30.528L434.496 37.6185L440.716 43.805L447.768 36.7145ZM435.892 91.1128L437.088 90.9419L435.674 81.0424L434.477 81.2133L435.892 91.1128ZM437.072 90.9442C438.119 90.7981 439.061 90.64 439.858 90.463L437.689 80.7011C437.255 80.7975 436.603 80.9128 435.69 81.0402L437.072 90.9442ZM440.028 90.422C441.385 90.0703 442.818 89.3619 443.958 88.0698L436.46 81.4536C436.916 80.9363 437.392 80.7748 437.519 80.742L440.028 90.422ZM444.04 87.9748C445.175 86.6209 445.595 85.0057 445.794 83.9191C446.017 82.6998 446.098 81.3325 446.098 79.9082H436.098C436.098 81.0132 436.03 81.7195 435.957 82.118C435.922 82.3106 435.9 82.3461 435.928 82.2753C435.95 82.2161 436.069 81.9176 436.378 81.5487L444.04 87.9748ZM446.098 79.9082V56.7344H436.098V79.9082H446.098ZM446.098 56.7344C446.098 55.3043 446.026 53.94 445.818 52.7527C445.661 51.8581 445.258 49.9 443.737 48.4418L436.818 55.6617C436.518 55.3739 436.322 55.0987 436.203 54.9035C436.083 54.7075 436.016 54.5524 435.983 54.4698C435.924 54.3189 435.935 54.2947 435.968 54.4783C436.033 54.8519 436.098 55.5668 436.098 56.7344H446.098ZM443.813 48.5162C442.527 47.2307 440.93 46.4142 439.164 46.1024L437.426 55.9503C437.344 55.9359 437.218 55.9007 437.074 55.8263C436.93 55.7517 436.818 55.6631 436.742 55.5873L443.813 48.5162ZM439.164 46.1024C438.184 45.9295 436.984 45.7891 435.621 45.6695L434.748 55.6313C435.982 55.7396 436.856 55.8498 437.426 55.9503L439.164 46.1024ZM440.185 50.6504V47.7109H430.185V50.6504H440.185ZM435.185 52.7109H453.881V42.7109H435.185V52.7109ZM448.881 47.7109V50.6504H458.881V47.7109H448.881ZM453.357 45.6779C452.008 45.82 450.841 45.9709 449.902 46.1366L451.639 55.9845C452.25 55.8768 453.157 55.7543 454.404 55.6229L453.357 45.6779ZM449.902 46.1366C448.53 46.3786 446.91 46.9371 445.56 48.2116L452.426 55.4817C451.897 55.9815 451.461 56.0159 451.639 55.9845L449.902 46.1366ZM445.586 48.1872C444.079 49.5904 443.571 51.4439 443.35 52.5363C443.091 53.811 443.002 55.2496 443.002 56.7344H453.002C453.002 55.5759 453.078 54.8783 453.15 54.5238C453.184 54.3539 453.196 54.3768 453.133 54.5181C453.076 54.6483 452.875 55.0643 452.4 55.5061L445.586 48.1872ZM443.002 56.7344V79.9082H453.002V56.7344H443.002ZM443.002 79.9082C443.002 81.3022 443.055 82.5859 443.2 83.6708C443.272 84.2121 443.382 84.8204 443.566 85.4239C443.726 85.9503 444.066 86.8952 444.821 87.7764L452.413 81.2685C452.715 81.6199 452.887 81.9362 452.976 82.1196C453.068 82.3104 453.113 82.4504 453.13 82.5059C453.161 82.6052 453.142 82.577 453.112 82.3492C453.051 81.896 453.002 81.1119 453.002 79.9082H443.002ZM444.821 87.7764C445.867 88.9968 447.229 89.879 448.821 90.3076L451.421 80.6514C451.598 80.6992 451.794 80.7807 451.985 80.9023C452.175 81.0233 452.317 81.156 452.413 81.2685L444.821 87.7764ZM448.866 90.3195C449.699 90.5355 450.683 90.7242 451.762 90.8959L453.333 81.0201C452.408 80.8728 451.773 80.7425 451.376 80.6395L448.866 90.3195ZM451.788 90.8999L453.121 91.1049L454.641 81.2212L453.308 81.0161L451.788 90.8999ZM448.881 86.1631V89H458.881V86.1631H448.881ZM453.881 84H435.185V94H453.881V84ZM440.185 89V86.1631H430.185V89H440.185ZM459.956 86.1631L458.871 81.2822L454.956 82.1522V86.1631H459.956ZM462.383 85.582L463.683 90.4101L463.743 90.3938L463.803 90.376L462.383 85.582ZM463.75 84.6934L459.767 81.6714L459.731 81.7183L459.697 81.7659L463.75 84.6934ZM464.502 51.8809H469.502V46.8809H464.502V51.8809ZM458.657 51.8809H453.657V56.8809H458.657V51.8809ZM458.657 48.7363L457.945 43.7873L453.657 44.404V48.7363H458.657ZM464.399 47.2666L467.935 50.8021L476.47 42.2666H464.399V47.2666ZM464.365 47.2666L460.333 44.3098L454.498 52.2666H464.365V47.2666ZM466.416 37.457L464.504 32.8369L461.681 34.0051L461.433 37.0502L466.416 37.457ZM471.372 35.4062H476.372V27.9261L469.46 30.7862L471.372 35.4062ZM471.372 47.7109H466.372V52.7109H471.372V47.7109ZM483.745 47.7109H488.745V42.7109H483.745V47.7109ZM483.745 51.8809V56.8809H488.745V51.8809H483.745ZM471.372 51.8809V46.8809H466.372V51.8809H471.372ZM471.816 83.5312L467.344 85.7673L467.397 85.8721L467.454 85.9743L471.816 83.5312ZM474.824 85.4111L475.719 80.4918L475.706 80.4895L475.693 80.4872L474.824 85.4111ZM481.694 85.8213H486.694V80.8893L481.763 80.8218L481.694 85.8213ZM481.694 89V94H486.694V89H481.694ZM459.956 89H454.956V94H459.956V89ZM461.041 91.044C462.095 90.8097 462.986 90.5976 463.683 90.4101L461.083 80.754C460.594 80.8855 459.868 81.0608 458.871 81.2822L461.041 91.044ZM463.803 90.376C465.19 89.9651 466.704 89.1436 467.803 87.6208L459.697 81.7659C460.204 81.0634 460.806 80.8344 460.962 80.788L463.803 90.376ZM467.733 87.7153C468.802 86.3062 469.119 84.6107 469.261 83.6416C469.436 82.4488 469.502 81.063 469.502 79.5664H459.502C459.502 80.827 459.443 81.6743 459.367 82.1904C459.329 82.4455 459.301 82.527 459.313 82.489C459.314 82.4851 459.42 82.1281 459.767 81.6714L467.733 87.7153ZM469.502 79.5664V51.8809H459.502V79.5664H469.502ZM464.502 46.8809H458.657V56.8809H464.502V46.8809ZM463.657 51.8809V48.7363H453.657V51.8809H463.657ZM459.369 53.6854C461.106 53.4356 462.618 53.1635 463.828 52.8539C464.429 52.6999 465.062 52.5102 465.657 52.2661C466.143 52.0665 467.098 51.6386 467.935 50.8021L460.864 43.7311C461.198 43.3969 461.496 43.211 461.626 43.1352C461.702 43.0907 461.761 43.0608 461.797 43.0434C461.834 43.0257 461.856 43.0165 461.86 43.0148C461.866 43.0126 461.828 43.0281 461.734 43.0577C461.643 43.0866 461.516 43.1233 461.348 43.1662C460.644 43.3464 459.536 43.5585 457.945 43.7873L459.369 53.6854ZM464.399 42.2666H464.365V52.2666H464.399V42.2666ZM468.397 50.2234C469.176 49.1621 469.607 47.9282 469.875 47.0061C470.175 45.9778 470.421 44.7879 470.633 43.4931L460.764 41.8799C460.588 42.9549 460.419 43.7133 460.274 44.2116C460.202 44.4573 460.152 44.5865 460.134 44.6291C460.108 44.6878 460.161 44.5443 460.333 44.3098L468.397 50.2234ZM470.633 43.4931C471.023 41.1049 471.291 39.194 471.399 37.8638L461.433 37.0502C461.359 37.9531 461.148 39.5286 460.764 41.8799L470.633 43.4931ZM468.328 42.0771L473.284 40.0263L469.46 30.7862L464.504 32.8369L468.328 42.0771ZM466.372 35.4062V47.7109H476.372V35.4062H466.372ZM471.372 52.7109H483.745V42.7109H471.372V52.7109ZM478.745 47.7109V51.8809H488.745V47.7109H478.745ZM483.745 46.8809H471.372V56.8809H483.745V46.8809ZM466.372 51.8809V79.4639H476.372V51.8809H466.372ZM466.372 79.4639C466.372 80.6174 466.411 81.685 466.513 82.6131C466.598 83.3911 466.776 84.6303 467.344 85.7673L476.289 81.2952C476.381 81.4806 476.434 81.6252 476.459 81.7025C476.486 81.783 476.496 81.8298 476.497 81.832C476.498 81.8357 476.492 81.8128 476.484 81.7579C476.475 81.7039 476.465 81.6279 476.454 81.5271C476.407 81.0994 476.372 80.4294 476.372 79.4639H466.372ZM467.454 85.9743C468.102 87.1317 469.05 88.2698 470.406 89.0834L475.551 80.5084C475.995 80.7751 476.169 81.0701 476.179 81.0882L467.454 85.9743ZM470.406 89.0834C471.574 89.7841 472.841 90.1383 473.955 90.3351L475.693 80.4872C475.598 80.4704 475.523 80.4543 475.467 80.4404C475.411 80.4265 475.377 80.416 475.363 80.4114C475.349 80.4066 475.359 80.4094 475.39 80.4231C475.421 80.4368 475.477 80.4637 475.551 80.5084L470.406 89.0834ZM473.93 90.3305C475.646 90.6424 478.326 90.7756 481.626 90.8208L481.763 80.8218C478.409 80.7758 476.509 80.6356 475.719 80.4918L473.93 90.3305ZM476.694 85.8213V89H486.694V85.8213H476.694ZM481.694 84H459.956V94H481.694V84ZM464.956 89V86.1631H454.956V89H464.956ZM519.283 83.9072L523.167 87.0559L526.004 83.5568L522.819 80.3717L519.283 83.9072ZM491.119 83.8389L487.341 87.1135L487.349 87.1236L491.119 83.8389ZM491.666 53.1797L487.908 49.8812L487.901 49.8901L491.666 53.1797ZM515.592 49.7617L512.58 53.7527L512.595 53.7644L512.611 53.776L515.592 49.7617ZM513.438 66.5439L516.324 70.627L516.326 70.626L513.438 66.5439ZM493.683 71.2607L493.644 66.2609L488.24 66.3028L488.701 71.6871L493.683 71.2607ZM517.335 81.959L520.87 78.4235L517.596 75.1494L514.081 78.1627L517.335 81.959ZM493.58 67.6035L488.581 67.5202L488.494 72.7045L493.678 72.6025L493.58 67.6035ZM510.055 61.8271L514.001 64.8969L514.012 64.8831L514.023 64.8693L510.055 61.8271ZM508.209 51.2656L510.223 46.689L510.215 46.6856L510.207 46.6821L508.209 51.2656ZM501.373 51.4023L503.404 55.9714L503.446 55.9527L503.487 55.9333L501.373 51.4023ZM498.604 53.3164L502.09 56.9014L502.115 56.8768L502.14 56.8519L498.604 53.3164ZM496.451 56.1533L500.787 58.6439L500.798 58.6243L500.809 58.6046L496.451 56.1533ZM494.913 59.6396L499.665 61.1955L499.665 61.1948L494.913 59.6396ZM515.399 80.7586C513.466 83.1428 510.398 84.6836 505.235 84.6836V94.6836C512.56 94.6836 518.857 92.3735 523.167 87.0559L515.399 80.7586ZM505.235 84.6836C500.403 84.6836 497.175 83.1778 494.889 80.5542L487.349 87.1236C491.854 92.2929 498.036 94.6836 505.235 94.6836V84.6836ZM494.898 80.5642C492.604 77.9176 491.231 74.2094 491.231 68.9365H481.231C481.231 76.0139 483.118 82.2406 487.341 87.1135L494.898 80.5642ZM491.231 68.9365C491.231 63.5905 492.726 59.5663 495.431 56.4693L487.901 49.8901C483.36 55.0874 481.231 61.5677 481.231 68.9365H491.231ZM495.424 56.4781C498.041 53.4961 501.268 52.0273 505.509 52.0273V42.0273C498.493 42.0273 492.491 44.6601 487.908 49.8813L495.424 56.4781ZM505.509 52.0273C509.175 52.0273 511.331 52.8104 512.58 53.7527L518.604 45.7708C515.022 43.0672 510.456 42.0273 505.509 42.0273V52.0273ZM512.611 53.776C513.582 54.4969 514.044 55.3231 514.044 56.8027H524.044C524.044 52.3123 522.205 48.4445 518.573 45.7475L512.611 53.776ZM514.044 56.8027C514.044 58.7106 513.248 60.5543 510.551 62.4619L516.326 70.626C521.103 67.2471 524.044 62.5967 524.044 56.8027H514.044ZM510.553 62.4609C507.419 64.6756 502.047 66.1958 493.644 66.2609L493.721 76.2606C502.955 76.189 510.753 74.5647 516.324 70.627L510.553 62.4609ZM488.701 71.6871C489.149 76.9278 490.613 81.6486 493.734 85.0997C496.99 88.6988 501.428 90.2402 506.329 90.2402V80.2402C503.596 80.2402 502.11 79.4518 501.15 78.391C500.057 77.1823 499.013 74.9133 498.664 70.8344L488.701 71.6871ZM506.329 90.2402C511.809 90.2402 516.813 88.9919 520.589 85.7553L514.081 78.1627C512.753 79.301 510.419 80.2402 506.329 80.2402V90.2402ZM513.799 85.4945L515.748 87.4428L522.819 80.3717L520.87 78.4235L513.799 85.4945ZM493.678 72.6025C502.234 72.4343 509.705 70.421 514.001 64.8969L506.108 58.7574C504.662 60.6161 501.15 62.4537 493.482 62.6045L493.678 72.6025ZM514.023 64.8693C515.854 62.4813 516.627 59.6602 516.627 56.7344H506.627C506.627 57.8646 506.352 58.4386 506.087 58.785L514.023 64.8693ZM516.627 56.7344C516.627 54.6909 516.182 52.6056 515.012 50.7348C513.831 48.8437 512.131 47.5289 510.223 46.689L506.195 55.8422C506.394 55.9295 506.487 55.9992 506.519 56.0251C506.545 56.0471 506.541 56.0485 506.532 56.0348C506.503 55.9869 506.627 56.1346 506.627 56.7344H516.627ZM510.207 46.6821C508.503 45.9396 506.668 45.6846 504.894 45.6846V55.6846C505.763 55.6846 506.137 55.8169 506.211 55.8491L510.207 46.6821ZM504.894 45.6846C502.963 45.6846 501.048 46.0362 499.259 46.8714L503.487 55.9333C503.749 55.8114 504.181 55.6846 504.894 55.6846V45.6846ZM499.342 46.8333C497.737 47.5467 496.308 48.5416 495.069 49.7809L502.14 56.8519C502.541 56.4506 502.958 56.1694 503.404 55.9714L499.342 46.8333ZM495.119 49.7314C493.924 50.8937 492.921 52.2306 492.093 53.702L500.809 58.6046C501.212 57.8885 501.645 57.3342 502.09 56.9014L495.119 49.7314ZM492.116 53.6627C491.319 55.0497 490.671 56.5278 490.161 58.0845L499.665 61.1948C499.976 60.245 500.353 59.3989 500.787 58.6439L492.116 53.6627ZM490.161 58.0838C489.161 61.1388 488.635 64.2901 488.581 67.5202L498.579 67.6868C498.617 65.4482 498.979 63.2902 499.665 61.1955L490.161 58.0838ZM530.144 75.0205L525.144 75.086L525.209 80.0205H530.144V75.0205ZM526.999 41.7979L522.128 42.9265L522.129 42.931L526.999 41.7979ZM525.495 36.8076L521.999 33.2332L519.634 35.546L520.838 38.6269L525.495 36.8076ZM531.75 30.6895L535.295 27.1638L531.799 23.6475L528.254 27.1151L531.75 30.6895ZM537.834 36.8076L542.517 38.5584L543.64 35.5554L541.379 33.282L537.834 36.8076ZM534.006 60.2891L538.993 60.647L538.994 60.6368L538.994 60.6266L534.006 60.2891ZM533.425 75.0205V80.0205H538.38L538.425 75.0656L533.425 75.0205ZM531.921 78.6777L535.466 75.1521L531.96 71.6262L528.415 75.1129L531.921 78.6777ZM538.005 84.7959L541.57 88.3018L545.037 84.7764L541.55 81.2703L538.005 84.7959ZM531.921 90.9824L528.395 94.5277L531.96 98.0733L535.486 94.4883L531.921 90.9824ZM525.7 84.7959L522.194 81.2311L518.59 84.7761L522.174 88.3412L525.7 84.7959ZM535.143 74.955C534.959 60.8723 533.9 49.3926 531.869 40.6647L522.129 42.931C523.926 50.6549 524.964 61.3237 525.144 75.086L535.143 74.955ZM531.87 40.6692C531.394 38.6158 530.827 36.7148 530.152 34.9884L520.838 38.6269C521.303 39.8171 521.738 41.2429 522.128 42.9265L531.87 40.6692ZM528.991 40.382L535.246 34.2638L528.254 27.1151L521.999 33.2332L528.991 40.382ZM528.205 34.2151L534.289 40.3332L541.379 33.282L535.295 27.1638L528.205 34.2151ZM533.151 35.0568C531.059 40.6527 529.752 49.093 529.017 59.9516L538.994 60.6266C539.718 49.9291 540.964 42.7152 542.517 38.5584L533.151 35.0568ZM529.019 59.9311C528.669 64.8036 528.471 69.8186 528.425 74.9755L538.425 75.0656C538.469 70.1052 538.659 65.2993 538.993 60.647L529.019 59.9311ZM533.425 70.0205H530.144V80.0205H533.425V70.0205ZM528.375 82.2034L534.459 88.3215L541.55 81.2703L535.466 75.1521L528.375 82.2034ZM534.44 81.29L528.356 87.4766L535.486 94.4883L541.57 88.3018L534.44 81.29ZM535.447 87.4372L529.226 81.2506L522.174 88.3412L528.395 94.5277L535.447 87.4372ZM529.206 88.3607L535.427 82.2425L528.415 75.1129L522.194 81.2311L529.206 88.3607Z" fill="#14343E" mask="url(#path-3-outside-2_875_863)"/>
<rect x="704" y="31" width="59" height="59" fill="#14343E"/>
<rect x="790" y="31" width="59" height="59" fill="#43A9B7"/>
<rect x="876" y="31" width="59" height="59" fill="#FF1A35"/>
<rect x="962" y="31" width="59" height="59" fill="#7EFFBC"/>
<path d="M620.195 19C620.195 19 624.801 39.0352 633.57 47.8074C642.344 56.5843 662.39 61.1949 662.39 61.1949C662.39 61.1949 642.344 65.7867 633.57 74.5572C624.792 83.3324 620.195 103.39 620.195 103.39C620.195 103.39 615.599 83.3324 606.82 74.5572C598.047 65.7867 578 61.1949 578 61.1949C578 61.1949 598.047 56.5843 606.82 47.8074C615.589 39.0352 620.195 19 620.195 19Z" fill="#FFFFC5"/>
</svg>
