<svg width="643" height="66" viewBox="0 0 643 66" fill="none" xmlns="http://www.w3.org/2000/svg">
    <path
        d="M480.226 33L486 38.7735L491.774 33L486 27.2265L480.226 33ZM642.773 33L637 27.2265L631.227 33L637 38.7735L642.773 33ZM486 34L637 34L637 32L486 32L486 34Z"
        fill="#2C4F89" />
    <path
        d="M178.226 33L184 38.7735L189.774 33L184 27.2265L178.226 33ZM340.773 33L335 27.2265L329.227 33L335 38.7735L340.773 33ZM184 34L335 34L335 32L184 32L184 34Z"
        fill="#2C4F89" />
    <path
        d="M27.2265 33L33 38.7735L38.7735 33L33 27.2265L27.2265 33ZM189.773 33L184 27.2265L178.227 33L184 38.7735L189.773 33ZM33 34H184V32H33V34Z"
        fill="#2C4F89" />
    <path
        d="M329.226 33L335 38.7735L340.774 33L335 27.2265L329.226 33ZM491.773 33L486 27.2265L480.227 33L486 38.7735L491.773 33ZM335 34H486V32H335V34Z"
        fill="#2C4F89" />
    <path
        d="M32.5684 65.1357C32.5684 65.1357 29.0132 49.6717 22.245 42.9009C15.4733 36.1266 0.00054465 32.5679 0.00054465 32.5679C0.00054465 32.5679 15.473 29.0238 22.245 22.2543C29.0207 15.4813 32.5684 0.000112737 32.5684 0.000112737C32.5684 0.000112737 36.116 15.4813 42.8917 22.2543C49.6637 29.0238 65.1362 32.5679 65.1362 32.5679C65.1362 32.5679 49.6634 36.1266 42.8917 42.9009C36.1235 49.6717 32.5684 65.1357 32.5684 65.1357Z"
        fill="#2C4F89" />
</svg>