<svg width="616" height="66" viewBox="0 0 616 66" fill="none" xmlns="http://www.w3.org/2000/svg">
    <path
        d="M453.226 33L459 38.7735L464.774 33L459 27.2265L453.226 33ZM615.773 33L610 27.2265L604.227 33L610 38.7735L615.773 33ZM459 34L610 34L610 32L459 32L459 34Z"
        fill="#2C4F89" />
    <path
        d="M151.226 33L157 38.7735L162.774 33L157 27.2265L151.226 33ZM313.773 33L308 27.2265L302.227 33L308 38.7735L313.773 33ZM157 34L308 34L308 32L157 32L157 34Z"
        fill="#2C4F89" />
    <path
        d="M0.226497 33L6 38.7735L11.7735 33L6 27.2265L0.226497 33ZM162.773 33L157 27.2265L151.227 33L157 38.7735L162.773 33ZM6 34H157V32H6V34Z"
        fill="#2C4F89" />
    <path
        d="M302.226 33L308 38.7735L313.774 33L308 27.2265L302.226 33ZM464.773 33L459 27.2265L453.227 33L459 38.7735L464.773 33ZM308 34H459V32H308V34Z"
        fill="#2C4F89" />
    <path
        d="M307.568 65.1357C307.568 65.1357 304.013 49.6717 297.245 42.9009C290.473 36.1266 275.001 32.5679 275.001 32.5679C275.001 32.5679 290.473 29.0238 297.245 22.2543C304.021 15.4813 307.568 0.000112737 307.568 0.000112737C307.568 0.000112737 311.116 15.4813 317.892 22.2543C324.664 29.0238 340.136 32.5679 340.136 32.5679C340.136 32.5679 324.663 36.1266 317.892 42.9009C311.123 49.6717 307.568 65.1357 307.568 65.1357Z"
        fill="#2C4F89" />
</svg>