<svg width="616" height="66" viewBox="0 0 616 66" fill="none" xmlns="http://www.w3.org/2000/svg">
    <path
        d="M453.226 32.9199L459 38.6934L464.774 32.9199L459 27.1464L453.226 32.9199ZM615.773 32.9199L610 27.1464L604.227 32.9199L610 38.6934L615.773 32.9199ZM459 33.9199L610 33.9199L610 31.9199L459 31.9199L459 33.9199Z"
        fill="#2C4F89" />
    <path
        d="M151.226 32.9199L157 38.6934L162.774 32.9199L157 27.1464L151.226 32.9199ZM313.773 32.9199L308 27.1464L302.227 32.9199L308 38.6934L313.773 32.9199ZM157 33.9199L308 33.9199L308 31.9199L157 31.9199L157 33.9199Z"
        fill="#2C4F89" />
    <path
        d="M0.226497 32.9199L6 38.6934L11.7735 32.9199L6 27.1464L0.226497 32.9199ZM162.773 32.9199L157 27.1464L151.227 32.9199L157 38.6934L162.773 32.9199ZM6 33.9199H157V31.9199H6V33.9199Z"
        fill="#2C4F89" />
    <path
        d="M302.226 32.9199L308 38.6934L313.774 32.9199L308 27.1464L302.226 32.9199ZM464.773 32.9199L459 27.1464L453.227 32.9199L459 38.6934L464.773 32.9199ZM308 33.9199H459V31.9199H308V33.9199Z"
        fill="#2C4F89" />
    <path
        d="M458.568 65.1348C458.568 65.1348 455.013 49.6707 448.245 42.8999C441.473 36.1256 426.001 32.567 426.001 32.567C426.001 32.567 441.473 29.0228 448.245 22.2533C455.021 15.4803 458.568 -0.000863825 458.568 -0.000863825C458.568 -0.000863825 462.116 15.4803 468.892 22.2533C475.664 29.0228 491.136 32.567 491.136 32.567C491.136 32.567 475.663 36.1256 468.892 42.8999C462.123 49.6707 458.568 65.1348 458.568 65.1348Z"
        fill="#2C4F89" />
</svg>