<svg width="643" height="66" viewBox="0 0 643 66" fill="none" xmlns="http://www.w3.org/2000/svg">
    <path
        d="M453.226 32.9727L459 38.7462L464.774 32.9727L459 27.1992L453.226 32.9727ZM615.773 32.9727L610 27.1992L604.227 32.9727L610 38.7462L615.773 32.9727ZM459 33.9727L610 33.9727L610 31.9727L459 31.9727L459 33.9727Z"
        fill="#2C4F89" />
    <path
        d="M151.226 32.9727L157 38.7462L162.774 32.9727L157 27.1992L151.226 32.9727ZM313.773 32.9727L308 27.1992L302.227 32.9727L308 38.7462L313.773 32.9727ZM157 33.9727L308 33.9727L308 31.9727L157 31.9727L157 33.9727Z"
        fill="#2C4F89" />
    <path
        d="M0.226497 32.9727L6 38.7462L11.7735 32.9727L6 27.1992L0.226497 32.9727ZM162.773 32.9727L157 27.1992L151.227 32.9727L157 38.7462L162.773 32.9727ZM6 33.9727H157V31.9727H6V33.9727Z"
        fill="#2C4F89" />
    <path
        d="M302.226 32.9727L308 38.7462L313.774 32.9727L308 27.1992L302.226 32.9727ZM464.773 32.9727L459 27.1992L453.227 32.9727L459 38.7462L464.773 32.9727ZM308 33.9727H459V31.9727H308V33.9727Z"
        fill="#2C4F89" />
    <path
        d="M609.568 65.1348C609.568 65.1348 606.013 49.6707 599.245 42.8999C592.473 36.1256 577.001 32.567 577.001 32.567C577.001 32.567 592.473 29.0228 599.245 22.2533C606.021 15.4803 609.568 -0.000863825 609.568 -0.000863825C609.568 -0.000863825 613.116 15.4803 619.892 22.2533C626.664 29.0228 642.136 32.567 642.136 32.567C642.136 32.567 626.663 36.1256 619.892 42.8999C613.123 49.6707 609.568 65.1348 609.568 65.1348Z"
        fill="#2C4F89" />
</svg>    