<svg width="159" height="241" viewBox="0 0 159 241" fill="none" xmlns="http://www.w3.org/2000/svg">
    <path
        d="M117.912 235.471L114.244 196.963L113.882 193.158L116.736 195.701L130.582 208.041L131.33 208.707L131.002 209.653L130.524 211.029L131.253 209.768L131.754 208.902L132.746 209.031L151.137 211.442L154.928 211.939L151.811 214.152L120.274 236.552L118.159 238.054L117.912 235.471Z"
        fill="#FED851" stroke="#2C4F89" stroke-width="3" />
    <path
        d="M17.1479 26.3021L28.1052 31.7736L33.5767 20.8163L22.6194 15.3448L17.1479 26.3021ZM63.0179 119.708L63.1477 118.214L63.0179 119.708ZM60.8223 83.0993L59.9049 81.9126L60.8223 83.0993ZM132.099 205.291C131.707 206.021 131.981 206.93 132.711 207.321C133.441 207.713 134.351 207.439 134.742 206.709L132.099 205.291ZM28.799 24.0604C29.5951 23.8311 30.0545 22.9998 29.8251 22.2038C29.5958 21.4077 28.7645 20.9483 27.9685 21.1777L28.799 24.0604ZM34.0908 19.7064C33.277 19.8619 32.7435 20.6476 32.8989 21.4613C33.0544 22.275 33.8401 22.8086 34.6538 22.6531L34.0908 19.7064ZM40.6002 21.8356C41.4259 21.768 42.0404 21.0439 41.9729 20.2182C41.9053 19.3925 41.1811 18.778 40.3555 18.8456L40.6002 21.8356ZM46.7088 18.7108C45.8811 18.6761 45.182 19.319 45.1473 20.1467C45.1126 20.9744 45.7555 21.6735 46.5832 21.7082L46.7088 18.7108ZM52.51 22.3636C53.3249 22.5125 54.1062 21.9725 54.2552 21.1576C54.4041 20.3427 53.8641 19.5613 53.0492 19.4124L52.51 22.3636ZM59.2343 21.0247C58.4508 20.7559 57.5976 21.1731 57.3287 21.9567C57.0598 22.7403 57.4771 23.5935 58.2607 23.8623L59.2343 21.0247ZM63.7088 26.2136C64.442 26.5993 65.349 26.3177 65.7347 25.5845C66.1204 24.8514 65.8388 23.9443 65.1056 23.5586L63.7088 26.2136ZM70.5213 26.9532C69.854 26.4623 68.9151 26.6052 68.4242 27.2725C67.9332 27.9398 68.0762 28.8788 68.7435 29.3697L70.5213 26.9532ZM73.2831 33.2353C73.8753 33.8146 74.825 33.8041 75.4043 33.2119C75.9836 32.6197 75.9732 31.67 75.381 31.0907L73.2831 33.2353ZM79.6324 35.8243C79.1184 35.1746 78.175 35.0647 77.5253 35.5787C76.8757 36.0927 76.7657 37.0361 77.2797 37.6857L79.6324 35.8243ZM80.7258 42.6023C81.1627 43.3062 82.0874 43.5226 82.7913 43.0857C83.4952 42.6489 83.7116 41.7241 83.2747 41.0202L80.7258 42.6023ZM86.3297 46.5656C85.9669 45.8209 85.069 45.5112 84.3243 45.874C83.5795 46.2368 83.2698 47.1347 83.6326 47.8794L86.3297 46.5656ZM86.0194 53.4284C86.3117 54.2035 87.177 54.595 87.9521 54.3028C88.7273 54.0106 89.1188 53.1453 88.8266 52.3701L86.0194 53.4284ZM90.7934 58.3625C90.5687 57.5652 89.7401 57.1009 88.9428 57.3256C88.1454 57.5504 87.6812 58.3789 87.9059 59.1763L90.7934 58.3625ZM89.3086 65.0682C89.4678 65.8812 90.2559 66.4113 91.0689 66.2521C91.8819 66.093 92.4119 65.3049 92.2528 64.4919L89.3086 65.0682ZM93.2162 70.7177C93.1221 69.8946 92.3785 69.3037 91.5555 69.3978C90.7324 69.4919 90.1415 70.2355 90.2356 71.0585L93.2162 70.7177ZM90.6836 77.1022C90.7116 77.9301 91.4054 78.5787 92.2334 78.5507C93.0614 78.5227 93.7099 77.8289 93.6819 77.0009L90.6836 77.1022ZM93.6337 83.3026C93.6751 82.4752 93.0379 81.7709 92.2105 81.7296C91.3831 81.6882 90.6788 82.3255 90.6375 83.1529L93.6337 83.3026ZM90.0679 89.1562C89.9516 89.9764 90.5222 90.7356 91.3425 90.8519C92.1627 90.9683 92.9219 90.3976 93.0382 89.5774L90.0679 89.1562ZM91.8294 95.8104C92.0302 95.0067 91.5414 94.1924 90.7377 93.9916C89.934 93.7908 89.1196 94.2796 88.9189 95.0833L91.8294 95.8104ZM87.1218 100.801C86.8234 101.574 87.208 102.443 87.9808 102.741C88.7537 103.039 89.622 102.655 89.9204 101.882L87.1218 100.801ZM87.1864 107.654C87.5996 106.936 87.3524 106.019 86.6344 105.606C85.9163 105.193 84.9993 105.44 84.5861 106.158L87.1864 107.654ZM81.1802 110.959C80.6334 111.582 80.6947 112.529 81.317 113.076C81.9394 113.623 82.8872 113.562 83.4339 112.939L81.1802 110.959ZM78.564 117.285C79.2482 116.818 79.4242 115.885 78.9571 115.2C78.49 114.516 77.5567 114.34 76.8725 114.807L78.564 117.285ZM71.7359 117.329C70.9471 117.582 70.513 118.427 70.7663 119.216C71.0196 120.004 71.8643 120.438 72.6531 120.185L71.7359 117.329ZM66.192 121.292C67.02 121.264 67.6679 120.569 67.6392 119.741C67.6105 118.913 66.916 118.265 66.0881 118.294L66.192 121.292ZM61.4501 117.227C60.7823 116.737 59.8435 116.881 59.3533 117.549C58.863 118.217 59.0068 119.155 59.6746 119.646L61.4501 117.227ZM55.3661 115.546C55.9016 116.178 56.8481 116.257 57.4802 115.721C58.1123 115.186 58.1907 114.239 57.6552 113.607L55.3661 115.546ZM54.662 109.257C54.2665 108.529 53.3558 108.259 52.6279 108.655C51.9 109.05 51.6305 109.961 52.026 110.689L54.662 109.257ZM49.8343 105.144C50.0355 105.948 50.8501 106.436 51.6537 106.235C52.4574 106.034 52.9457 105.219 52.7445 104.415L49.8343 105.144ZM52.2665 99.3267C52.3217 98.5001 51.6963 97.7853 50.8697 97.7301C50.0432 97.675 49.3284 98.3003 49.2732 99.1269L52.2665 99.3267ZM50.6507 93.2387C50.3371 94.0055 50.7044 94.8813 51.4711 95.195C52.2379 95.5087 53.1137 95.1414 53.4274 94.3746L50.6507 93.2387ZM56.0339 89.893C56.5361 89.2342 56.4092 88.2929 55.7504 87.7907C55.0915 87.2884 54.1503 87.4154 53.6481 88.0742L56.0339 89.893ZM57.6623 83.7757C57.0452 84.3284 56.993 85.2767 57.5457 85.8938C58.0984 86.511 59.0467 86.5632 59.6638 86.0105L57.6623 83.7757ZM64.1008 82.6963C64.8154 82.2773 65.055 81.3582 64.6359 80.6436C64.2168 79.929 63.2978 79.6894 62.5832 80.1085L64.1008 82.6963ZM68.3986 77.4908C67.6135 77.7554 67.1917 78.6063 67.4563 79.3913C67.7209 80.1763 68.5718 80.5982 69.3568 80.3336L68.3986 77.4908ZM75.0582 78.9186C75.875 78.7798 76.4246 78.0053 76.2859 77.1885C76.1471 76.3718 75.3726 75.8222 74.5558 75.9609L75.0582 78.9186ZM80.7799 75.3117C79.9522 75.3477 79.3105 76.0479 79.3465 76.8755C79.3825 77.7032 80.0826 78.3449 80.9103 78.3089L80.7799 75.3117ZM86.85 78.3735C87.6768 78.4254 88.3892 77.7972 88.4411 76.9704C88.493 76.1436 87.8648 75.4313 87.038 75.3794L86.85 78.3735ZM93.2412 76.0687C92.423 75.939 91.6546 76.4972 91.5249 77.3154C91.3953 78.1336 91.9535 78.902 92.7717 79.0317L93.2412 76.0687ZM98.604 80.2217C99.4078 80.4223 100.222 79.9333 100.423 79.1295C100.623 78.3257 100.134 77.5115 99.3303 77.311L98.604 80.2217ZM105.294 79.0689C104.51 78.8017 103.657 79.2208 103.39 80.0049C103.123 80.7891 103.542 81.6414 104.326 81.9086L105.294 79.0689ZM109.893 84.0664C110.653 84.3974 111.537 84.0501 111.868 83.2907C112.199 82.5313 111.852 81.6473 111.092 81.3163L109.893 84.0664ZM116.686 84.0358C115.957 83.643 115.047 83.9157 114.654 84.6451C114.262 85.3744 114.534 86.2841 115.264 86.677L116.686 84.0358ZM120.394 89.7267C121.088 90.1798 122.017 89.985 122.471 89.2915C122.924 88.598 122.729 87.6685 122.035 87.2153L120.394 89.7267ZM127.09 90.8398C126.439 90.3281 125.496 90.4414 124.984 91.0928C124.472 91.7443 124.585 92.6873 125.237 93.199L127.09 90.8398ZM129.75 97.0824C130.353 97.6506 131.302 97.6224 131.87 97.0196C132.438 96.4167 132.41 95.4674 131.807 94.8992L129.75 97.0824ZM136.137 99.375C135.59 98.7534 134.642 98.6934 134.02 99.2411C133.399 99.7888 133.339 100.737 133.886 101.358L136.137 99.375ZM137.601 106C138.087 106.671 139.025 106.821 139.696 106.335C140.367 105.848 140.516 104.911 140.03 104.24L137.601 106ZM143.44 109.456C143.021 108.742 142.102 108.503 141.387 108.922C140.673 109.341 140.434 110.26 140.853 110.975L143.44 109.456ZM143.61 116.239C143.958 116.991 144.85 117.317 145.602 116.969C146.353 116.62 146.68 115.728 146.331 114.977L143.61 116.239ZM148.68 120.746C148.404 119.965 147.548 119.555 146.766 119.831C145.985 120.107 145.575 120.964 145.851 121.745L148.68 120.746ZM147.57 127.441C147.773 128.244 148.589 128.73 149.392 128.527C150.195 128.324 150.682 127.509 150.479 126.705L147.57 127.441ZM151.736 132.798C151.603 131.98 150.833 131.424 150.016 131.556C149.198 131.688 148.642 132.458 148.774 133.276L151.736 132.798ZM149.48 139.207C149.545 140.033 150.267 140.65 151.092 140.585C151.918 140.521 152.536 139.799 152.471 138.973L149.48 139.207ZM152.715 145.193C152.714 144.365 152.041 143.694 151.213 143.695C150.385 143.697 149.714 144.369 149.715 145.198L152.715 145.193ZM149.512 151.171C149.455 151.997 150.079 152.713 150.906 152.77C151.732 152.827 152.448 152.203 152.505 151.376L149.512 151.171ZM151.885 157.5C151.995 156.679 151.417 155.925 150.596 155.816C149.775 155.706 149.021 156.283 148.911 157.105L151.885 157.5ZM147.945 163.023C147.788 163.836 148.32 164.623 149.133 164.78C149.947 164.937 150.733 164.405 150.89 163.591L147.945 163.023ZM149.548 169.656C149.748 168.853 149.259 168.039 148.455 167.838C147.651 167.638 146.837 168.127 146.637 168.931L149.548 169.656ZM145.047 174.707C144.808 175.501 145.258 176.337 146.051 176.576C146.844 176.815 147.681 176.365 147.92 175.572L145.047 174.707ZM146.022 181.404C146.295 180.622 145.883 179.766 145.101 179.493C144.319 179.219 143.463 179.632 143.19 180.414L146.022 181.404ZM141.059 186.132C140.754 186.902 141.131 187.774 141.902 188.079C142.672 188.383 143.544 188.006 143.848 187.236L141.059 186.132ZM141.512 192.838C141.844 192.08 141.499 191.195 140.74 190.862C139.981 190.53 139.097 190.876 138.764 191.634L141.512 192.838ZM136.233 197.152C135.875 197.899 136.191 198.794 136.938 199.152C137.685 199.51 138.581 199.195 138.939 198.448L136.233 197.152ZM136.21 203.924C136.59 203.188 136.302 202.283 135.567 201.903C134.831 201.522 133.926 201.81 133.545 202.545L136.21 203.924ZM25.8374 24.982C26.8372 24.6482 27.8244 24.3412 28.799 24.0604L27.9685 21.1777C26.9528 21.4703 25.9257 21.7897 24.8872 22.1365L25.8374 24.982ZM34.6538 22.6531C36.6968 22.2627 38.6788 21.9929 40.6002 21.8356L40.3555 18.8456C38.3231 19.012 36.2348 19.2967 34.0908 19.7064L34.6538 22.6531ZM46.5832 21.7082C48.6355 21.7942 50.6107 22.0165 52.51 22.3636L53.0492 19.4124C51.0106 19.0399 48.8971 18.8025 46.7088 18.7108L46.5832 21.7082ZM58.2607 23.8623C60.1627 24.515 61.9784 25.3033 63.7088 26.2136L65.1056 23.5586C63.241 22.5777 61.2839 21.728 59.2343 21.0247L58.2607 23.8623ZM68.7435 29.3697C70.3441 30.5472 71.8572 31.8405 73.2831 33.2353L75.381 31.0907C73.8592 29.6021 72.2396 28.2173 70.5213 26.9532L68.7435 29.3697ZM77.2797 37.6857C78.5131 39.2445 79.6617 40.888 80.7258 42.6023L83.2747 41.0202C82.1536 39.214 80.9399 37.4768 79.6324 35.8243L77.2797 37.6857ZM83.6326 47.8794C84.5097 49.6799 85.3053 51.534 86.0194 53.4284L88.8266 52.3701C88.081 50.3924 87.249 48.4528 86.3297 46.5656L83.6326 47.8794ZM87.9059 59.1763C88.4535 61.1194 88.921 63.0878 89.3086 65.0682L92.2528 64.4919C91.8498 62.4332 91.3635 60.3855 90.7934 58.3625L87.9059 59.1763ZM90.2356 71.0585C90.4668 73.0802 90.616 75.0994 90.6836 77.1022L93.6819 77.0009C93.6115 74.9176 93.4564 72.8185 93.2162 70.7177L90.2356 71.0585ZM90.6375 83.1529C90.5355 85.1942 90.3453 87.2006 90.0679 89.1562L93.0382 89.5774C93.3288 87.5285 93.5274 85.4314 93.6337 83.3026L90.6375 83.1529ZM88.9189 95.0833C88.4205 97.0784 87.8207 98.9909 87.1218 100.801L89.9204 101.882C90.6672 99.9476 91.3033 97.9165 91.8294 95.8104L88.9189 95.0833ZM84.5861 106.158C83.5691 107.925 82.4324 109.534 81.1802 110.959L83.4339 112.939C84.8302 111.35 86.0803 109.576 87.1864 107.654L84.5861 106.158ZM76.8725 114.807C75.2919 115.886 73.58 116.737 71.7359 117.329L72.6531 120.185C74.7822 119.501 76.7537 118.521 78.564 117.285L76.8725 114.807ZM66.0881 118.294C65.1387 118.327 64.1587 118.301 63.1477 118.214L62.8881 121.202C64.016 121.3 65.1174 121.329 66.192 121.292L66.0881 118.294ZM63.1477 118.214C63.1873 118.217 63.0486 118.202 62.6848 118.015C62.356 117.846 61.9375 117.585 61.4501 117.227L59.6746 119.646C60.2521 120.07 60.8068 120.423 61.3123 120.683C61.7827 120.925 62.3394 121.155 62.8881 121.202L63.1477 118.214ZM57.6552 113.607C56.5847 112.343 55.5422 110.877 54.662 109.257L52.026 110.689C53.0158 112.511 54.1797 114.146 55.3661 115.546L57.6552 113.607ZM52.7445 104.415C52.3364 102.786 52.1495 101.08 52.2665 99.3267L49.2732 99.1269C49.1332 101.225 49.3586 103.244 49.8343 105.144L52.7445 104.415ZM53.4274 94.3746C54.026 92.9114 54.8759 91.412 56.0339 89.893L53.6481 88.0742C52.3408 89.7891 51.3554 91.5163 50.6507 93.2387L53.4274 94.3746ZM59.6638 86.0105C60.3052 85.4361 60.9962 84.8609 61.7398 84.2861L59.9049 81.9126C59.1068 82.5296 58.36 83.1509 57.6623 83.7757L59.6638 86.0105ZM61.7398 84.2861C62.4741 83.7183 63.2623 83.1881 64.1008 82.6963L62.5832 80.1085C61.6406 80.6613 60.7458 81.2625 59.9049 81.9126L61.7398 84.2861ZM69.3568 80.3336C71.1366 79.7337 73.0447 79.2606 75.0582 78.9186L74.5558 75.9609C72.4016 76.3269 70.3399 76.8364 68.3986 77.4908L69.3568 80.3336ZM80.9103 78.3089C82.8349 78.2252 84.8205 78.2461 86.85 78.3735L87.038 75.3794C84.9072 75.2456 82.8153 75.2232 80.7799 75.3117L80.9103 78.3089ZM92.7717 79.0317C94.6984 79.337 96.6469 79.7334 98.604 80.2217L99.3303 77.311C97.2895 76.8017 95.2553 76.3878 93.2412 76.0687L92.7717 79.0317ZM104.326 81.9086C106.191 82.5439 108.05 83.2629 109.893 84.0664L111.092 81.3163C109.172 80.4795 107.236 79.7306 105.294 79.0689L104.326 81.9086ZM115.264 86.677C117.003 87.6142 118.717 88.6305 120.394 89.7267L122.035 87.2153C120.286 86.0719 118.499 85.0124 116.686 84.0358L115.264 86.677ZM125.237 93.199C126.788 94.4176 128.296 95.7119 129.75 97.0824L131.807 94.8992C130.286 93.4656 128.71 92.1127 127.09 90.8398L125.237 93.199ZM133.886 101.358C135.186 102.833 136.427 104.38 137.601 106L140.03 104.24C138.799 102.541 137.499 100.92 136.137 99.375L133.886 101.358ZM140.853 110.975C141.843 112.662 142.765 114.416 143.61 116.239L146.331 114.977C145.445 113.066 144.479 111.226 143.44 109.456L140.853 110.975ZM145.851 121.745C146.5 123.582 147.075 125.48 147.57 127.441L150.479 126.705C149.961 124.657 149.359 122.67 148.68 120.746L145.851 121.745ZM148.774 133.276C149.085 135.199 149.322 137.176 149.48 139.207L152.471 138.973C152.306 136.861 152.059 134.803 151.736 132.798L148.774 133.276ZM149.715 145.198C149.718 147.143 149.652 149.134 149.512 151.171L152.505 151.376C152.649 149.271 152.718 147.21 152.715 145.193L149.715 145.198ZM148.911 157.105C148.654 159.039 148.333 161.012 147.945 163.023L150.89 163.591C151.289 161.524 151.62 159.494 151.885 157.5L148.911 157.105ZM146.637 168.931C146.165 170.825 145.636 172.75 145.047 174.707L147.92 175.572C148.522 173.569 149.064 171.598 149.548 169.656L146.637 168.931ZM143.19 180.414C142.534 182.292 141.824 184.198 141.059 186.132L143.848 187.236C144.628 185.265 145.352 183.321 146.022 181.404L143.19 180.414ZM138.764 191.634C137.969 193.45 137.125 195.289 136.233 197.152L138.939 198.448C139.845 196.555 140.702 194.686 141.512 192.838L138.764 191.634ZM133.545 202.545C133.074 203.455 132.592 204.37 132.099 205.291L134.742 206.709C135.243 205.775 135.732 204.847 136.21 203.924L133.545 202.545Z"
        fill="#2C4F89" />
    <path
        d="M10.5904 5.12587C11.0994 5.53357 11.6438 5.9612 12.2198 6.39306C15.3382 8.73104 19.5155 11.404 23.4669 12.3594L23.8486 12.447C27.9131 13.3169 33.0161 12.5666 36.9428 11.681C37.6446 11.5227 38.3159 11.3554 38.9469 11.1918C38.5394 11.6999 38.1119 12.2434 37.6803 12.8183C35.2643 16.0366 32.4902 20.3833 31.6204 24.4469L31.5443 24.831C30.7981 28.8305 31.5314 33.7389 32.392 37.5433C32.5506 38.2444 32.7186 38.9151 32.8825 39.5456C32.3743 39.1381 31.8309 38.7105 31.256 38.279C28.1363 35.9377 23.9571 33.2611 20.0023 32.3063L19.6205 32.2187C15.5566 31.3505 10.4555 32.1042 6.53061 32.9926C5.8295 33.1513 5.15867 33.3192 4.52829 33.4832C4.93569 32.9743 5.36285 32.4302 5.79433 31.8545C8.20849 28.6335 10.9802 24.2836 11.8487 20.2188L11.9249 19.8346C12.6692 15.8381 11.9384 10.9329 11.0803 7.13106C10.9218 6.42879 10.7542 5.75715 10.5904 5.12587Z"
        fill="#FED851" stroke="#2C4F89" stroke-width="3" />
</svg>    