<svg width="153" height="235" viewBox="0 0 153 235" fill="none" xmlns="http://www.w3.org/2000/svg">
    <path
        d="M17.1479 25.6986L28.1052 31.1701L33.5767 20.2128L22.6194 14.7413L17.1479 25.6986ZM63.0179 119.105L63.1477 117.61L63.0179 119.105ZM60.8223 82.4958L59.9049 81.3091L60.8223 82.4958ZM132.099 204.687C131.707 205.417 131.981 206.326 132.711 206.718C133.441 207.11 134.351 206.835 134.742 206.105L132.099 204.687ZM28.799 23.4569C29.5951 23.2275 30.0545 22.3963 29.8251 21.6002C29.5958 20.8042 28.7645 20.3448 27.9685 20.5742L28.799 23.4569ZM34.0908 19.1029C33.277 19.2584 32.7435 20.0441 32.8989 20.8578C33.0544 21.6715 33.8401 22.2051 34.6538 22.0496L34.0908 19.1029ZM40.6002 21.2321C41.4259 21.1645 42.0404 20.4404 41.9729 19.6147C41.9053 18.789 41.1811 18.1745 40.3555 18.2421L40.6002 21.2321ZM46.7088 18.1073C45.8811 18.0726 45.182 18.7155 45.1473 19.5432C45.1126 20.3709 45.7555 21.07 46.5832 21.1047L46.7088 18.1073ZM52.51 21.76C53.3249 21.9089 54.1062 21.369 54.2552 20.5541C54.4041 19.7392 53.8641 18.9578 53.0492 18.8089L52.51 21.76ZM59.2343 20.4212C58.4508 20.1524 57.5976 20.5696 57.3287 21.3532C57.0598 22.1368 57.4771 22.9899 58.2607 23.2588L59.2343 20.4212ZM63.7088 25.6101C64.442 25.9958 65.349 25.7142 65.7347 24.981C66.1204 24.2478 65.8388 23.3408 65.1056 22.9551L63.7088 25.6101ZM70.5213 26.3497C69.854 25.8587 68.9151 26.0017 68.4242 26.669C67.9332 27.3363 68.0762 28.2752 68.7435 28.7662L70.5213 26.3497ZM73.2831 32.6318C73.8753 33.2111 74.825 33.2006 75.4043 32.6084C75.9836 32.0162 75.9732 31.0665 75.381 30.4872L73.2831 32.6318ZM79.6324 35.2208C79.1184 34.5711 78.175 34.4611 77.5253 34.9752C76.8757 35.4892 76.7657 36.4325 77.2797 37.0822L79.6324 35.2208ZM80.7258 41.9988C81.1627 42.7027 82.0874 42.9191 82.7913 42.4822C83.4952 42.0453 83.7116 41.1206 83.2747 40.4167L80.7258 41.9988ZM86.3297 45.9621C85.9669 45.2174 85.069 44.9077 84.3243 45.2705C83.5795 45.6333 83.2698 46.5312 83.6326 47.2759L86.3297 45.9621ZM86.0194 52.8249C86.3117 53.6 87.177 53.9915 87.9521 53.6993C88.7273 53.4071 89.1188 52.5418 88.8266 51.7666L86.0194 52.8249ZM90.7934 57.759C90.5687 56.9616 89.7401 56.4974 88.9428 56.7221C88.1454 56.9468 87.6812 57.7754 87.9059 58.5728L90.7934 57.759ZM89.3086 64.4647C89.4678 65.2777 90.2559 65.8078 91.0689 65.6486C91.8819 65.4895 92.4119 64.7014 92.2528 63.8884L89.3086 64.4647ZM93.2162 70.1141C93.1221 69.2911 92.3785 68.7002 91.5555 68.7943C90.7324 68.8884 90.1415 69.6319 90.2356 70.455L93.2162 70.1141ZM90.6836 76.4987C90.7116 77.3266 91.4054 77.9751 92.2334 77.9472C93.0614 77.9192 93.7099 77.2253 93.6819 76.3974L90.6836 76.4987ZM93.6337 82.6991C93.6751 81.8717 93.0379 81.1674 92.2105 81.1261C91.3831 81.0847 90.6788 81.722 90.6375 82.5493L93.6337 82.6991ZM90.0679 88.5527C89.9516 89.3729 90.5222 90.1321 91.3425 90.2484C92.1627 90.3647 92.9219 89.7941 93.0382 88.9739L90.0679 88.5527ZM91.8294 95.2069C92.0302 94.4032 91.5414 93.5889 90.7377 93.3881C89.934 93.1873 89.1196 93.6761 88.9189 94.4798L91.8294 95.2069ZM87.1218 100.198C86.8234 100.971 87.208 101.839 87.9808 102.137C88.7537 102.436 89.622 102.051 89.9204 101.278L87.1218 100.198ZM87.1864 107.051C87.5996 106.333 87.3524 105.416 86.6344 105.002C85.9163 104.589 84.9993 104.836 84.5861 105.555L87.1864 107.051ZM81.1802 110.356C80.6334 110.978 80.6947 111.926 81.317 112.473C81.9394 113.019 82.8872 112.958 83.4339 112.336L81.1802 110.356ZM78.564 116.681C79.2482 116.214 79.4242 115.281 78.9571 114.597C78.49 113.913 77.5567 113.737 76.8725 114.204L78.564 116.681ZM71.7359 116.725C70.9471 116.979 70.513 117.823 70.7663 118.612C71.0196 119.401 71.8643 119.835 72.6531 119.582L71.7359 116.725ZM66.192 120.689C67.02 120.66 67.6679 119.966 67.6392 119.138C67.6105 118.31 66.916 117.662 66.0881 117.691L66.192 120.689ZM61.4501 116.624C60.7823 116.134 59.8435 116.278 59.3533 116.945C58.863 117.613 59.0068 118.552 59.6746 119.042L61.4501 116.624ZM55.3661 114.943C55.9016 115.575 56.8481 115.653 57.4802 115.118C58.1123 114.582 58.1907 113.636 57.6552 113.003L55.3661 114.943ZM54.662 108.653C54.2665 107.925 53.3558 107.656 52.6279 108.051C51.9 108.447 51.6305 109.357 52.026 110.085L54.662 108.653ZM49.8343 104.54C50.0355 105.344 50.8501 105.832 51.6537 105.631C52.4574 105.43 52.9457 104.615 52.7445 103.812L49.8343 104.54ZM52.2665 98.7232C52.3217 97.8966 51.6963 97.1818 50.8697 97.1266C50.0432 97.0714 49.3284 97.6968 49.2732 98.5234L52.2665 98.7232ZM50.6507 92.6352C50.3371 93.402 50.7044 94.2778 51.4711 94.5915C52.2379 94.9051 53.1137 94.5378 53.4274 93.7711L50.6507 92.6352ZM56.0339 89.2895C56.5361 88.6306 56.4092 87.6894 55.7504 87.1872C55.0915 86.6849 54.1503 86.8119 53.6481 87.4707L56.0339 89.2895ZM57.6623 83.1722C57.0452 83.7249 56.993 84.6732 57.5457 85.2903C58.0984 85.9074 59.0467 85.9597 59.6638 85.407L57.6623 83.1722ZM64.1008 82.0928C64.8154 81.6738 65.055 80.7547 64.6359 80.0401C64.2168 79.3255 63.2978 79.0859 62.5832 79.505L64.1008 82.0928ZM68.3986 76.8872C67.6135 77.1518 67.1917 78.0028 67.4563 78.7878C67.7209 79.5728 68.5718 79.9947 69.3568 79.7301L68.3986 76.8872ZM75.0582 78.315C75.875 78.1763 76.4246 77.4018 76.2859 76.585C76.1471 75.7683 75.3726 75.2187 74.5558 75.3574L75.0582 78.315ZM80.7799 74.7082C79.9522 74.7442 79.3105 75.4443 79.3465 76.272C79.3825 77.0996 80.0826 77.7414 80.9103 77.7054L80.7799 74.7082ZM86.85 77.77C87.6768 77.8219 88.3892 77.1937 88.4411 76.3669C88.493 75.5401 87.8648 74.8278 87.038 74.7759L86.85 77.77ZM93.2412 75.4651C92.423 75.3355 91.6546 75.8937 91.5249 76.7119C91.3953 77.5301 91.9535 78.2985 92.7717 78.4282L93.2412 75.4651ZM98.604 79.6182C99.4078 79.8188 100.222 79.3298 100.423 78.526C100.623 77.7222 100.134 76.908 99.3303 76.7074L98.604 79.6182ZM105.294 78.4654C104.51 78.1982 103.657 78.6172 103.39 79.4014C103.123 80.1855 103.542 81.0378 104.326 81.305L105.294 78.4654ZM109.893 83.4629C110.653 83.7939 111.537 83.4466 111.868 82.6872C112.199 81.9278 111.852 81.0438 111.092 80.7128L109.893 83.4629ZM116.686 83.4323C115.957 83.0395 115.047 83.3122 114.654 84.0415C114.262 84.7709 114.534 85.6806 115.264 86.0735L116.686 83.4323ZM120.394 89.1231C121.088 89.5763 122.017 89.3815 122.471 88.688C122.924 87.9945 122.729 87.0649 122.035 86.6118L120.394 89.1231ZM127.09 90.2363C126.439 89.7246 125.496 89.8379 124.984 90.4893C124.472 91.1408 124.585 92.0837 125.237 92.5955L127.09 90.2363ZM129.75 96.4789C130.353 97.0471 131.302 97.0189 131.87 96.4161C132.438 95.8132 132.41 94.8638 131.807 94.2957L129.75 96.4789ZM136.137 98.7715C135.59 98.1499 134.642 98.0899 134.02 98.6376C133.399 99.1852 133.339 100.133 133.886 100.755L136.137 98.7715ZM137.601 105.397C138.087 106.068 139.025 106.217 139.696 105.731C140.367 105.245 140.516 104.307 140.03 103.636L137.601 105.397ZM143.44 108.853C143.021 108.138 142.102 107.899 141.387 108.318C140.673 108.738 140.434 109.657 140.853 110.371L143.44 108.853ZM143.61 115.636C143.958 116.387 144.85 116.714 145.602 116.365C146.353 116.017 146.68 115.125 146.331 114.373L143.61 115.636ZM148.68 120.143C148.404 119.361 147.548 118.952 146.766 119.228C145.985 119.503 145.575 120.36 145.851 121.141L148.68 120.143ZM147.57 126.837C147.773 127.64 148.589 128.127 149.392 127.924C150.195 127.721 150.682 126.905 150.479 126.102L147.57 126.837ZM151.736 132.194C151.603 131.376 150.833 130.82 150.016 130.952C149.198 131.084 148.642 131.855 148.774 132.672L151.736 132.194ZM149.48 138.603C149.545 139.429 150.267 140.046 151.092 139.982C151.918 139.917 152.536 139.195 152.471 138.37L149.48 138.603ZM152.715 144.59C152.714 143.761 152.041 143.091 151.213 143.092C150.385 143.093 149.714 143.766 149.715 144.594L152.715 144.59ZM149.512 150.567C149.455 151.394 150.079 152.11 150.906 152.167C151.732 152.223 152.448 151.599 152.505 150.773L149.512 150.567ZM151.885 156.897C151.995 156.076 151.417 155.321 150.596 155.212C149.775 155.103 149.021 155.68 148.911 156.501L151.885 156.897ZM147.945 162.419C147.788 163.232 148.32 164.019 149.133 164.176C149.947 164.333 150.733 163.801 150.89 162.988L147.945 162.419ZM149.548 169.053C149.748 168.249 149.259 167.435 148.455 167.235C147.651 167.035 146.837 167.524 146.637 168.328L149.548 169.053ZM145.047 174.104C144.808 174.897 145.258 175.734 146.051 175.972C146.844 176.211 147.681 175.762 147.92 174.968L145.047 174.104ZM146.022 180.8C146.295 180.018 145.883 179.163 145.101 178.889C144.319 178.616 143.463 179.028 143.19 179.81L146.022 180.8ZM141.059 185.528C140.754 186.299 141.131 187.17 141.902 187.475C142.672 187.78 143.544 187.403 143.848 186.632L141.059 185.528ZM141.512 192.235C141.844 191.476 141.499 190.591 140.74 190.259C139.981 189.926 139.097 190.272 138.764 191.031L141.512 192.235ZM136.233 196.548C135.875 197.295 136.191 198.191 136.938 198.549C137.685 198.907 138.581 198.591 138.939 197.844L136.233 196.548ZM136.21 203.321C136.59 202.585 136.302 201.68 135.567 201.299C134.831 200.918 133.926 201.206 133.545 201.942L136.21 203.321ZM25.8374 24.3785C26.8372 24.0447 27.8244 23.7377 28.799 23.4569L27.9685 20.5742C26.9528 20.8668 25.9257 21.1862 24.8872 21.5329L25.8374 24.3785ZM34.6538 22.0496C36.6968 21.6592 38.6788 21.3894 40.6002 21.2321L40.3555 18.2421C38.3231 18.4085 36.2348 18.6932 34.0908 19.1029L34.6538 22.0496ZM46.5832 21.1047C48.6355 21.1907 50.6107 21.413 52.51 21.76L53.0492 18.8089C51.0106 18.4364 48.8971 18.199 46.7088 18.1073L46.5832 21.1047ZM58.2607 23.2588C60.1627 23.9115 61.9784 24.6997 63.7088 25.6101L65.1056 22.9551C63.241 21.9741 61.2839 21.1245 59.2343 20.4212L58.2607 23.2588ZM68.7435 28.7662C70.3441 29.9437 71.8572 31.2369 73.2831 32.6318L75.381 30.4872C73.8592 28.9986 72.2396 27.6138 70.5213 26.3497L68.7435 28.7662ZM77.2797 37.0822C78.5131 38.641 79.6617 40.2845 80.7258 41.9988L83.2747 40.4167C82.1536 38.6105 80.9399 36.8733 79.6324 35.2208L77.2797 37.0822ZM83.6326 47.2759C84.5097 49.0764 85.3053 50.9305 86.0194 52.8249L88.8266 51.7666C88.081 49.7889 87.249 47.8493 86.3297 45.9621L83.6326 47.2759ZM87.9059 58.5728C88.4535 60.5158 88.921 62.4843 89.3086 64.4647L92.2528 63.8884C91.8498 61.8297 91.3635 59.782 90.7934 57.759L87.9059 58.5728ZM90.2356 70.455C90.4668 72.4767 90.616 74.4959 90.6836 76.4987L93.6819 76.3974C93.6115 74.3141 93.4564 72.215 93.2162 70.1141L90.2356 70.455ZM90.6375 82.5493C90.5355 84.5907 90.3453 86.5971 90.0679 88.5527L93.0382 88.9739C93.3288 86.925 93.5274 84.8279 93.6337 82.6991L90.6375 82.5493ZM88.9189 94.4798C88.4205 96.4749 87.8207 98.3873 87.1218 100.198L89.9204 101.278C90.6672 99.3441 91.3033 97.3129 91.8294 95.2069L88.9189 94.4798ZM84.5861 105.555C83.5691 107.322 82.4324 108.93 81.1802 110.356L83.4339 112.336C84.8302 110.746 86.0803 108.973 87.1864 107.051L84.5861 105.555ZM76.8725 114.204C75.2919 115.283 73.58 116.133 71.7359 116.725L72.6531 119.582C74.7822 118.898 76.7537 117.917 78.564 116.681L76.8725 114.204ZM66.0881 117.691C65.1387 117.723 64.1587 117.698 63.1477 117.61L62.8881 120.599C64.016 120.697 65.1174 120.726 66.192 120.689L66.0881 117.691ZM63.1477 117.61C63.1873 117.614 63.0486 117.599 62.6848 117.412C62.356 117.242 61.9375 116.982 61.4501 116.624L59.6746 119.042C60.2521 119.466 60.8068 119.819 61.3123 120.079C61.7827 120.321 62.3394 120.551 62.8881 120.599L63.1477 117.61ZM57.6552 113.003C56.5847 111.74 55.5422 110.273 54.662 108.653L52.026 110.085C53.0158 111.907 54.1797 113.542 55.3661 114.943L57.6552 113.003ZM52.7445 103.812C52.3364 102.182 52.1495 100.477 52.2665 98.7232L49.2732 98.5234C49.1332 100.621 49.3586 102.641 49.8343 104.54L52.7445 103.812ZM53.4274 93.7711C54.026 92.3078 54.8759 90.8085 56.0339 89.2895L53.6481 87.4707C52.3408 89.1856 51.3554 90.9128 50.6507 92.6352L53.4274 93.7711ZM59.6638 85.407C60.3052 84.8325 60.9962 84.2574 61.7398 83.6825L59.9049 81.3091C59.1068 81.9261 58.36 82.5473 57.6623 83.1722L59.6638 85.407ZM61.7398 83.6825C62.4741 83.1148 63.2623 82.5845 64.1008 82.0928L62.5832 79.505C61.6406 80.0577 60.7458 80.659 59.9049 81.3091L61.7398 83.6825ZM69.3568 79.7301C71.1366 79.1302 73.0447 78.6571 75.0582 78.315L74.5558 75.3574C72.4016 75.7233 70.3399 76.2329 68.3986 76.8872L69.3568 79.7301ZM80.9103 77.7054C82.8349 77.6216 84.8205 77.6426 86.85 77.77L87.038 74.7759C84.9072 74.6421 82.8153 74.6197 80.7799 74.7082L80.9103 77.7054ZM92.7717 78.4282C94.6984 78.7335 96.6469 79.1298 98.604 79.6182L99.3303 76.7074C97.2895 76.1982 95.2553 75.7843 93.2412 75.4651L92.7717 78.4282ZM104.326 81.305C106.191 81.9403 108.05 82.6594 109.893 83.4629L111.092 80.7128C109.172 79.876 107.236 79.1271 105.294 78.4654L104.326 81.305ZM115.264 86.0735C117.003 87.0107 118.717 88.027 120.394 89.1231L122.035 86.6118C120.286 85.4684 118.499 84.4089 116.686 83.4323L115.264 86.0735ZM125.237 92.5955C126.788 93.8141 128.296 95.1084 129.75 96.4789L131.807 94.2957C130.286 92.8621 128.71 91.5092 127.09 90.2363L125.237 92.5955ZM133.886 100.755C135.186 102.23 136.427 103.777 137.601 105.397L140.03 103.636C138.799 101.938 137.499 100.316 136.137 98.7715L133.886 100.755ZM140.853 110.371C141.843 112.058 142.765 113.813 143.61 115.636L146.331 114.373C145.445 112.462 144.479 110.622 143.44 108.853L140.853 110.371ZM145.851 121.141C146.5 122.979 147.075 124.877 147.57 126.837L150.479 126.102C149.961 124.053 149.359 122.067 148.68 120.143L145.851 121.141ZM148.774 132.672C149.085 134.595 149.322 136.572 149.48 138.603L152.471 138.37C152.306 136.258 152.059 134.199 151.736 132.194L148.774 132.672ZM149.715 144.594C149.718 146.54 149.652 148.531 149.512 150.567L152.505 150.773C152.649 148.667 152.718 146.607 152.715 144.59L149.715 144.594ZM148.911 156.501C148.654 158.435 148.333 160.408 147.945 162.419L150.89 162.988C151.289 160.921 151.62 158.89 151.885 156.897L148.911 156.501ZM146.637 168.328C146.165 170.221 145.636 172.146 145.047 174.104L147.92 174.968C148.522 172.966 149.064 170.994 149.548 169.053L146.637 168.328ZM143.19 179.81C142.534 181.689 141.824 183.595 141.059 185.528L143.848 186.632C144.628 184.661 145.352 182.717 146.022 180.8L143.19 179.81ZM138.764 191.031C137.969 192.846 137.125 194.686 136.233 196.548L138.939 197.844C139.845 195.952 140.702 194.082 141.512 192.235L138.764 191.031ZM133.545 201.942C133.074 202.852 132.592 203.767 132.099 204.687L134.742 206.105C135.243 205.172 135.732 204.244 136.21 203.321L133.545 201.942Z"
        fill="#2C4F89" />
    <path
        d="M7.66016 0C7.66016 0 16.718 8.78484 24.1624 10.3783C31.6107 11.9726 43.4766 7.65916 43.4766 7.65916C43.4766 7.65916 34.6814 16.7133 33.0877 24.1591C31.4931 31.6089 35.8174 43.4756 35.8174 43.4756C35.8174 43.4756 26.7572 34.6761 19.3068 33.0844C11.8604 31.4935 0.000999507 35.8164 0.000999507 35.8164C0.000999507 35.8164 8.79013 26.7525 10.3816 19.3035C11.9721 11.8585 7.66016 0 7.66016 0Z"
        fill="#2C4F89" />
    <path
        d="M119.405 234.727L115.737 196.219L129.585 208.559L123.948 224.798L132.552 209.917L150.942 212.328L119.405 234.727Z"
        fill="#2C4F89" />
</svg>