<svg width="66" height="66" viewBox="0 0 66 66" fill="none" xmlns="http://www.w3.org/2000/svg">
    <path
        d="M32.3881 62.4769C31.9465 60.9123 31.2875 58.7547 30.4146 56.3836C28.7307 51.8095 26.2268 46.3663 22.9209 42.8782L22.5984 42.546C19.1305 39.077 13.4799 36.4635 8.75599 34.7237C6.38375 33.8499 4.2254 33.1894 2.65995 32.7473C2.42878 32.6821 2.20953 32.625 2.00533 32.5692C2.20954 32.5136 2.42806 32.454 2.65926 32.389C4.22466 31.9484 6.38311 31.2897 8.7553 30.4182C13.4793 28.6825 19.1309 26.0737 22.5991 22.6069L22.9209 22.2754C26.2305 18.7858 28.7343 13.3376 30.4173 8.75888C31.2898 6.38551 31.9478 4.22568 32.3888 2.6594C32.4538 2.42858 32.5128 2.21009 32.5684 2.00615C32.6239 2.21009 32.6829 2.42858 32.7479 2.6594C33.1889 4.22568 33.847 6.38551 34.7194 8.75888C36.4024 13.3376 38.9062 18.7858 42.2158 22.2754L42.5376 22.6069C46.0058 26.0737 51.6574 28.6825 56.3814 30.4182C58.7536 31.2897 60.9121 31.9484 62.4775 32.389C62.7087 32.454 62.9272 32.5136 63.1314 32.5692C62.9272 32.625 62.7079 32.6821 62.4768 32.7473C60.9113 33.1894 58.753 33.8499 56.3807 34.7237C51.6568 36.4635 46.0062 39.077 42.5383 42.546L42.2158 42.8782C38.9099 46.3663 36.4061 51.8095 34.7221 56.3836C33.8492 58.7547 33.1902 60.9123 32.7486 62.4769C32.6831 62.709 32.6243 62.9287 32.5684 63.1336C32.5124 62.9287 32.4536 62.709 32.3881 62.4769Z"
        fill="#2C4F89" stroke="#2C4F89" />
</svg>    